<svg xmlns="http://www.w3.org/2000/svg" width="237" height="52" viewBox="0 0 237 52"><g fill="none" fill-rule="evenodd"><path fill="#FFF" fill-rule="nonzero" d="M169.58 33.9999993 162.68 33.9999993C161.947728 34.0054446 161.355445 34.5977284 161.35 35.33L161.35 41.27 162.48 41.27 162.48 38.15 169.78 38.15 169.78 41.22 170.92 41.22 170.92 35.28C170.887885 34.5634695 170.29725 33.9992806 169.58 33.9999993ZM169.78 35.33 169.78 37 162.48 37 162.48 35.08 169.78 35.08 169.78 35.33ZM181.29 39.88 181.29 40.08 174 40.08 174 34 172.869962 34 172.869962 39.93C172.867335 40.2844674 173.006282 40.6253328 173.255995 40.8769232 173.505708 41.1285135 173.845523 41.27 174.2 41.27L181.1 41.27C181.836153 41.2645062 182.43 40.6661738 182.43 39.93L182.43 34 181.3 34 181.29 39.88ZM191 34 184.36 34 184.36 41.27 191 41.27C192.619811 41.2644904 193.93 39.9498199 193.93 38.33L193.93 36.93C193.93 35.3118057 192.618194 34 191 34ZM192.8 38.4C192.8 38.8605624 192.616368 39.302117 192.289764 39.6268439 191.96316 39.9515708 191.520555 40.1326622 191.06 40.1300289L185.49 40.1300289 185.49 35.13 191.06 35.13C192.020975 35.13 192.8 35.9090245 192.8 36.87L192.8 38.4Z"/><rect width="1.13" height="7.27" x="195.87" y="33.95" fill="#FFF" fill-rule="nonzero"/><path fill="#FFF" fill-rule="nonzero" d="M207.17 34 200.27 34C199.537728 34.0054446 198.945445 34.5977284 198.94 35.33L198.94 39.93C198.94 40.6661738 199.533847 41.2645062 200.27 41.27L207.17 41.27C207.524477 41.27 207.864292 41.1285135 208.114005 40.8769232 208.363718 40.6253328 208.502665 40.2844674 208.500038 39.93L208.500038 35.33C208.500038 34.5954613 207.904539 34 207.17 34ZM207.37 35.33 207.37 40.13 200.07 40.13 200.07 35.13 207.37 35.13 207.37 35.33ZM226.2 5.14C226.942314 5.14691607 227.671105 5.33942677 228.32 5.7 229.001649 6.05973229 229.561776 6.61290089 229.93 7.29 230.309589 7.94660386 230.509626 8.69156985 230.51 9.45 230.508168 10.2037745 230.311837 10.9443197 229.94 11.6 229.570705 12.2694555 229.019455 12.8207045 228.35 13.19 227.021032 13.9502 225.388968 13.9502 224.06 13.19 223.385177 12.8244674 222.829756 12.272518 222.46 11.6 222.088163 10.9443197 221.891832 10.2037745 221.89 9.45 221.890374 8.69156985 222.090411 7.94660386 222.47 7.29 222.838224 6.61290089 223.398351 6.05973229 224.08 5.7 224.728895 5.33942677 225.457686 5.14691607 226.2 5.14ZM226.2 5.85C225.580053 5.85672273 224.971616 6.01828497 224.43 6.32 223.863339 6.62337306 223.397609 7.08562773 223.09 7.65 222.442455 8.75906619 222.442455 10.1309338 223.09 11.24 223.399445 11.7995801 223.86042 12.2605546 224.42 12.57 225.527656 13.2095054 226.892344 13.2095054 228 12.57 228.55958 12.2605546 229.020555 11.7995801 229.33 11.24 229.643037 10.6952677 229.808489 10.0782698 229.81 9.45 229.803533 8.81793496 229.634808 8.19812789 229.32 7.65 229.017757 7.08843264 228.55927 6.6264725 228 6.32 227.44949 6.0134123 226.830123 5.85168859 226.2 5.85ZM224.31 11.85 224.31 7.2 225.91 7.2C226.307034 7.1838445 226.704347 7.22424922 227.09 7.32 227.563469 7.49657326 227.880771 7.94476153 227.89 8.45 227.894051 8.78487589 227.760262 9.10669226 227.52 9.34 227.254753 9.60588537 226.895553 9.75674924 226.52 9.76 226.696187 9.80240806 226.860361 9.88449522 227 10 227.257588 10.2825594 227.485452 10.590846 227.68 10.92L228.25 11.83 227.33 11.83 226.92 11.09C226.714647 10.6801829 226.436839 10.3109017 226.1 10 225.922046 9.88434793 225.711911 9.82831202 225.5 9.84L225.06 9.84 225.06 11.84 224.31 11.85ZM225.06 9.23 226 9.23C226.309259 9.26171277 226.620652 9.19523568 226.89 9.04 227.039648 8.91337933 227.124159 8.72598472 227.12 8.53 227.12509 8.39791704 227.086421 8.26784978 227.01 8.16 226.929125 8.04807889 226.818164 7.96139119 226.69 7.91 226.445779 7.84397038 226.192654 7.81697036 225.94 7.83L225.09 7.83 225.06 9.23ZM183.54 13.18 183.54 9.18 183.54 9.18C183.523593 6.83572263 181.624309 4.94089742 179.28 4.93L156.8 4.93C154.469063 4.95727138 152.590759 6.84892851 152.58 9.18L152.58 12.18 152.58 12.18 152.58 12.3 156.85 12.3 156.85 9.23 179.27 9.23 179.27 14.81 157.27 14.81 157.27 19.19 179.27 19.19 179.27 24.78 156.85 24.78 156.85 22.09 152.58 22.09 152.58 24.87 152.58 24.87C152.590947 27.2126607 154.487339 29.1090528 156.83 29.12L179.31 29.12C181.640348 29.0875038 183.518496 27.2004756 183.54 24.87L183.54 21.82 183.54 21.82 183.54 20.59C183.54 21.1 183.54 21.12 183.46 20.28 183.33 17.47 180.63 17.4 179.64 17.46L179.64 16.8C181.670479 16.7583719 183.347491 15.2017607 183.54 13.18M80 18.87 80 41.05 53.54 41.05 53.54 18.87 48.12 18.87 48.12 41.17 48.12 41.17C48.1417831 44.1432681 50.5467319 46.5482169 53.52 46.57L85.43 46.57 85.43 18.91 80 18.87ZM142.79 41.05 117.17 41.05 117.17 24.52 142.79 24.52 142.79 41.05ZM148.21 24.4 148.21 24.4C148.200615 21.3967225 145.811893 18.9416478 142.81 18.85L117.12 18.85C114.129887 18.9574212 111.758814 21.4079712 111.75 24.4L111.75 41.17 111.75 41.17C111.771783 44.1432681 114.176732 46.5482169 117.15 46.57L142.85 46.57C145.809888 46.5318837 148.193891 44.1300896 148.21 41.17L148.21 24.4 148.21 24.4ZM107.59 18.87 96.59 18.87C93.5998872 18.9774212 91.2288145 21.4279712 91.22 24.42L91.22 46.57 96.64 46.57 96.64 24.57 107.64 24.57 107.59 18.87ZM217.62 12.41C217.620095 8.41433531 214.39557 5.1674805 210.4 5.14L186.4 5.14 186.4 29.05 210.4 29.05 210.4 29.05C214.395665 29.05 217.64252 25.8255702 217.67 21.83L217.67 12.41 217.62 12.41ZM213.75 20.23C213.733767 22.8498646 211.619773 24.9727595 209 25L209 25 190 25 190 9.23 209 9.23C211.616482 9.25736513 213.724669 11.3833801 213.73 14L213.73 14 213.75 20.23ZM44.57 24.4C44.5606149 21.3967225 42.1718935 18.9416478 39.17 18.85L13.48 18.85C10.4921481 18.9624931 8.12395816 21.4100637 8.11 24.4L8.11 46.57 13.54 46.57 13.54 36.39 39.16 36.39 39.16 46.26 44.58 46.26 44.58 24.4 44.57 24.4ZM13.57 31.4 13.57 24.52 39.16 24.52 39.16 31.41 13.57 31.4Z"/><rect width="237" height="52"/></g></svg>