<svg id="Layer_1" data-name="Layer 1" xmlns="http://www.w3.org/2000/svg" viewBox="0 0 228 49.75"><defs><style>.cls-1{fill:#fff;}</style></defs><path class="cls-1" d="M164.58,33h-6.9a1.34,1.34,0,0,0-1.33,1.33v5.94h1.13V37.15h7.3v3.07h1.14V34.28A1.34,1.34,0,0,0,164.58,33Zm.2,1.33V36h-7.3V34.08h7.3Z"/><path class="cls-1" d="M176.29,38.88v.2H169V33h-1.13v5.93a1.33,1.33,0,0,0,1.33,1.34h6.9a1.34,1.34,0,0,0,1.33-1.34V33h-1.13Z"/><path class="cls-1" d="M186,33h-6.64v7.27H186a2.94,2.94,0,0,0,2.93-2.94v-1.4A2.93,2.93,0,0,0,186,33Zm1.8,4.4a1.73,1.73,0,0,1-1.74,1.73h-5.57v-5h5.57a1.74,1.74,0,0,1,1.74,1.74Z"/><rect class="cls-1" x="190.87" y="32.95" width="1.13" height="7.27"/><path class="cls-1" d="M202.17,33h-6.9a1.34,1.34,0,0,0-1.33,1.33v4.6a1.34,1.34,0,0,0,1.33,1.34h6.9a1.33,1.33,0,0,0,1.33-1.34v-4.6A1.33,1.33,0,0,0,202.17,33Zm.2,1.33v4.8h-7.3v-5h7.3Z"/><path class="cls-1" d="M221.2,4.14a4.45,4.45,0,0,1,2.12.56,3.91,3.91,0,0,1,1.61,1.59,4.32,4.32,0,0,1,.58,2.16,4.38,4.38,0,0,1-.57,2.15,4.05,4.05,0,0,1-1.59,1.59,4.32,4.32,0,0,1-4.29,0,4,4,0,0,1-1.6-1.59,4.38,4.38,0,0,1-.57-2.15,4.32,4.32,0,0,1,.58-2.16,3.91,3.91,0,0,1,1.61-1.59A4.45,4.45,0,0,1,221.2,4.14Zm0,.71a3.72,3.72,0,0,0-1.77.47,3.3,3.3,0,0,0-1.34,1.33,3.56,3.56,0,0,0,0,3.59,3.4,3.4,0,0,0,1.33,1.33,3.58,3.58,0,0,0,3.58,0,3.4,3.4,0,0,0,1.33-1.33,3.61,3.61,0,0,0,.48-1.79,3.69,3.69,0,0,0-.49-1.8A3.3,3.3,0,0,0,223,5.32,3.72,3.72,0,0,0,221.2,4.85Zm-1.89,6V6.2h1.6a4.19,4.19,0,0,1,1.18.12,1.23,1.23,0,0,1,.8,1.13,1.22,1.22,0,0,1-.37.89,1.43,1.43,0,0,1-1,.42A1.19,1.19,0,0,1,222,9a5.58,5.58,0,0,1,.68.92l.57.91h-.92l-.41-.74A3.8,3.8,0,0,0,221.1,9a1,1,0,0,0-.6-.16h-.44v2Zm.75-2.62H221a1.48,1.48,0,0,0,.89-.19.65.65,0,0,0,.23-.51.6.6,0,0,0-.11-.37.73.73,0,0,0-.32-.25,2.4,2.4,0,0,0-.75-.08h-.85Z"/><path class="cls-1" d="M178.54,12.18v-4h0a4.28,4.28,0,0,0-4.26-4.25H151.8a4.27,4.27,0,0,0-4.22,4.25v3h0v.12h4.27V8.23h22.42v5.58h-22v4.38h22v5.59H151.85V21.09h-4.27v2.78h0a4.27,4.27,0,0,0,4.25,4.25h22.48a4.29,4.29,0,0,0,4.23-4.25V20.82h0V19.59c0,.51,0,.53-.08-.31-.13-2.81-2.83-2.88-3.82-2.82V15.8a4,4,0,0,0,3.9-3.62"/><path class="cls-1" d="M75,17.87V40.05H48.54V17.87H43.12v22.3h0a5.44,5.44,0,0,0,5.4,5.4l31.91,0,0-27.66Z"/><path class="cls-1" d="M137.79,40.05H112.17V23.52h25.62V40.05Zm5.42-16.65h0a5.57,5.57,0,0,0-5.4-5.55H112.12a5.57,5.57,0,0,0-5.37,5.55V40.17h0a5.44,5.44,0,0,0,5.4,5.4h25.7a5.43,5.43,0,0,0,5.36-5.4V23.4Z"/><path class="cls-1" d="M102.59,17.87h-11a5.57,5.57,0,0,0-5.37,5.55V45.57h5.42v-22h11Z"/><path class="cls-1" d="M212.62,11.41a7.27,7.27,0,0,0-7.22-7.27h-24V28.05h24v0a7.27,7.27,0,0,0,7.27-7.22V11.41Zm-3.87,7.82A4.8,4.8,0,0,1,204,24v0H185V8.23H204A4.78,4.78,0,0,1,208.73,13h0Z"/><path class="cls-1" d="M39.57,23.4a5.57,5.57,0,0,0-5.4-5.55H8.48A5.58,5.58,0,0,0,3.11,23.4V45.57H8.54V35.39H34.16v9.87h5.42V23.4Zm-31,7V23.52H34.16v6.89Z"/></svg>