<svg id="Logo" xmlns="http://www.w3.org/2000/svg" viewBox="0 0 997 363.5"><defs><style>.cls-1{fill:none;}.cls-2{fill:#fff;}</style></defs><g id="Dolby_Atmos" data-name="Dolby Atmos"><rect id="Bounding_Box" data-name="Bounding Box" class="cls-1" x="-112" y="-122.95" width="1224.66" height="609.54"/><g id="Dolby"><rect class="cls-2" x="667.39" y="0.04" width="28.84" height="190.44"/><path class="cls-2" d="M582.82,58.59a65.92,65.92,0,1,0,65.91,65.93h0A66,66,0,0,0,582.82,58.59Zm0,105.42a39.75,39.75,0,1,1,39.74-39.76v0A39.76,39.76,0,0,1,582.82,164Z"/><path class="cls-2" d="M280.84,190.24h-28a95,95,0,0,1,0-190h28Z"/><path class="cls-2" d="M10.57,0h28a95,95,0,0,1,0,190h-28Z"/><path class="cls-2" d="M787.05,58.6a65.51,65.51,0,0,0-37.69,11.89V0h-28.9V190.47h28.9V178.55a65.9,65.9,0,1,0,37.69-120Zm0,105.42a39.75,39.75,0,1,1,39.74-39.76h0A39.74,39.74,0,0,1,787.05,164Z"/><path class="cls-2" d="M407.15,0H338.44V190.24h68.71A95.12,95.12,0,1,0,407.15,0Zm0,161.4H367.28V28.84h39.87a66.28,66.28,0,0,1,0,132.56Z"/><path class="cls-2" d="M958.62,58.64l-37.57,84.47L883.49,58.64H852L905.3,178.49l-1.07,2.32-.38.83-11.54,26.07-.08.21a15.41,15.41,0,0,1-20.31,7.8l-4.13-1.84L859.73,232l-3.59,8h0l10,4.45a37.37,37.37,0,0,0,49.25-18.93L990.12,58.64Z"/></g><g id="Atmos"><path class="cls-2" d="M265.43,363.5H252l37.58-86.67h11l37.21,86.67h-13.7l-8.82-21.3H274.13Zm13-31.95h32.44l-16.16-40.64Z"/><path class="cls-2" d="M392.56,363.5H380.44v-76H352.65V276.83h67.7v10.65H392.56Z"/><path class="cls-2" d="M498.39,343.42h.25l25.58-66.59h18.85V363.5H530.92V291h-.24l-28.76,72.5h-7.71L465.58,291h-.24v72.5H453.58V276.83h18.86Z"/><path class="cls-2" d="M664.35,320.05A45.14,45.14,0,0,1,661,337.57a41.56,41.56,0,0,1-9.11,13.73,41,41,0,0,1-13.85,9,49,49,0,0,1-34.86,0,40.38,40.38,0,0,1-22.87-22.69,49,49,0,0,1,0-35.15,39.46,39.46,0,0,1,9.08-13.62A41.36,41.36,0,0,1,603.18,280,50,50,0,0,1,638,280a41.29,41.29,0,0,1,13.88,8.8,40.19,40.19,0,0,1,9.14,13.62A45.51,45.51,0,0,1,664.35,320.05Zm-12.46,0a36.72,36.72,0,0,0-2.21-12.75,32.43,32.43,0,0,0-6.29-10.53,29.38,29.38,0,0,0-9.83-7.16,33.2,33.2,0,0,0-25.84,0,29,29,0,0,0-9.78,7.16,33.1,33.1,0,0,0-6.22,10.53,36.48,36.48,0,0,0-2.21,12.75A37.09,37.09,0,0,0,591.72,333,31.42,31.42,0,0,0,598,343.53a29.18,29.18,0,0,0,9.78,7,30.78,30.78,0,0,0,12.8,2.57,31.69,31.69,0,0,0,12.92-2.57,28.63,28.63,0,0,0,9.89-7A31.28,31.28,0,0,0,649.68,333a37.58,37.58,0,0,0,2.24-12.95Z"/><path class="cls-2" d="M738.31,294.22a18.39,18.39,0,0,0-6.63-5.53,20.44,20.44,0,0,0-9.43-2.15,22.4,22.4,0,0,0-5.64.75,15.62,15.62,0,0,0-5.18,2.45,13.53,13.53,0,0,0-3.78,4.19,11.76,11.76,0,0,0-1.45,6,11,11,0,0,0,1.33,5.64,12.15,12.15,0,0,0,3.61,3.84,22.41,22.41,0,0,0,5.36,2.68c2,.74,4.24,1.49,6.57,2.27q4.18,1.27,8.49,2.91a31.1,31.1,0,0,1,7.8,4.3,21.46,21.46,0,0,1,5.7,6.69,21,21,0,0,1,2.21,10.19,24.43,24.43,0,0,1-2.35,11.1,22.77,22.77,0,0,1-6.35,7.8,26.81,26.81,0,0,1-9.13,4.59,37.65,37.65,0,0,1-10.65,1.51,39,39,0,0,1-15.07-3,29.89,29.89,0,0,1-12-9l9-7.57a22.22,22.22,0,0,0,24.2,8.86,16.37,16.37,0,0,0,5.3-2.56,14,14,0,0,0,3.9-4.37,12.51,12.51,0,0,0,1.51-6.34,11.5,11.5,0,0,0-1.57-6.22,13.9,13.9,0,0,0-4.25-4.25,28.38,28.38,0,0,0-6.23-3c-2.36-.81-4.87-1.64-7.5-2.5a63.08,63.08,0,0,1-7.79-2.85,26.67,26.67,0,0,1-6.87-4.31,19.61,19.61,0,0,1-4.89-6.46,21.53,21.53,0,0,1-1.86-9.53,21.28,21.28,0,0,1,2.5-10.6,22.69,22.69,0,0,1,6.52-7.33,27.42,27.42,0,0,1,9.07-4.25A39.86,39.86,0,0,1,723,276.84a35.24,35.24,0,0,1,13.49,2.56,26.66,26.66,0,0,1,10.12,6.86Z"/></g></g></svg>