<svg id="Logo" xmlns="http://www.w3.org/2000/svg" viewBox="0 0 1990.31 246.56"><defs><style>.cls-1{fill:none;}.cls-2{fill:#fff;}</style></defs><rect id="Bounding_Box" data-name="Bounding Box" class="cls-1" x="-4.57" y="-122.45" width="1994.88" height="491.57"/><g id="Dolby_Atmos" data-name="Dolby Atmos"><g id="Dolby"><rect class="cls-2" x="776.42" y="0.13" width="28.69" height="189.48"/><path class="cls-2" d="M692.27,58.4A65.59,65.59,0,1,0,757.85,124,65.66,65.66,0,0,0,692.27,58.4Zm0,104.89a39.55,39.55,0,1,1,39.54-39.54A39.56,39.56,0,0,1,692.27,163.29Z"/><path class="cls-2" d="M391.8,189.39H363.87a94.64,94.64,0,0,1,0-189.28H391.8Z"/><path class="cls-2" d="M122.56.11h27.92a94.64,94.64,0,1,1,0,189.28H122.56Z"/><path class="cls-2" d="M895.48,58.41A65.19,65.19,0,0,0,858,70.23V.13H829.22V189.62H858V177.76a65.57,65.57,0,1,0,37.5-119.35Zm0,104.89A39.55,39.55,0,1,1,935,123.75,39.53,39.53,0,0,1,895.48,163.3Z"/><path class="cls-2" d="M517.48.1H449.11V189.39h68.37A94.65,94.65,0,0,0,517.48.1Zm0,160.59H477.81V28.8h39.67a65.95,65.95,0,0,1,0,131.89Z"/><path class="cls-2" d="M1066.19,58.45l-37.38,84-37.38-84H960.08l53.06,119.25-13,29.28a15.33,15.33,0,0,1-20.2,7.77l-4.12-1.84-11.58,26h0l0,0,9.93,4.43a37.2,37.2,0,0,0,49-18.84c.07-.16,67.94-151.82,74.31-166.07Z"/></g><g id="Atmos"><path class="cls-2" d="M1158.91,189.61h-16.86L1224.21.14h15.25L1320,189.61h-16.86l-21.41-51.11H1180.32Zm27-65h90.19l-44.7-108.39Z"/><path class="cls-2" d="M1391.79,70.71h-35.6V154c0,17.93,8,23,19.81,23a37.41,37.41,0,0,0,15.25-3.48l.8,12.58a56.79,56.79,0,0,1-19.8,3.47c-15.26,0-30.51-7.76-30.51-32.11V70.71h-26.23V58.4h26V0h14.72V58.4h35.6Z"/><path class="cls-2" d="M1418.71,90.25c0-7-.27-23.55-1.07-31.85h13.91c.54,7,1.07,21.41,1.07,28.1h.54a46.27,46.27,0,0,1,42-28.1c18.73,0,32.91,8.83,39.87,29.71h.54c8-19,24.08-29.71,44.69-29.71,32.12,0,46.3,22.48,46.3,51.92v79.3h-14.45V115.67c0-24.62-8.83-45.22-34-45.22-26,0-38.81,23.28-38.81,50.84v68.33h-14.71V113c0-23-6.16-42.55-31.85-42.55-19.81,0-39.34,17.66-39.34,52.45v66.72h-14.72Z"/><path class="cls-2" d="M1694.75,189.81c-38.54,0-65.57-28.1-65.57-65.84,0-38,27-65.56,65.57-65.56,38.8,0,65.83,27.56,65.83,65.56C1760.58,161.71,1733.55,189.81,1694.75,189.81Zm0-118.83c-31,0-50.58,23.29-50.58,53s19.53,52.72,50.58,52.72c31.31,0,50.84-23,50.84-52.72S1726.06,71,1694.75,71Z"/><path class="cls-2" d="M1854.05,87.71c-6.15-10.44-17.39-17.13-31.31-17.13-13.11,0-28.1,6.16-28.1,21.68,0,14.45,10.71,19.27,31.31,23.82,26.5,5.89,41.75,15.52,41.75,35.86,0,26.49-22.48,37.73-45.22,37.73-18.74,0-36.67-7.49-47.37-23.28l11.5-8.3a42.87,42.87,0,0,0,35.87,19.27c15.52,0,30.77-7,30.77-24.35,0-34-72.52-13.38-72.52-59.68,0-24.09,20.87-34.79,42.55-34.79,18.2,0,34,7.49,42,21.14Z"/></g></g></svg>