<svg id="svg9313" xmlns="http://www.w3.org/2000/svg" viewBox="0 0 2057.51 520"><defs><style>.cls-1{fill:#fff;}</style></defs><g id="layer1"><path id="path2016" class="cls-1" d="M889.08,505.14H801.34V348.3H890.6c32.21,0,43.92,14.06,43.92,39.71v73.56c0,34.32-14.4,43.57-45.44,43.57m9.72-116.66-13.94-14.29H837.19v105.3h47.43c9.49,0,14.18-2.93,14.18-13.94Zm73,116.66h35.72V348.21H971.77Zm182,0L1150,494.48c-5.26,6.79-15.46,13.35-40.17,13.35h-17.69c-30.57,0-47.32-9.25-47.32-42.75v-78.6c0-41,31.39-41.46,53.18-41.46h42c15.93,0,29.87,3.05,36.78,6.79V372h-80.94c-9.49,0-15.34,2.34-15.34,15.11v81.76l15.11,12.77h24.94l25.19-5.63V439.43h-33.62V416.35h68.41v88.79Zm65.25,0h35.72V348.21H1219Zm139.85-131.31V505.14h-35.72V373.83h-48.38V348.18h131.77v25.65"/><g id="g2018"><path id="path2020" class="cls-1" d="M1524.51,505.14l-13.58-40.29h-62.55L1435,505.14h-31.86l57.27-158.36H1503l58,158.36Zm-42.63-127.79-2.11-9.37H1479l-2.22,9.37-19.92,61.26h45.57Zm109.87,127.79V348.3h35.61V478.44h73.91v26.7"/></g><g id="g2022"><path id="path2024" class="cls-1" d="M1989.53,22.09l-66.77,118.07L1858.22,22.09h-60.44c11.25,20,90.43,165.28,90.43,165.28V283.3h64.89c.12-13,0-95.47,0-95.47s82.23-145.59,93.82-165.74ZM10,511H737.85V11H10Zm168.79-64.89H96V75.74h82.81C265,75.74,337,160.42,337,260.22c0,102.84-72,185.89-158.24,185.89m473.21,0H569c-86.32,0-158.12-83.05-158.12-185.89,0-99.8,71.8-184.48,158.12-184.48h83"/></g><g id="g2026"><path id="path2028" class="cls-1" d="M1263.43,191.82c0,46.26-16.52,56.92-63.14,56.92s-63.13-10.66-63.13-56.92V113.57c0-45.21,16.63-54.93,63.13-54.93s63.14,9.72,63.14,54.93ZM1290,36.5c-18.28-12.53-49.32-19-89.73-19-39.47,0-67.93,5.28-90,19.1-23,14.4-33.74,38.65-33.74,76.6v82.23c0,38,11.25,63.6,33.5,76.37,18,12.18,47.44,18,90.19,18,42.29,0,72.51-6,89.73-17.69,22.37-13.71,34-39.94,34-76.72V113.22c0-36.08-11.37-61.84-34-76.72M978.21,185.61c0,45.8-25.06,57.28-46,57.28h-74V60.28h74c21,0,46,11.59,46,54.23ZM931.71,22H797.83V283.3H941.08c70.75,0,97-28.12,97-103.9V121.89C1038.07,50,1008.2,22,931.71,22m497,0h-60.32V283.3h171.83V239.72H1428.7Z"/></g><g id="g2030"><path id="path2032" class="cls-1" d="M1720.24,145c47.44-4.21,57.63-26.94,57.63-59.5,0-28.81-12.3-43.46-26-51.65-11.48-7-25.07-11.83-53.3-11.83H1573.24V283.3H1700.1c39,0,55.16-7.62,62.54-12.65,13-8.32,29.75-26.94,29.75-56.81,0-35-12.53-70.16-72.15-68.88m-32.09,100.27H1633.8V59.46h59.27c20.14,0,32.68,15.58,32.68,36.89,0,32.8-16.17,33.5-62.55,35.26v30.22c41.35,0,74.49-2.58,74.49,39.24,0,21.08-13.58,44.16-49.54,44.16"/></g></g><path class="cls-1" d="M1822.28,412q25.77,0,40.6,12.45t14.82,34.27q0,24.78-15.43,38.56T1819.74,511a106.08,106.08,0,0,1-22.8-2.37,59.45,59.45,0,0,1-18.07-6.77V490.51a105.35,105.35,0,0,0,21.15,8.43,79.24,79.24,0,0,0,19.72,2.36q21.15,0,33.94-11.18t12.78-30.24q0-18-12.45-28.21t-33.83-10.24a113.16,113.16,0,0,0-30,4.29l-6.61-4.29,6.38-73.71h77.57V358.3h-67.21l-5,56.85Q1812.58,412,1822.28,412Z"/><path class="cls-1" d="M1909.76,500.2q0-10.8,8.81-10.79,9,0,9,10.79t-9,10.8Q1909.75,511,1909.76,500.2Z"/><path class="cls-1" d="M2003.07,508.8h-10.79V391.46q0-16,1.32-33.16-1.65,1.65-3.42,3.19t-34,26.77l-6.28-7.82,43.74-32.72h9.47Z"/></svg>