<svg id="Logo" xmlns="http://www.w3.org/2000/svg" viewBox="0 0 1224.66 609.54"><defs><style>.cls-1{fill:none;}.cls-2{fill:#fff;}</style></defs><g id="Dolby_Atmos" data-name="Dolby Atmos"><rect id="Bounding_Box" data-name="Bounding Box" class="cls-1" width="1224.66" height="609.54"/><g id="Dolby"><rect class="cls-2" x="779.39" y="122.99" width="28.84" height="190.44"/><path class="cls-2" d="M574.9,58.59a65.92,65.92,0,1,0,65.91,65.92A66,66,0,0,0,574.9,58.59Zm0,105.42a39.75,39.75,0,1,1,39.74-39.74A39.76,39.76,0,0,1,574.9,164Z" transform="translate(119.92 122.95)"/><path class="cls-2" d="M272.92,190.24h-28a95,95,0,1,1,0-190h28Z" transform="translate(119.92 122.95)"/><path class="cls-2" d="M2.65,0h28a95,95,0,0,1,0,190h-28Z" transform="translate(119.92 122.95)"/><path class="cls-2" d="M779.13,58.6a65.53,65.53,0,0,0-37.69,11.89V0h-28.9V190.47h28.9V178.55a65.9,65.9,0,1,0,37.69-120Zm0,105.42a39.75,39.75,0,1,1,39.74-39.75A39.74,39.74,0,0,1,779.13,164Z" transform="translate(119.92 122.95)"/><path class="cls-2" d="M399.23,0H330.52V190.24h68.71A95.12,95.12,0,0,0,399.23,0Zm0,161.4H359.36V28.84h39.87a66.28,66.28,0,0,1,0,132.56Z" transform="translate(119.92 122.95)"/><path class="cls-2" d="M950.7,58.64l-37.57,84.47L875.57,58.64H844.06l53.32,119.85-1.07,2.32-.38.83-11.54,26.07-.08.21a15.41,15.41,0,0,1-20.31,7.8l-4.13-1.84L851.81,232l-3.59,8h0l0,0,10,4.45a37.37,37.37,0,0,0,49.25-18.93L982.2,58.64Z" transform="translate(119.92 122.95)"/></g><g id="Atmos"><path class="cls-2" d="M257.51,363.5H244.05l37.58-86.67h11l37.21,86.67h-13.7l-8.82-21.3H266.21Zm13-31.95h32.44l-16.16-40.64Z" transform="translate(119.92 122.95)"/><path class="cls-2" d="M384.64,363.5H372.52v-76H344.73V276.83h67.7v10.65H384.64Z" transform="translate(119.92 122.95)"/><path class="cls-2" d="M490.47,343.42h.25l25.58-66.59h18.85V363.5H523V291h-.24L494,363.5h-7.71L457.66,291h-.24V363.5H445.66V276.83h18.86Z" transform="translate(119.92 122.95)"/><path class="cls-2" d="M656.43,320.05a45.23,45.23,0,0,1-3.32,17.52A41.54,41.54,0,0,1,644,351.3a41,41,0,0,1-13.85,9,49.07,49.07,0,0,1-34.86,0,40.38,40.38,0,0,1-22.87-22.69,49,49,0,0,1,0-35.15,39.45,39.45,0,0,1,9.08-13.62A41.25,41.25,0,0,1,595.26,280a49.95,49.95,0,0,1,34.86,0A41.22,41.22,0,0,1,644,288.8a40.16,40.16,0,0,1,9.14,13.62A45.47,45.47,0,0,1,656.43,320.05Zm-12.46,0a36.67,36.67,0,0,0-2.21-12.75,32.32,32.32,0,0,0-6.29-10.53,29.32,29.32,0,0,0-9.83-7.16,33.17,33.17,0,0,0-25.84,0,28.82,28.82,0,0,0-9.78,7.16,33,33,0,0,0-6.22,10.53,36.44,36.44,0,0,0-2.21,12.75A37.19,37.19,0,0,0,583.8,333a31.55,31.55,0,0,0,6.28,10.53,29.16,29.16,0,0,0,9.78,7,30.87,30.87,0,0,0,12.8,2.57,31.71,31.71,0,0,0,12.92-2.57,28.72,28.72,0,0,0,9.89-7A31.41,31.41,0,0,0,641.76,333,37.43,37.43,0,0,0,644,320.05Z" transform="translate(119.92 122.95)"/><path class="cls-2" d="M730.39,294.22a18.34,18.34,0,0,0-6.63-5.53,20.39,20.39,0,0,0-9.43-2.15,22.09,22.09,0,0,0-5.64.75,15.55,15.55,0,0,0-5.18,2.45,13.43,13.43,0,0,0-3.78,4.19,11.71,11.71,0,0,0-1.45,6,11,11,0,0,0,1.33,5.64,12.12,12.12,0,0,0,3.61,3.84,22.93,22.93,0,0,0,5.36,2.68c2,.74,4.24,1.49,6.57,2.27q4.19,1.27,8.49,2.91a30.73,30.73,0,0,1,7.8,4.3,21.37,21.37,0,0,1,5.7,6.69,21,21,0,0,1,2.21,10.19A24.46,24.46,0,0,1,737,349.55a22.82,22.82,0,0,1-6.35,7.8,27.06,27.06,0,0,1-9.13,4.59,37.76,37.76,0,0,1-10.65,1.51,39,39,0,0,1-15.07-3,30,30,0,0,1-12-9l9-7.57a21.91,21.91,0,0,0,7.8,7,21.95,21.95,0,0,0,16.4,1.86,16.49,16.49,0,0,0,5.3-2.56,14,14,0,0,0,3.9-4.37,12.52,12.52,0,0,0,1.51-6.34,11.46,11.46,0,0,0-1.57-6.22,13.89,13.89,0,0,0-4.25-4.25,28.37,28.37,0,0,0-6.23-3c-2.36-.81-4.87-1.64-7.5-2.5a63.84,63.84,0,0,1-7.79-2.85,26.8,26.8,0,0,1-6.87-4.31,19.69,19.69,0,0,1-4.89-6.46,21.59,21.59,0,0,1-1.86-9.53,21.18,21.18,0,0,1,2.5-10.6,22.75,22.75,0,0,1,6.52-7.33,27.22,27.22,0,0,1,9.07-4.25,39.82,39.82,0,0,1,10.19-1.33,35.29,35.29,0,0,1,13.49,2.56,26.69,26.69,0,0,1,10.12,6.86Z" transform="translate(119.92 122.95)"/></g></g></svg>