<svg xmlns="http://www.w3.org/2000/svg" width="2104" height="574" viewBox="0 0 2104 574"><g fill="none" fill-rule="evenodd"><g fill="#FFF" fill-rule="nonzero" transform="translate(38 34)"><path d="M879.08,494.14 L791.34,494.14 L791.34,337.3 L880.6,337.3 C912.81,337.3 924.52,351.36 924.52,377.01 L924.52,450.57 C924.52,484.89 910.12,494.14 879.08,494.14 M888.8,377.48 L874.86,363.19 L827.19,363.19 L827.19,468.49 L874.62,468.49 C884.11,468.49 888.8,465.56 888.8,454.55 L888.8,377.48 Z M961.8,494.14 L997.52,494.14 L997.52,337.21 L961.77,337.21 L961.8,494.14 Z M1143.8,494.14 L1140,483.48 C1134.74,490.27 1124.54,496.83 1099.83,496.83 L1082.14,496.83 C1051.57,496.83 1034.82,487.58 1034.82,454.08 L1034.82,375.48 C1034.82,334.48 1066.21,334.02 1088,334.02 L1130,334.02 C1145.93,334.02 1159.87,337.07 1166.78,340.81 L1166.78,361 L1085.84,361 C1076.35,361 1070.5,363.34 1070.5,376.11 L1070.5,457.87 L1085.61,470.64 L1110.55,470.64 L1135.74,465.01 L1135.74,428.43 L1102.12,428.43 L1102.12,405.35 L1170.53,405.35 L1170.53,494.14 L1143.8,494.14 Z M1209.05,494.14 L1244.77,494.14 L1244.77,337.21 L1209,337.21 L1209.05,494.14 Z M1348.9,362.83 L1348.9,494.14 L1313.18,494.14 L1313.18,362.83 L1264.8,362.83 L1264.8,337.18 L1396.57,337.18 L1396.57,362.83"/><path d="M121.37,158.36 L107.79,118.07 L45.24,118.07 L31.86,158.36 L2.27373675e-13,158.36 L57.27,0 L99.86,0 L157.86,158.36 L121.37,158.36 Z M78.74,30.57 L76.63,21.2 L75.86,21.2 L73.64,30.57 L53.72,91.83 L99.29,91.83 L78.74,30.57 Z M188.61,158.36 L188.61,1.52 L224.22,1.52 L224.22,131.66 L298.13,131.66 L298.13,158.36" transform="translate(1393.14 335.78)"/><path d="M1979.53,11.09 L1912.76,129.16 L1848.22,11.09 L1787.78,11.09 C1799.03,31.09 1878.21,176.37 1878.21,176.37 L1878.21,272.3 L1943.1,272.3 C1943.22,259.3 1943.1,176.83 1943.1,176.83 C1943.1,176.83 2025.33,31.24 2036.92,11.09 L1979.53,11.09 Z M0,500 L727.85,500 L727.85,0 L0,0 L0,500 Z M168.79,435.11 L86,435.11 L86,64.74 L168.81,64.74 C255,64.74 327,149.42 327,249.22 C327,352.06 255,435.11 168.76,435.11 M641.97,435.11 L559,435.11 C472.68,435.11 400.88,352.06 400.88,249.22 C400.88,149.42 472.68,64.74 559,64.74 L642,64.74"/><path d="M465.6,174.32 C465.6,220.58 449.08,231.24 402.46,231.24 C355.84,231.24 339.33,220.58 339.33,174.32 L339.33,96.07 C339.33,50.86 355.96,41.14 402.46,41.14 C448.96,41.14 465.6,50.86 465.6,96.07 L465.6,174.32 Z M492.17,19 C473.89,6.47 442.85,0 402.44,0 C362.97,0 334.51,5.28 312.44,19.1 C289.44,33.5 278.7,57.75 278.7,95.7 L278.7,177.93 C278.7,215.93 289.95,241.53 312.2,254.3 C330.2,266.48 359.64,272.3 402.39,272.3 C444.68,272.3 474.9,266.3 492.12,254.61 C514.49,240.9 526.12,214.67 526.12,177.89 L526.12,95.72 C526.12,59.64 514.75,33.88 492.12,19 M180.38,168.11 C180.38,213.91 155.32,225.39 134.38,225.39 L60.38,225.39 L60.38,42.78 L134.38,42.78 C155.38,42.78 180.38,54.37 180.38,97.01 L180.38,168.11 Z M133.88,4.5 L0,4.5 L0,265.8 L143.25,265.8 C214,265.8 240.25,237.68 240.25,161.9 L240.25,104.39 C240.24,32.5 210.37,4.5 133.88,4.5 M630.88,4.5 L570.56,4.5 L570.56,265.8 L742.39,265.8 L742.39,222.22 L630.87,222.22 L630.88,4.5 Z" transform="translate(787.83 6.5)"/><path d="M147,122.98 C194.44,118.77 204.63,96.04 204.63,63.48 C204.63,34.67 192.33,20.02 178.63,11.83 C167.15,4.83 153.56,-7.10542736e-15 125.33,-7.10542736e-15 L-2.27373675e-13,-7.10542736e-15 L-2.27373675e-13,261.28 L126.86,261.28 C165.86,261.28 182.02,253.66 189.4,248.63 C202.4,240.31 219.15,221.69 219.15,191.82 C219.15,156.82 206.62,121.66 147,122.94 M114.91,223.21 L60.56,223.21 L60.56,37.44 L119.83,37.44 C139.97,37.44 152.51,53.02 152.51,74.33 C152.51,107.13 136.34,107.83 89.96,109.59 L89.96,139.81 C131.31,139.81 164.45,137.23 164.45,179.05 C164.45,200.13 150.87,223.21 114.91,223.21" transform="translate(1563.24 11.02)"/></g><path fill="#FFF" fill-rule="nonzero" d="M1850.28 435C1867.46 435 1880.99333 439.15 1890.88 447.45 1900.76667 455.75 1905.70667 467.173333 1905.70001 481.72 1905.70001 498.24 1900.55667 511.093333 1890.27 520.28 1879.98333 529.466667 1865.80667 534.04 1847.74 534.001162 1840.0767 534.035872 1832.43208 533.241234 1824.94 531.63 1818.58818 530.372456 1812.48446 528.085673 1806.87 524.86L1806.87 513.51C1813.59476 517.075805 1820.68616 519.902307 1828.02 521.94 1834.46834 523.550584 1841.0937 524.343477 1847.74 524.3 1861.84 524.3 1873.15333 520.573333 1881.68 513.12 1890.20667 505.666667 1894.46667 495.586667 1894.46 482.88 1894.46 470.88 1890.31 461.476667 1882.01 454.67 1873.71 447.863333 1862.43333 444.45 1848.18 444.43 1838.03288 444.508434 1827.94242 445.95137 1818.18 448.72L1811.57 444.43 1817.95 370.72 1895.52 370.72 1895.52 381.3 1828.31 381.3 1823.31 438.15C1834.82333 436.05 1843.81333 435 1850.28 435ZM1937.75999 523.2C1937.75999 516 1940.69667 512.403333 1946.57 512.409991 1952.57 512.409991 1955.57 516.006667 1955.57 523.2 1955.57 530.393333 1952.57 533.993333 1946.57 534 1940.69 534 1937.75333 530.4 1937.75999 523.2ZM2031.07 531.8 2020.28 531.8 2020.28 414.46C2020.28 403.793333 2020.72 392.74 2021.6 381.3 2020.5 382.4 2019.36 383.463333 2018.18 384.49 2017 385.516667 2005.66667 394.44 1984.18 411.26L1977.9 403.44 2021.64 370.72 2031.11 370.72 2031.07 531.8Z"/><rect width="2104" height="574"/></g></svg>