<svg id="Logo" xmlns="http://www.w3.org/2000/svg" viewBox="0 0 1224.66 609.54"><defs><style>.cls-1{fill:none;}.cls-2{fill:#fff;}</style></defs><rect id="Bounding_Box" data-name="Bounding Box" class="cls-1" width="1224.66" height="609.54"/><g id="Dolby"><rect class="cls-2" x="779.38" y="122.99" width="28.84" height="190.44"/><path class="cls-2" d="M572.25,58.59a65.92,65.92,0,1,0,65.91,65.92A66,66,0,0,0,572.25,58.59Zm0,105.42A39.75,39.75,0,1,1,612,124.27,39.76,39.76,0,0,1,572.25,164Z" transform="translate(122.55 122.95)"/><path class="cls-2" d="M270.27,190.24h-28a95,95,0,0,1,0-190h28Z" transform="translate(122.55 122.95)"/><path class="cls-2" d="M0,0H28a95,95,0,1,1,0,190H0Z" transform="translate(122.55 122.95)"/><path class="cls-2" d="M776.48,58.6a65.53,65.53,0,0,0-37.69,11.89V0h-28.9V190.47h28.89V178.55a65.9,65.9,0,1,0,37.69-120Zm0,105.42a39.75,39.75,0,1,1,39.74-39.75A39.74,39.74,0,0,1,776.48,164Z" transform="translate(122.55 122.95)"/><path class="cls-2" d="M396.58,0H327.87V190.24h68.71A95.12,95.12,0,0,0,396.58,0Zm0,161.4H356.71V28.84h39.87a66.28,66.28,0,1,1,0,132.56Z" transform="translate(122.55 122.95)"/><path class="cls-2" d="M948.05,58.64l-37.57,84.47L872.92,58.64H841.41l53.32,119.85-1.07,2.32-.38.83-11.54,26.07-.08.21a15.4,15.4,0,0,1-20.3,7.8l-4.14-1.84L849.16,232l-3.58,8h0l0,0,10,4.45a37.36,37.36,0,0,0,49.24-18.93L979.55,58.64Z" transform="translate(122.55 122.95)"/></g><g id="Vision"><path class="cls-2" d="M446,294.13a18.38,18.38,0,0,0-6.66-5.5,20.41,20.41,0,0,0-9.43-2.11,21.67,21.67,0,0,0-5.64.79,15.62,15.62,0,0,0-5.17,2.46,13.54,13.54,0,0,0-3.76,4.21,11.66,11.66,0,0,0-1.42,6,11,11,0,0,0,1.36,5.64,12,12,0,0,0,3.63,3.82,22.52,22.52,0,0,0,5.36,2.65c2.06.73,4.26,1.48,6.58,2.24q4.2,1.26,8.51,2.87a30.33,30.33,0,0,1,7.82,4.27,21.12,21.12,0,0,1,5.73,6.66,20.91,20.91,0,0,1,2.26,10.17,24.41,24.41,0,0,1-2.33,11.13,22.58,22.58,0,0,1-6.31,7.82,26.79,26.79,0,0,1-9.11,4.64,37.67,37.67,0,0,1-10.63,1.57,39,39,0,0,1-15.09-3,29.79,29.79,0,0,1-12.08-8.9l8.92-7.61a22.33,22.33,0,0,0,18.43,9.57,21.59,21.59,0,0,0,5.81-.84,16.23,16.23,0,0,0,5.28-2.58,14,14,0,0,0,3.88-4.39,12.45,12.45,0,0,0,1.49-6.34,11.51,11.51,0,0,0-1.61-6.22,14,14,0,0,0-4.26-4.23,28.87,28.87,0,0,0-6.24-2.94q-3.56-1.2-7.52-2.46a62.9,62.9,0,0,1-7.81-2.82,27,27,0,0,1-6.89-4.27,19.8,19.8,0,0,1-4.91-6.44,21.7,21.7,0,0,1-1.91-9.53,21.22,21.22,0,0,1,2.45-10.6,22.64,22.64,0,0,1,6.48-7.36,27.25,27.25,0,0,1,9.06-4.29,39.75,39.75,0,0,1,10.17-1.39,35.4,35.4,0,0,1,13.51,2.5,26.74,26.74,0,0,1,10.16,6.82Z" transform="translate(122.55 122.95)"/><path class="cls-2" d="M282.72,347.54h.36l26-70.74h13L288.2,363.15H277L243.32,276.8h13.42Z" transform="translate(122.55 122.95)"/><path class="cls-2" d="M363.5,363.15H351.42V276.8H363.5Z" transform="translate(122.55 122.95)"/><path class="cls-2" d="M505.46,363.15H493.39V276.8h12.07Z" transform="translate(122.55 122.95)"/><path class="cls-2" d="M723.91,345.83h.24v-69h12.08v86.35H721l-45.62-70.5h-.24v70.5H663V276.8h15.74Z" transform="translate(122.55 122.95)"/><path class="cls-2" d="M629,319.93a45,45,0,0,1-3.32,17.51,41.61,41.61,0,0,1-9.13,13.74,41.05,41.05,0,0,1-13.86,9,49,49,0,0,1-34.85,0,41.09,41.09,0,0,1-13.8-9A40.56,40.56,0,0,1,545,337.44a49,49,0,0,1,0-35.14A39.43,39.43,0,0,1,554,288.67a41.27,41.27,0,0,1,13.8-8.78,49.77,49.77,0,0,1,34.85,0,41.24,41.24,0,0,1,13.86,8.78,40.43,40.43,0,0,1,9.13,13.63A45.28,45.28,0,0,1,629,319.93Zm-12.45,0a36.67,36.67,0,0,0-2.21-12.75,32.5,32.5,0,0,0-6.29-10.53,29.42,29.42,0,0,0-9.83-7.16,31.19,31.19,0,0,0-13-2.62,30.76,30.76,0,0,0-12.86,2.62,28.63,28.63,0,0,0-9.78,7.16,32.89,32.89,0,0,0-6.23,10.53,36.44,36.44,0,0,0-2.21,12.75,37.19,37.19,0,0,0,2.21,12.92,31.55,31.55,0,0,0,6.28,10.53,29.16,29.16,0,0,0,9.78,7A30.88,30.88,0,0,0,585.24,353a31.66,31.66,0,0,0,12.91-2.56,28.76,28.76,0,0,0,9.9-7,31.58,31.58,0,0,0,6.29-10.53A37.43,37.43,0,0,0,616.55,319.93Z" transform="translate(122.55 122.95)"/></g></svg>