<svg id="Logo" xmlns="http://www.w3.org/2000/svg" viewBox="0 0 993 363.46"><defs><style>.cls-1{fill:none;}.cls-2{fill:#fff;}</style></defs><rect id="Bounding_Box" data-name="Bounding Box" class="cls-1" x="-116" y="-122.95" width="1224.66" height="609.54"/><g id="Dolby"><rect class="cls-2" x="663.38" y="0.04" width="28.84" height="190.44"/><path class="cls-2" d="M578.8,58.59a65.92,65.92,0,1,0,65.91,65.93h0A66,66,0,0,0,578.8,58.59Zm0,105.42a39.75,39.75,0,1,1,39.75-39.75h0A39.77,39.77,0,0,1,578.8,164Z"/><path class="cls-2" d="M276.82,190.24h-28a95,95,0,0,1,0-190h28Z"/><path class="cls-2" d="M6.55,0h28a95,95,0,0,1,0,190h-28Z"/><path class="cls-2" d="M783,58.6a65.51,65.51,0,0,0-37.69,11.89V0h-28.9V190.47h28.89V178.55A65.9,65.9,0,1,0,783,58.55ZM783,164a39.75,39.75,0,1,1,39.74-39.76h0A39.75,39.75,0,0,1,783,164Z"/><path class="cls-2" d="M403.13,0H334.42V190.24h68.71A95.12,95.12,0,0,0,403.13,0Zm0,161.4H363.26V28.84h39.87a66.28,66.28,0,1,1,0,132.56Z"/><path class="cls-2" d="M954.6,58.64,917,143.11,879.47,58.64H848l53.32,119.85-1.07,2.32-.38.83-11.54,26.07-.08.21a15.4,15.4,0,0,1-20.3,7.8l-4.14-1.84L855.71,232l-3.58,8h0l10,4.45a37.35,37.35,0,0,0,49.24-18.93L986.1,58.64Z"/></g><g id="Vision"><path class="cls-2" d="M452.55,294.13a18.31,18.31,0,0,0-6.66-5.5,20.4,20.4,0,0,0-9.43-2.11,21.51,21.51,0,0,0-5.64.79,15.59,15.59,0,0,0-5.17,2.46,13.42,13.42,0,0,0-3.76,4.21,11.74,11.74,0,0,0-1.42,6,11,11,0,0,0,1.36,5.64,11.94,11.94,0,0,0,3.63,3.82,22.31,22.31,0,0,0,5.36,2.65c2.06.73,4.26,1.48,6.58,2.24q4.2,1.26,8.51,2.87a30.33,30.33,0,0,1,7.82,4.27,19.73,19.73,0,0,1,8,16.83,24.43,24.43,0,0,1-2.33,11.13,22.61,22.61,0,0,1-6.31,7.82,26.74,26.74,0,0,1-9.11,4.64,37.52,37.52,0,0,1-10.63,1.57,39.07,39.07,0,0,1-15.09-3,29.79,29.79,0,0,1-12.08-8.9l8.92-7.61a22.34,22.34,0,0,0,18.43,9.57,21.53,21.53,0,0,0,5.81-.84,16.32,16.32,0,0,0,5.28-2.58,14,14,0,0,0,3.88-4.39,12.49,12.49,0,0,0,1.49-6.34,11.53,11.53,0,0,0-1.61-6.22,14.09,14.09,0,0,0-4.26-4.23,28.92,28.92,0,0,0-6.24-2.94q-3.56-1.2-7.52-2.46a63.81,63.81,0,0,1-7.81-2.82,27.09,27.09,0,0,1-6.89-4.27,20,20,0,0,1-4.91-6.44,21.71,21.71,0,0,1-1.91-9.53,21.23,21.23,0,0,1,2.45-10.6,22.67,22.67,0,0,1,6.48-7.36,27.27,27.27,0,0,1,9.06-4.29A39.71,39.71,0,0,1,437,276.82a35.32,35.32,0,0,1,13.51,2.5,26.7,26.7,0,0,1,10.16,6.82Z"/><path class="cls-2" d="M289.27,347.54h.36l26-70.74h13l-33.88,86.35h-11.2L249.87,276.8h13.42Z"/><path class="cls-2" d="M370.05,363.15H358V276.8h12.08Z"/><path class="cls-2" d="M512,363.15H499.94V276.8H512Z"/><path class="cls-2" d="M730.46,345.83h.24v-69h12.08v86.35H727.55l-45.62-70.5h-.24v70.5H669.55V276.8h15.74Z"/><path class="cls-2" d="M635.55,319.93a45.09,45.09,0,0,1-3.32,17.51,41.66,41.66,0,0,1-9.13,13.74,41,41,0,0,1-13.86,9,49,49,0,0,1-34.85,0,41.19,41.19,0,0,1-13.8-9,40.46,40.46,0,0,1-9-13.74,49,49,0,0,1,0-35.14,39.53,39.53,0,0,1,9-13.63,41.31,41.31,0,0,1,13.8-8.78,49.77,49.77,0,0,1,34.85,0,41.25,41.25,0,0,1,13.86,8.78,40.45,40.45,0,0,1,9.13,13.63A45.14,45.14,0,0,1,635.55,319.93Zm-12.45,0a36.72,36.72,0,0,0-2.21-12.75,32.43,32.43,0,0,0-6.29-10.53,29.38,29.38,0,0,0-9.83-7.16,31.11,31.11,0,0,0-13-2.62,30.75,30.75,0,0,0-12.86,2.62,28.6,28.6,0,0,0-9.78,7.16,32.83,32.83,0,0,0-6.23,10.53,36.44,36.44,0,0,0-2.21,12.75,37.19,37.19,0,0,0,2.21,12.92,31.52,31.52,0,0,0,6.28,10.53,29.18,29.18,0,0,0,9.78,7A31,31,0,0,0,591.79,353a31.63,31.63,0,0,0,12.91-2.56,28.77,28.77,0,0,0,9.9-7,31.71,31.71,0,0,0,6.29-10.53A37.29,37.29,0,0,0,623.1,319.93Z"/></g></svg>