<svg id="Logo" xmlns="http://www.w3.org/2000/svg" viewBox="0 0 1907.84 246.7"><defs><style>.cls-1{fill:none;}.cls-2{fill:#fff;}</style></defs><g id="Dolby_Vision_Lockup" data-name="Dolby Vision Lockup"><rect id="Bounding_Box" data-name="Bounding Box" class="cls-1" y="-122.34" width="1907.84" height="491.57"/><g id="Dolby_Vision" data-name="Dolby Vision"><g id="Vision"><path class="cls-2" d="M1222.56,170.49h.53L1287,0h16.31l-72.18,189.5H1214L1142.09,0h16.57Z"/><path class="cls-2" d="M1332.08,22.15a11,11,0,1,1,11-11A11,11,0,0,1,1332.08,22.15Zm7.48,167.35h-14.7V58.43h14.7Z"/><path class="cls-2" d="M1442.45,87.61c-6.14-10.43-17.34-17.11-31.21-17.11-13.08,0-28,6.15-28,21.66,0,14.43,10.67,19.24,31.21,23.79,26.41,5.88,41.62,15.5,41.62,35.82,0,26.47-22.41,37.69-45.09,37.69-18.68,0-36.55-7.48-47.22-23.25l11.47-8.29A42.69,42.69,0,0,0,1411,177.17c15.47,0,30.68-6.95,30.68-24.33,0-33.95-72.3-13.37-72.3-59.62,0-24,20.81-34.75,42.42-34.75,18.14,0,33.88,7.49,41.88,21.12Z"/><path class="cls-2" d="M1491.74,21.92a11,11,0,1,1,11-11A11,11,0,0,1,1491.74,21.92Zm7.87,167.54h-15.47v-131h15.47Z"/><path class="cls-2" d="M1588.81,189.46c-38.41,0-65.34-28-65.34-65.61,0-37.87,26.93-65.34,65.34-65.34,38.67,0,65.61,27.47,65.61,65.34C1654.42,161.46,1627.48,189.46,1588.81,189.46Zm0-118.41c-30.94,0-50.41,23.2-50.41,52.8s19.47,52.54,50.41,52.54c31.2,0,50.67-22.93,50.67-52.54S1620,71.05,1588.81,71.05Z"/><path class="cls-2" d="M1692.51,58.47c.54,7,1.07,21.39,1.07,28.07h.54c7.22-17.11,25.93-28.07,44.64-28.07,32.61,0,46.52,22.46,46.52,51.86V189.5h-14.43V115.68c0-24.59-7.75-44.91-35.29-44.91-21.65,0-41.17,17.37-41.17,52.13v66.6h-14.7V90.28c0-7-.27-23.52-1.07-31.81Z"/></g><g id="Dolby"><rect class="cls-2" x="776.42" y="0.02" width="28.69" height="189.48"/><path class="cls-2" d="M692.27,58.12a65.59,65.59,0,1,0,65.58,65.58A65.65,65.65,0,0,0,692.27,58.12Zm0,105.07a39.55,39.55,0,1,1,39.54-39.55A39.57,39.57,0,0,1,692.27,163.19Z"/><path class="cls-2" d="M391.8,189.29H363.87A94.64,94.64,0,0,1,363.87,0H391.8Z"/><path class="cls-2" d="M122.56,0h27.92a94.64,94.64,0,1,1,0,189.28H122.56Z"/><path class="cls-2" d="M895.48,58.27A65.25,65.25,0,0,0,858,70.1V0H829.22V189.48H858V177.62A65.57,65.57,0,1,0,895.48,58.27Zm0,104.89A39.54,39.54,0,1,1,935,123.62,39.55,39.55,0,0,1,895.48,163.16Z"/><path class="cls-2" d="M517.48,0H449.11V189.29h68.37A94.65,94.65,0,0,0,517.48,0Zm0,160.59H477.81V28.7h39.67a65.95,65.95,0,0,1,0,131.89Z"/><path class="cls-2" d="M1066.19,58.47l-37.38,84.05L991.43,58.47H960.08l53.06,119.25-13,29.28a15.33,15.33,0,0,1-20.2,7.77l-4.12-1.83-11.58,26h0l0,0,9.93,4.44a37.2,37.2,0,0,0,49-18.84c.07-.16,67.94-151.83,74.31-166.08Z"/></g></g></g></svg>