<svg xmlns="http://www.w3.org/2000/svg" width="1380" height="478" viewBox="0 0 1380 478"><g fill="none" fill-rule="evenodd"><path fill="#FFF" fill-rule="nonzero" d="M855.8,298.31 L814.91,257.53 C809.448168,251.978233 806.409597,244.487887 806.46,236.7 C806.487593,220.27734 819.817325,206.983416 836.24,207 L856.69,207 C859.877494,207.016058 862.93908,205.756933 865.193006,203.503006 C867.446933,201.24908 868.706058,198.187494 868.69,195 L868.69,172.87 L699.35,172.87 C670.685778,172.869896 647.427173,196.065882 647.35,224.73 C647.341308,238.376114 652.780482,251.46109 662.46,261.08 L703.79,302.3 C709.253697,307.850541 712.292594,315.341693 712.24,323.13 C712.212407,339.551047 698.881055,352.842109 682.46,352.82 L618.9,352.82 C593.938911,352.754443 573.701722,332.570828 573.57,307.61 L573.57,207.45 L612.68,207.45 C615.868313,207.468763 618.931474,206.210507 621.18599,203.95599 C623.440507,201.701474 624.698763,198.638313 624.68,195.45 L624.68,173.32 L573.57,173.32 L573.57,63 L440.68,121 L440.68,173.3 L376.23,173.3 L376.23,46.9985744 L277.56,46.9985744 C268.474653,46.916746 259.735914,50.482918 253.30288,56.8990332 C246.869846,63.3151483 243.280673,72.0444651 243.34,81.13 L243.34,173.32 L172.23,173.32 C98,173.32 46,213.21 46,280.14 C46,340 106.89,387 172.23,387 L330.45,387 C355.410478,386.929044 375.647375,366.750171 375.79,341.79 L375.79,207.45 L440.23,207.45 L440.23,294.76 C440.23,344.4 470,387 531.34,387 L818.91,387 C847.574222,387 870.832827,363.804118 870.91,335.14 C870.837464,321.383644 865.419061,308.194442 855.8,298.36 L855.8,298.31 Z M243.34017,345.31 C243.353527,347.316412 242.560401,349.244137 241.138803,350.660093 C239.717206,352.076049 237.786342,352.861505 235.78,352.84043 L231.34,352.84043 C185.11,352.84043 168.23,320.93 167.78,280.16 C168.23,237.61 186,207.47 231.34,207.47 L243.34017,207.47 L243.34017,345.31 Z"/><g fill="#FFF" fill-rule="nonzero" transform="translate(1294.47 352.817)"><path d="M20.8900534,18.6227701 C23.3276798,18.0397077 25.0068308,15.8064369 24.8900534,13.3027701 L24.8900534,13.3027701 C25.0097891,11.9787341 24.5202967,10.6721943 23.5600534,9.75277013 C22.2300534,8.43277013 20.4500534,7.98277013 18.2300534,7.98277013 L10.2300534,7.98277013 L10.2300534,25.7127701 L13.7800534,25.7127701 L13.7800534,19.5127701 L17.3400534,19.5127701 L21.7800534,25.7127701 L25.7800534,25.7127701 L20.8900534,18.6227701 Z M13.7800534,15.9627701 L13.7800534,10.1827701 L18.2300534,10.1827701 C20.4500534,10.1827701 21.7800534,11.0627701 21.7800534,12.8427701 L21.7800534,12.8427701 C21.7800534,14.6127701 20.4500534,15.5027701 18.2300534,15.5027701 L13.7800534,15.5027701 L13.7800534,15.9627701 Z"/><path d="M17.3400534,0.00277013136 C7.78292809,0.0027303994 0.0276114056,7.73568458 2.65976685e-05,17.2927701 L2.65976685e-05,17.2927701 C-0.00792874401,21.7747189 1.76898491,26.0753958 4.93820631,29.2446172 C8.1074277,32.4138386 12.4081046,34.1907522 16.8900534,34.1827969 C26.4432883,34.1827969 34.1969972,26.4559479 34.2300534,16.9027701 L34.2300534,16.9027701 C34.3150173,12.3968447 32.5631681,8.05025431 29.3773746,4.86257456 C26.191581,1.67489482 21.8460283,-0.0795267961 17.3400534,0.00277013136 L17.3400534,0.00277013136 Z M31.5300534,16.8527701 C31.565319,20.7496364 30.0294318,24.4964431 27.2691185,27.2473484 C24.5088051,29.9982538 20.7567765,31.52134 16.8600534,31.4727701 C8.42005337,31.4727701 2.64005337,24.8227701 2.64005337,16.8527701 L2.64005337,16.8527701 C2.50187275,11.6014517 5.22445297,6.68880225 9.75059488,4.0224418 C14.2767368,1.35608135 19.89337,1.35608135 24.4195119,4.0224418 C28.9456538,6.68880225 31.668234,11.6014517 31.5300534,16.8527701 Z"/></g><g fill="#FFF" fill-rule="nonzero" transform="translate(933.13 138.75)"><polygon points="126.67 34.13 12 34.13 110.23 132.08 167.56 74.9"/><polygon points="226.23 247.76 340.9 247.76 242.23 149.81 392.46 0 283.12 0 0 281.89 109.78 281.89 184.9 206.98"/></g><rect width="1380" height="478"/></g></svg>