<svg id="Layer_1" data-name="Layer 1" xmlns="http://www.w3.org/2000/svg" viewBox="0 0 1282.7 373.64"><defs><style>.cls-1{fill:#fff;}</style></defs><g id="g39"><path id="path15" class="cls-1" d="M809.8,251.31l-40.89-40.78a29.43,29.43,0,0,1-8.45-20.83A29.75,29.75,0,0,1,790.24,160h20.45a11.94,11.94,0,0,0,12-12V125.87H653.35a52,52,0,0,0-52,51.86,51.2,51.2,0,0,0,15.11,36.35l41.33,41.22a29.41,29.41,0,0,1,8.45,20.83,29.74,29.74,0,0,1-29.78,29.69H572.9a45.45,45.45,0,0,1-45.33-45.21V160.45h39.11a11.93,11.93,0,0,0,12-12V126.32H527.57V16L394.68,74v52.3H330.23V0H231.56a33.91,33.91,0,0,0-34.22,34.13v92.19H126.23C52,126.32,0,166.21,0,233.14,0,293,60.89,340,126.23,340H284.45a45.47,45.47,0,0,0,45.34-45.21V160.45h64.44v87.31C394.23,297.4,424,340,485.34,340H772.91a52,52,0,0,0,52-51.86,53,53,0,0,0-15.11-36.78Zm-612.46,47a7.48,7.48,0,0,1-7.56,7.53h-4.44c-46.23,0-63.11-31.91-63.56-72.68.45-42.55,18.22-72.69,63.56-72.69h12Z" transform="translate(0 0)"/><g id="g21"><path id="path17" class="cls-1" d="M1269.36,324.44a5.22,5.22,0,0,0,4-5.32h0a4.37,4.37,0,0,0-1.33-3.55c-1.33-1.32-3.11-1.77-5.33-1.77h-8v17.73h3.55v-6.2h3.56l4.44,6.2h4Zm-7.11-2.66V316h4.45c2.22,0,3.55.88,3.55,2.66h0c0,1.77-1.33,2.66-3.55,2.66h-4.45Z" transform="translate(0 0)"/><path id="path19" class="cls-1" d="M1265.81,305.82a17.34,17.34,0,0,0-17.34,17.29h0A16.86,16.86,0,0,0,1265.36,340a17.34,17.34,0,0,0,17.34-17.28h0A16.59,16.59,0,0,0,1265.81,305.82ZM1280,322.67a14.49,14.49,0,0,1-14.67,14.62c-8.44,0-14.22-6.65-14.22-14.62h0a14.45,14.45,0,1,1,28.89,0Z" transform="translate(0 0)"/></g><g id="g37"><polygon id="polygon28" class="cls-1" points="1013.8 125.88 899.13 125.88 997.36 223.83 1054.69 166.65 1013.8 125.88"/><polygon id="polygon35" class="cls-1" points="1113.36 339.51 1228.03 339.51 1129.36 241.56 1279.59 91.75 1170.25 91.75 887.13 373.64 996.91 373.64 1072.03 298.73 1113.36 339.51"/></g></g></svg>