<svg xmlns="http://www.w3.org/2000/svg" width="84" height="69" viewBox="0 0 84 69"><g fill="none" fill-rule="evenodd"><g transform="translate(6 6)"><rect width="70" height="55" x="1" y="1" stroke="#000" stroke-width="2"/><path fill="#000" d="M35.0013559,7.12417897 C28.1517586,7.60291232 10.5456137,4.66868888 10.6114646,30.5319071 C11.1381347,50.480105 20.3248374,50.8235047 33.3744029,51.0957618 C54.5531555,51.4463339 56.7197158,46.3170978 56.7197158,46.3170978 C56.7197158,46.3170978 56.703642,38.6370775 56.7197158,37.3860921 C56.7625523,35.0300393 58.8969116,33.9300667 60.1925868,33.6133251 C65.1254344,32.3996983 64.2369366,29.6954294 60.1607409,29.6189133 C57.9174022,29.5139981 50.0803168,29.634697 46.5413109,29.6719511 L39.9180437,29.6719511 C35.4295768,29.9086485 36.4163129,33.2258935 40.4568259,33.7526046 C42.496707,34.3558666 43.8816831,34.3628532 44.2707407,36.0338125 C44.6919228,37.8880367 44.3875169,41.4361878 44.3875169,41.4361878 C44.3875169,45.3848966 41.0671883,45.7774579 35.1884588,45.7649818 C24.1912829,45.9020214 23.9996816,39.1227278 23.7997893,29.7768082 C23.533877,17.3896959 24.7809072,11.8984793 36.0404266,11.9731966 C43.8019836,12.0284395 44.2709972,12.3870659 45.1704751,19.0370377 C45.6005773,21.2827904 46.0651482,23.7759872 52.1294766,23.2955246 C56.4537548,23.126465 57.3067764,19.799483 57.2478823,16.2476181 C57.1836334,12.7206241 56.9999936,10.7675081 52.6311055,9.34036042 C49.8059579,8.37230935 44.7153488,7.26121857 35.0013536,7.12417897 L35.0013559,7.12417897 Z"/></g><rect width="84" height="69"/></g></svg>