<svg xmlns="http://www.w3.org/2000/svg" width="661" height="254" viewBox="0 0 661 254"><g fill="none" fill-rule="evenodd"><g fill="#FFF" fill-rule="nonzero" transform="translate(33.171 22.08)"><polygon points="0 0 0 117.92 36.768 117.92 36.768 0"/><polygon points="210.069 32.153 210.655 32.153 210.655 117.92 244.713 117.92 244.713 0 187.364 0 154.698 69.287 154.259 68.701 121.666 0 64.244 0 64.244 117.92 98.448 117.92 98.448 32.153 98.888 32.153 142.394 117.92 167.149 117.92"/><path d="M380.94043,97.8515625 L391.707031,117.919922 L432.50293,117.919922 L368.489258,0 L321.394531,0 L256.72168,117.919922 L297.517578,117.919922 L308.503906,97.8515625 L380.94043,97.8515625 Z M344.612305,30.0292969 L367.390625,72.4365234 L321.833984,72.4365234 L344.612305,30.0292969 Z"/><polygon points="523.687 82.544 557.085 117.92 606.45 117.92 548.223 59.692 603.887 0 555.62 0 523.174 36.475 490.654 0 442.827 0 497.832 59.692 440.703 117.92 490.215 117.92"/></g><g fill="#FFF" fill-rule="nonzero" transform="translate(30.88 158.62)"><polygon points="53.238 71.136 53.238 76.38 0 76.38 0 1.14 51.414 1.14 51.414 6.384 5.7 6.384 5.7 35.454 41.838 35.454 41.838 40.812 5.7 40.812 5.7 71.136"/><polygon points="129.566 76.38 122.498 76.38 82.598 17.328 77.012 7.296 76.898 7.296 77.24 16.758 77.24 76.38 71.768 76.38 71.768 1.14 78.95 1.14 118.736 60.078 124.436 70.224 124.208 60.762 124.208 1.14 129.566 1.14"/><polygon points="213.19 1.14 213.19 76.38 207.49 76.38 207.49 40.812 160.978 40.812 160.978 76.38 155.278 76.38 155.278 1.14 160.978 1.14 160.978 35.454 207.49 35.454 207.49 1.14"/><path d="M280.626,52.782 L244.602,52.782 L235.254,76.38 L229.212,76.38 L259.308,1.14 L266.034,1.14 L296.13,76.38 L290.088,76.38 L280.626,52.782 Z M278.574,47.538 L265.464,14.706 L262.728,6.726 L262.614,6.726 L259.878,14.478 L246.768,47.538 L278.574,47.538 Z"/><polygon points="369.95 76.38 362.882 76.38 322.982 17.328 317.396 7.296 317.282 7.296 317.624 16.758 317.624 76.38 312.152 76.38 312.152 1.14 319.334 1.14 359.12 60.078 364.82 70.224 364.592 60.762 364.592 1.14 369.95 1.14"/><path d="M455.17,57.342 C453.042,63.726 449.337,68.685 444.055,72.219 C438.773,75.753 432.446,77.52 425.074,77.52 C418.234,77.52 412.23,75.943 407.062,72.789 C401.894,69.635 397.904,65.132 395.092,59.28 C392.28,53.428 390.874,46.588 390.874,38.76 C390.874,30.932 392.28,24.092 395.092,18.24 C397.904,12.388 401.894,7.885 407.062,4.731 C412.23,1.577 418.196,0 424.96,0 C440.008,0 449.736,6.194 454.144,18.582 L448.558,21.204 C446.81,15.884 444.017,11.894 440.179,9.234 C436.341,6.574 431.382,5.244 425.302,5.244 C419.678,5.244 414.719,6.593 410.425,9.291 C406.131,11.989 402.806,15.865 400.45,20.919 C398.094,25.973 396.916,31.92 396.916,38.76 C396.916,45.6 398.075,51.547 400.393,56.601 C402.711,61.655 405.979,65.531 410.197,68.229 C414.415,70.927 419.374,72.276 425.074,72.276 C431.154,72.276 436.322,70.794 440.578,67.83 C444.834,64.866 447.798,60.648 449.47,55.176 L455.17,57.342 Z"/><polygon points="527.166 71.136 527.166 76.38 473.928 76.38 473.928 1.14 525.342 1.14 525.342 6.384 479.628 6.384 479.628 35.454 515.766 35.454 515.766 40.812 479.628 40.812 479.628 71.136"/><path d="M569.408,1.14 C581.416,1.14 590.669,4.313 597.167,10.659 C603.665,17.005 606.914,26.182 606.914,38.19 C606.914,50.502 603.665,59.945 597.167,66.519 C590.669,73.093 581.416,76.38 569.408,76.38 L545.696,76.38 L545.696,1.14 L569.408,1.14 Z M569.864,71.136 C579.896,71.136 587.591,68.305 592.949,62.643 C598.307,56.981 600.986,48.83 600.986,38.19 C600.986,28.006 598.307,20.159 592.949,14.649 C587.591,9.139 579.896,6.384 569.864,6.384 L551.396,6.384 L551.396,71.136 L569.864,71.136 Z"/></g><rect width="661" height="254"/></g></svg>