<svg xmlns="http://www.w3.org/2000/svg" xmlns:xlink="http://www.w3.org/1999/xlink" width="395" height="132" viewBox="0 0 395 132">
  <defs>
    <polygon id="pg-13-copy-3-a" points="0 2.619 369.798 2.619 369.798 133.131 0 133.131"/>
    <polygon id="pg-13-copy-3-c" points="0 133.131 369.798 133.131 369.798 2.619 0 2.619"/>
    <polygon id="pg-13-copy-3-e" points="378.241 112.619 394.596 112.619 394.596 129.156 378.241 129.156"/>
  </defs>
  <g fill="none" fill-rule="evenodd" transform="translate(0 -2)">
    <mask id="pg-13-copy-3-b" fill="#fff">
      <use xlink:href="#pg-13-copy-3-a"/>
    </mask>
    <path fill="#FFF" d="M148.590796,16.9376429 L148.590796,22.3407381 L145.648929,22.3407381 L145.648929,16.9376429 L141.643263,9.49954762 L145.076316,9.49954762 L147.503356,14.3866905 L149.904129,9.49954762 L152.557063,9.49954762 L148.590796,16.9376429 Z M142.751716,19.7924048 L142.751716,22.3407381 L134.719369,22.3407381 L134.719369,9.49954762 L137.669116,9.49954762 L137.669116,19.7924048 L142.751716,19.7924048 Z M131.995516,22.3407381 L129.476543,22.3407381 L124.622463,13.7135952 L124.554169,13.7135952 L124.554169,22.3407381 L122.268969,22.3407381 L122.268969,9.49954762 L125.457743,9.49954762 L129.676169,17.0476429 L129.712943,17.0476429 L129.712943,9.49954762 L131.995516,9.49954762 L131.995516,22.3407381 Z M112.705276,13.2343095 C112.416343,13.9938333 112.300769,15.0990714 112.300769,15.9005 C112.300769,17.5164524 112.539796,20.0752619 114.622743,20.0752619 C115.636636,20.0752619 116.193489,19.5750238 116.524449,18.6164524 C116.821263,17.8307381 116.910569,16.7726429 116.910569,15.9214524 C116.910569,14.9838333 116.821263,13.8864524 116.450903,13.0221667 C116.080543,12.1605 115.544703,11.7702619 114.622743,11.7702619 C113.608849,11.7702619 113.059876,12.2914524 112.705276,13.2343095 Z M110.530396,20.5100238 C109.611063,19.1847857 109.206556,17.5164524 109.206556,15.9005 C109.206556,12.4957381 110.879743,9.31621429 114.622743,9.31621429 C116.301183,9.31621429 117.632903,9.88454762 118.638916,11.2805 C119.545116,12.5350238 120.004783,14.3552619 120.004783,15.9005 C120.004783,17.3619286 119.621289,19.142881 118.812276,20.3633571 C117.827276,21.8247857 116.335329,22.5319286 114.622743,22.5319286 C112.910156,22.5319286 111.525903,21.9295476 110.530396,20.5100238 Z M98.8233427,13.1740714 C98.4556093,12.0871667 97.7674227,11.6550238 96.6432093,11.6550238 C95.8525827,11.6550238 94.8991027,11.8645476 94.8991027,12.8493095 C94.8991027,13.7947857 96.0023027,14.0200238 96.7193827,14.1457381 C97.749036,14.3735952 99.1332893,14.6276429 100.015849,15.2352619 C101.042876,15.9214524 101.678529,16.9926429 101.678529,18.268119 C101.678529,19.5174048 101.087529,20.7221667 100.107783,21.4895476 C99.096516,22.2909762 97.717516,22.5319286 96.4435827,22.5319286 C94.0638227,22.5319286 91.9125827,21.4895476 91.3373427,18.9700238 L94.0638227,18.3388333 C94.4341827,19.6850238 95.3902893,20.1564524 96.7036227,20.1564524 C97.544156,20.1564524 98.670996,19.8343095 98.670996,18.7735952 C98.670996,17.6997857 97.2342093,17.5007381 96.4619693,17.3226429 C94.2161693,16.8643095 92.0018893,16.1912143 92.0018893,13.3809762 C92.0018893,12.1866905 92.4589293,11.1312143 93.367756,10.3664524 C94.2870893,9.5755 95.3745293,9.31621429 96.5381427,9.31621429 C98.7445427,9.31621429 100.549063,10.1045476 101.329183,12.3333571 L98.8233427,13.1740714 Z M90.5335827,12.047881 L87.3605693,12.047881 L87.3605693,22.3407381 L84.4108227,22.3407381 L84.4108227,12.047881 L81.2062893,12.047881 L81.2062893,9.49954762 L90.5335827,9.49954762 L90.5335827,12.047881 Z M81.7789027,19.7924048 L81.7789027,22.3407381 L73.746556,22.3407381 L73.746556,9.49954762 L76.693676,9.49954762 L76.693676,19.7924048 L81.7789027,19.7924048 Z M71.2065693,17.272881 C71.2065693,18.6714524 71.232836,20.1355 70.1742893,21.1857381 C69.1630227,22.2124048 67.671076,22.5319286 66.2868227,22.5319286 C64.9577293,22.5319286 63.431636,22.3276429 62.415116,21.4266905 C61.162196,20.3240714 61.1122893,18.8443095 61.1122893,17.272881 L61.1122893,9.49954762 L64.314196,9.49954762 L64.314196,17.272881 C64.314196,17.8674048 64.298436,18.7369286 64.5926227,19.2555 C64.9787427,19.9285952 65.7746227,20.1119286 66.481196,20.1119286 C67.0827027,20.1119286 67.9416227,19.9285952 68.3146093,19.4257381 C68.719116,18.8443095 68.6665827,17.9407381 68.6665827,17.272881 L68.6665827,9.49954762 L71.2066281,9.49954762 L71.2065693,17.272881 Z M51.6773027,19.9285952 L52.6701827,19.9285952 C53.9152227,19.9285952 54.700596,19.6850238 55.3835293,18.5666905 C55.8799693,17.7390714 56.0822227,16.7543095 56.0822227,15.793119 C56.0822227,14.7874048 55.7906627,13.703119 55.181276,12.8912143 C54.5009693,11.9876429 53.7418627,11.8645476 52.6964493,11.8645476 L51.6773027,11.8645476 L51.6773027,19.9285952 Z M52.399636,9.49954762 C54.219916,9.49954762 55.7906627,9.61740476 57.1696627,10.947881 C58.5355293,12.2547857 59.1239027,14.0357381 59.1239027,15.8874048 C59.1239027,17.608119 58.6064493,19.2764524 57.482236,20.5650238 C56.2345693,21.9714524 54.6795827,22.3407381 52.8934493,22.3407381 L48.7328093,22.3407381 L48.7328093,9.49954762 L52.399636,9.49954762 Z M42.3789027,17.3462143 L41.036676,12.8362143 L39.6839427,17.3462143 L42.3789027,17.3462143 Z M47.0228493,22.3407381 L43.834076,22.3407381 L43.061836,19.7085952 L38.9747427,19.7085952 L38.176236,22.3407381 L35.5784627,22.3407381 L39.6314093,9.49954762 L43.061836,9.49954762 L47.0228493,22.3407381 Z M188.114249,103.573119 L366.598876,103.573119 L366.598876,5.60502381 L188.114249,5.60502381 L188.114249,103.573119 Z M327.981623,129.755738 L366.598876,129.755738 L366.598876,106.501214 L327.981623,106.501214 L327.981623,129.755738 Z M2.99466267,129.755738 L325.013489,129.755738 L325.013489,106.501214 L2.99466267,106.501214 L2.99466267,129.755738 Z M2.99466267,103.628119 L184.946489,103.628119 L184.946489,28.1235952 L2.99466267,28.1235952 L2.99466267,103.628119 Z M0.000262666667,133.13169 L369.798156,133.13169 L369.798156,2.61930952 L0.000262666667,2.61930952 L0.000262666667,133.13169 Z" mask="url(#pg-13-copy-3-b)"/>
    <path fill="#FFF" d="M356.254012,123.99881 C358.176732,122.78881 359.424399,121.185952 359.655545,119.412857 L362.728745,119.412857 C362.295345,121.264524 359.842039,122.930238 356.254012,123.99881 M354.667505,119.412857 L358.512945,119.412857 C358.134705,121.735952 355.544812,123.689762 351.948905,124.632619 C353.480252,123.372857 354.502025,121.513333 354.667505,119.412857 M335.752879,119.412857 L339.598319,119.412857 C339.763799,121.513333 340.782945,123.372857 342.316919,124.632619 C338.718385,123.689762 336.136372,121.735952 335.752879,119.412857 M331.534452,119.412857 L334.615532,119.412857 C334.851932,121.185952 336.091719,122.78881 338.014439,123.99881 C334.429039,122.930238 331.970479,121.264524 331.534452,119.412857 M338.014439,113.640476 C336.073332,114.871429 334.812532,116.497857 334.607652,118.289286 L331.521319,118.289286 C331.923199,116.416667 334.384385,114.722143 338.014439,113.640476 M339.598319,118.289286 L335.750252,118.289286 C336.091719,115.945238 338.689492,113.96 342.316919,113.006667 C340.767185,114.292619 339.748039,116.165238 339.598319,118.289286 M347.134225,125.237619 C343.580345,125.237619 340.696265,122.361905 340.696265,118.818333 C340.696265,115.277381 343.580345,112.412143 347.134225,112.412143 C350.685479,112.412143 353.569559,115.277381 353.569559,118.818333 C353.569559,122.361905 350.685479,125.237619 347.134225,125.237619 M358.518199,118.289286 L354.670132,118.289286 C354.517785,116.165238 353.496012,114.292619 351.948905,113.006667 C355.578959,113.96 358.176732,115.945238 358.518199,118.289286 M362.741879,118.289286 L359.658172,118.289286 C359.450665,116.497857 358.187239,114.871429 356.254012,113.640476 C359.881439,114.722143 362.350505,116.416667 362.741879,118.289286 M347.134225,111.283333 C337.854212,111.283333 330.336692,114.659286 330.336692,118.818333 C330.336692,122.982619 337.854212,126.36381 347.134225,126.36381 C356.411612,126.36381 363.931759,122.982619 363.931759,118.818333 C363.931759,114.659286 356.411612,111.283333 347.134225,111.283333" mask="url(#pg-13-copy-3-b)"/>
    <path fill="#FFF" d="M346.221984 118.822262C346.221984 118.3325 346.613357 117.942262 347.107171 117.942262 347.590477 117.942262 347.989731 118.3325 347.989731 118.822262 347.989731 119.309405 347.590477 119.712738 347.107171 119.712738 346.613357 119.712738 346.221984 119.309405 346.221984 118.822262M347.135013 114.949738L348.31964 113.773786C347.592053 113.04831 346.670093 113.04831 345.945133 113.773786L347.135013 114.949738zM348.081664 116.325786C348.081664 115.419595 348.814504 114.688881 349.725957 114.688881 350.637411 114.688881 351.375504 115.419595 351.375504 116.325786 351.375504 117.237214 350.637411 117.973167 349.725957 117.973167 348.814504 117.973167 348.081664 117.237214 348.081664 116.325786M342.879551 116.325786C342.879551 115.419595 343.617644 114.688881 344.523844 114.688881 345.437924 114.688881 346.165511 115.419595 346.165511 116.325786 346.165511 117.237214 345.437924 117.973167 344.523844 117.973167 343.617644 117.973167 342.879551 117.237214 342.879551 116.325786M342.974373 121.405429C342.974373 120.507095 343.712467 119.760667 344.61604 119.760667 345.527493 119.760667 346.265587 120.507095 346.265587 121.405429 346.265587 122.309 345.527493 123.044952 344.61604 123.044952 343.712467 123.044952 342.974373 122.309 342.974373 121.405429M347.940612 121.374786C347.940612 120.468595 348.676079 119.732643 349.587532 119.732643 350.501612 119.732643 351.231825 120.468595 351.231825 121.374786 351.231825 122.288833 350.501612 123.01431 349.587532 123.01431 348.676079 123.01431 347.940612 122.288833 347.940612 121.374786M347.106908 122.656024L345.911775 123.824119C346.639361 124.557452 347.556068 124.557452 348.288908 123.824119L347.106908 122.656024zM350.905856 118.829857L352.079976 120.016286C352.820696 119.285571 352.820696 118.368905 352.079976 117.648667L350.905856 118.829857zM343.243869 118.829857L342.059243 120.016286C341.329029 119.285571 341.329029 118.368905 342.059243 117.648667L343.243869 118.829857z" mask="url(#pg-13-copy-3-b)"/>
    <polygon fill="#FFF" points="58.14 111.62 61.263 119.181 61.263 111.62 63.349 111.62 63.349 123.788 60.951 123.788 57.242 114.985 57.242 123.788 55.154 123.788 55.154 111.62" mask="url(#pg-13-copy-3-b)"/>
    <path fill="#FFF" d="M68.723844 116.346214C67.9174573 116.346214 67.6626707 117.07169 67.6626707 119.284786 67.6626707 121.675976 67.9936307 122.223357 68.739604 122.223357 69.4698173 122.223357 69.8007773 121.696929 69.8007773 119.284786 69.8007773 116.972167 69.5092173 116.346214 68.739604 116.346214L68.723844 116.346214zM72.3985507 119.284786C72.3985507 122.165738 71.3583907 123.967643 68.723844 123.967643 66.1286973 123.967643 65.0622707 122.184071 65.0622707 119.284786 65.0622707 116.482405 66.0472707 114.59669 68.739604 114.59669 71.4082973 114.59669 72.3985507 116.482405 72.3985507 119.284786zM81.4313947 117.717286C81.4313947 120.328476 81.6835547 121.805619 83.036288 121.805619 84.4126613 121.805619 84.6490613 120.281333 84.6490613 117.717286 84.6490613 115.155857 84.4257947 113.618476 83.036288 113.618476 81.6835547 113.618476 81.4313947 115.074667 81.4313947 117.717286M87.4674747 117.717286C87.4674747 119.946095 87.062968 123.968952 83.036288 123.968952 79.1304347 123.968952 78.615608 120.166095 78.615608 117.717286 78.615608 115.381095 79.072648 111.442048 83.036288 111.442048 86.9185013 111.442048 87.4674747 115.17681 87.4674747 117.717286M91.6328427 114.796262L91.6328427 116.021976C92.000576 115.27031 92.4707493 114.597214 93.8812693 114.597214 94.230616 114.597214 95.2576427 114.597214 95.877536 115.54531 96.2452693 116.105786 96.2452693 116.993643 96.2452693 117.878881L96.2452693 123.790071 93.742056 123.790071 93.742056 117.878881C93.742056 117.077452 93.6606293 116.545786 92.8805093 116.545786 91.764176 116.545786 91.764176 117.425786 91.764176 118.51531L91.764176 123.790071 89.2557093 123.790071 89.2557093 114.796262 91.6328427 114.796262zM102.6961 118.262048C102.714487 117.767048 102.75126 116.253238 101.524607 116.253238 100.392513 116.253238 100.3715 117.625619 100.35574 118.262048L102.6961 118.262048zM100.342607 119.713C100.321593 120.930857 100.295327 122.245619 101.542993 122.245619 102.619927 122.245619 102.75126 121.266095 102.83006 120.689905L105.073233 120.83919C104.897247 121.677286 104.392927 123.968952 101.485207 123.968952 98.7298333 123.968952 97.7422067 121.805619 97.7422067 119.40919 97.7422067 118.830381 97.8131267 117.405619 98.4146333 116.316095 99.0581667 115.155857 100.24542 114.598 101.472073 114.598 103.045447 114.598 104.014687 115.478 104.419193 116.242762 105.057473 117.463238 105.073233 118.610381 105.073233 119.713L100.342607 119.713zM116.92738 121.80431L118.934153 121.80431 118.934153 123.789548 112.202007 123.789548 112.202007 121.80431 114.24818 121.80431 114.24818 114.617643C113.691327 115.185976 113.194887 115.618119 112.202007 116.149786L112.202007 113.758595C113.6493 112.991214 114.363753 112.202881 114.873327 111.514071L116.92738 111.514071 116.92738 121.80431zM120.305536 111.619881L127.547256 111.619881 127.547256 113.665357C126.304843 115.383452 124.681563 117.913452 124.581749 123.787976L121.676656 123.787976C121.692416 122.881786 121.734443 120.930595 122.627509 118.515833 123.510069 116.148214 124.621149 114.796786 125.243669 114.011071L120.108536 114.011071 120.305536 111.619881zM137.348137 119.484619C135.900844 119.670571 135.294084 120.016286 135.294084 121.181762 135.294084 121.81819 135.540991 122.31581 136.137244 122.31581 136.452444 122.31581 136.725617 122.161286 136.962017 121.81819 137.306111 121.307476 137.348137 120.739143 137.348137 119.924619L137.348137 119.484619zM133.014137 117.405095C133.087684 116.894381 133.232151 115.82581 134.513964 115.092476 135.146991 114.731048 135.900844 114.597476 136.646817 114.597476 137.602924 114.597476 138.590551 114.841048 139.268231 115.545571 139.822457 116.092952 139.851351 117.114381 139.851351 118.217L139.851351 121.786762C139.851351 123.316286 139.909137 123.473429 140.003697 123.790333L137.676471 123.790333C137.563524 123.426286 137.550391 123.222 137.550391 122.402238 137.214177 122.986286 136.636311 123.968429 135.062937 123.968429 133.849417 123.968429 132.701564 123.279619 132.701564 121.503905 132.701564 119.005333 134.653177 118.35319 137.348137 118.217L137.348137 117.85819C137.348137 117.077714 137.348137 116.255333 136.452444 116.255333 135.606657 116.255333 135.446431 116.92581 135.370257 117.648667L133.014137 117.405095zM144.240511 114.796262L144.240511 116.021976C144.605617 115.27031 145.083671 114.597214 146.491564 114.597214 146.835657 114.597214 147.865311 114.597214 148.482577 115.54531 148.850311 116.105786 148.850311 116.993643 148.850311 117.878881L148.850311 123.790071 146.344471 123.790071 146.344471 117.878881C146.344471 117.077452 146.268297 116.545786 145.485551 116.545786 144.369217 116.545786 144.369217 117.425786 144.369217 118.51531L144.369217 123.790071 141.860751 123.790071 141.860751 114.796262 144.240511 114.796262zM155.119113 118.569C155.119113 117.77019 155.119113 116.327095 154.023793 116.327095 153.051927 116.327095 152.925847 117.500429 152.925847 118.940905 152.925847 120.690429 152.925847 122.185905 154.005407 122.185905 155.119113 122.185905 155.119113 120.816143 155.119113 120.164L155.119113 118.569zM157.58818 111.620667L157.58818 123.788762 155.266207 123.788762 155.266207 122.316857C155.008793 122.966381 154.6253 123.914476 153.204273 123.914476 150.78774 123.914476 150.328073 121.12781 150.328073 119.344238 150.328073 118.624 150.328073 114.666619 153.30934 114.666619 154.517607 114.666619 154.88534 115.255905 155.119113 115.617333L155.119113 111.620667 157.58818 111.620667zM167.293188 111.619881L167.293188 118.568214C167.293188 120.34131 167.293188 121.805357 169.034668 121.805357 169.856815 121.805357 170.240308 121.417738 170.442561 121.00131 170.660575 120.524643 170.660575 119.89869 170.660575 118.568214L170.660575 111.619881 172.911628 111.619881 172.911628 118.46869C172.911628 120.618929 172.911628 122.2925 171.430188 123.279881 170.865455 123.649167 170.064321 123.96869 168.798268 123.96869 164.645508 123.96869 164.627121 121.16631 164.627121 118.568214L164.627121 111.619881 167.293188 111.619881zM177.517488 114.796262L177.517488 116.021976C177.885221 115.27031 178.358021 114.597214 179.765915 114.597214 180.115261 114.597214 181.139661 114.597214 181.762181 115.54531 182.127288 116.105786 182.127288 116.993643 182.127288 117.878881L182.127288 123.790071 179.626701 123.790071 179.626701 117.878881C179.626701 117.077452 179.545275 116.545786 178.765155 116.545786 177.648821 116.545786 177.648821 117.425786 177.648821 118.51531L177.648821 123.790071 175.142981 123.790071 175.142981 114.796262 177.517488 114.796262zM188.398717 118.569C188.398717 117.77019 188.398717 116.327095 187.300771 116.327095 186.334157 116.327095 186.208077 117.500429 186.208077 118.940905 186.208077 120.690429 186.208077 122.185905 187.285011 122.185905 188.398717 122.185905 188.398717 120.816143 188.398717 120.164L188.398717 118.569zM190.867784 111.620667L190.867784 123.788762 188.548437 123.788762 188.548437 122.316857C188.291024 122.966381 187.907531 123.914476 186.478624 123.914476 184.064717 123.914476 183.605051 121.12781 183.605051 119.344238 183.605051 118.624 183.605051 114.666619 186.588944 114.666619 187.791957 114.666619 188.159691 115.255905 188.398717 115.617333L188.398717 111.620667 190.867784 111.620667zM197.450999 118.262048C197.469385 117.767048 197.503532 116.253238 196.279505 116.253238 195.150039 116.253238 195.126399 117.625619 195.113265 118.262048L197.450999 118.262048zM195.092252 119.713C195.076492 120.930857 195.050225 122.245619 196.292639 122.245619 197.374825 122.245619 197.503532 121.266095 197.582332 120.689905L199.830759 120.83919C199.644265 121.677286 199.153079 123.968952 196.245359 123.968952 193.482105 123.968952 192.494479 121.805619 192.494479 119.40919 192.494479 118.830381 192.568025 117.405619 193.172159 116.316095 193.807812 115.155857 194.997692 114.598 196.226972 114.598 197.797719 114.598 198.766959 115.478 199.174092 116.242762 199.809745 117.463238 199.830759 118.610381 199.830759 119.713L195.092252 119.713zM203.650983 114.796262L203.650983 116.97269C203.874249 116.20531 204.307649 114.66531 205.770703 114.66531 205.951943 114.66531 206.080649 114.688881 206.211983 114.730786L206.211983 117.169119C205.986089 117.135071 205.875769 117.135071 205.791716 117.135071 203.942543 117.135071 203.942543 119.214595 203.942543 119.898167L203.942543 123.790071 201.434076 123.790071 201.434076 114.796262 203.650983 114.796262zM215.791436 119.193119L214.564783 114.237881 213.377529 119.193119 215.791436 119.193119zM216.159169 111.62931L219.631623 123.789548 216.905143 123.789548 216.282623 121.293595 212.862703 121.293595 212.258569 123.789548 209.789503 123.789548 213.443196 111.62931 216.159169 111.62931zM224.971899 118.569C224.971899 117.77019 224.971899 116.327095 223.873952 116.327095 222.899459 116.327095 222.773379 117.500429 222.773379 118.940905 222.773379 120.690429 222.773379 122.185905 223.855565 122.185905 224.971899 122.185905 224.971899 120.816143 224.971899 120.164L224.971899 118.569zM227.438339 111.620667L227.438339 123.788762 225.113739 123.788762 225.113739 122.316857C224.858952 122.966381 224.478085 123.914476 223.043925 123.914476 220.637899 123.914476 220.175605 121.12781 220.175605 119.344238 220.175605 118.624 220.175605 114.666619 223.154245 114.666619 224.367765 114.666619 224.732872 115.255905 224.971899 115.617333L224.971899 111.620667 227.438339 111.620667zM229.445637 114.796262L231.825397 114.796262 231.825397 116.021976C232.080184 115.506024 232.542477 114.597214 234.021291 114.597214 235.552637 114.597214 235.810051 115.498167 235.965024 116.021976 236.235571 115.411738 236.710997 114.597214 238.176677 114.597214 240.472384 114.597214 240.472384 116.276024 240.472384 117.897214L240.472384 123.790071 237.971797 123.790071 237.971797 118.151262C237.971797 117.135071 237.971797 116.545786 237.168037 116.545786 236.253957 116.545786 236.214557 117.260786 236.214557 118.554595L236.214557 123.790071 233.708717 123.790071 233.708717 118.098881C233.708717 116.998881 233.671944 116.569357 232.925971 116.569357 232.030277 116.569357 231.951477 117.286976 231.951477 118.554595L231.951477 123.790071 229.445637 123.790071 229.445637 114.796262z" mask="url(#pg-13-copy-3-b)"/>
    <mask id="pg-13-copy-3-d" fill="#fff">
      <use xlink:href="#pg-13-copy-3-c"/>
    </mask>
    <path fill="#FFF" d="M242.359907 123.789286L244.86312 123.789286 244.86312 114.795476 242.359907 114.795476 242.359907 123.789286zM242.34152 114.035952L244.87888 114.035952 244.87888 111.550476 242.34152 111.550476 242.34152 114.035952zM249.676487 111.947262L249.676487 114.802024 251.339167 114.802024 251.339167 116.76631 249.676487 116.76631 249.676487 120.06631C249.676487 121.760833 249.676487 121.980833 251.467873 121.870833L251.467873 123.787976C251.097513 123.869167 250.58794 123.96869 249.912887 123.96869 249.085487 123.96869 248.174033 123.774881 247.659207 123.044167 247.220553 122.4025 247.220553 121.49369 247.220553 120.34131L247.220553 116.76631 246.23818 116.76631 246.23818 114.802024 247.34926 114.802024 247.551513 112.154167 249.676487 111.947262zM255.435191 111.947262L255.435191 114.802024 257.097871 114.802024 257.097871 116.76631 255.435191 116.76631 255.435191 120.06631C255.435191 121.760833 255.435191 121.980833 257.223951 121.870833L257.223951 123.787976C256.858844 123.869167 256.346644 123.96869 255.671591 123.96869 254.846817 123.96869 253.935364 123.774881 253.420537 123.044167 252.979257 122.4025 252.979257 121.49369 252.979257 120.34131L252.979257 116.76631 251.991631 116.76631 251.991631 114.802024 253.110591 114.802024 253.315471 112.154167 255.435191 111.947262zM262.943255 118.262048C262.972148 117.767048 263.001041 116.253238 261.777015 116.253238 260.644921 116.253238 260.629161 117.625619 260.605521 118.262048L262.943255 118.262048zM260.587135 119.713C260.568748 120.930857 260.550361 122.245619 261.795401 122.245619 262.874961 122.245619 263.001041 121.266095 263.074588 120.689905L265.325641 120.83919C265.141775 121.677286 264.647961 123.968952 261.737615 123.968952 258.979615 123.968952 257.991988 121.805619 257.991988 119.40919 257.991988 118.830381 258.065535 117.405619 258.667041 116.316095 259.310575 115.155857 260.497828 114.598 261.719228 114.598 263.292601 114.598 264.264468 115.478 264.663721 116.242762 265.309881 117.463238 265.325641 118.610381 265.325641 119.713L260.587135 119.713zM271.321008 118.569C271.321008 117.77019 271.321008 116.327095 270.228315 116.327095 269.253821 116.327095 269.122488 117.500429 269.122488 118.940905 269.122488 120.690429 269.122488 122.185905 270.207301 122.185905 271.321008 122.185905 271.321008 120.816143 271.321008 120.164L271.321008 118.569zM273.792701 111.620667L273.792701 123.788762 271.465475 123.788762 271.465475 122.316857C271.213315 122.966381 270.827195 123.914476 269.403541 123.914476 266.989635 123.914476 266.529968 121.12781 266.529968 119.344238 266.529968 118.624 266.529968 114.666619 269.511235 114.666619 270.719501 114.666619 271.084608 115.255905 271.321008 115.617333L271.321008 111.620667 273.792701 111.620667zM99.310064 55.7527143C99.3468373 50.8367619 98.2646507 50.2553333 95.7141573 48.7834286 91.2987307 46.9658095 87.2431573 46.6855714 77.513984 46.8008095 68.8985173 47.0339048 65.1528907 49.8991429 62.1427307 55.3703333 59.1404507 61.5067619 58.5363173 74.0467619 61.107824 80.3377143 61.966744 82.0400952 62.061304 85.5810476 69.8677573 87.8386667 75.6490507 89.1062857 88.0390373 89.0879524 94.810584 86.6181905 94.8079573 86.6234286 99.396744 85.0284286 99.396744 79.9710476 99.4256373 78.779381 97.2901573 76.7548571 92.5542773 80.0391429 88.4619307 83.184619 79.7308907 83.6036667 76.0745707 82.027 74.0178907 81.1548571 72.998744 79.714381 72.1371973 76.6500952 71.6880373 75.1808095 70.1750773 59.6812857 73.408504 55.2131905 75.4389173 51.557 82.2866373 51.4339048 85.5804773 52.2065238 88.8953307 53.4479524 88.506584 54.689381 89.8041573 60.0427143 91.0097973 62.3212857 92.7906773 62.2715238 95.3989573 62.2034286 99.6200107 61.9808095 99.310064 58.9924762 99.310064 55.7527143M110.509383 64.0933333L114.452009 64.0933333C117.173236 64.1221429 117.835156 66.7778571 117.766863 68.4357143 117.730089 69.2685714 116.952596 71.9845238 114.452009 71.9845238L107.052689 71.9478571C104.594129 71.9007143 103.301809 70.7195238 103.259783 68.4357143 103.204623 65.5285714 104.594129 64.292381 107.063196 64.0933333L110.509383 64.0933333zM121.762548 50.6476667C126.716441 48.9531429 129.069935 48.0495714 132.093228 47.6305238 134.128895 47.586 136.973575 47.5074286 138.510175 47.5598095 139.182601 47.5598095 139.187855 48.0548095 139.161588 48.521 139.103801 49.9824286 139.161588 51.8576667 139.161588 55.0502857L139.161588 79.5645714C139.127441 82.7990952 139.981108 84.0588571 143.049055 84.103381L143.566508 84.103381C146.319255 84.1374286 146.287735 87.8852857 143.873828 87.9114762 141.367988 87.9114762 137.157441 87.8852857 132.847081 87.8852857L123.577575 87.8852857C121.079615 87.9638571 120.588428 84.3050476 123.693148 84.051L124.646628 84.051C126.598241 83.7393333 127.546468 83.6240952 127.662041 79.5645714L127.774988 58.1512381C127.701441 56.4855238 128.379121 54.6338571 124.904041 55.0371905 119.789921 56.113619 118.891601 51.7869524 121.762548 50.6476667M45.5532293 72.2291429C45.555856 72.2291429 45.5768693 56.4362857 45.5768693 56.4362857 45.5033227 51.6984286 43.0841627 51.9760476 41.663136 51.4836667 37.447336 50.789619 38.219576 47.5027143 41.0274827 47.4031905 42.7138027 47.4372381 54.8595093 47.3455714 56.4880427 47.4031905 59.2959493 47.5027143 60.2940827 50.0065238 56.6482693 51.3527143 55.8418827 51.7167619 52.498136 51.6984286 52.419336 56.4362857L52.5401627 84.2348571C52.5401627 84.2348571 52.8711227 88.2053333 50.142016 88.2053333 50.1210027 88.2053333 44.9779893 88.2053333 44.9779893 88.1922381 43.4781627 88.2708095 42.6218693 87.6789048 41.6972827 86.6758095 41.6972827 86.6758095 22.5199893 61.4177143 22.522616 61.4177143 22.365016 61.072 22.1470027 60.9803333 22.270456 61.4465238L22.3151093 78.8003333C22.1785227 82.907 23.003296 83.677 26.4915093 84.1562857 31.3061893 84.8162857 29.8562693 88.1058095 27.2322293 88.187 27.2322293 88.1922381 10.9127493 88.2053333 10.9127493 88.2053333 7.63204267 88.0874762 7.653056 84.6512857 11.648216 84.059381 11.656096 84.059381 15.5593227 83.899619 15.5146693 79.1198571L15.5146693 55.462C15.2992827 51.4836667 13.2347227 52.164619 9.98028267 51.229619 7.960376 50.6612857 8.01028267 47.4765238 11.1333893 47.4031905 14.4324827 47.2329524 16.6730293 47.2931905 19.008136 47.2931905 21.608536 47.3455714 25.3804293 47.0941429 26.2708693 48.1339048L45.280056 72.5224762C45.280056 72.5224762 45.697696 73.3265238 45.5532293 72.2291429M168.301303 54.8522857C166.854009 54.7815714 164.608209 54.8522857 161.340636 54.923 152.853876 55.5044286 158.947743 58.8227619 153.071889 60.1375238 145.956249 61.0725238 146.904476 57.3063333 146.691716 55.4258571 146.757383 51.9477619 146.980649 50.6513333 148.934889 49.2134762 151.700769 47.0449048 157.639663 46.7489524 164.098636 46.7489524L174.542263 46.7489524C176.651476 46.8301429 179.183583 47.3225238 179.766703 49.5827619 180.137063 51.6675238 180.137063 53.3960952 179.262383 55.0722857 173.462703 67.8715714 170.268676 75.0949048 165.903156 85.2987143 165.259623 87.0377619 164.962809 88.1220476 162.864103 88.1901429L155.173223 88.1901429C152.853876 88.1901429 153.873023 86.0294286 154.448263 84.7251429 159.966889 73.0127619 164.098636 63.8932381 168.301303 54.8522857M204.648591 31.8871667C204.464724 35.2866905 203.156644 38.0262143 200.653431 38.0262143 197.159964 38.0262143 196.335191 33.222881 196.335191 29.3990714 196.335191 26.3505 196.852644 20.743119 200.682324 20.743119 202.418551 20.743119 203.277471 21.9007381 203.794924 23.0085952 204.464724 24.4621667 204.548777 26.2274048 204.593431 27.2357381L202.313484 27.4819286C202.245191 26.1488333 202.140124 23.7393095 200.698084 23.7393095 199.274431 23.7393095 198.982871 26.2797857 198.982871 29.6766905 198.982871 32.4869286 199.203511 35.0300238 200.698084 35.0300238 202.058697 35.0300238 202.245191 32.5707381 202.334497 31.6619286L204.648591 31.8871667z" mask="url(#pg-13-copy-3-d)"/>
    <polygon fill="#FFF" points="214.232 37.775 211.726 37.775 211.726 30.902 208.96 30.902 208.96 37.775 206.449 37.775 206.449 20.992 208.96 20.992 208.96 27.762 211.726 27.762 211.726 20.992 214.232 20.992" mask="url(#pg-13-copy-3-d)"/>
    <polygon fill="#FFF" points="223.695 20.991 223.695 23.885 219.242 23.885 219.242 27.762 222.696 27.762 222.696 30.65 219.242 30.65 219.242 34.783 223.695 34.783 223.695 37.774 216.734 37.774 216.734 20.991" mask="url(#pg-13-copy-3-d)"/>
    <path fill="#FFF" d="M233.169988,31.8871667 C232.975615,35.2866905 231.675415,38.0262143 229.164321,38.0262143 C225.673481,38.0262143 224.856588,33.222881 224.856588,29.3990714 C224.856588,26.3505 225.368788,20.743119 229.195841,20.743119 C230.934695,20.743119 231.796241,21.9007381 232.308441,23.0085952 C232.975615,24.4621667 233.062295,26.2274048 233.114828,27.2357381 L230.829628,27.4819286 C230.763961,26.1488333 230.656268,23.7393095 229.214228,23.7393095 C227.790575,23.7393095 227.496388,26.2797857 227.496388,29.6766905 C227.496388,32.4869286 227.719655,35.0300238 229.214228,35.0300238 C230.572215,35.0300238 230.763961,32.5707381 230.850641,31.6619286 L233.169988,31.8871667 Z" mask="url(#pg-13-copy-3-d)"/>
    <polygon fill="#FFF" points="237.474 20.991 237.474 27.987 240.256 20.991 242.801 20.991 239.933 27.157 243.043 37.774 240.445 37.774 238.417 30.051 237.474 32.088 237.474 37.774 234.968 37.774 234.968 20.991" mask="url(#pg-13-copy-3-d)"/>
    <polygon fill="#FFF" points="254.932 20.991 254.932 24.137 252.597 24.137 252.597 37.774 250.097 37.774 250.097 24.137 247.809 24.137 247.809 20.991" mask="url(#pg-13-copy-3-d)"/>
    <polygon fill="#FFF" points="263.951 37.775 261.443 37.775 261.443 30.902 258.677 30.902 258.677 37.775 256.171 37.775 256.171 20.992 258.677 20.992 258.677 27.762 261.443 27.762 261.443 20.992 263.951 20.992" mask="url(#pg-13-copy-3-d)"/>
    <polygon fill="#FFF" points="266.454 37.775 268.96 37.775 268.96 20.992 266.454 20.992" mask="url(#pg-13-copy-3-d)"/>
    <path fill="#FFF" d="M276.381807 25.8204048C276.239967 25.2206429 275.91426 23.7382619 274.766407 23.7382619 273.923247 23.7382619 273.56602 24.5894524 273.56602 25.2704048 273.56602 26.4254048 274.317247 26.8339762 275.541273 27.5123095 276.825713 28.2377857 278.70378 29.2723095 278.70378 32.6692143 278.70378 35.5344524 277.32478 38.0251667 274.627193 38.0251667 273.807673 38.0251667 272.567887 37.7999286 271.640673 36.2651667 271.002393 35.180881 270.80014 34.1515952 270.660927 33.420881L272.859447 32.5120714C272.993407 33.2715952 273.324367 35.0315952 274.695487 35.0315952 275.55966 35.0315952 276.15854 34.3270714 276.15854 33.2218333 276.15854 32.0354048 275.436207 31.5613571 274.57466 31.110881 273.01442 30.2780238 271.125847 29.2932619 271.125847 25.8754048 271.125847 23.2563571 272.278953 20.7446905 274.782167 20.7446905 277.637353 20.7446905 278.233607 23.5287381 278.472633 24.6365952L276.381807 25.8204048zM287.724804 34.8820476L288.961964 34.8820476C290.041524 34.8820476 290.682431 34.3268095 290.682431 32.6689524 290.682431 30.4768095 289.513564 30.4768095 288.946204 30.4768095L287.724804 30.4768095 287.724804 34.8820476zM287.724804 27.7608571L288.533817 27.7608571C289.219377 27.7608571 290.369857 27.7608571 290.369857 25.6734762 290.369857 23.7118095 289.219377 23.7118095 288.720311 23.7118095L287.724804 23.7118095 287.724804 27.7608571zM285.303017 20.990619L289.200991 20.990619C290.335711 20.990619 291.620151 20.990619 292.329351 22.4232381 292.757497 23.2822857 292.928231 24.3639524 292.928231 25.4220476 292.928231 28.1144286 291.830284 28.7168095 291.294444 29.0127619 291.680564 29.2222857 292.037791 29.3977619 292.444924 30.0499048 292.857311 30.7046667 293.243431 31.710381 293.243431 33.1246667 293.243431 34.575619 292.807404 36.2649048 291.982631 36.9982381 291.107951 37.7734762 290.230644 37.7734762 289.200991 37.7734762L285.303017 37.7734762 285.303017 20.990619zM297.531201 29.3985476C297.531201 32.9945 297.767601 35.026881 299.044161 35.026881 300.328601 35.026881 300.549241 32.9447381 300.549241 29.3985476 300.549241 25.8733095 300.339108 23.7387857 299.044161 23.7387857 297.767601 23.7387857 297.531201 25.7423571 297.531201 29.3985476M303.194295 29.3985476C303.194295 32.4628333 302.818681 38.0256905 299.044161 38.0256905 295.364201 38.0256905 294.886148 32.7666429 294.886148 29.3985476 294.886148 26.1797381 295.314295 20.7425952 299.044161 20.7425952 302.684721 20.7425952 303.194295 25.8995 303.194295 29.3985476" mask="url(#pg-13-copy-3-d)"/>
    <polygon fill="#FFF" points="307.094 20.991 308.465 25.37 309.907 20.991 312.31 20.991 309.615 28.589 312.66 37.774 309.907 37.774 308.229 32.29 306.356 37.774 303.952 37.774 307.094 29.171 304.289 20.991" mask="url(#pg-13-copy-3-d)"/>
    <polygon fill="#FFF" points="203.541 46.169 203.541 49.061 199.257 49.061 199.257 53.437 202.556 53.437 202.556 56.334 199.257 56.334 199.257 62.952 196.751 62.952 196.751 46.169" mask="url(#pg-13-copy-3-d)"/>
    <path fill="#FFF" d="M206.931689 54.5762381C206.931689 58.1695714 207.173343 60.2045714 208.439396 60.2045714 209.734343 60.2045714 209.952356 58.1224286 209.952356 54.5762381 209.952356 51.048381 209.744849 48.9138571 208.439396 48.9138571 207.173343 48.9138571 206.931689 50.9200476 206.931689 54.5762381M212.600036 54.5762381C212.600036 57.6405238 212.221796 63.2007619 208.439396 63.2007619 204.767316 63.2007619 204.286636 57.9443333 204.286636 54.5762381 204.286636 51.3548095 204.717409 45.9202857 208.439396 45.9202857 212.085209 45.9202857 212.600036 51.0771905 212.600036 54.5762381M217.197228 48.8879286L217.197228 53.6179286 218.313561 53.6179286C219.395748 53.6179286 219.795001 52.5781667 219.795001 51.1979286 219.795001 48.8879286 218.644521 48.8879286 218.213748 48.8879286L217.197228 48.8879286zM218.279415 46.1693571C219.429895 46.1693571 220.548855 46.1693571 221.420908 47.6019762 222.030295 48.5815 222.248308 49.9172143 222.248308 51.2476905 222.248308 54.2176905 221.202895 55.129119 220.635535 55.6267381L222.744748 62.9522143 219.999881 62.9522143 218.465908 56.333881 217.197228 56.333881 217.197228 62.9522143 214.694015 62.9522143 214.694015 46.1693571 218.279415 46.1693571zM234.021816 51.0004524C233.885229 50.4006905 233.556896 48.9130714 232.409043 48.9130714 231.565883 48.9130714 231.203403 49.766881 231.203403 50.4452143 231.203403 51.6002143 231.965136 52.0061667 233.183909 52.6897381 234.470976 53.4125952 236.341163 54.4497381 236.341163 57.8440238 236.341163 60.7092619 234.967416 63.1999762 232.272456 63.1999762 231.450309 63.1999762 230.210523 62.972119 229.280683 61.4399762 228.650283 60.3530714 228.448029 59.3290238 228.306189 58.5956905L230.504709 57.6895C230.643923 58.4490238 230.967003 60.2064048 232.343376 60.2064048 233.199669 60.2064048 233.803803 59.5045 233.803803 58.3966429 233.803803 57.2128333 233.081469 56.7387857 232.222549 56.2856905 230.657056 55.4528333 228.768483 54.4680714 228.768483 51.0502143 228.768483 48.4337857 229.918963 45.922119 232.432683 45.922119 235.277363 45.922119 235.881496 48.7061667 236.120523 49.8140238L234.021816 51.0004524zM240.737152 48.8879286L240.737152 53.8615 241.525152 53.8615C242.405085 53.8615 243.140552 53.589119 243.140552 51.3498333 243.140552 48.8879286 242.076752 48.8879286 241.525152 48.8879286L240.737152 48.8879286zM241.525152 46.1693571C242.728165 46.1693571 243.981085 46.1693571 244.840005 47.4526905 245.628005 48.6600714 245.806619 50.2681667 245.806619 51.4257857 245.806619 53.0862619 245.488792 54.7729286 244.603605 55.7812619 243.742059 56.7607857 242.331539 56.7607857 241.627592 56.7607857L240.737152 56.7607857 240.737152 62.9522143 238.226059 62.9522143 238.226059 46.1693571 241.525152 46.1693571z" mask="url(#pg-13-copy-3-d)"/>
    <polygon fill="#FFF" points="254.299 46.169 254.299 49.061 249.855 49.061 249.855 52.939 253.303 52.939 253.303 55.828 249.855 55.828 249.855 59.961 254.299 59.961 254.299 62.952 247.343 62.952 247.343 46.169" mask="url(#pg-13-copy-3-d)"/>
    <path fill="#FFF" d="M263.776959,57.0648571 C263.585212,60.4617619 262.282385,63.2012857 259.773919,63.2012857 C256.285705,63.2012857 255.466185,58.3979524 255.466185,54.5767619 C255.466185,51.5255714 255.978385,45.9208095 259.808065,45.9208095 C261.539039,45.9208095 262.403212,47.0784286 262.912785,48.1836667 C263.585212,49.634619 263.674519,51.4050952 263.724425,52.4134286 L261.441852,52.657 C261.370932,51.3265238 261.268492,48.914381 259.826452,48.914381 C258.402799,48.914381 258.105985,51.4522381 258.105985,54.8517619 C258.105985,57.664619 258.331879,60.2050952 259.826452,60.2050952 C261.181812,60.2050952 261.370932,57.7458095 261.454985,56.837 L263.776959,57.0648571 Z" mask="url(#pg-13-copy-3-d)"/>
    <polygon fill="#FFF" points="265.572 62.951 268.085 62.951 268.085 46.169 265.572 46.169" mask="url(#pg-13-copy-3-d)"/>
    <polygon fill="#FFF" points="277.374 46.169 277.374 49.061 273.096 49.061 273.096 53.437 276.397 53.437 276.397 56.334 273.096 56.334 273.096 62.952 270.59 62.952 270.59 46.169" mask="url(#pg-13-copy-3-d)"/>
    <polygon fill="#FFF" points="278.534 62.951 281.04 62.951 281.04 46.169 278.534 46.169" mask="url(#pg-13-copy-3-d)"/>
    <path fill="#FFF" d="M291.446791 57.0648571C291.260297 60.4617619 289.957471 63.2012857 287.451631 63.2012857 283.960791 63.2012857 283.141271 58.3979524 283.141271 54.5767619 283.141271 51.5255714 283.648217 45.9208095 287.483151 45.9208095 289.214124 45.9208095 290.078297 47.0784286 290.590497 48.1836667 291.260297 49.634619 291.349604 51.4050952 291.399511 52.4134286L289.116937 52.657C289.043391 51.3265238 288.943577 48.914381 287.501537 48.914381 286.077884 48.914381 285.783697 51.4522381 285.783697 54.8517619 285.783697 57.664619 286.009591 60.2050952 287.501537 60.2050952 288.856897 60.2050952 289.043391 57.7458095 289.130071 56.837L291.446791 57.0648571zM305.870343 57.0648571C305.686476 60.4617619 304.381023 63.2012857 301.869929 63.2012857 298.381716 63.2012857 297.562196 58.3979524 297.562196 54.5767619 297.562196 51.5255714 298.071769 45.9208095 301.904076 45.9208095 303.637676 45.9208095 304.499223 47.0784286 305.008796 48.1836667 305.686476 49.634619 305.765276 51.4050952 305.820436 52.4134286L303.537863 52.657C303.464316 51.3265238 303.364503 48.914381 301.922463 48.914381 300.493556 48.914381 300.204623 51.4522381 300.204623 54.8517619 300.204623 57.664619 300.427889 60.2050952 301.922463 60.2050952 303.280449 60.2050952 303.464316 57.7458095 303.548369 56.837L305.870343 57.0648571zM309.905165 54.5762381C309.905165 58.1695714 310.149445 60.2045714 311.412872 60.2045714 312.705192 60.2045714 312.925832 58.1224286 312.925832 54.5762381 312.925832 51.048381 312.720952 48.9138571 311.412872 48.9138571 310.149445 48.9138571 309.905165 50.9200476 309.905165 54.5762381M315.570885 54.5762381C315.570885 57.6405238 315.195272 63.2007619 311.412872 63.2007619 307.746045 63.2007619 307.257485 57.9443333 307.257485 54.5762381 307.257485 51.3548095 307.688259 45.9202857 311.412872 45.9202857 315.056059 45.9202857 315.570885 51.0771905 315.570885 54.5762381" mask="url(#pg-13-copy-3-d)"/>
    <polygon fill="#FFF" points="320.358 46.169 323.3 56.585 323.3 46.169 325.254 46.169 325.254 62.952 323.003 62.952 319.52 50.802 319.52 62.952 317.561 62.952 317.561 46.169" mask="url(#pg-13-copy-3-d)"/>
    <polygon fill="#FFF" points="333.497 46.169 333.497 49.312 331.159 49.312 331.159 62.952 328.65 62.952 328.65 49.312 326.365 49.312 326.365 46.169" mask="url(#pg-13-copy-3-d)"/>
    <polygon fill="#FFF" points="341.684 46.169 341.684 49.061 337.24 49.061 337.24 52.939 340.686 52.939 340.686 55.828 337.24 55.828 337.24 59.961 341.684 59.961 341.684 62.952 334.729 62.952 334.729 46.169" mask="url(#pg-13-copy-3-d)"/>
    <polygon fill="#FFF" points="345.958 46.169 348.894 56.585 348.894 46.169 350.854 46.169 350.854 62.952 348.6 62.952 345.115 50.802 345.115 62.952 343.16 62.952 343.16 46.169" mask="url(#pg-13-copy-3-d)"/>
    <polygon fill="#FFF" points="359.094 46.169 359.094 49.312 356.756 49.312 356.756 62.952 354.248 62.952 354.248 49.312 351.965 49.312 351.965 46.169" mask="url(#pg-13-copy-3-d)"/>
    <polygon fill="#FFF" points="196.75 88.12 199.256 88.12 199.256 71.338 196.75 71.338" mask="url(#pg-13-copy-3-d)"/>
    <polygon fill="#FFF" points="204.459 71.337 207.398 81.758 207.398 71.337 209.352 71.337 209.352 88.122 207.101 88.122 203.618 75.972 203.618 88.122 201.659 88.122 201.659 71.337" mask="url(#pg-13-copy-3-d)"/>
    <polygon fill="#FFF" points="218.541 71.337 218.541 74.231 214.26 74.231 214.26 78.615 217.559 78.615 217.559 81.504 214.26 81.504 214.26 88.122 211.754 88.122 211.754 71.337" mask="url(#pg-13-copy-3-d)"/>
    <path fill="#FFF" d="M221.934947 79.7437143C221.934947 83.3422857 222.179227 85.3825238 223.44528 85.3825238 224.7376 85.3825238 224.955613 83.2899048 224.955613 79.7437143 224.955613 76.2237143 224.750733 74.0813333 223.44528 74.0813333 222.179227 74.0813333 221.934947 76.095381 221.934947 79.7437143M227.603293 79.7437143C227.603293 82.8132381 227.22768 88.3760952 223.44528 88.3760952 219.7732 88.3760952 219.29252 83.1144286 219.29252 79.7437143 219.29252 76.5249048 219.720667 71.0877619 223.44528 71.0877619 227.088467 71.0877619 227.603293 76.2446667 227.603293 79.7437143M232.203112 74.063L232.203112 78.7851429 233.316819 78.7851429C234.404259 78.7851429 234.795632 77.7558571 234.795632 76.375619 234.795632 74.063 233.645152 74.063 233.219632 74.063L232.203112 74.063zM233.285299 71.3365714C234.435779 71.3365714 235.552112 71.3365714 236.426792 72.7770476 237.030925 73.7565714 237.251565 75.0922857 237.251565 76.4227619 237.251565 79.3901429 236.206152 80.2963333 235.636165 80.8018095L237.748005 88.1220476 235.003139 88.1220476 233.474419 81.5037143 232.203112 81.5037143 232.203112 88.1220476 229.697272 88.1220476 229.697272 71.3365714 233.285299 71.3365714z" mask="url(#pg-13-copy-3-d)"/>
    <polygon fill="#FFF" points="243.084 71.337 244.7 81.708 246.525 71.337 250.098 71.337 250.098 88.122 247.741 88.122 247.741 74.063 245.409 88.122 243.57 88.122 241.44 74.063 241.44 88.122 239.394 88.122 239.394 71.337" mask="url(#pg-13-copy-3-d)"/>
    <path fill="#FFF" d="M256.807624,81.782119 L255.659771,74.9411667 L254.540811,81.782119 L256.807624,81.782119 Z M257.154344,71.3373571 L260.414037,88.1228333 L257.853037,88.1228333 L257.269917,84.6735476 L254.057504,84.6735476 L253.487517,88.1228333 L251.173424,88.1228333 L254.606477,71.3373571 L257.154344,71.3373571 Z" mask="url(#pg-13-copy-3-d)"/>
    <polygon fill="#FFF" points="267.553 71.337 267.553 74.487 265.22 74.487 265.22 88.122 262.709 88.122 262.709 74.487 260.424 74.487 260.424 71.337" mask="url(#pg-13-copy-3-d)"/>
    <polygon fill="#FFF" points="268.789 88.12 271.295 88.12 271.295 71.338 268.789 71.338" mask="url(#pg-13-copy-3-d)"/>
    <path fill="#FFF" d="M276.035612,79.7437143 C276.035612,83.3422857 276.274639,85.3825238 277.545945,85.3825238 C278.838265,85.3825238 279.053652,83.2899048 279.053652,79.7437143 C279.053652,76.2237143 278.851399,74.0813333 277.545945,74.0813333 C276.274639,74.0813333 276.035612,76.095381 276.035612,79.7437143 M281.698705,79.7437143 C281.698705,82.8132381 281.325719,88.3760952 277.545945,88.3760952 C273.871239,88.3760952 273.387932,83.1144286 273.387932,79.7437143 C273.387932,76.5249048 273.818705,71.0877619 277.545945,71.0877619 C281.186505,71.0877619 281.698705,76.2446667 281.698705,79.7437143" mask="url(#pg-13-copy-3-d)"/>
    <polygon fill="#FFF" points="286.491 71.337 289.43 81.758 289.43 71.337 291.384 71.337 291.384 88.122 289.136 88.122 285.648 75.972 285.648 88.122 283.691 88.122 283.691 71.337" mask="url(#pg-13-copy-3-d)"/>
    <mask id="pg-13-copy-3-f" fill="#fff">
      <use xlink:href="#pg-13-copy-3-e"/>
    </mask>
    <path fill="#FFF" d="M384.891508,120.575871 L385.957935,120.575871 C387.171455,120.575871 388.203735,120.13849 388.203735,118.999205 C388.203735,118.192538 387.615361,117.39111 385.957935,117.39111 C385.482508,117.39111 385.151548,117.425157 384.891508,117.464443 L384.891508,120.575871 Z M384.891508,125.675157 L383.425828,125.675157 L383.425828,116.474443 C384.192815,116.361824 384.933535,116.249205 386.031481,116.249205 C387.431495,116.249205 388.345575,116.545157 388.899801,116.95111 C389.448775,117.351824 389.748215,117.975157 389.748215,118.855157 C389.748215,120.062538 388.936575,120.79849 387.946321,121.091824 L387.946321,121.167776 C388.752708,121.309205 389.304308,122.039919 389.488175,123.401824 C389.711441,124.831824 389.929455,125.379205 390.079175,125.675157 L388.532068,125.675157 C388.311428,125.379205 388.090788,124.535871 387.904295,123.32849 C387.681028,122.155157 387.095281,121.717776 385.921161,121.717776 L384.891508,121.717776 L384.891508,125.675157 Z M386.433361,113.902538 C382.798055,113.902538 379.819415,117.024443 379.819415,120.871824 C379.819415,124.792538 382.798055,127.875157 386.470135,127.875157 C390.152721,127.909205 393.091961,124.792538 393.091961,120.905871 C393.091961,117.024443 390.152721,113.902538 386.470135,113.902538 L386.433361,113.902538 Z M386.470135,112.619205 C390.995881,112.619205 394.597041,116.28849 394.597041,120.871824 C394.597041,125.525871 390.995881,129.155871 386.433361,129.155871 C381.915495,129.155871 378.240788,125.525871 378.240788,120.871824 C378.240788,116.28849 381.915495,112.619205 386.433361,112.619205 L386.470135,112.619205 Z" mask="url(#pg-13-copy-3-f)"/>
  </g>
</svg>
