<svg xmlns="http://www.w3.org/2000/svg" width="84" height="69" viewBox="0 0 84 69"><g fill="none" fill-rule="evenodd"><g fill="#000" transform="translate(2 12)"><path d="M0,0 L0,43 L80,43 L80,0 L0,0 Z M41.3701602,2.88273296 C42.4286511,2.88273296 43.2942269,3.26435212 43.6684782,4.34265399 L42.4662872,4.7491092 C42.2898828,4.22326023 41.9601388,4.01390962 41.4208094,4.01390962 C41.0415222,4.01390962 40.5839949,4.11593387 40.5839949,4.59237722 C40.5839949,5.0498032 41.1131661,5.15893052 41.4571755,5.21974169 C41.9511398,5.32997526 42.6151982,5.45186025 43.0385937,5.74581956 C43.5312969,6.07779661 43.8360144,6.59652508 43.8360144,7.21359919 C43.8360144,7.81800907 43.5527725,8.40135362 43.0827508,8.77262364 C42.5976081,9.16035095 41.9362893,9.27599949 41.3251364,9.27599949 C40.1834825,9.27599949 39.1516982,8.77266074 38.875733,7.55369435 L40.1839856,7.24765221 C40.3616579,7.89895883 40.8197593,8.12735944 41.4498145,8.12735944 C41.8530509,8.12735944 42.3931251,7.97130229 42.3931251,7.45808358 C42.3931251,6.93857075 41.7038318,6.8422116 41.3333619,6.75606391 C40.2559731,6.53430389 39.1943547,6.2086746 39.1943547,4.84908571 C39.1943547,4.27127953 39.4133491,3.76132523 39.8493476,3.39134765 C40.2903842,3.00867231 40.8119373,2.88273296 41.3701602,2.88273296 L41.3701602,2.88273296 Z M50.0465382,2.88273296 C50.851741,2.88273296 51.4903695,3.15824333 51.9729854,3.83360252 C52.4077272,4.44054699 52.6279784,5.32043126 52.6279784,6.06801522 C52.6279784,6.77506384 52.4446518,7.63689124 52.0565385,8.22733617 C51.5839989,8.93439328 50.8681253,9.27599949 50.0465382,9.27599949 C49.2249488,9.27599949 48.5612982,8.98483474 48.0837249,8.29806196 C47.6426838,7.656927 47.4482127,6.84982297 47.4482127,6.06801522 C47.4482127,4.42080316 48.2508843,2.88273296 50.0465382,2.88273296 Z M14.0700018,2.97179501 L15.7163569,2.97179501 L17.616399,9.18388136 L16.0864965,9.18388136 L15.7163569,7.91081613 L13.7552768,7.91081613 L13.3721507,9.18388136 L12.1258027,9.18388136 L14.0700018,2.97179501 Z M18.4363304,2.97179501 L20.1961081,2.97179501 C21.0693618,2.97179501 21.8224791,3.0283312 22.4840373,3.67206825 C23.1392874,4.30436601 23.4212858,5.16563146 23.4212858,6.0614665 C23.4212858,6.89396428 23.1735788,7.7012829 22.6342561,8.32469338 C22.0357063,9.00513829 21.288917,9.18388136 20.4320432,9.18388136 L18.4363304,9.18388136 L18.4363304,2.97179501 Z M24.3749874,2.97179501 L25.9118163,2.97179501 L25.9118163,6.7324888 C25.9118163,7.02010347 25.9035488,7.44074648 26.0447198,7.69165328 C26.2299548,8.01729397 26.6118352,8.10553053 26.9507999,8.10553053 C27.2393658,8.10553053 27.6515391,8.01716879 27.8304726,7.7737303 C28.0245248,7.49242651 27.9993077,7.05560338 27.9993077,6.7324888 L27.9993077,2.97179501 L29.2184069,2.97179501 L29.2184069,6.7324888 C29.2184069,7.40911495 29.2305059,8.11696067 28.7226996,8.62505991 C28.2375613,9.12176209 27.5222375,9.27643605 26.8581569,9.27643605 C26.2205457,9.27643605 25.487767,9.17756846 25.0001086,8.74162648 C24.3990386,8.20817396 24.3749874,7.49275353 24.3749874,6.7324888 L24.3749874,2.97179501 Z M30.4365891,2.97179501 L31.8504733,2.97179501 L31.8504733,7.95141808 L34.2903524,7.95141808 L34.2903524,9.18388136 L30.4365891,9.18388136 L30.4365891,2.97179501 Z M34.0154556,2.97179501 L38.4895769,2.97179501 L38.4895769,4.20382173 L36.9679,4.20382173 L36.9679,9.18388136 L35.5522846,9.18388136 L35.5522846,4.20382173 L34.0154556,4.20382173 L34.0154556,2.97179501 Z M53.7145834,2.97179501 L55.2440536,2.97179501 L57.267907,6.62290726 L57.2856612,6.62290726 L57.2856612,2.97179501 L58.3809216,2.97179501 L58.3809216,9.18388136 L57.1722385,9.18388136 L54.8436121,5.00974688 L54.8111426,5.00974688 L54.8111426,9.18388136 L53.7145834,9.18388136 L53.7145834,2.97179501 Z M59.6870065,2.97179501 L61.103054,2.97179501 L61.103054,7.95141808 L63.5407698,7.95141808 L63.5407698,9.18388136 L59.6870065,9.18388136 L59.6870065,2.97179501 Z M63.0087238,2.97179501 L64.6559455,2.97179501 L65.8204715,5.33587172 L66.9720132,2.97179501 L68.2447664,2.97179501 L66.3416965,6.5700812 L66.3416965,9.18388136 L64.93041,9.18388136 L64.93041,6.5700812 L63.0087238,2.97179501 Z M50.0465382,4.06979176 C49.5601343,4.06979176 49.296289,4.32221812 49.1261728,4.77835993 C48.9875596,5.14583666 48.9322292,5.68071574 48.9322292,6.06845177 C48.9322292,6.85024276 49.0472743,8.08850391 50.0465382,8.08850391 C50.5329421,8.08850391 50.7994715,7.84631763 50.9582459,7.38255528 C51.100636,7.0024313 51.1435319,6.49029804 51.1435319,6.0784929 C51.1435319,5.62488568 51.1012455,5.09346012 50.9236132,4.67532733 C50.7459298,4.25845324 50.488836,4.06979176 50.0465382,4.06979176 Z M19.849348,4.11606933 L19.849348,8.01646825 L20.3255493,8.01646825 C20.9228358,8.01646825 21.2992459,7.89914592 21.6268754,7.35810684 C21.8650337,6.9577153 21.9623801,6.4810833 21.9623801,6.01606226 C21.9623801,5.5294895 21.8226897,5.00482813 21.5303358,4.61202337 C21.203972,4.17487322 20.8400562,4.11606933 20.3385358,4.11606933 L19.849348,4.11606933 Z M14.7449078,4.5858285 L14.0955425,6.76741514 L15.3886454,6.76741514 L14.7449078,4.5858285 Z M2,12 L78,12 L78,41 L2,41 L2,12 Z"/><path d="M44.647236,25.0350257 C43.6535937,25.1158041 43.0946653,25.6167892 43.1168798,26.7957285 C43.1337913,27.7218487 43.6538963,28.2006887 44.6433066,28.2197931 L47.6207085,28.2352471 C48.627031,28.2352471 48.9405312,27.1338535 48.9553453,26.7961294 C48.982785,26.1238139 48.7158244,25.0471132 47.6207085,25.0354266 L46.034547,25.0354266 L44.647236,25.0350257 Z M56.0868048,18.3291868 C55.6209026,18.3367049 55.1303296,18.3494023 54.7207243,18.3584241 C53.5040283,18.5283512 52.5563487,18.8949617 50.5627373,19.5821131 C49.4073536,20.0441374 49.7693084,21.7983579 51.8274237,21.3618368 C53.2259178,21.1982834 52.9532621,21.9488547 52.9828571,22.6243279 L52.9372625,31.3082363 C52.8907561,32.9544709 52.5090547,33.001142 51.7236587,33.1275389 L51.3400837,33.1275389 C50.0906177,33.2305461 50.2884402,34.7141713 51.2936602,34.6823026 L55.0240527,34.6823026 C56.7587034,34.6823026 58.4526256,34.6930787 59.4610621,34.6930787 C60.4325089,34.6823026 60.4454578,33.1624232 59.3376665,33.1486065 L59.1293821,33.1486065 C57.8947218,33.1304794 57.5515023,32.6195954 57.5652304,31.3079188 L57.5652304,21.3670578 C57.5652304,20.0723556 57.5420186,19.3119104 57.5652304,18.719279 C57.5757586,18.5302307 57.573769,18.3296045 57.3026967,18.3296045 C56.9935073,18.3188284 56.5526407,18.3220863 56.0867468,18.3288025 L56.0868048,18.3291868 Z M7.7716741,18.2182188 C7.26283008,18.2223955 6.70550658,18.2304984 6.04167658,18.2657502 C4.78482581,18.2954052 4.76504356,19.5876682 5.57792645,19.8181415 C6.88763296,20.1972907 7.71800511,19.921132 7.80469205,21.5344872 L7.80469205,31.127625 C7.82261487,33.0659234 6.25235844,33.1306715 6.24918008,33.1306715 C4.64137691,33.3707096 4.6325755,34.7643759 5.95284918,34.8121747 C5.95284918,34.8121747 12.5207354,34.8079979 12.5207354,34.8046565 C13.5767428,34.7716601 14.1604432,33.4375461 12.2228385,33.1698912 C10.8190579,32.9755385 10.4865954,32.6634764 10.5415659,30.9981206 L10.5234524,23.9608812 C10.4737294,23.7718329 10.5622244,23.8088473 10.6256382,23.9486015 C10.6247263,23.9486015 18.3418782,34.1912248 18.3418782,34.1912248 C18.7139617,34.597999 19.0587828,34.8377113 19.6623683,34.8058427 C19.6623683,34.8100195 21.732121,34.8116902 21.7405734,34.8116902 C22.8388619,34.8116902 22.7057912,33.2014842 22.7057912,33.2014842 L22.6570215,21.9284387 C22.6887222,20.0071146 24.034208,20.0151674 24.358728,19.8675442 C25.8259406,19.3216423 25.4242821,18.3056215 24.2942904,18.2652657 C23.6389128,18.2419594 18.7508842,18.279049 18.0722517,18.2652657 C16.9422467,18.3056132 16.6311142,19.6391592 18.3276983,19.920614 C18.8995773,20.1202796 19.8732673,20.0070227 19.9028698,21.9284387 C19.9028698,21.9284387 19.8943727,28.3328328 19.8934442,28.3328328 C19.9515483,28.777841 19.7833904,28.4516198 19.7833904,28.4516198 L12.1339688,18.5624168 C11.775621,18.140765 10.2573059,18.2422852 9.21080792,18.2210422 C8.74094397,18.2210422 8.28047666,18.2151948 7.77162353,18.2168655 L7.7716741,18.2182188 Z M34.1218066,18.012263 C33.6989955,18.012263 33.2451435,18.0164564 32.7557253,18.0218027 C29.2885495,18.1163811 27.7812368,19.2785382 26.5698406,21.4972472 C25.3616119,23.9857078 25.1183912,29.0707235 26.1532585,31.6218438 C26.4989178,32.3121946 26.5369055,33.7477453 29.678501,34.663265 C32.0051064,35.1773066 36.9914933,35.1697884 39.7166079,34.1682276 C39.7156131,34.1698983 41.5622714,33.5238128 41.5622714,31.4729341 C41.5737207,30.9897002 40.7146588,30.1688175 38.8087697,31.5006677 C37.1618646,32.7762321 33.6478698,32.9463346 32.1764343,32.3069653 C31.3487506,31.953286 30.9385608,31.369125 30.5918421,30.1264986 C30.4110852,29.5306677 29.8022862,23.2449937 31.103537,21.4330839 C31.9206461,19.9504194 34.676377,19.9008329 36.0019364,20.214148 C37.3359539,20.717564 37.1798819,21.2209131 37.7020711,23.3917983 C38.1872631,24.3158135 38.9035327,24.2954059 39.9531975,24.2677892 C41.6519046,24.1774877 41.5275715,22.9654853 41.5275715,21.6517036 C41.5423276,19.6581634 41.1069414,19.4225861 40.0805332,18.8256944 C38.5257201,18.18077 37.0814871,18.0128143 34.1218066,18.012263 L34.1218066,18.012263 Z M67.6002451,18 C65.0009053,18 62.6115494,18.1201736 61.4984692,18.999556 C60.7120121,19.5826394 60.6217845,20.1085847 60.5953396,21.5190332 C60.6809995,22.2816084 60.2996297,23.8085967 63.1632275,23.4294058 C65.5278794,22.8962681 63.0750226,21.5512694 66.490398,21.3154748 C67.8053876,21.2867388 68.7092964,21.2575015 69.2917301,21.2862376 C67.6004358,24.9525515 65.9374681,28.6508009 63.7165801,33.4004398 C63.4850839,33.929359 63.0755781,34.8055086 64.0089741,34.8055086 L67.1034878,34.8055086 C67.9480822,34.777942 68.0675317,34.3385223 68.326509,33.6333022 C70.0833601,29.4954159 71.3688045,26.5661406 73.7028086,21.3757287 C74.0548072,20.6959952 74.0546414,19.9947347 73.9055968,19.1493177 C73.6709255,18.2327455 72.6526406,18.0330047 71.8038101,18 L67.6002451,18 Z"/></g><rect width="84" height="69"/></g></svg>