<svg id="Layer_1" data-name="Layer 1" xmlns="http://www.w3.org/2000/svg" viewBox="0 0 1365.7 265.7"><defs><style>.cls-1{isolation:isolate;}.cls-2{fill:#fff;}.cls-3,.cls-4,.cls-5{fill:none;stroke:#fff;stroke-miterlimit:10;}.cls-3{stroke-width:14px;}.cls-4{stroke-width:15px;}</style></defs><g class="cls-1"><g class="cls-1"><path class="cls-2" d="M233.61,218.64q-6.41,3.13-16.19,3.14a93.62,93.62,0,0,1-10.29-11.42L121.05,108.09q-4.27-5.15-6.15-5.15t-2,5.15v76.42q0,11.79,2.2,16.94t6,6.52q3.83,1.38,14.12,2.39c.67.67,1,2.13,1,4.39s-.33,3.72-1,4.39q-25.72-.49-28.74-.5-3.64,0-28.86.5c-.67-.67-1-2.11-1-4.33s.34-3.7,1-4.45q10.29-1,14.18-2.51t6-6.65q2.13-5.14,2.14-16.69V77.34q-1.26-5.64-6.91-10.67a21.66,21.66,0,0,0-13.3-5.52c-.67-.83-1-2.3-1.06-4.39s.31-3.55,1.06-4.39l41.79.5,23,27,68.14,80.31q2.9,3.39,4.71,3.52c1.21.08,1.95-1.38,2.2-4.4V87q0-11.79-2.2-16.94t-6.09-6.52q-3.89-1.38-14.18-2.39c-.83-.83-1.25-2.3-1.25-4.39s.42-3.55,1.25-4.39q25.72.5,29.87.5,2.5,0,27.73-.5c.84.84,1.26,2.28,1.26,4.33a6.48,6.48,0,0,1-1.26,4.45q-10.29,1-14.11,2.51t-6,6.65q-2.19,5.14-2.19,16.69V192.41Z" transform="translate(0 -1.47)"/></g><g class="cls-1"><path class="cls-3" d="M233.61,218.64q-6.41,3.13-16.19,3.14a93.62,93.62,0,0,1-10.29-11.42L121.05,108.09q-4.27-5.15-6.15-5.15t-2,5.15v76.42q0,11.79,2.2,16.94t6,6.52q3.83,1.38,14.12,2.39c.67.67,1,2.13,1,4.39s-.33,3.72-1,4.39q-25.72-.49-28.74-.5-3.64,0-28.86.5c-.67-.67-1-2.11-1-4.33s.34-3.7,1-4.45q10.29-1,14.18-2.51t6-6.65q2.13-5.14,2.14-16.69V77.34q-1.26-5.64-6.91-10.67a21.66,21.66,0,0,0-13.3-5.52c-.67-.83-1-2.3-1.06-4.39s.31-3.55,1.06-4.39l41.79.5,23,27,68.14,80.31q2.9,3.39,4.71,3.52c1.21.08,1.95-1.38,2.2-4.4V87q0-11.79-2.2-16.94t-6.09-6.52q-3.89-1.38-14.18-2.39c-.83-.83-1.25-2.3-1.25-4.39s.42-3.55,1.25-4.39q25.72.5,29.87.5,2.5,0,27.73-.5c.84.84,1.26,2.28,1.26,4.33a6.48,6.48,0,0,1-1.26,4.45q-10.29,1-14.11,2.51t-6,6.65q-2.19,5.14-2.19,16.69V192.41Z" transform="translate(0 -1.47)"/></g><g class="cls-1"><path class="cls-2" d="M375.47,50.61q27.79,0,41.89,8.39,19.35,11.77,19.22,35.18,0,17.91-8.37,28.92A50.29,50.29,0,0,1,408,139.25l34.88,54.5q5.9,9.12,11.17,13.12t13.55,4a10.22,10.22,0,0,1,.88,4.26,7.34,7.34,0,0,1-.62,4q-4.15,2-26.23,2-18.19,0-33.87-22.53L378,153.26a14.16,14.16,0,0,0-7.34-6.31q-4.45-1.59-18.89-1.6v42.06A54.13,54.13,0,0,0,353,200a11.56,11.56,0,0,0,4.39,7.07,17.16,17.16,0,0,0,6.27,2.87,64.34,64.34,0,0,0,9.48.89c1.17.79,1.77,2.17,1.82,4.14s-.57,3.35-1.82,4.14q-20.58-.46-39-.47-19.08,0-39.65.47c-1.18-.83-1.76-2.32-1.76-4.45s.58-3.58,1.76-4.33a66.26,66.26,0,0,0,9.53-.88,17.18,17.18,0,0,0,6.34-2.83,11.13,11.13,0,0,0,4.33-6.91,55.92,55.92,0,0,0,1.13-12.51V84a55.92,55.92,0,0,0-1.13-12.44,11.16,11.16,0,0,0-4.33-7A17.27,17.27,0,0,0,304,61.78a65.79,65.79,0,0,0-9.6-.88c-1.18-.81-1.76-2.27-1.76-4.39s.58-3.49,1.76-4.14q5.13,0,40.53-.88T375.47,50.61Zm25.1,47.94q0-37.65-33.38-37.65-9.79,0-12.61,4.6t-2.83,18.32v51.24H362.8q18.43,0,28.11-7.3T400.57,98.55Z" transform="translate(0 -1.47)"/></g><g class="cls-1"><path class="cls-3" d="M375.47,50.61q27.79,0,41.89,8.39,19.35,11.77,19.22,35.18,0,17.91-8.37,28.92A50.29,50.29,0,0,1,408,139.25l34.88,54.5q5.9,9.12,11.17,13.12t13.55,4a10.22,10.22,0,0,1,.88,4.26,7.34,7.34,0,0,1-.62,4q-4.15,2-26.23,2-18.19,0-33.87-22.53L378,153.26a14.16,14.16,0,0,0-7.34-6.31q-4.45-1.59-18.89-1.6v42.06A54.13,54.13,0,0,0,353,200a11.56,11.56,0,0,0,4.39,7.07,17.16,17.16,0,0,0,6.27,2.87,64.34,64.34,0,0,0,9.48.89c1.17.79,1.77,2.17,1.82,4.14s-.57,3.35-1.82,4.14q-20.58-.46-39-.47-19.08,0-39.65.47c-1.18-.83-1.76-2.32-1.76-4.45s.58-3.58,1.76-4.33a66.26,66.26,0,0,0,9.53-.88,17.18,17.18,0,0,0,6.34-2.83,11.13,11.13,0,0,0,4.33-6.91,55.92,55.92,0,0,0,1.13-12.51V84a55.92,55.92,0,0,0-1.13-12.44,11.16,11.16,0,0,0-4.33-7A17.27,17.27,0,0,0,304,61.78a65.79,65.79,0,0,0-9.6-.88c-1.18-.81-1.76-2.27-1.76-4.39s.58-3.49,1.76-4.14q5.13,0,40.53-.88T375.47,50.61Zm25.1,47.94q0-37.65-33.38-37.65-9.79,0-12.61,4.6t-2.83,18.32v51.24H362.8q18.43,0,28.11-7.3T400.57,98.55Z" transform="translate(0 -1.47)"/></g></g><rect class="cls-4" x="7.5" y="7.5" width="1350.7" height="250.7"/><line class="cls-4" x1="532.85" y1="6.5" x2="532.85" y2="257.21"/><line class="cls-4" x1="1358.2" y1="110.91" x2="532.85" y2="110.91"/><g class="cls-1"><g class="cls-1"><path class="cls-2" d="M683.82,29.87h13.06l30.18,39.65V29.87h14v64.4H729L697.8,53.33V94.27h-14Z" transform="translate(0 -1.47)"/></g><g class="cls-1"><path class="cls-5" d="M683.82,29.87h13.06l30.18,39.65V29.87h14v64.4H729L697.8,53.33V94.27h-14Z" transform="translate(0 -1.47)"/></g><g class="cls-1"><path class="cls-2" d="M751.17,62.26v-.19c0-18.31,14.44-33.3,34.31-33.3s34.13,14.81,34.13,33.12v.18c0,18.31-14.44,33.3-34.31,33.3S751.17,80.56,751.17,62.26Zm53.63,0v-.19c0-11-8.1-20.24-19.5-20.24S766,50.85,766,61.89v.18c0,11,8.09,20.24,19.5,20.24S804.8,73.3,804.8,62.26Z" transform="translate(0 -1.47)"/></g><g class="cls-1"><path class="cls-5" d="M751.17,62.26v-.19c0-18.31,14.44-33.3,34.31-33.3s34.13,14.81,34.13,33.12v.18c0,18.31-14.44,33.3-34.31,33.3S751.17,80.56,751.17,62.26Zm53.63,0v-.19c0-11-8.1-20.24-19.5-20.24S766,50.85,766,61.89v.18c0,11,8.09,20.24,19.5,20.24S804.8,73.3,804.8,62.26Z" transform="translate(0 -1.47)"/></g><g class="cls-1"><path class="cls-2" d="M842,42.94H822.37V29.87h53.35V42.94H856.13V94.27H842Z" transform="translate(0 -1.47)"/><path class="cls-2" d="M908.66,29.87H938.1c8.19,0,14.54,2.3,18.77,6.53,3.59,3.59,5.52,8.65,5.52,14.72v.19c0,10.39-5.61,16.93-13.8,20l15.73,23H947.76L934,73.66H922.83V94.27H908.66Zm28.52,31.28c6.9,0,10.86-3.68,10.86-9.11v-.18c0-6.07-4.24-9.2-11.14-9.2H922.83V61.15Z" transform="translate(0 -1.47)"/></g><g class="cls-1"><path class="cls-5" d="M842,42.94H822.37V29.87h53.35V42.94H856.13V94.27H842Z" transform="translate(0 -1.47)"/><path class="cls-5" d="M908.66,29.87H938.1c8.19,0,14.54,2.3,18.77,6.53,3.59,3.59,5.52,8.65,5.52,14.72v.19c0,10.39-5.61,16.93-13.8,20l15.73,23H947.76L934,73.66H922.83V94.27H908.66Zm28.52,31.28c6.9,0,10.86-3.68,10.86-9.11v-.18c0-6.07-4.24-9.2-11.14-9.2H922.83V61.15Z" transform="translate(0 -1.47)"/></g><g class="cls-1"><path class="cls-2" d="M995.33,29.41h13.06L1036,94.27h-14.81l-5.89-14.44H988.06l-5.89,14.44H967.73Zm14.9,37.9-8.56-20.88-8.55,20.88Z" transform="translate(0 -1.47)"/></g><g class="cls-1"><path class="cls-5" d="M995.33,29.41h13.06L1036,94.27h-14.81l-5.89-14.44H988.06l-5.89,14.44H967.73Zm14.9,37.9-8.56-20.88-8.55,20.88Z" transform="translate(0 -1.47)"/></g><g class="cls-1"><path class="cls-2" d="M1050.15,42.94h-19.59V29.87h53.36V42.94h-19.6V94.27h-14.17Z" transform="translate(0 -1.47)"/><path class="cls-2" d="M1092,29.87h48.58V42.48h-34.5V55.54h30.36v12.6h-30.36V81.67h35v12.6h-49Z" transform="translate(0 -1.47)"/><path class="cls-2" d="M1150.89,29.87H1176c20.24,0,34.22,13.89,34.22,32v.18c0,18.12-14,32.2-34.22,32.2h-25.12Zm14.17,12.79V81.48h11c11.59,0,19.41-7.82,19.41-19.22v-.19c0-11.41-7.82-19.41-19.41-19.41Z" transform="translate(0 -1.47)"/></g><g class="cls-1"><path class="cls-5" d="M1050.15,42.94h-19.59V29.87h53.36V42.94h-19.6V94.27h-14.17Z" transform="translate(0 -1.47)"/><path class="cls-5" d="M1092,29.87h48.58V42.48h-34.5V55.54h30.36v12.6h-30.36V81.67h35v12.6h-49Z" transform="translate(0 -1.47)"/><path class="cls-5" d="M1150.89,29.87H1176c20.24,0,34.22,13.89,34.22,32v.18c0,18.12-14,32.2-34.22,32.2h-25.12Zm14.17,12.79V81.48h11c11.59,0,19.41-7.82,19.41-19.22v-.19c0-11.41-7.82-19.41-19.41-19.41Z" transform="translate(0 -1.47)"/></g></g><g class="cls-1"><g class="cls-1"><path class="cls-2" d="M587.13,142.7H572.65V133h39.44v9.66H597.6v37.94H587.13Z" transform="translate(0 -1.47)"/></g><g class="cls-1"><path class="cls-5" d="M587.13,142.7H572.65V133h39.44v9.66H597.6v37.94H587.13Z" transform="translate(0 -1.47)"/></g><g class="cls-1"><path class="cls-2" d="M614.13,131h10.34v18.35c2.38-3.06,5.44-5.84,10.67-5.84,7.82,0,12.38,5.16,12.38,13.53v23.59H637.18V160.31c0-4.9-2.31-7.41-6.25-7.41s-6.46,2.51-6.46,7.41v20.33H614.13Z" transform="translate(0 -1.47)"/><path class="cls-2" d="M650,162.62v-.13c0-10.41,7.41-19,18-19,12.17,0,17.74,9.45,17.74,19.78,0,.82-.06,1.77-.13,2.72H660.24c1,4.69,4.28,7.14,8.9,7.14,3.47,0,6-1.09,8.84-3.74l5.92,5.24c-3.4,4.21-8.3,6.8-14.89,6.8C658.06,181.46,650,173.77,650,162.62Zm25.7-3.06c-.61-4.62-3.33-7.75-7.68-7.75s-7.07,3.06-7.89,7.75Z" transform="translate(0 -1.47)"/></g><g class="cls-1"><path class="cls-5" d="M614.13,131h10.34v18.35c2.38-3.06,5.44-5.84,10.67-5.84,7.82,0,12.38,5.16,12.38,13.53v23.59H637.18V160.31c0-4.9-2.31-7.41-6.25-7.41s-6.46,2.51-6.46,7.41v20.33H614.13Z" transform="translate(0 -1.47)"/><path class="cls-5" d="M650,162.62v-.13c0-10.41,7.41-19,18-19,12.17,0,17.74,9.45,17.74,19.78,0,.82-.06,1.77-.13,2.72H660.24c1,4.69,4.28,7.14,8.9,7.14,3.47,0,6-1.09,8.84-3.74l5.92,5.24c-3.4,4.21-8.3,6.8-14.89,6.8C658.06,181.46,650,173.77,650,162.62Zm25.7-3.06c-.61-4.62-3.33-7.75-7.68-7.75s-7.07,3.06-7.89,7.75Z" transform="translate(0 -1.47)"/></g><g class="cls-1"><path class="cls-2" d="M703.89,157v-.14c0-13.53,10.2-24.61,24.82-24.61,9,0,14.35,3,18.77,7.34l-6.67,7.69c-3.67-3.34-7.41-5.38-12.17-5.38-8,0-13.8,6.67-13.8,14.83v.13c0,8.16,5.64,15,13.8,15,5.44,0,8.77-2.18,12.51-5.57l6.67,6.73c-4.9,5.23-10.34,8.5-19.52,8.5A24,24,0,0,1,703.89,157Z" transform="translate(0 -1.47)"/></g><g class="cls-1"><path class="cls-5" d="M703.89,157v-.14c0-13.53,10.2-24.61,24.82-24.61,9,0,14.35,3,18.77,7.34l-6.67,7.69c-3.67-3.34-7.41-5.38-12.17-5.38-8,0-13.8,6.67-13.8,14.83v.13c0,8.16,5.64,15,13.8,15,5.44,0,8.77-2.18,12.51-5.57l6.67,6.73c-4.9,5.23-10.34,8.5-19.52,8.5A24,24,0,0,1,703.89,157Z" transform="translate(0 -1.47)"/></g><g class="cls-1"><path class="cls-2" d="M748.09,162.62v-.13c0-10.47,8.43-19,19.78-19s19.65,8.36,19.65,18.83v.14c0,10.47-8.43,19-19.78,19S748.09,173.09,748.09,162.62Zm29.23,0v-.13c0-5.38-3.87-10.07-9.58-10.07-5.92,0-9.45,4.56-9.45,9.93v.14c0,5.37,3.87,10.06,9.58,10.06C773.79,172.55,777.32,168,777.32,162.62Z" transform="translate(0 -1.47)"/><path class="cls-2" d="M790.25,144.2h10.33v5.16c2.38-3.06,5.44-5.84,10.67-5.84,7.82,0,12.38,5.16,12.38,13.53v23.59H813.29V160.31c0-4.9-2.31-7.41-6.25-7.41s-6.46,2.51-6.46,7.41v20.33H790.25Z" transform="translate(0 -1.47)"/></g><g class="cls-1"><path class="cls-5" d="M748.09,162.62v-.13c0-10.47,8.43-19,19.78-19s19.65,8.36,19.65,18.83v.14c0,10.47-8.43,19-19.78,19S748.09,173.09,748.09,162.62Zm29.23,0v-.13c0-5.38-3.87-10.07-9.58-10.07-5.92,0-9.45,4.56-9.45,9.93v.14c0,5.37,3.87,10.06,9.58,10.06C773.79,172.55,777.32,168,777.32,162.62Z" transform="translate(0 -1.47)"/><path class="cls-5" d="M790.25,144.2h10.33v5.16c2.38-3.06,5.44-5.84,10.67-5.84,7.82,0,12.38,5.16,12.38,13.53v23.59H813.29V160.31c0-4.9-2.31-7.41-6.25-7.41s-6.46,2.51-6.46,7.41v20.33H790.25Z" transform="translate(0 -1.47)"/></g><g class="cls-1"><path class="cls-2" d="M830,170.3V153h-4.35V144.2H830v-9.32H840.3v9.32h8.57V153H840.3V168.6c0,2.38,1,3.54,3.33,3.54a10.49,10.49,0,0,0,5.1-1.29v8.29a15.17,15.17,0,0,1-8.16,2.11C834.25,181.25,830,178.74,830,170.3Z" transform="translate(0 -1.47)"/></g><g class="cls-1"><path class="cls-5" d="M830,170.3V153h-4.35V144.2H830v-9.32H840.3v9.32h8.57V153H840.3V168.6c0,2.38,1,3.54,3.33,3.54a10.49,10.49,0,0,0,5.1-1.29v8.29a15.17,15.17,0,0,1-8.16,2.11C834.25,181.25,830,178.74,830,170.3Z" transform="translate(0 -1.47)"/></g><g class="cls-1"><path class="cls-2" d="M849.14,162.62v-.13c0-10.41,7.41-19,18-19,12.18,0,17.75,9.45,17.75,19.78,0,.82-.07,1.77-.14,2.72H859.4c1,4.69,4.29,7.14,8.91,7.14,3.47,0,6-1.09,8.84-3.74l5.91,5.24c-3.39,4.21-8.29,6.8-14.89,6.8C857.23,181.46,849.14,173.77,849.14,162.62Zm25.7-3.06c-.61-4.62-3.33-7.75-7.69-7.75s-7.07,3.06-7.88,7.75Z" transform="translate(0 -1.47)"/><path class="cls-2" d="M887.83,144.2h10.33v5.16c2.38-3.06,5.44-5.84,10.68-5.84,7.82,0,12.37,5.16,12.37,13.53v23.59H910.88V160.31c0-4.9-2.32-7.41-6.26-7.41s-6.46,2.51-6.46,7.41v20.33H887.83Z" transform="translate(0 -1.47)"/><path class="cls-2" d="M927.13,170.3V153h-4.35V144.2h4.35v-9.32h10.33v9.32H946V153h-8.57V168.6c0,2.38,1,3.54,3.34,3.54a10.49,10.49,0,0,0,5.1-1.29v8.29a15.2,15.2,0,0,1-8.16,2.11C931.41,181.25,927.13,178.74,927.13,170.3Z" transform="translate(0 -1.47)"/><path class="cls-2" d="M962.76,162.62v-.13c0-10.47,8.43-19,19.79-19s19.65,8.36,19.65,18.83v.14c0,10.47-8.43,19-19.79,19S962.76,173.09,962.76,162.62Zm29.24,0v-.13c0-5.38-3.88-10.07-9.59-10.07-5.91,0-9.45,4.56-9.45,9.93v.14c0,5.37,3.87,10.06,9.59,10.06C988.46,172.55,992,168,992,162.62Z" transform="translate(0 -1.47)"/><path class="cls-2" d="M1006.69,153h-4.29v-8.49h4.29v-2.32c0-4,1-6.93,2.92-8.83s4.69-2.86,8.36-2.86a23,23,0,0,1,7.35,1v8.57a13,13,0,0,0-4.69-.89c-2.38,0-3.74,1.23-3.74,4v1.42h8.36V153H1017v27.61h-10.33Z" transform="translate(0 -1.47)"/></g><g class="cls-1"><path class="cls-5" d="M849.14,162.62v-.13c0-10.41,7.41-19,18-19,12.18,0,17.75,9.45,17.75,19.78,0,.82-.07,1.77-.14,2.72H859.4c1,4.69,4.29,7.14,8.91,7.14,3.47,0,6-1.09,8.84-3.74l5.91,5.24c-3.39,4.21-8.29,6.8-14.89,6.8C857.23,181.46,849.14,173.77,849.14,162.62Zm25.7-3.06c-.61-4.62-3.33-7.75-7.69-7.75s-7.07,3.06-7.88,7.75Z" transform="translate(0 -1.47)"/><path class="cls-5" d="M887.83,144.2h10.33v5.16c2.38-3.06,5.44-5.84,10.68-5.84,7.82,0,12.37,5.16,12.37,13.53v23.59H910.88V160.31c0-4.9-2.32-7.41-6.26-7.41s-6.46,2.51-6.46,7.41v20.33H887.83Z" transform="translate(0 -1.47)"/><path class="cls-5" d="M927.13,170.3V153h-4.35V144.2h4.35v-9.32h10.33v9.32H946V153h-8.57V168.6c0,2.38,1,3.54,3.34,3.54a10.49,10.49,0,0,0,5.1-1.29v8.29a15.2,15.2,0,0,1-8.16,2.11C931.41,181.25,927.13,178.74,927.13,170.3Z" transform="translate(0 -1.47)"/><path class="cls-5" d="M962.76,162.62v-.13c0-10.47,8.43-19,19.79-19s19.65,8.36,19.65,18.83v.14c0,10.47-8.43,19-19.79,19S962.76,173.09,962.76,162.62Zm29.24,0v-.13c0-5.38-3.88-10.07-9.59-10.07-5.91,0-9.45,4.56-9.45,9.93v.14c0,5.37,3.87,10.06,9.59,10.06C988.46,172.55,992,168,992,162.62Z" transform="translate(0 -1.47)"/><path class="cls-5" d="M1006.69,153h-4.29v-8.49h4.29v-2.32c0-4,1-6.93,2.92-8.83s4.69-2.86,8.36-2.86a23,23,0,0,1,7.35,1v8.57a13,13,0,0,0-4.69-.89c-2.38,0-3.74,1.23-3.74,4v1.42h8.36V153H1017v27.61h-10.33Z" transform="translate(0 -1.47)"/></g><g class="cls-1"><path class="cls-2" d="M1055.38,142.7h-14.49V133h39.44v9.66h-14.48v37.94h-10.47Z" transform="translate(0 -1.47)"/></g><g class="cls-1"><path class="cls-5" d="M1055.38,142.7h-14.49V133h39.44v9.66h-14.48v37.94h-10.47Z" transform="translate(0 -1.47)"/></g><g class="cls-1"><path class="cls-2" d="M1082.37,131h10.34v18.35c2.38-3.06,5.44-5.84,10.67-5.84,7.82,0,12.38,5.16,12.38,13.53v23.59h-10.34V160.31c0-4.9-2.31-7.41-6.25-7.41s-6.46,2.51-6.46,7.41v20.33h-10.34Z" transform="translate(0 -1.47)"/><path class="cls-2" d="M1120.18,131h10.88v9.17h-10.88Zm.27,13.19h10.34v36.44h-10.34Z" transform="translate(0 -1.47)"/><path class="cls-2" d="M1132.9,175.81l4.42-6.8c3.94,2.86,8.09,4.35,11.49,4.35,3,0,4.35-1.08,4.35-2.72v-.13c0-2.25-3.54-3-7.55-4.22-5.1-1.49-10.88-3.87-10.88-10.94v-.14c0-7.41,6-11.56,13.33-11.56a25.27,25.27,0,0,1,13.6,4.22l-4,7.14c-3.6-2.11-7.2-3.4-9.86-3.4-2.51,0-3.8,1.08-3.8,2.51v.14c0,2,3.46,3,7.41,4.35,5.1,1.7,11,4.15,11,10.81v.14c0,8.09-6,11.76-13.94,11.76A25.48,25.48,0,0,1,1132.9,175.81Z" transform="translate(0 -1.47)"/><path class="cls-2" d="M1181.85,133h36.24v9.52h-25.76v10.13H1215v9.52h-22.71v18.43h-10.48Z" transform="translate(0 -1.47)"/><path class="cls-2" d="M1220.82,131h10.88v9.17h-10.88Zm.27,13.19h10.34v36.44h-10.34Z" transform="translate(0 -1.47)"/><path class="cls-2" d="M1236.87,131h10.33v49.63h-10.33Z" transform="translate(0 -1.47)"/><path class="cls-2" d="M1252.16,144.2h10.34v5.16c2.38-3.06,5.51-5.84,10.74-5.84,4.76,0,8.37,2.1,10.27,5.78,3.2-3.74,7-5.78,12-5.78,7.68,0,12.3,4.62,12.3,13.39v23.73h-10.33V160.31c0-4.9-2.18-7.41-6-7.41s-6.26,2.51-6.26,7.41v20.33h-10.33V160.31c0-4.9-2.18-7.41-6.06-7.41s-6.25,2.51-6.25,7.41v20.33h-10.34Z" transform="translate(0 -1.47)"/></g><g class="cls-1"><path class="cls-5" d="M1082.37,131h10.34v18.35c2.38-3.06,5.44-5.84,10.67-5.84,7.82,0,12.38,5.16,12.38,13.53v23.59h-10.34V160.31c0-4.9-2.31-7.41-6.25-7.41s-6.46,2.51-6.46,7.41v20.33h-10.34Z" transform="translate(0 -1.47)"/><path class="cls-5" d="M1120.18,131h10.88v9.17h-10.88Zm.27,13.19h10.34v36.44h-10.34Z" transform="translate(0 -1.47)"/><path class="cls-5" d="M1132.9,175.81l4.42-6.8c3.94,2.86,8.09,4.35,11.49,4.35,3,0,4.35-1.08,4.35-2.72v-.13c0-2.25-3.54-3-7.55-4.22-5.1-1.49-10.88-3.87-10.88-10.94v-.14c0-7.41,6-11.56,13.33-11.56a25.27,25.27,0,0,1,13.6,4.22l-4,7.14c-3.6-2.11-7.2-3.4-9.86-3.4-2.51,0-3.8,1.08-3.8,2.51v.14c0,2,3.46,3,7.41,4.35,5.1,1.7,11,4.15,11,10.81v.14c0,8.09-6,11.76-13.94,11.76A25.48,25.48,0,0,1,1132.9,175.81Z" transform="translate(0 -1.47)"/><path class="cls-5" d="M1181.85,133h36.24v9.52h-25.76v10.13H1215v9.52h-22.71v18.43h-10.48Z" transform="translate(0 -1.47)"/><path class="cls-5" d="M1220.82,131h10.88v9.17h-10.88Zm.27,13.19h10.34v36.44h-10.34Z" transform="translate(0 -1.47)"/><path class="cls-5" d="M1236.87,131h10.33v49.63h-10.33Z" transform="translate(0 -1.47)"/><path class="cls-5" d="M1252.16,144.2h10.34v5.16c2.38-3.06,5.51-5.84,10.74-5.84,4.76,0,8.37,2.1,10.27,5.78,3.2-3.74,7-5.78,12-5.78,7.68,0,12.3,4.62,12.3,13.39v23.73h-10.33V160.31c0-4.9-2.18-7.41-6-7.41s-6.26,2.51-6.26,7.41v20.33h-10.33V160.31c0-4.9-2.18-7.41-6.06-7.41s-6.25,2.51-6.25,7.41v20.33h-10.34Z" transform="translate(0 -1.47)"/></g><g class="cls-1"><path class="cls-2" d="M580,194h10.47v18.84h19.31V194h10.47v47.6H609.77V222.53H590.46v19.11H580Z" transform="translate(0 -1.47)"/><path class="cls-2" d="M623.65,231.17V231c0-7.95,6.05-11.62,14.68-11.62a26,26,0,0,1,8.91,1.49v-.61c0-4.28-2.65-6.66-7.82-6.66a26.68,26.68,0,0,0-10.06,2l-2.58-7.89a32.1,32.1,0,0,1,14.14-2.92c5.64,0,9.72,1.49,12.3,4.08s3.95,6.73,3.95,11.62v21.15h-10V237.7a14,14,0,0,1-11,4.62C629.29,242.32,623.65,238.38,623.65,231.17Zm23.73-2.38V227a16.14,16.14,0,0,0-6.6-1.36c-4.42,0-7.14,1.77-7.14,5v.14c0,2.79,2.31,4.42,5.65,4.42C644.11,235.18,647.38,232.53,647.38,228.79Z" transform="translate(0 -1.47)"/><path class="cls-2" d="M658.46,236.81l4.42-6.8c4,2.86,8.09,4.35,11.49,4.35,3,0,4.36-1.08,4.36-2.72v-.13c0-2.25-3.54-3-7.55-4.22-5.1-1.49-10.88-3.87-10.88-10.94v-.14c0-7.41,6-11.56,13.33-11.56a25.13,25.13,0,0,1,13.59,4.22L683.28,216c-3.6-2.11-7.21-3.4-9.86-3.4s-3.81,1.08-3.81,2.51v.14c0,2,3.47,3,7.42,4.35,5.09,1.7,11,4.15,11,10.81v.14c0,8.09-6,11.76-13.94,11.76A25.53,25.53,0,0,1,658.46,236.81Z" transform="translate(0 -1.47)"/><path class="cls-2" d="M707.42,194h9.66l22.3,29.31V194h10.33v47.6h-8.9l-23-30.26v30.26H707.42Z" transform="translate(0 -1.47)"/><path class="cls-2" d="M753.53,223.62v-.13c0-10.48,8.43-19,19.78-19S793,212.88,793,223.35v.14c0,10.47-8.43,19-19.78,19S753.53,234.09,753.53,223.62Zm29.23,0v-.13c0-5.38-3.87-10.07-9.58-10.07-5.92,0-9.46,4.56-9.46,9.93v.14c0,5.37,3.88,10.06,9.59,10.06C779.23,233.55,782.76,229,782.76,223.62Z" transform="translate(0 -1.47)"/><path class="cls-2" d="M797.38,231.3V214H793V205.2h4.35v-9.32h10.34v9.32h8.57V214h-8.57V229.6c0,2.38,1,3.54,3.33,3.54a10.46,10.46,0,0,0,5.1-1.29v8.29a15.17,15.17,0,0,1-8.16,2.11C801.67,242.25,797.38,239.74,797.38,231.3Z" transform="translate(0 -1.47)"/><path class="cls-2" d="M835.87,194H858c5.44,0,9.72,1.5,12.44,4.22a10.91,10.91,0,0,1,3.27,8.09v.14c0,5.37-2.86,8.36-6.26,10.26,5.51,2.11,8.91,5.31,8.91,11.7v.13c0,8.71-7.07,13.06-17.82,13.06H835.87Zm27.4,14.08c0-3.13-2.44-4.9-6.86-4.9H846.07v10.07h9.66c4.62,0,7.54-1.5,7.54-5ZM858.17,222h-12.1v10.47h12.44c4.63,0,7.41-1.63,7.41-5.17v-.13C865.92,224,863.54,222,858.17,222Z" transform="translate(0 -1.47)"/><path class="cls-2" d="M877.35,223.62v-.13c0-10.41,7.41-19,18-19,12.17,0,17.75,9.45,17.75,19.78,0,.82-.07,1.77-.14,2.72H887.62c1,4.69,4.28,7.14,8.9,7.14,3.47,0,6-1.09,8.84-3.74l5.92,5.24c-3.4,4.21-8.3,6.8-14.89,6.8C885.44,242.46,877.35,234.77,877.35,223.62Zm25.7-3.06c-.61-4.62-3.33-7.75-7.68-7.75s-7.07,3.06-7.89,7.75Z" transform="translate(0 -1.47)"/><path class="cls-2" d="M914.27,223.62v-.13c0-10.41,7.42-19,18-19,12.17,0,17.75,9.45,17.75,19.78,0,.82-.07,1.77-.14,2.72H924.54c1,4.69,4.28,7.14,8.91,7.14,3.47,0,6-1.09,8.84-3.74l5.91,5.24c-3.4,4.21-8.29,6.8-14.89,6.8C922.37,242.46,914.27,234.77,914.27,223.62ZM940,220.56c-.62-4.62-3.34-7.75-7.69-7.75s-7.07,3.06-7.88,7.75Z" transform="translate(0 -1.47)"/><path class="cls-2" d="M953,205.2H963.3v5.16c2.38-3.06,5.44-5.84,10.67-5.84,7.82,0,12.38,5.16,12.38,13.53v23.59H976V221.31c0-4.9-2.31-7.41-6.25-7.41s-6.46,2.51-6.46,7.41v20.33H953Z" transform="translate(0 -1.47)"/></g><g class="cls-1"><path class="cls-5" d="M580,194h10.47v18.84h19.31V194h10.47v47.6H609.77V222.53H590.46v19.11H580Z" transform="translate(0 -1.47)"/><path class="cls-5" d="M623.65,231.17V231c0-7.95,6.05-11.62,14.68-11.62a26,26,0,0,1,8.91,1.49v-.61c0-4.28-2.65-6.66-7.82-6.66a26.68,26.68,0,0,0-10.06,2l-2.58-7.89a32.1,32.1,0,0,1,14.14-2.92c5.64,0,9.72,1.49,12.3,4.08s3.95,6.73,3.95,11.62v21.15h-10V237.7a14,14,0,0,1-11,4.62C629.29,242.32,623.65,238.38,623.65,231.17Zm23.73-2.38V227a16.14,16.14,0,0,0-6.6-1.36c-4.42,0-7.14,1.77-7.14,5v.14c0,2.79,2.31,4.42,5.65,4.42C644.11,235.18,647.38,232.53,647.38,228.79Z" transform="translate(0 -1.47)"/><path class="cls-5" d="M658.46,236.81l4.42-6.8c4,2.86,8.09,4.35,11.49,4.35,3,0,4.36-1.08,4.36-2.72v-.13c0-2.25-3.54-3-7.55-4.22-5.1-1.49-10.88-3.87-10.88-10.94v-.14c0-7.41,6-11.56,13.33-11.56a25.13,25.13,0,0,1,13.59,4.22L683.28,216c-3.6-2.11-7.21-3.4-9.86-3.4s-3.81,1.08-3.81,2.51v.14c0,2,3.47,3,7.42,4.35,5.09,1.7,11,4.15,11,10.81v.14c0,8.09-6,11.76-13.94,11.76A25.53,25.53,0,0,1,658.46,236.81Z" transform="translate(0 -1.47)"/><path class="cls-5" d="M707.42,194h9.66l22.3,29.31V194h10.33v47.6h-8.9l-23-30.26v30.26H707.42Z" transform="translate(0 -1.47)"/><path class="cls-5" d="M753.53,223.62v-.13c0-10.48,8.43-19,19.78-19S793,212.88,793,223.35v.14c0,10.47-8.43,19-19.78,19S753.53,234.09,753.53,223.62Zm29.23,0v-.13c0-5.38-3.87-10.07-9.58-10.07-5.92,0-9.46,4.56-9.46,9.93v.14c0,5.37,3.88,10.06,9.59,10.06C779.23,233.55,782.76,229,782.76,223.62Z" transform="translate(0 -1.47)"/><path class="cls-5" d="M797.38,231.3V214H793V205.2h4.35v-9.32h10.34v9.32h8.57V214h-8.57V229.6c0,2.38,1,3.54,3.33,3.54a10.46,10.46,0,0,0,5.1-1.29v8.29a15.17,15.17,0,0,1-8.16,2.11C801.67,242.25,797.38,239.74,797.38,231.3Z" transform="translate(0 -1.47)"/><path class="cls-5" d="M835.87,194H858c5.44,0,9.72,1.5,12.44,4.22a10.91,10.91,0,0,1,3.27,8.09v.14c0,5.37-2.86,8.36-6.26,10.26,5.51,2.11,8.91,5.31,8.91,11.7v.13c0,8.71-7.07,13.06-17.82,13.06H835.87Zm27.4,14.08c0-3.13-2.44-4.9-6.86-4.9H846.07v10.07h9.66c4.62,0,7.54-1.5,7.54-5ZM858.17,222h-12.1v10.47h12.44c4.63,0,7.41-1.63,7.41-5.17v-.13C865.92,224,863.54,222,858.17,222Z" transform="translate(0 -1.47)"/><path class="cls-5" d="M877.35,223.62v-.13c0-10.41,7.41-19,18-19,12.17,0,17.75,9.45,17.75,19.78,0,.82-.07,1.77-.14,2.72H887.62c1,4.69,4.28,7.14,8.9,7.14,3.47,0,6-1.09,8.84-3.74l5.92,5.24c-3.4,4.21-8.3,6.8-14.89,6.8C885.44,242.46,877.35,234.77,877.35,223.62Zm25.7-3.06c-.61-4.62-3.33-7.75-7.68-7.75s-7.07,3.06-7.89,7.75Z" transform="translate(0 -1.47)"/><path class="cls-5" d="M914.27,223.62v-.13c0-10.41,7.42-19,18-19,12.17,0,17.75,9.45,17.75,19.78,0,.82-.07,1.77-.14,2.72H924.54c1,4.69,4.28,7.14,8.91,7.14,3.47,0,6-1.09,8.84-3.74l5.91,5.24c-3.4,4.21-8.29,6.8-14.89,6.8C922.37,242.46,914.27,234.77,914.27,223.62ZM940,220.56c-.62-4.62-3.34-7.75-7.69-7.75s-7.07,3.06-7.88,7.75Z" transform="translate(0 -1.47)"/><path class="cls-5" d="M953,205.2H963.3v5.16c2.38-3.06,5.44-5.84,10.67-5.84,7.82,0,12.38,5.16,12.38,13.53v23.59H976V221.31c0-4.9-2.31-7.41-6.25-7.41s-6.46,2.51-6.46,7.41v20.33H953Z" transform="translate(0 -1.47)"/></g><g class="cls-1"><path class="cls-2" d="M1010,194h35.9v9.32h-25.5V213h22.44v9.32h-22.44v10h25.84v9.32H1010Z" transform="translate(0 -1.47)"/></g><g class="cls-1"><path class="cls-5" d="M1010,194h35.9v9.32h-25.5V213h22.44v9.32h-22.44v10h25.84v9.32H1010Z" transform="translate(0 -1.47)"/></g><g class="cls-1"><path class="cls-2" d="M1045.92,205.2h10.95l8.16,24.4,8.22-24.4H1084l-14.35,36.71h-9.38Z" transform="translate(0 -1.47)"/></g><g class="cls-1"><path class="cls-5" d="M1045.92,205.2h10.95l8.16,24.4,8.22-24.4H1084l-14.35,36.71h-9.38Z" transform="translate(0 -1.47)"/></g><g class="cls-1"><path class="cls-2" d="M1081.56,231.17V231c0-7.95,6-11.62,14.68-11.62a26,26,0,0,1,8.91,1.49v-.61c0-4.28-2.65-6.66-7.82-6.66a26.68,26.68,0,0,0-10.06,2l-2.58-7.89a32.1,32.1,0,0,1,14.14-2.92c5.64,0,9.72,1.49,12.3,4.08s3.95,6.73,3.95,11.62v21.15h-10V237.7a14,14,0,0,1-11,4.62C1087.2,242.32,1081.56,238.38,1081.56,231.17Zm23.73-2.38V227a16.14,16.14,0,0,0-6.6-1.36c-4.42,0-7.14,1.77-7.14,5v.14c0,2.79,2.31,4.42,5.65,4.42C1102,235.18,1105.29,232.53,1105.29,228.79Z" transform="translate(0 -1.47)"/><path class="cls-2" d="M1119.71,192H1130v49.64h-10.33Z" transform="translate(0 -1.47)"/><path class="cls-2" d="M1134.73,228.79V205.2h10.34v20.33c0,4.89,2.31,7.41,6.25,7.41s6.46-2.52,6.46-7.41V205.2h10.34v36.44h-10.34v-5.17c-2.38,3.06-5.44,5.85-10.67,5.85C1139.29,242.32,1134.73,237.15,1134.73,228.79Z" transform="translate(0 -1.47)"/></g><g class="cls-1"><path class="cls-5" d="M1081.56,231.17V231c0-7.95,6-11.62,14.68-11.62a26,26,0,0,1,8.91,1.49v-.61c0-4.28-2.65-6.66-7.82-6.66a26.68,26.68,0,0,0-10.06,2l-2.58-7.89a32.1,32.1,0,0,1,14.14-2.92c5.64,0,9.72,1.49,12.3,4.08s3.95,6.73,3.95,11.62v21.15h-10V237.7a14,14,0,0,1-11,4.62C1087.2,242.32,1081.56,238.38,1081.56,231.17Zm23.73-2.38V227a16.14,16.14,0,0,0-6.6-1.36c-4.42,0-7.14,1.77-7.14,5v.14c0,2.79,2.31,4.42,5.65,4.42C1102,235.18,1105.29,232.53,1105.29,228.79Z" transform="translate(0 -1.47)"/><path class="cls-5" d="M1119.71,192H1130v49.64h-10.33Z" transform="translate(0 -1.47)"/><path class="cls-5" d="M1134.73,228.79V205.2h10.34v20.33c0,4.89,2.31,7.41,6.25,7.41s6.46-2.52,6.46-7.41V205.2h10.34v36.44h-10.34v-5.17c-2.38,3.06-5.44,5.85-10.67,5.85C1139.29,242.32,1134.73,237.15,1134.73,228.79Z" transform="translate(0 -1.47)"/></g><g class="cls-1"><path class="cls-2" d="M1171,231.17V231c0-7.95,6-11.62,14.68-11.62a26,26,0,0,1,8.91,1.49v-.61c0-4.28-2.65-6.66-7.82-6.66a26.68,26.68,0,0,0-10.06,2l-2.58-7.89a32.1,32.1,0,0,1,14.14-2.92c5.64,0,9.72,1.49,12.31,4.08s3.94,6.73,3.94,11.62v21.15h-10V237.7a14,14,0,0,1-11,4.62C1176.68,242.32,1171,238.38,1171,231.17Zm23.73-2.38V227a16.14,16.14,0,0,0-6.6-1.36c-4.42,0-7.14,1.77-7.14,5v.14c0,2.79,2.31,4.42,5.65,4.42C1191.5,235.18,1194.77,232.53,1194.77,228.79Z" transform="translate(0 -1.47)"/></g><g class="cls-1"><path class="cls-5" d="M1171,231.17V231c0-7.95,6-11.62,14.68-11.62a26,26,0,0,1,8.91,1.49v-.61c0-4.28-2.65-6.66-7.82-6.66a26.68,26.68,0,0,0-10.06,2l-2.58-7.89a32.1,32.1,0,0,1,14.14-2.92c5.64,0,9.72,1.49,12.31,4.08s3.94,6.73,3.94,11.62v21.15h-10V237.7a14,14,0,0,1-11,4.62C1176.68,242.32,1171,238.38,1171,231.17Zm23.73-2.38V227a16.14,16.14,0,0,0-6.6-1.36c-4.42,0-7.14,1.77-7.14,5v.14c0,2.79,2.31,4.42,5.65,4.42C1191.5,235.18,1194.77,232.53,1194.77,228.79Z" transform="translate(0 -1.47)"/></g><g class="cls-1"><path class="cls-2" d="M1210.27,231.3V214h-4.35V205.2h4.35v-9.32h10.34v9.32h8.57V214h-8.57V229.6c0,2.38,1,3.54,3.33,3.54a10.49,10.49,0,0,0,5.1-1.29v8.29a15.17,15.17,0,0,1-8.16,2.11C1214.56,242.25,1210.27,239.74,1210.27,231.3Z" transform="translate(0 -1.47)"/></g><g class="cls-1"><path class="cls-5" d="M1210.27,231.3V214h-4.35V205.2h4.35v-9.32h10.34v9.32h8.57V214h-8.57V229.6c0,2.38,1,3.54,3.33,3.54a10.49,10.49,0,0,0,5.1-1.29v8.29a15.17,15.17,0,0,1-8.16,2.11C1214.56,242.25,1210.27,239.74,1210.27,231.3Z" transform="translate(0 -1.47)"/></g><g class="cls-1"><path class="cls-2" d="M1229.46,223.62v-.13c0-10.41,7.41-19,18-19,12.17,0,17.75,9.45,17.75,19.78,0,.82-.07,1.77-.14,2.72h-25.36c1,4.69,4.29,7.14,8.91,7.14,3.47,0,6-1.09,8.84-3.74l5.91,5.24c-3.4,4.21-8.29,6.8-14.89,6.8C1237.55,242.46,1229.46,234.77,1229.46,223.62Zm25.7-3.06c-.62-4.62-3.33-7.75-7.69-7.75s-7.07,3.06-7.88,7.75Z" transform="translate(0 -1.47)"/><path class="cls-2" d="M1266.52,223.49v-.14c0-12.17,8-18.83,16.59-18.83a14,14,0,0,1,11.35,5.44V192h10.33v49.64h-10.33V236.4a13.37,13.37,0,0,1-11.35,5.92C1274.61,242.32,1266.52,235.66,1266.52,223.49Zm28.08,0v-.14c0-6-4-10.06-8.84-10.06s-8.91,3.94-8.91,10.06v.14c0,6,4.08,10.06,8.91,10.06S1294.6,229.54,1294.6,223.49Z" transform="translate(0 -1.47)"/></g><g class="cls-1"><path class="cls-5" d="M1229.46,223.62v-.13c0-10.41,7.41-19,18-19,12.17,0,17.75,9.45,17.75,19.78,0,.82-.07,1.77-.14,2.72h-25.36c1,4.69,4.29,7.14,8.91,7.14,3.47,0,6-1.09,8.84-3.74l5.91,5.24c-3.4,4.21-8.29,6.8-14.89,6.8C1237.55,242.46,1229.46,234.77,1229.46,223.62Zm25.7-3.06c-.62-4.62-3.33-7.75-7.69-7.75s-7.07,3.06-7.88,7.75Z" transform="translate(0 -1.47)"/><path class="cls-5" d="M1266.52,223.49v-.14c0-12.17,8-18.83,16.59-18.83a14,14,0,0,1,11.35,5.44V192h10.33v49.64h-10.33V236.4a13.37,13.37,0,0,1-11.35,5.92C1274.61,242.32,1266.52,235.66,1266.52,223.49Zm28.08,0v-.14c0-6-4-10.06-8.84-10.06s-8.91,3.94-8.91,10.06v.14c0,6,4.08,10.06,8.91,10.06S1294.6,229.54,1294.6,223.49Z" transform="translate(0 -1.47)"/></g></g></svg>