<svg xmlns="http://www.w3.org/2000/svg" width="84" height="69" viewBox="0 0 84 69"><defs><filter id="a" width="101.6%" height="103.5%" x="-.8%" y="-1.7%" filterUnits="objectBoundingBox"><feOffset in="SourceAlpha" result="shadowOffsetOuter1"/><feColorMatrix in="shadowOffsetOuter1" result="shadowMatrixOuter1" values="0 0 0 0 0 0 0 0 0 0 0 0 0 0 0 0 0 0 1 0"/><feMerge><feMergeNode in="shadowMatrixOuter1"/><feMergeNode in="SourceGraphic"/></feMerge></filter></defs><g fill="none" fill-rule="evenodd"><g fill="#000" transform="translate(5 6)"><path d="M0,0 L0,57 L74,57 L74,0 L0,0 Z M41.6946326,3 L43.1658282,3 L44.8720717,8.95497927 L43.5023764,8.95497927 L43.1658282,7.73171931 L41.4088346,7.73171931 L41.0669448,8.95497927 L39.9493946,8.95497927 L41.6946326,3 Z M34.5493946,3 L36.8421924,3 C37.3245333,3 37.8150467,3.00498312 38.23486,3.3018088 C38.6785044,3.6209505 38.9255841,4.20484593 38.9255841,4.78521187 C38.9255841,5.46354049 38.5685007,6.09007581 37.978976,6.32310083 L38.9896898,8.95497927 L37.5772555,8.95497927 L36.7433644,6.60193995 L35.8159896,6.60193995 L35.8159896,8.95497927 L34.5493946,8.95497927 L34.5493946,3 Z M16,3 L17.3718452,3 L19.1870667,6.49777598 L19.2025475,6.49777598 L19.2025475,3 L20.1870835,3 L20.1870835,8.95497927 L19.0989111,8.95497927 L17.0144527,4.95134023 L16.9850693,4.95134023 L16.9850693,8.95497927 L16,8.95497927 L16,3 Z M36.6126663,3.96065207 C36.5412989,3.96180076 36.4733312,3.96385746 36.4134075,3.96385746 L35.7493946,3.96385746 L35.7493946,5.48358428 L36.4481325,5.48358428 C36.7101432,5.48358428 36.9957115,5.50875151 37.2264652,5.36179258 C37.4319082,5.22226486 37.5405771,4.94409088 37.5405771,4.68285652 C37.5405771,4.44833274 37.4135446,4.19709252 37.2334097,4.07389724 C37.0726339,3.96368516 36.8267714,3.95720819 36.6126663,3.96065207 L36.6126663,3.96065207 Z M42.3300739,4.56 L41.7493946,6.65289649 L42.908081,6.65289649 L42.3300739,4.56 Z M26.25,3 L30.2623969,3 L30.2623969,4.18319697 L28.8985766,4.18319697 L28.8985766,8.95871935 L27.6303787,8.95871935 L27.6303787,4.18319697 L26.25,4.18319697 L26.25,3 Z M44.7493946,3 L48.7617915,3 L48.7617915,4.18319697 L47.3979711,4.18319697 L47.3979711,8.95871935 L46.1297733,8.95871935 L46.1297733,4.18319697 L44.7493946,4.18319697 L44.7493946,3 Z M49.5493946,3 L53.4309133,3 L53.4309133,4.15755658 L50.8175924,4.15755658 L50.8175924,5.36425737 L52.8785479,5.36425737 L52.8785479,6.48228482 L50.8175924,6.48228482 L50.8175924,7.80543534 L53.4309133,7.80543534 L53.4309133,8.95871935 L49.5493946,8.95871935 L49.5493946,3 Z M54.3493946,3 L55.9295682,3 C56.7126408,3 57.3878705,3.05158654 57.9803737,3.6677172 C58.5669308,4.27926021 58.8206732,5.10205264 58.8206732,5.96146364 C58.8206732,6.76152023 58.6005427,7.53577507 58.1181963,8.13395226 C57.5762983,8.78557085 56.908448,8.95871935 56.1432494,8.95871935 L54.3493946,8.95871935 L54.3493946,3 Z M55.5493946,4.2 L55.5493946,7.94242683 L55.9767568,7.94242683 C56.5082259,7.94242683 56.8505916,7.83088363 57.1423877,7.3083613 C57.3582542,6.92688981 57.4442108,6.46653345 57.4442108,6.02420604 C57.4442108,5.55516887 57.318688,5.05106933 57.0537097,4.67701782 C56.7619136,4.26141112 56.4377528,4.2 55.9837013,4.2 L55.5493946,4.2 Z M23.5,3 C24.8807119,3 26,4.34314575 26,6 C26,7.65685425 24.8807119,9 23.5,9 C22.1192881,9 21,7.65685425 21,6 C21,4.34314575 22.1192881,3 23.5,3 Z M23.5,4 C22.8786629,4 22.25,4.83821716 22.25,6 C22.25,7.16178284 22.8786629,8 23.5,8 C24.1213371,8 24.75,7.16178284 24.75,6 C24.75,4.83821716 24.1213371,4 23.5,4 Z M2,12 L72,12 L72,55 L2,55 L2,12 Z"/><g fill-rule="nonzero" stroke="#000" filter="url(#a)" transform="translate(6 19)"><path d="M26.2575359 28.4624875C25.5427948 28.8196879 24.6401694 28.9988588 23.5496596 29 22.9245817 28.3977535 22.3489534 27.743916 21.8285942 27.0450977L7.43118874 9.53827991C6.95506636 8.95055388 6.61219134 8.65669087 6.40256369 8.65669087 6.19293604 8.65669087 6.08143197 8.95055388 6.06805148 9.53827991L6.06805148 22.6200342C6.06805148 23.9655274 6.19070596 24.932137 6.43601491 25.5198631 6.68132387 26.1075891 7.01583608 26.4796254 7.43955154 26.6359719 7.86661213 26.7934597 8.65383086 26.9298349 9.80120774 27.0450977 9.91326933 27.1597899 9.96846385 27.4097161 9.96846385 27.7965882 9.96846385 28.1834602 9.91326933 28.4333865 9.80120774 28.5480786 6.93332307 28.4921591 5.33100958 28.4636287 4.99426729 28.4624875 4.58839248 28.4624875 2.97938875 28.4910178.167256105 28.5480786.0551945146 28.4333865 0 28.1868839 0 27.8068591 0 27.4268343.0568670756 27.1734844.167256105 27.0450977 1.31463298 26.9309761 2.10519684 26.7877536 2.53894767 26.61543 2.9726985 26.4431065 3.30721071 26.0636523 3.5424843 25.4770675 3.77998797 24.8904827 3.89929732 23.9381382 3.90041236 22.6200342L3.90041236 4.274423C3.75991724 3.6307774 3.37467068 3.02193889 2.74467268 2.44790744 2.13016384 1.88249807 1.34526221 1.54908729.520166486 1.50298093.408104896 1.36089959.352910381 1.10926155.342875015.751490467.332839649.393719379.394724407.143793165.520166486 0L7.50979911.0855911694 11.3566895 4.70751431 22.7535205 18.4551679C23.0768823 18.84204 23.3394744 19.042894 23.5412968 19.0577298 23.7436766 19.0714244 23.8674462 18.8214981 23.9092602 18.3045275L23.9092602 5.92804439C23.9092602 4.58255121 23.7866057 3.6159416 23.5412968 3.02821557 23.2959878 2.44048954 22.9564579 2.06845326 22.5227071 1.91210672 22.0889562 1.75461897 21.2983924 1.61824371 20.1510155 1.50298093 20.0121929 1.36089959 19.9419454 1.10926155 19.9419454.751490467 19.9419454.393719379 20.0121929.143793165 20.1510155 0 23.0189002.0570607796 24.6842135.0855911694 25.1469554.0855911694 25.4257155.0855911694 26.9717195.0570607796 29.7849671 0 29.9254623.143793165 29.9957098.390295732 29.9957098.741219527 30.0194041 1.0130266 29.9443738 1.28423517 29.7849671 1.50298093 28.6375903 1.61710249 27.8509291 1.76032505 27.4249835 1.9326486 26.999038 2.10497216 26.6645258 2.48442634 26.4214469 3.07101116 26.177253 3.65759597 26.055156 4.60994038 26.055156 5.92804439L26.055156 23.9723747 26.2575359 28.4624875ZM47.1269531 0C50.2867425 0 52.668239.475623583 54.2714427 1.42687075 56.4715839 2.76133787 57.5642638 4.75566893 57.5494825 7.40986395 57.5494825 9.44047619 57.073638 11.079932 56.121949 12.3282313 55.2328425 13.5278248 54.0445622 14.4746873 52.6750611 15.0748299L58.62397 24.3435374C59.2948141 25.377551 59.929842 26.1213152 60.5290535 26.5748299 61.1282651 27.0283447 61.8985988 27.255102 62.8400546 27.255102 62.941642 27.4830609 62.9928304 27.7301537 62.9901417 27.9795918 63.0195332 28.21175 62.982892 28.4474715 62.8843985 28.6598639 62.4125336 28.8866213 60.9213268 29 58.4107781 29 56.3425316 29 54.4169817 27.7227891 52.6341283 25.1683673L47.5584537 17.457483C47.2805379 16.9642454 46.8373396 16.5843245 46.3065904 16.3843537 45.8006148 16.2040816 44.7266957 16.1133787 43.0848333 16.1122449L43.0848333 23.2653061C43.0705979 23.9847475 43.1410055 24.7033723 43.2946142 25.4064626 43.3858413 25.8860441 43.652727 26.3146342 44.0433444 26.6088435 44.3630087 26.8420177 44.7268097 27.0080682 45.1127153 27.0969388 45.6471758 27.1871437 46.1876046 27.2377357 46.7295633 27.2482993 46.929111 27.3826531 47.0314431 27.6173469 47.0399708 27.952381 47.0484985 28.287415 46.9427553 28.5221088 46.7295633 28.6564626 44.3895682 28.6043084 42.1723716 28.5776644 40.0779736 28.5765306 37.9085321 28.5765306 35.6543822 28.6031746 33.3155241 28.6564626 33.1142709 28.5153061 33.0153498 28.2619048 33.0153498 27.8996599 33.0153498 27.537415 33.1142709 27.2908163 33.3155241 27.1632653 33.8602255 27.1525115 34.403434 27.1024945 34.9408998 27.0136054 35.3304288 26.9282276 35.6983779 26.7644529 36.0222095 26.5323129 36.4086038 26.2478553 36.6724982 25.8279203 36.7607065 25.3571429 36.9048749 24.6574272 36.9695245 23.9437423 36.953432 23.2295918L36.953432 5.67857143C36.9686288 4.96839201 36.9039838 4.25875042 36.7607065 3.56292517 36.6756486 3.08676785 36.4114995 2.66095269 36.0222095 2.37244898 35.6964496 2.1432763 35.327424 1.98243186 34.9374887 1.89965986 34.3961219 1.80991444 33.8488817 1.75989357 33.3001743 1.75 33.0989211 1.6122449 33 1.36394558 33 1.00340136 33 .642857143 33.0989211.409863946 33.3001743.299319728 33.8834676.299319728 36.1876464.249433107 40.212711.149659864 44.2377755.0498866213 46.5425229 0 47.1269531 0ZM51.4078551 8.15306122C51.4078551 3.88435374 49.5101552 1.75 45.7147695 1.75 44.6016231 1.75 43.8847296 2.01077098 43.5640888 2.53231293 43.2434481 3.05385488 43.0825592 4.09240363 43.0814222 5.64795918L43.0814222 14.3622449 44.9660393 14.3622449C47.0615743 14.3622449 48.6596613 13.9484127 49.7603004 13.1207483 50.8609395 12.2930839 51.4101221 10.6371882 51.4078551 8.15306122L51.4078551 8.15306122Z"/></g></g><rect width="84" height="69"/></g></svg>