<svg xmlns="http://www.w3.org/2000/svg" xmlns:xlink="http://www.w3.org/1999/xlink" width="395" height="137" viewBox="0 0 395 137">
  <defs>
    <polygon id="pg-13-copy-3-a" points=".001 .396 369.488 .396 369.488 136.19 .001 136.19"/>
    <polygon id="pg-13-copy-3-c" points="0 138.414 369.488 138.414 369.488 2.619 0 2.619"/>
    <polygon id="pg-13-copy-3-e" points=".001 0 16.356 0 16.356 16.537 .001 16.537"/>
  </defs>
  <g fill="none" fill-rule="evenodd" transform="translate(0 -2)">
    <g transform="translate(0 2.224)">
      <mask id="pg-13-copy-3-b" fill="#fff">
        <use xlink:href="#pg-13-copy-3-a"/>
      </mask>
      <path fill="#FFF" d="M120.230939,29.6635952 L121.008432,29.6635952 C121.975045,29.6635952 122.594939,29.4566905 123.133405,28.5400238 C123.519525,27.8643095 123.679752,27.0497857 123.679752,26.2797857 C123.679752,25.4521667 123.448605,24.5616905 122.970552,23.9016905 C122.439965,23.1709762 121.846339,23.0635952 121.026819,23.0635952 L120.230939,23.0635952 L120.230939,29.6635952 Z M120.795672,21.128119 C122.221952,21.128119 123.448605,21.2276429 124.530792,22.3119286 C125.594592,23.383119 126.059512,24.8393095 126.059512,26.347881 C126.059512,27.7621667 125.657632,29.1214524 124.775072,30.1795476 C123.795325,31.3293095 122.584432,31.6357381 121.184419,31.6357381 L117.927352,31.6357381 L117.927352,21.128119 L120.795672,21.128119 Z M111.623352,23.1709762 L111.623352,25.3002619 L115.376859,25.3002619 L115.376859,27.2750238 L111.623352,27.2750238 L111.623352,29.598119 L116.382872,29.598119 L116.382872,31.6357381 L109.317139,31.6357381 L109.317139,21.128119 L116.382872,21.128119 L116.382872,23.1709762 L111.623352,23.1709762 Z M107.139632,31.6357381 L105.169632,31.6357381 L101.374099,24.5852619 L101.313685,24.5852619 L101.313685,31.6357381 L99.527552,31.6357381 L99.527552,21.128119 L102.022885,21.128119 L105.324605,27.3012143 L105.353499,27.3012143 L105.353499,21.128119 L107.139632,21.128119 L107.139632,31.6357381 Z M92.057312,24.1793095 C91.8314187,24.8105 91.7447387,25.7114524 91.7447387,26.3714524 C91.7447387,27.6835952 91.931232,29.7814524 93.5597653,29.7814524 C94.3556453,29.7814524 94.7890453,29.372881 95.0464587,28.5871667 C95.2776053,27.9455 95.3485253,27.0733571 95.3485253,26.3845476 C95.3485253,25.6197857 95.2776053,24.7188333 94.988672,24.0143095 C94.697112,23.3124048 94.287352,22.9902619 93.5597653,22.9902619 C92.7691387,22.9902619 92.3383653,23.4197857 92.057312,24.1793095 Z M90.3578587,30.1402619 C89.6407787,29.042881 89.3203253,27.6835952 89.3203253,26.3714524 C89.3203253,23.5847857 90.631032,20.9814524 93.5597653,20.9814524 C94.8730987,20.9814524 95.9158853,21.4424048 96.7012587,22.5921667 C97.4104587,23.6109762 97.7676853,25.1012143 97.7676853,26.3714524 C97.7676853,27.5605 97.4682453,29.0166905 96.8378453,30.0093095 C96.0734853,31.2114524 94.901992,31.7902619 93.5597653,31.7902619 C92.222792,31.7902619 91.143232,31.2952619 90.3578587,30.1402619 Z M85.185952,31.6357381 L87.4895387,31.6357381 L87.4895387,21.1359762 L85.185952,21.1359762 L85.185952,31.6357381 Z M83.6677387,23.2155 L81.190792,23.2155 L81.190792,31.6357381 L78.881952,31.6357381 L78.881952,23.2155 L76.3734853,23.2155 L76.3734853,21.128119 L83.6677387,21.128119 L83.6677387,23.2155 Z M75.0470187,27.4819286 C75.0470187,28.6343095 75.0654053,29.8312143 74.2432587,30.6876429 C73.4473787,31.5283571 72.278512,31.7902619 71.198952,31.7902619 C70.1614187,31.7902619 68.9636587,31.6200238 68.1704053,30.8893095 C67.188032,29.9805 67.1433787,28.7757381 67.1433787,27.4819286 L67.1433787,21.128119 L69.6518453,21.128119 L69.6518453,27.4819286 C69.6518453,27.9716905 69.6439653,28.6735952 69.8724853,29.1083571 C70.174552,29.6635952 70.797072,29.812881 71.356552,29.812881 C71.8162187,29.812881 72.4938987,29.6635952 72.7880853,29.2524048 C73.105912,28.7757381 73.0533787,28.0371667 73.0533787,27.4819286 L73.0533787,21.128119 L75.0470524,21.128119 L75.0470187,27.4819286 Z M62.3050587,27.5474048 L61.2517653,23.8597857 L60.2010987,27.5474048 L62.3050587,27.5474048 Z M65.9403653,31.6357381 L63.4476587,31.6357381 L62.838272,29.4750238 L59.638992,29.4750238 L59.016472,31.6357381 L56.9886853,31.6357381 L60.1564453,21.128119 L62.838272,21.128119 L65.9403653,31.6357381 Z M53.5845253,25.2085952 C53.5687653,24.043119 53.193152,22.9509762 51.924472,22.9509762 C50.2985653,22.9509762 50.1330853,25.2138333 50.1330853,26.4919286 C50.1330853,27.9324048 50.2985653,29.7814524 52.0400453,29.7814524 C53.1196053,29.7814524 53.626552,28.8202619 53.752632,27.8093095 L56.0036853,27.9612143 C55.762032,30.3655 54.201792,31.7902619 51.924472,31.7902619 C48.977352,31.7902619 47.5536987,29.2524048 47.5536987,26.3845476 C47.5536987,23.4774048 49.024632,20.9814524 51.9980187,20.9814524 C54.477592,20.9814524 55.7410187,22.5135952 56.0036853,25.0357381 L53.5845253,25.2085952 Z M150.695019,12.5900238 L150.695019,17.0109762 L148.394059,17.0109762 L148.394059,12.5900238 L145.260445,6.51383333 L147.942272,6.51383333 L149.846605,10.5105 L151.719419,6.51383333 L153.797112,6.51383333 L150.695019,12.5900238 Z M146.143005,14.9340714 L146.143005,17.0109762 L139.854765,17.0109762 L139.854765,6.51383333 L142.160979,6.51383333 L142.160979,14.9340714 L146.143005,14.9340714 Z M133.771405,13.3626429 L133.771405,11.3957381 L137.840112,11.3957381 L137.840112,17.0109762 L136.786819,17.0109762 L136.453232,15.8088333 C135.717765,16.7569286 134.908752,17.168119 133.755645,17.168119 C130.858432,17.168119 129.663299,14.6171667 129.663299,11.8593095 C129.663299,9.00978571 130.968752,6.36192857 133.957899,6.36192857 C136.088125,6.36192857 137.538045,7.73692857 137.840112,9.96311905 L135.644219,10.2747857 C135.544405,9.22192857 135.013819,8.33930952 133.894859,8.33930952 C132.266325,8.33930952 132.024672,10.5890714 132.024672,11.8855 C132.024672,13.2552619 132.387152,15.1750238 133.999925,15.1750238 C135.013819,15.1750238 135.699379,14.4338333 135.644219,13.3626429 L133.771405,13.3626429 Z M127.948085,17.0109762 L125.975459,17.0109762 L122.177299,9.96311905 L122.119512,9.96311905 L122.119512,17.0109762 L120.330752,17.0109762 L120.330752,6.51383333 L122.826085,6.51383333 L126.130432,12.6816905 L126.159325,12.6816905 L126.159325,6.51383333 L127.948085,6.51383333 L127.948085,17.0109762 Z M112.865765,9.55716667 C112.631992,10.1857381 112.545312,11.0893095 112.545312,11.7493095 C112.545312,13.0719286 112.734432,15.1645476 114.362965,15.1645476 C115.158845,15.1645476 115.589619,14.7507381 115.847032,13.9702619 C116.080805,13.3233571 116.156979,12.4616905 116.156979,11.7650238 C116.156979,11.0002619 116.080805,10.0966905 115.794499,9.39478571 C115.500312,8.68764286 115.082672,8.37335714 114.362965,8.37335714 C113.574965,8.37335714 113.141565,8.8002619 112.865765,9.55716667 Z M111.168939,15.5207381 C110.441352,14.4338333 110.126152,13.0719286 110.126152,11.7493095 C110.126152,8.96264286 111.439485,6.36192857 114.362965,6.36192857 C115.681552,6.36192857 116.713832,6.81764286 117.509712,7.97264286 C118.213659,8.99669048 118.576139,10.4790714 118.576139,11.7493095 C118.576139,12.9435952 118.276699,14.3971667 117.641045,15.3976429 C116.874059,16.5893095 115.707819,17.168119 114.362965,17.168119 C113.025992,17.168119 111.943805,16.6783571 111.168939,15.5207381 Z M103.249539,11.0605 L104.515592,11.0605 C104.993645,11.0605 105.511099,11.1050238 105.933992,10.8457381 C106.306979,10.6021667 106.509232,10.1097857 106.509232,9.65145238 C106.509232,9.2402619 106.272832,8.8002619 105.947125,8.5802619 C105.555752,8.32621429 104.893832,8.38121429 104.463059,8.38121429 L103.249539,8.38121429 L103.249539,11.0605 Z M103.249539,17.0109762 L100.940699,17.0109762 L100.940699,6.51383333 L105.103965,6.51383333 C105.986525,6.51383333 106.884845,6.52692857 107.646579,7.05597619 C108.452965,7.61383333 108.902125,8.64311905 108.902125,9.66454762 C108.902125,10.8614524 108.253339,11.9614524 107.186912,12.3805 L109.015072,17.0109762 L106.451445,17.0109762 L104.938485,12.872881 L103.249539,12.872881 L103.249539,17.0109762 Z M99.4277387,8.59335714 L96.9455387,8.59335714 L96.9455387,17.0109762 L94.641952,17.0109762 L94.641952,8.59335714 L92.1334853,8.59335714 L92.1334853,6.51383333 L99.4277387,6.51383333 L99.4277387,8.59335714 Z M88.921072,9.51788095 C88.629512,8.63002381 88.0962987,8.27383333 87.218992,8.27383333 C86.5938453,8.27383333 85.8504987,8.44407143 85.8504987,9.25335714 C85.8504987,10.0207381 86.714672,10.2014524 87.2715253,10.3088333 C88.0805387,10.4947857 89.1627253,10.7095476 89.8561653,11.1940714 C90.662552,11.7650238 91.1563653,12.6371667 91.1563653,13.6795476 C91.1563653,14.7062143 90.6914453,15.6857381 89.9270853,16.3116905 C89.1364587,16.9743095 88.0516453,17.168119 87.0561387,17.168119 C85.1964587,17.168119 83.5048853,16.3116905 83.066232,14.253119 L85.1964587,13.7345476 C85.485392,14.8450238 86.241872,15.2274048 87.258392,15.2274048 C87.9255653,15.2274048 88.8054987,14.962881 88.8054987,14.0907381 C88.8054987,13.2212143 87.6707787,13.0483571 87.0718987,12.9121667 C85.3172853,12.5324048 83.5810587,11.9771667 83.5810587,9.6855 C83.5810587,8.70597619 83.940912,7.84954762 84.650112,7.22097619 C85.3724453,6.58192857 86.2234853,6.36192857 87.1270587,6.36192857 C88.8606587,6.36192857 90.2738053,7.00621429 90.875312,8.82645238 L88.921072,9.51788095 Z M75.398992,9.51788095 C75.1048053,8.63002381 74.5742187,8.27383333 73.6942853,8.27383333 C73.0691387,8.27383333 72.3205387,8.44407143 72.3205387,9.25335714 C72.3205387,10.0207381 73.1952187,10.2014524 73.7546987,10.3088333 C74.5584587,10.4947857 75.6380187,10.7095476 76.336712,11.1940714 C77.140472,11.7650238 77.629032,12.6371667 77.629032,13.6795476 C77.629032,14.7062143 77.164112,15.6857381 76.4050053,16.3116905 C75.6064987,16.9743095 74.532192,17.168119 73.531432,17.168119 C71.6770053,17.168119 69.9906853,16.3116905 69.5388987,14.253119 L71.6770053,13.7345476 C71.9685653,14.8450238 72.7145387,15.2274048 73.7389387,15.2274048 C74.4034853,15.2274048 75.280792,14.962881 75.280792,14.0907381 C75.280792,13.2212143 74.1565787,13.0483571 73.547192,12.9121667 C71.789952,12.5324048 70.0616053,11.9771667 70.0616053,9.6855 C70.0616053,8.70597619 70.418832,7.84954762 71.1306587,7.22097619 C71.8477387,6.58192857 72.7014053,6.36192857 73.610232,6.36192857 C75.335952,6.36192857 76.746472,7.00621429 77.3584853,8.82645238 L75.398992,9.51788095 Z M68.921632,8.59335714 L66.439432,8.59335714 L66.439432,17.0109762 L64.1358453,17.0109762 L64.1358453,8.59335714 L61.624752,8.59335714 L61.624752,6.51383333 L68.921632,6.51383333 L68.921632,8.59335714 Z M60.1564453,17.0109762 L58.1785653,17.0109762 L54.3882853,9.96311905 L54.3304987,9.96311905 L54.3304987,17.0109762 L52.5443653,17.0109762 L52.5443653,6.51383333 L55.0396987,6.51383333 L58.3414187,12.6816905 L58.3650587,12.6816905 L58.3650587,6.51383333 L60.1564453,6.51383333 L60.1564453,17.0109762 Z M46.211472,8.54883333 L46.211472,10.6807381 L49.962352,10.6807381 L49.962352,12.652881 L46.211472,12.652881 L46.211472,14.9864524 L50.970992,14.9864524 L50.970992,17.0109762 L43.9052587,17.0109762 L43.9052587,6.51383333 L50.970992,6.51383333 L50.970992,8.54883333 L46.211472,8.54883333 Z M36.4691653,11.0605 L37.732592,11.0605 C38.205392,11.0605 38.733352,11.1050238 39.1483653,10.8457381 C39.5266053,10.6021667 39.7236053,10.1097857 39.7236053,9.65145238 C39.7236053,9.2402619 39.497712,8.8002619 39.166752,8.5802619 C38.7753787,8.32621429 38.110832,8.38121429 37.6721787,8.38121429 L36.4691653,8.38121429 L36.4691653,11.0605 Z M36.4691653,17.0109762 L34.1603253,17.0109762 L34.1603253,6.51383333 L38.3262187,6.51383333 C39.206152,6.51383333 40.1018453,6.52692857 40.8635787,7.05597619 C41.672592,7.61383333 42.121752,8.64311905 42.121752,9.66454762 C42.121752,10.8614524 41.4782187,11.9614524 40.4065387,12.3805 L42.2373253,17.0109762 L39.6658187,17.0109762 L38.1528587,12.872881 L36.4691653,12.872881 L36.4691653,17.0109762 Z M29.1302587,12.927881 L28.0769653,9.2402619 L27.0262987,12.927881 L29.1302587,12.927881 Z M32.768192,17.0109762 L30.270232,17.0109762 L29.6660987,14.858119 L26.4668187,14.858119 L25.841672,17.0109762 L23.8112587,17.0109762 L26.9790187,6.51383333 L29.6660987,6.51383333 L32.768192,17.0109762 Z M19.726792,11.2202619 C20.2757653,11.2202619 20.7406853,11.2202619 21.1399387,10.7540714 C21.357952,10.4947857 21.460392,10.1569286 21.460392,9.82430952 C21.460392,9.41311905 21.3001653,8.98359524 20.9849653,8.71907143 C20.6224853,8.43359524 20.144432,8.43359524 19.7136587,8.43359524 L18.4318453,8.43359524 L18.4318453,11.2202619 L19.726792,11.2202619 Z M18.4318453,17.0109762 L16.1230053,17.0109762 L16.1230053,6.51383333 L19.844992,6.51383333 C20.8089787,6.51383333 21.688912,6.51383333 22.5110587,7.11359524 C23.3463387,7.73692857 23.7954987,8.64311905 23.7954987,9.73264286 C23.7954987,10.7226429 23.4645387,11.7362143 22.729072,12.3962143 C21.8806587,13.147881 20.9692053,13.1269286 19.9185387,13.1269286 L18.4318453,13.1269286 L18.4318453,17.0109762 Z M176.675379,106.852167 L366.294445,106.852167 L366.294445,3.70097619 L176.675379,3.70097619 L176.675379,106.852167 Z M327.703459,133.011214 L366.294445,133.011214 L366.294445,109.772405 L327.703459,109.772405 L327.703459,133.011214 Z M2.99229867,133.011214 L324.740579,133.011214 L324.740579,109.772405 L2.99229867,109.772405 L2.99229867,133.011214 Z M2.99229867,106.907167 L173.512872,106.907167 L173.512872,35.9597857 L2.99229867,35.9597857 L2.99229867,106.907167 Z M0.000525333333,136.190738 L369.488472,136.190738 L369.488472,0.395738095 L0.000525333333,0.395738095 L0.000525333333,136.190738 Z" mask="url(#pg-13-copy-3-b)"/>
    </g>
    <path fill="#FFF" d="M355.953784,129.490167 C357.873877,128.26969 359.121544,126.67469 359.357944,124.901595 L362.428517,124.901595 C361.992491,126.753262 359.536557,128.418976 355.953784,129.490167 M354.369904,124.901595 L358.217971,124.901595 C357.831851,127.219452 355.249837,129.170643 351.653931,130.1135 C353.187904,128.851119 354.204424,127.002071 354.369904,124.901595 M335.471037,124.901595 L339.321731,124.901595 C339.479331,127.002071 340.493224,128.851119 342.027197,130.1135 C338.433917,129.170643 335.849277,127.219452 335.471037,124.901595 M331.260491,124.901595 L334.336317,124.901595 C334.564837,126.67469 335.809877,128.26969 337.735224,129.498024 C334.149824,128.418976 331.693891,126.753262 331.260491,124.901595 M337.735224,119.131833 C335.791491,120.370643 334.530691,121.983976 334.325811,123.778024 L331.244731,123.778024 C331.646611,121.915881 334.107797,120.218738 337.735224,119.131833 M339.316477,123.778024 L335.465784,123.778024 C335.807251,121.439214 338.402397,119.451357 342.027197,118.5085 C340.485344,119.783976 339.460944,121.659214 339.316477,123.778024 M346.844504,130.7185 C343.293251,130.7185 340.411797,127.850643 340.411797,124.31231 C340.411797,120.773976 343.293251,117.898262 346.844504,117.898262 C350.395757,117.898262 353.274584,120.773976 353.274584,124.31231 C353.274584,127.850643 350.395757,130.7185 346.844504,130.7185 M358.220597,123.778024 L354.369904,123.778024 C354.217557,121.659214 353.201037,119.783976 351.653931,118.5085 C355.281357,119.451357 357.873877,121.439214 358.220597,123.778024 M362.439024,123.778024 L359.357944,123.778024 C359.150437,121.983976 357.892264,120.370643 355.953784,119.131833 C359.575957,120.218738 362.042397,121.915881 362.439024,123.778024 M346.844504,116.77731 C337.572371,116.77731 330.062731,120.1585 330.062731,124.31231 C330.062731,128.468738 337.572371,131.84469 346.844504,131.84469 C356.111384,131.84469 363.626277,128.468738 363.626277,124.31231 C363.626277,120.1585 356.111384,116.77731 346.844504,116.77731"/>
    <path fill="#FFF" d="M345.932 124.313619C345.932 123.823857 346.320747 123.431 346.81456 123.431 347.300493 123.431 347.69712 123.823857 347.69712 124.313619 347.69712 124.798143 347.300493 125.201476 346.81456 125.201476 346.320747 125.201476 345.932 124.798143 345.932 124.313619M346.845029 120.436119L348.027029 119.268024C347.299443 118.542548 346.385363 118.542548 345.660403 119.268024L346.845029 120.436119zM347.789053 121.819762C347.789053 120.91881 348.52452 120.182857 349.433347 120.182857 350.342173 120.182857 351.07764 120.91881 351.07764 121.819762 351.07764 122.728571 350.342173 123.459286 349.433347 123.459286 348.52452 123.459286 347.789053 122.728571 347.789053 121.819762M342.597447 121.819762C342.597447 120.91881 343.332913 120.182857 344.236487 120.182857 345.150567 120.182857 345.883407 120.91881 345.883407 121.819762 345.883407 122.728571 345.150567 123.459286 344.236487 123.459286 343.332913 123.459286 342.597447 122.728571 342.597447 121.819762M342.687016 126.894167C342.687016 125.990595 343.419856 125.254643 344.331309 125.254643 345.240136 125.254643 345.972976 125.990595 345.972976 126.894167 345.972976 127.800357 345.240136 128.531071 344.331309 128.531071 343.419856 128.531071 342.687016 127.800357 342.687016 126.894167M347.648001 126.866143C347.648001 125.957333 348.386095 125.218762 349.294921 125.218762 350.206375 125.218762 350.939215 125.957333 350.939215 126.866143 350.939215 127.767095 350.206375 128.505667 349.294921 128.505667 348.386095 128.505667 347.648001 127.767095 347.648001 126.866143M346.814297 128.13481L345.627044 129.313381C346.352004 130.044095 347.266084 130.044095 348.001551 129.313381L346.814297 128.13481zM350.610619 124.318595L351.784739 125.499786C352.517579 124.77169 352.517579 123.862881 351.784739 123.140024L350.610619 124.318595zM342.953885 124.318595L341.782392 125.499786C341.046925 124.77169 341.046925 123.862881 341.782392 123.140024L342.953885 124.318595zM11.755384 120.617619C11.645064 120.190714 11.3823973 119.10381 10.4656907 119.10381 9.79589067 119.10381 9.51221067 119.729762 9.51221067 120.219524 9.51221067 121.055 10.1110907 121.345714 11.0803307 121.843333 12.1152373 122.367143 13.607184 123.110952 13.607184 125.572857 13.607184 127.655 12.5066107 129.456905 10.3579973 129.456905 9.70133067 129.456905 8.713704 129.291905 7.972984 128.17881 7.468664 127.398333 7.30055733 126.651905 7.19549067 126.128095L8.950104 125.468095C9.05517067 126.015476 9.31521067 127.290952 10.4131573 127.290952 11.0960907 127.290952 11.5793973 126.782857 11.5793973 125.97881 11.5793973 125.122381 11.006784 124.771429 10.313344 124.444048 9.07093067 123.841667 7.563224 123.134524 7.563224 120.659524 7.563224 118.758095 8.477304 116.943095 10.4814507 116.943095 12.756144 116.943095 13.236824 118.959762 13.4285707 119.76381L11.755384 120.617619zM17.165004 121.84281C16.5634973 121.84281 16.3743773 122.563048 16.3743773 124.770905 16.3743773 127.156857 16.6160307 127.706857 17.1781373 127.706857 17.724484 127.706857 17.976644 127.17781 17.976644 124.770905 17.976644 122.458286 17.756004 121.84281 17.1781373 121.84281L17.165004 121.84281zM19.9203773 124.770905C19.9203773 127.654476 19.142884 129.456381 17.165004 129.456381 15.2238973 129.456381 14.4253907 127.675429 14.4253907 124.770905 14.4253907 121.968524 15.163484 120.088048 17.1781373 120.088048 19.1796573 120.088048 19.9203773 121.968524 19.9203773 124.770905zM21.084516 120.290238L22.8706493 120.290238 22.8706493 121.510714C23.0597693 121 23.401236 120.088571 24.5149427 120.088571 25.6575427 120.088571 25.8545427 120.984286 25.9648627 121.510714 26.1644893 120.913571 26.5269693 120.088571 27.6222893 120.088571 29.3453827 120.088571 29.3453827 121.772619 29.3453827 123.39119L29.3453827 129.27619 27.4725693 129.27619 27.4725693 123.645238C27.4725693 122.62381 27.4725693 122.039762 26.8710627 122.039762 26.1802493 122.039762 26.159236 122.749524 26.159236 124.045952L26.159236 129.27619 24.2785427 129.27619 24.2785427 123.595476C24.2785427 122.495476 24.2496493 122.063333 23.6901693 122.063333 23.0203693 122.063333 22.9625827 122.78619 22.9625827 124.045952L22.9625827 129.27619 21.084516 129.27619 21.084516 120.290238zM34.1332707 123.758643C34.1411507 123.261024 34.1752973 121.747214 33.2533373 121.747214 32.4022973 121.747214 32.3917907 123.111738 32.373404 123.758643L34.1332707 123.758643zM32.3602707 125.201738C32.3445107 126.416976 32.334004 127.734357 33.2664707 127.734357 34.0781107 127.734357 34.1752973 126.760071 34.2225773 126.178643L35.911524 126.32531C35.7749373 127.163405 35.4019507 129.45769 33.224444 129.45769 31.1572573 129.45769 30.419164 127.2865 30.419164 124.903167 30.419164 124.319119 30.4716973 122.902214 30.923484 121.807452 31.4067907 120.65769 32.294604 120.089357 33.2113107 120.089357 34.3880573 120.089357 35.115644 120.966738 35.415084 121.736738 35.8983907 122.949357 35.911524 124.0965 35.911524 125.201738L32.3602707 125.201738z"/>
    <polygon fill="#FFF" points="43.722 117.119 45.011 124.622 46.464 117.119 49.311 117.119 49.311 129.276 47.433 129.276 47.433 119.091 45.571 129.276 44.108 129.276 42.406 119.091 42.406 129.276 40.78 129.276 40.78 117.119"/>
    <path fill="#FFF" d="M54.1847187 124.978595C53.110412 125.154071 52.661252 125.494548 52.661252 126.673119 52.661252 127.30431 52.8372387 127.79931 53.2890253 127.79931 53.5175453 127.79931 53.7276787 127.652643 53.906292 127.30431 54.1637053 126.798833 54.1847187 126.233119 54.1847187 125.410738L54.1847187 124.978595zM50.943412 122.90169C51.0038253 122.388357 51.108892 121.30931 52.0676253 120.578595 52.5456787 120.219786 53.110412 120.088833 53.6725187 120.088833 54.3843453 120.088833 55.119812 120.332405 55.6293853 121.042167 56.0391453 121.586929 56.0680387 122.608357 56.0680387 123.7005L56.0680387 127.267643C56.0680387 128.805024 56.1074387 128.964786 56.175732 129.276452L54.442132 129.276452C54.3528253 128.917643 54.339692 128.708119 54.339692 127.893595 54.095412 128.475024 53.654132 129.457167 52.4826387 129.457167 51.573812 129.457167 50.7122653 128.765738 50.7122653 127.0005 50.7122653 124.501929 52.172692 123.841929 54.1847187 123.7005L54.1847187 123.354786C54.1847187 122.563833 54.1847187 121.74931 53.5175453 121.74931 52.889772 121.74931 52.7663187 122.425024 52.708532 123.140024L50.943412 122.90169zM59.6329507 117.451452L59.6329507 120.2905 60.8779907 120.2905 60.8779907 122.260024 59.6329507 122.260024 59.6329507 125.562643C59.6329507 127.24931 59.6329507 127.46669 60.9751773 127.361929L60.9751773 129.276452C60.702004 129.347167 60.3211373 129.457167 59.8063107 129.457167 59.1916707 129.457167 58.5087373 129.2555 58.125244 128.530024 57.794284 127.893595 57.794284 126.979548 57.794284 125.835024L57.794284 122.260024 57.0561907 122.260024 57.0561907 120.2905 57.8914707 120.2905 58.0438173 117.6505 59.6329507 117.451452zM65.2119907 123.758643C65.225124 123.261024 65.2540173 121.747214 64.3320573 121.747214 63.4810173 121.747214 63.467884 123.111738 63.4547507 123.758643L65.2119907 123.758643zM63.436364 125.201738C63.420604 126.416976 63.412724 127.734357 64.342564 127.734357 65.154204 127.734357 65.2540173 126.760071 65.3012973 126.178643L66.9876173 126.32531C66.8536573 127.163405 66.4806707 129.45769 64.303164 129.45769 62.2333507 129.45769 61.4952573 127.2865 61.4952573 124.903167 61.4952573 124.319119 61.545164 122.902214 62.002204 121.807452 62.4855107 120.65769 63.373324 120.089357 64.2926573 120.089357 65.4667773 120.089357 66.1917373 120.966738 66.493804 121.736738 66.974484 122.949357 66.9876173 124.0965 66.9876173 125.201738L63.436364 125.201738zM69.7960493 120.290238L69.7960493 122.45881C69.9615293 121.694048 70.2898627 120.159286 71.390436 120.159286 71.524396 120.159286 71.6215827 120.182857 71.7161427 120.219524L71.7161427 122.665714C71.555916 122.62381 71.4666093 122.62381 71.3956893 122.62381 70.019316 122.62381 70.019316 124.700714 70.019316 125.394762L70.019316 129.27619 68.1386227 129.27619 68.1386227 120.290238 69.7960493 120.290238z"/>
    <mask id="pg-13-copy-3-d" fill="#fff">
      <use xlink:href="#pg-13-copy-3-c"/>
    </mask>
    <path fill="#FFF" d="M72.3988133 129.273571L74.2795067 129.273571 74.2795067 120.287619 72.3988133 120.287619 72.3988133 129.273571zM72.3883067 119.528095L74.29264 119.528095 74.29264 117.045238 72.3883067 117.045238 72.3883067 119.528095zM78.976512 124.978595C77.8995787 125.154071 77.4451653 125.494548 77.4451653 126.673119 77.4451653 127.30431 77.6237787 127.79931 78.070312 127.79931 78.3040853 127.79931 78.511592 127.652643 78.692832 127.30431 78.9502453 126.798833 78.976512 126.233119 78.976512 125.410738L78.976512 124.978595zM75.7325787 122.90169C75.785112 122.388357 75.895432 121.30931 76.8541653 120.578595 77.3322187 120.219786 77.8995787 120.088833 78.4590587 120.088833 79.1708853 120.088833 79.906352 120.332405 80.4211787 121.042167 80.8256853 121.586929 80.851952 122.608357 80.851952 123.7005L80.851952 127.267643C80.851952 128.805024 80.8939787 128.964786 80.962272 129.276452L79.2234187 129.276452C79.141992 128.917643 79.1288587 128.708119 79.1288587 127.893595 78.881952 128.475024 78.4459253 129.457167 77.2691787 129.457167 76.3629787 129.457167 75.4988053 128.765738 75.4988053 127.0005 75.4988053 124.501929 76.9618587 123.841929 78.976512 123.7005L78.976512 123.354786C78.976512 122.563833 78.976512 121.74931 78.3040853 121.74931 77.676312 121.74931 77.5528587 122.425024 77.5003253 123.140024L75.7325787 122.90169z" mask="url(#pg-13-copy-3-d)"/>
    <polygon fill="#FFF" points="82.307 129.274 84.185 129.274 84.185 117.116 82.307 117.116" mask="url(#pg-13-copy-3-d)"/>
    <polygon fill="#FFF" points="92.292 117.119 93.579 124.622 95.034 117.119 97.887 117.119 97.887 129.276 96.006 129.276 96.006 119.091 94.144 129.276 92.675 129.276 90.984 119.091 90.984 129.276 89.35 129.276 89.35 117.119" mask="url(#pg-13-copy-3-d)"/>
    <path fill="#FFF" d="M102.762555 124.978595C101.680368 125.154071 101.228581 125.494548 101.228581 126.673119 101.228581 127.30431 101.404568 127.79931 101.861608 127.79931 102.090128 127.79931 102.295008 127.652643 102.476248 127.30431 102.736288 126.798833 102.762555 126.233119 102.762555 125.410738L102.762555 124.978595zM99.513368 122.90169C99.568528 122.388357 99.678848 121.30931 100.637581 120.578595 101.115635 120.219786 101.680368 120.088833 102.242475 120.088833 102.951675 120.088833 103.692395 120.332405 104.204595 121.042167 104.609101 121.586929 104.637995 122.608357 104.637995 123.7005L104.637995 127.267643C104.637995 128.805024 104.680021 128.964786 104.750941 129.276452L103.009461 129.276452C102.925408 128.917643 102.917528 128.708119 102.917528 127.893595 102.665368 128.475024 102.231968 129.457167 101.049968 129.457167 100.146395 129.457167 99.284848 128.765738 99.284848 127.0005 99.284848 124.501929 100.740021 123.841929 102.762555 123.7005L102.762555 123.354786C102.762555 122.563833 102.762555 121.74931 102.090128 121.74931 101.459728 121.74931 101.336275 122.425024 101.286368 123.140024L99.513368 122.90169zM106.751411 120.290238L107.670744 125.795476 108.550677 120.290238 110.166077 120.290238 108.135664 129.438571C107.754797 131.135714 107.450104 132.46619 105.955531 132.46619 105.590424 132.46619 105.382917 132.390238 105.149144 132.322143L105.149144 130.355238C105.325131 130.389286 105.466971 130.405 105.682357 130.405 106.420451 130.405 106.575424 130.185 106.806571 129.11119L104.875971 120.290238 106.751411 120.290238zM116.360283 127.178071L117.342656 127.178071C118.204203 127.178071 118.713776 126.782595 118.713776 125.572595 118.713776 123.99069 117.781309 123.99069 117.326896 123.99069L116.360283 123.99069 116.360283 127.178071zM116.360283 122.029024L117.001189 122.029024C117.550163 122.029024 118.466869 122.029024 118.466869 120.507357 118.466869 119.090452 117.550163 119.090452 117.150909 119.090452L116.360283 119.090452 116.360283 122.029024zM114.427056 117.11831L117.537029 117.11831C118.437976 117.11831 119.462376 117.11831 120.024483 118.155452 120.368576 118.778786 120.510416 119.567119 120.510416 120.331881 120.510416 122.275214 119.627856 122.715214 119.204963 122.927357 119.504403 123.079262 119.795963 123.204976 120.124296 123.679024 120.452629 124.15831 120.754696 124.886405 120.754696 125.902595 120.754696 126.965929 120.410603 128.178548 119.753936 128.707595 119.052616 129.275929 118.356549 129.275929 117.537029 129.275929L114.427056 129.275929 114.427056 117.11831zM125.440669 123.758643C125.453803 123.261024 125.482696 121.747214 124.565989 121.747214 123.712323 121.747214 123.704443 123.111738 123.691309 123.758643L125.440669 123.758643zM123.675549 125.201738C123.657163 126.416976 123.644029 127.734357 124.579123 127.734357 125.390763 127.734357 125.482696 126.760071 125.535229 126.178643L127.221549 126.32531C127.084963 127.163405 126.711976 129.45769 124.534469 129.45769 122.475163 129.45769 121.726563 127.2865 121.726563 124.903167 121.726563 124.319119 121.781723 122.902214 122.236136 121.807452 122.714189 120.65769 123.612509 120.089357 124.518709 120.089357 125.698083 120.089357 126.428296 120.966738 126.725109 121.736738 127.208416 122.949357 127.221549 124.0965 127.221549 125.201738L123.675549 125.201738z" mask="url(#pg-13-copy-3-d)"/>
    <polygon fill="#FFF" points="132.087 129.274 134.091 129.274 134.091 117.116 132.087 117.116" mask="url(#pg-13-copy-3-d)"/>
    <path fill="#FFF" d="M137.483936 120.290238L137.483936 121.510714C137.757109 120.764286 138.111709 120.088571 139.167629 120.088571 139.430296 120.088571 140.197283 120.088571 140.659576 121.041905 140.940629 121.602381 140.940629 122.479762 140.940629 123.375476L140.940629 129.27619 139.059936 129.27619 139.059936 123.375476C139.059936 122.563571 139.007403 122.039762 138.416403 122.039762 137.581123 122.039762 137.581123 122.919762 137.581123 124.006667L137.581123 129.27619 135.705683 129.27619 135.705683 120.290238 137.483936 120.290238zM145.548591 124.978595C144.476911 125.154071 144.022497 125.494548 144.022497 126.673119 144.022497 127.30431 144.201111 127.79931 144.655524 127.79931 144.884044 127.79931 145.091551 127.652643 145.270164 127.30431 145.524951 126.798833 145.548591 126.233119 145.548591 125.410738L145.548591 124.978595zM142.307284 122.90169C142.359817 122.388357 142.467511 121.30931 143.428871 120.578595 143.906924 120.219786 144.476911 120.088833 145.036391 120.088833 145.742964 120.088833 146.486311 120.332405 146.998511 121.042167 147.403017 121.586929 147.431911 122.608357 147.431911 123.7005L147.431911 127.267643C147.431911 128.805024 147.471311 128.964786 147.539604 129.276452L145.803377 129.276452C145.719324 128.917643 145.703564 128.708119 145.703564 127.893595 145.459284 128.475024 145.028511 129.457167 143.846511 129.457167 142.937684 129.457167 142.078764 128.765738 142.078764 127.0005 142.078764 124.501929 143.544444 123.841929 145.548591 123.7005L145.548591 123.354786C145.548591 122.563833 145.548591 121.74931 144.884044 121.74931 144.253644 121.74931 144.130191 122.425024 144.075031 123.140024L142.307284 122.90169zM150.73258 125.61031C150.73258 126.909357 150.73258 127.674119 151.531087 127.674119 152.295447 127.674119 152.368993 126.561024 152.368993 124.659595 152.368993 123.07769 152.311207 121.820548 151.580993 121.820548 150.73258 121.820548 150.73258 123.098643 150.73258 123.90269L150.73258 125.61031zM150.624887 120.291024L150.624887 121.634595C150.861287 121.063643 151.226393 120.160071 152.145727 120.160071 152.597513 120.160071 153.107087 120.416738 153.43542 120.859357 154.08946 121.747214 154.307473 123.156262 154.307473 124.659595 154.307473 125.942929 154.173513 129.40269 152.019647 129.40269 151.278927 129.40269 150.940087 128.918167 150.73258 128.616976L150.73258 132.322929 148.88866 132.322929 148.88866 120.291024 150.624887 120.291024zM157.324988 125.61031C157.324988 126.909357 157.324988 127.674119 158.120868 127.674119 158.882601 127.674119 158.953521 126.561024 158.953521 124.659595 158.953521 123.07769 158.900988 121.820548 158.170775 121.820548 157.324988 121.820548 157.324988 123.098643 157.324988 123.90269L157.324988 125.61031zM157.214668 120.291024L157.214668 121.634595C157.453695 121.063643 157.816175 120.160071 158.735508 120.160071 159.187295 120.160071 159.691615 120.416738 160.019948 120.859357 160.676615 121.747214 160.902508 123.156262 160.902508 124.659595 160.902508 125.942929 160.760668 129.40269 158.614681 129.40269 157.873961 129.40269 157.529868 128.918167 157.324988 128.616976L157.324988 132.322929 155.475815 132.322929 155.475815 120.291024 157.214668 120.291024zM163.724861 120.290238L163.724861 122.45881C163.885088 121.694048 164.221301 120.159286 165.316621 120.159286 165.447955 120.159286 165.547768 120.182857 165.642328 120.219524L165.642328 122.665714C165.474221 122.62381 165.398048 122.62381 165.327128 122.62381 163.942875 122.62381 163.942875 124.700714 163.942875 125.394762L163.942875 129.27619 162.062181 129.27619 162.062181 120.290238 163.724861 120.290238zM168.767799 121.84281C168.161039 121.84281 167.966665 122.563048 167.966665 124.770905 167.966665 127.156857 168.218825 127.706857 168.780932 127.706857 169.327279 127.706857 169.576812 127.17781 169.576812 124.770905 169.576812 122.458286 169.358799 121.84281 168.780932 121.84281L168.767799 121.84281zM171.517919 124.770905C171.517919 127.654476 170.740425 129.456381 168.767799 129.456381 166.821439 129.456381 166.025559 127.675429 166.025559 124.770905 166.025559 121.968524 166.766279 120.088048 168.780932 120.088048 170.779825 120.088048 171.517919 121.968524 171.517919 124.770905zM174.539373 125.61031C174.539373 126.909357 174.539373 127.674119 175.335253 127.674119 176.10224 127.674119 176.170533 126.561024 176.170533 124.659595 176.170533 123.07769 176.112747 121.820548 175.38516 121.820548 174.539373 121.820548 174.539373 123.098643 174.539373 123.90269L174.539373 125.61031zM174.429053 120.291024L174.429053 121.634595C174.665453 121.063643 175.033187 120.160071 175.947267 120.160071 176.40168 120.160071 176.906 120.416738 177.231707 120.859357 177.893627 121.747214 178.114267 123.156262 178.114267 124.659595 178.114267 125.942929 177.97768 129.40269 175.82644 129.40269 175.083093 129.40269 174.741627 128.918167 174.539373 128.616976L174.539373 132.322929 172.687573 132.322929 172.687573 120.291024 174.429053 120.291024zM180.939247 120.290238L180.939247 122.45881C181.099473 121.694048 181.430433 120.159286 182.525753 120.159286 182.659713 120.159286 182.759527 120.182857 182.85146 120.219524L182.85146 122.665714C182.691233 122.62381 182.601927 122.62381 182.541513 122.62381 181.15726 122.62381 181.15726 124.700714 181.15726 125.394762L181.15726 129.27619 179.284447 129.27619 179.284447 120.290238 180.939247 120.290238zM183.538333 129.273571L185.4164 129.273571 185.4164 120.287619 183.538333 120.287619 183.538333 129.273571zM183.5252 119.528095L185.429533 119.528095 185.429533 117.045238 183.5252 117.045238 183.5252 119.528095zM190.114719 124.978595C189.035159 125.154071 188.580745 125.494548 188.580745 126.673119 188.580745 127.30431 188.759359 127.79931 189.216399 127.79931 189.447545 127.79931 189.647172 127.652643 189.823159 127.30431 190.085825 126.798833 190.114719 126.233119 190.114719 125.410738L190.114719 124.978595zM186.865532 122.90169C186.923319 122.388357 187.028385 121.30931 187.989745 120.578595 188.470425 120.219786 189.035159 120.088833 189.597265 120.088833 190.303839 120.088833 191.044559 120.332405 191.554132 121.042167 191.956012 121.586929 191.987532 122.608357 191.987532 123.7005L191.987532 127.267643C191.987532 128.805024 192.029559 128.964786 192.103105 129.276452L190.358999 129.276452C190.277572 128.917643 190.264439 128.708119 190.264439 127.893595 190.020159 128.475024 189.584132 129.457167 188.404759 129.457167 187.498559 129.457167 186.637012 128.765738 186.637012 127.0005 186.637012 124.501929 188.097439 123.841929 190.114719 123.7005L190.114719 123.354786C190.114719 122.563833 190.114719 121.74931 189.447545 121.74931 188.817145 121.74931 188.685812 122.425024 188.638532 123.140024L186.865532 122.90169zM195.55008 117.451452L195.55008 120.2905 196.800373 120.2905 196.800373 122.260024 195.55008 122.260024 195.55008 125.562643C195.55008 127.24931 195.55008 127.46669 196.89756 127.361929L196.89756 129.276452C196.624387 129.347167 196.240893 129.457167 195.728693 129.457167 195.119307 129.457167 194.428493 129.2555 194.047627 128.530024 193.72192 127.893595 193.72192 126.979548 193.72192 125.835024L193.72192 122.260024 192.978573 122.260024 192.978573 120.2905 193.81648 120.2905 193.9662 117.6505 195.55008 117.451452zM201.129383 123.758643C201.145143 123.261024 201.174036 121.747214 200.254703 121.747214 199.406289 121.747214 199.395783 123.111738 199.380023 123.758643L201.129383 123.758643zM199.364263 125.201738C199.351129 126.416976 199.337996 127.734357 200.267836 127.734357 201.076849 127.734357 201.174036 126.760071 201.221316 126.178643L202.910263 126.32531C202.776303 127.163405 202.400689 129.45769 200.225809 129.45769 198.158623 129.45769 197.417903 127.2865 197.417903 124.903167 197.417903 124.319119 197.470436 122.902214 197.927476 121.807452 198.408156 120.65769 199.301223 120.089357 200.212676 120.089357 201.394676 120.089357 202.119636 120.966738 202.413823 121.736738 202.899756 122.949357 202.910263 124.0965 202.910263 125.201738L199.364263 125.201738zM210.9279 120.290238L210.9279 122.254524 209.740647 122.254524 209.740647 129.27619 207.928247 129.27619 207.928247 122.254524 207.16126 122.254524 207.16126 120.290238 207.928247 120.290238C207.959767 118.758095 207.993913 117.899048 208.655833 117.210238 209.010433 116.827857 209.412313 116.641905 210.10838 116.641905 210.505007 116.641905 210.749287 116.699524 210.996193 116.741429L210.996193 118.692619C210.877993 118.674286 210.765047 118.658571 210.591687 118.658571 209.766913 118.658571 209.740647 119.090714 209.740647 120.290238L210.9279 120.290238zM214.080425 121.84281C213.478919 121.84281 213.287172 122.563048 213.287172 124.770905 213.287172 127.156857 213.534079 127.706857 214.096185 127.706857 214.639905 127.706857 214.886812 127.17781 214.886812 124.770905 214.886812 122.458286 214.668799 121.84281 214.096185 121.84281L214.080425 121.84281zM216.835799 124.770905C216.835799 127.654476 216.058305 129.456381 214.080425 129.456381 212.136692 129.456381 211.338185 127.675429 211.338185 124.770905 211.338185 121.968524 212.076279 120.088048 214.096185 120.088048 216.097705 120.088048 216.835799 121.968524 216.835799 124.770905zM219.659465 120.290238L219.659465 122.45881C219.822319 121.694048 220.153279 120.159286 221.248599 120.159286 221.385185 120.159286 221.482372 120.182857 221.576932 120.219524L221.576932 122.665714C221.414079 122.62381 221.330025 122.62381 221.264359 122.62381 219.874852 122.62381 219.874852 124.700714 219.874852 125.394762L219.874852 129.27619 218.002039 129.27619 218.002039 120.290238 219.659465 120.290238zM232.277447 125.014476C232.1251 127.468524 231.08494 129.456381 229.08342 129.456381 226.30178 129.456381 225.645113 125.978286 225.645113 123.207333 225.645113 120.999476 226.0575 116.942571 229.112313 116.942571 230.499193 116.942571 231.182127 117.778048 231.586633 118.579476 232.1251 119.637571 232.198647 120.915667 232.232793 121.635905L230.41514 121.819238C230.357353 120.858048 230.2733 119.103286 229.128073 119.103286 227.990727 119.103286 227.754327 120.949714 227.754327 123.403762 227.754327 125.449238 227.935567 127.290429 229.128073 127.290429 230.207633 127.290429 230.357353 125.501619 230.425647 124.852095L232.277447 125.014476zM235.206705 117.118833L235.206705 121.238595C235.401079 120.835262 235.771439 120.088833 236.866759 120.088833 238.566212 120.088833 238.566212 121.950976 238.566212 123.504071L238.566212 129.276452 236.685519 129.276452 236.685519 123.504071C236.685519 122.642405 236.685519 122.047881 236.057745 122.047881 235.238225 122.047881 235.206705 122.844071 235.206705 123.574786L235.206705 129.276452 233.333892 129.276452 233.333892 117.118833 235.206705 117.118833zM239.92236 129.273571L241.800427 129.273571 241.800427 120.287619 239.92236 120.287619 239.92236 129.273571zM239.91448 119.528095L241.81356 119.528095 241.81356 117.045238 239.91448 117.045238 239.91448 119.528095z" mask="url(#pg-13-copy-3-d)"/>
    <polygon fill="#FFF" points="243.24 129.274 245.121 129.274 245.121 117.116 243.24 117.116" mask="url(#pg-13-copy-3-d)"/>
    <path fill="#FFF" d="M249.855888 124.062976C249.855888 123.258929 249.855888 121.821071 249.036368 121.821071 248.306155 121.821071 248.211595 122.986548 248.211595 124.432262 248.211595 126.179167 248.211595 127.674643 249.023235 127.674643 249.855888 127.674643 249.855888 126.304881 249.855888 125.644881L249.855888 124.062976zM251.707688 117.119881L251.707688 129.274881 249.966208 129.274881 249.966208 127.800357C249.771835 128.4525 249.485528 129.403214 248.419101 129.403214 246.614581 129.403214 246.267861 126.616548 246.267861 124.830357 246.267861 124.112738 246.267861 120.160595 248.500528 120.160595 249.401475 120.160595 249.679901 120.742024 249.855888 121.113929L249.855888 117.119881 251.707688 117.119881zM254.8195 120.290238L254.8195 122.45881C254.979727 121.694048 255.310687 120.159286 256.406007 120.159286 256.542593 120.159286 256.63978 120.182857 256.736967 120.219524L256.736967 122.665714C256.574113 122.62381 256.484807 122.62381 256.416513 122.62381 255.037513 122.62381 255.037513 124.700714 255.037513 125.394762L255.037513 129.27619 253.162073 129.27619 253.162073 120.290238 254.8195 120.290238zM260.844811 123.758643C260.860571 123.261024 260.889464 121.747214 259.967504 121.747214 259.121717 121.747214 259.111211 123.111738 259.100704 123.758643L260.844811 123.758643zM259.082317 125.201738C259.061304 126.416976 259.053424 127.734357 259.985891 127.734357 260.789651 127.734357 260.889464 126.760071 260.941997 126.178643L262.628317 126.32531C262.491731 127.163405 262.116117 129.45769 259.943864 129.45769 257.874051 129.45769 257.135957 127.2865 257.135957 124.903167 257.135957 124.319119 257.188491 122.902214 257.640277 121.807452 258.120957 120.65769 259.016651 120.089357 259.928104 120.089357 261.104851 120.089357 261.835064 120.966738 262.131877 121.736738 262.615184 122.949357 262.628317 124.0965 262.628317 125.201738L259.082317 125.201738zM265.562041 120.290238L265.562041 121.510714C265.835215 120.764286 266.189815 120.088571 267.245735 120.088571 267.508401 120.088571 268.270135 120.088571 268.740308 121.041905 269.008228 121.602381 269.008228 122.479762 269.008228 123.375476L269.008228 129.27619 267.135415 129.27619 267.135415 123.375476C267.135415 122.563571 267.082881 122.039762 266.491881 122.039762 265.653975 122.039762 265.653975 122.919762 265.653975 124.006667L265.653975 129.27619 263.778535 129.27619 263.778535 120.290238 265.562041 120.290238zM276.084205 117.118833L276.084205 124.061929C276.084205 125.835024 276.084205 127.291214 277.379152 127.291214 277.999045 127.291214 278.287979 126.908833 278.435072 126.481929 278.597925 126.013119 278.597925 125.395024 278.597925 124.061929L278.597925 117.118833 280.289499 117.118833 280.289499 123.94669C280.289499 126.107405 280.289499 127.778357 279.175792 128.765738 278.752899 129.129786 278.148765 129.457167 277.203165 129.457167 274.095819 129.457167 274.080059 126.64431 274.080059 124.061929L274.080059 117.118833 276.084205 117.118833zM283.687092 120.290238L283.687092 121.510714C283.957639 120.764286 284.320119 120.088571 285.373412 120.088571 285.630825 120.088571 286.392559 120.088571 286.865359 121.041905 287.138532 121.602381 287.138532 122.479762 287.138532 123.375476L287.138532 129.27619 285.260465 129.27619 285.260465 123.375476C285.260465 122.563571 285.207932 122.039762 284.616932 122.039762 283.781652 122.039762 283.781652 122.919762 283.781652 124.006667L283.781652 129.27619 281.903585 129.27619 281.903585 120.290238 283.687092 120.290238zM291.782479 124.062976C291.782479 123.258929 291.782479 121.821071 290.962959 121.821071 290.232745 121.821071 290.140812 122.986548 290.140812 124.432262 290.140812 126.179167 290.140812 127.674643 290.947199 127.674643 291.782479 127.674643 291.782479 126.304881 291.782479 125.644881L291.782479 124.062976zM293.629025 117.119881L293.629025 129.274881 291.892799 129.274881 291.892799 127.800357C291.703679 128.4525 291.409492 129.403214 290.343065 129.403214 288.538545 129.403214 288.191825 126.616548 288.191825 124.830357 288.191825 124.112738 288.191825 120.160595 290.421865 120.160595 291.330692 120.160595 291.603865 120.742024 291.782479 121.113929L291.782479 117.119881 293.629025 117.119881zM298.513312 123.758643C298.526445 123.261024 298.555339 121.747214 297.633379 121.747214 296.782339 121.747214 296.774459 123.111738 296.761325 123.758643L298.513312 123.758643zM296.740312 125.201738C296.724552 126.416976 296.714045 127.734357 297.649139 127.734357 298.458152 127.734357 298.555339 126.760071 298.605245 126.178643L300.288939 126.32531C300.157605 127.163405 299.781992 129.45769 297.607112 129.45769 295.537299 129.45769 294.799205 127.2865 294.799205 124.903167 294.799205 124.319119 294.854365 122.902214 295.303525 121.807452 295.786832 120.65769 296.677272 120.089357 297.588725 120.089357 298.768099 120.089357 299.500939 120.966738 299.792499 121.736738 300.275805 122.949357 300.288939 124.0965 300.288939 125.201738L296.740312 125.201738zM303.104988 120.290238L303.104988 122.45881C303.265215 121.694048 303.590921 120.159286 304.688868 120.159286 304.830708 120.159286 304.922641 120.182857 305.019828 120.219524L305.019828 122.665714C304.851721 122.62381 304.775548 122.62381 304.702001 122.62381 303.320375 122.62381 303.320375 124.700714 303.320375 125.394762L303.320375 129.27619 301.447561 129.27619 301.447561 120.290238 303.104988 120.290238zM313.326924 127.29069L314.824124 127.29069 314.824124 129.275929 309.786177 129.275929 309.786177 127.29069 311.317524 127.29069 311.317524 120.1145C310.899884 120.672357 310.529524 121.114976 309.786177 121.636167L309.786177 119.252833C310.868364 118.488071 311.406831 117.707595 311.787697 117.013548L313.326924 117.013548 313.326924 127.29069zM316.038169 120.078095C316.589769 117.579524 317.832183 116.943095 319.050956 116.943095 320.584929 116.943095 321.732783 117.998571 321.732783 120.20381 321.732783 122.063333 320.802943 122.642143 320.393183 122.901429 321.569929 123.404286 321.927156 124.514762 321.927156 125.795476 321.927156 128.977619 319.862596 129.456905 318.940636 129.456905 318.197289 129.456905 317.256943 129.163571 316.626543 128.315 316.038169 127.513571 315.917343 126.562857 315.833289 125.86619L317.614169 125.48119C317.671956 126.122857 317.790156 127.290952 318.806676 127.290952 319.484356 127.290952 319.862596 126.633571 319.862596 125.609524 319.862596 124.389048 319.297863 123.935952 318.446823 123.954286L317.903103 123.954286 317.903103 122.005714 318.446823 122.005714C318.888103 122.005714 319.747023 122.005714 319.747023 120.494524 319.747023 120.345238 319.736516 119.821429 319.531636 119.436429 319.379289 119.127381 319.119249 119.014762 318.830316 119.014762 318.105356 119.014762 317.913609 119.800476 317.790156 120.507619L316.038169 120.078095zM30.07796 90.5038095C26.46104 89.87 24.5567067 89.487619 24.6827867 85.7371429L24.6144933 79.365C25.7938667 79.4252381 27.0415333 79.3859524 28.06856 79.3859524 42.0214133 79.3859524 49.5862133 80.7190476 48.6537467 66.277619 48.48564 56.3671429 41.6799467 56.7704762 27.1045733 56.7704762 22.064 56.7704762 18.124 56.8961905 15.22416 56.8961905 13.0834267 56.8961905 11.5836 56.812381 8.56556 56.9695238 5.72088 57.035 5.51862667 59.5911905 8.10064 60.4319048 10.9426933 61.6419048 13.2909333 60.7592857 13.4879333 64.4102381L13.4879333 86.0252381C13.41964 90.3414286 10.6642667 90.0611905 9.259 90.6295238 5.45296 90.9490476 5.90474667 94.2333333 8.46837333 94.3328571 9.95769333 94.3904762 12.5974933 94.3564286 15.7783867 94.3564286 22.2662533 94.3564286 29.9807733 94.4271429 31.69336 94.377381 34.13616 94.2961905 34.45136 90.8154762 30.07796 90.5038095M24.6827867 75.0042857L24.6827867 62.59C24.6827867 61.3328571 25.5811067 61.0395238 28.3496133 61.0395238 34.3988267 60.9635714 36.21648 62.2914286 36.6708933 66.772619 36.8022267 75.512381 33.86824 75.0592857 26.5503467 75.0592857 25.9304533 75.0592857 25.3131867 75.0592857 24.6827867 75.0042857M79.579332 82.258C79.256252 80.7415714 78.0716253 80.718 76.348532 80.1810952 72.9181053 79.6991905 72.0880787 76.6637143 75.883612 76.4410952L81.509932 76.4410952C84.5095853 76.4201429 91.155052 76.3075238 93.062012 76.3991905 96.5239587 76.4725238 97.2804387 78.9396667 93.0961587 80.0449048 91.990332 80.3460952 90.1753053 81.3439524 90.1490387 83.4994286 90.1359053 84.6282381 90.1490387 91.6577619 90.1490387 91.6577619 90.1490387 91.6577619 88.3077453 96.340619 70.343972 96.0132381 59.2620653 95.7644286 51.4687453 95.460619 51.030092 77.2320476 50.9644253 53.6082381 65.907532 56.2822857 71.7098387 55.858 79.9628253 55.9758571 84.2810653 56.9841905 86.679212 57.8772857 90.3801853 59.1737143 90.5430387 60.9494286 90.5929453 64.1918095 90.6402253 67.4341905 89.9231453 70.4618095 86.253692 70.6268095 81.100172 71.0563333 80.714052 68.7882381 80.343692 66.7322857 79.5767053 61.3789524 78.1661853 60.2658571 72.6029053 60.2763333 63.0444653 60.203 62.0016787 65.2341905 62.2170653 76.538 62.3825453 85.0891905 62.5480253 91.275381 71.872692 91.1522857 76.868612 91.1627619 79.681772 90.8118095 79.681772 87.1975238 79.681772 87.1975238 79.9470653 83.9551429 79.579332 82.258M110.873439 59.5587143C115.483239 57.9846667 117.663372 57.1334762 120.473905 56.7510952 122.380865 56.7144286 125.023292 56.6515714 126.444319 56.6960952 127.064212 56.6960952 127.069465 57.1544286 127.051079 57.5813333 126.990665 58.9458571 127.051079 60.698 127.051079 63.6391905L127.051079 86.4432381C127.016932 89.4394286 127.807559 90.615381 130.654865 90.6520476L131.146052 90.6520476C133.701799 90.6808571 133.670279 94.1851429 131.429732 94.193 129.094625 94.2008571 125.188772 94.1851429 121.183105 94.1851429L112.562385 94.1851429C110.248292 94.2375238 109.785999 90.8432381 112.675332 90.6049048L113.565772 90.6049048C115.378172 90.3089524 116.263359 90.2120476 116.363172 86.4432381L116.468239 66.5463333C116.397319 64.990619 117.030345 63.283 113.791665 63.6391905 109.047905 64.6449048 108.199492 60.6089524 110.873439 59.5587143M145.097067 95.020619C136.49736 94.5832381 135.59904 92.7813333 135.509733 89.0596667 135.407293 86.5375238 135.59904 84.3218095 138.131147 83.3108571 140.195707 82.5041905 143.791613 82.3025238 145.097067 88.2241905 145.814147 90.4739524 149.38116 90.1675238 150.35828 90.1675238 153.36056 90.1675238 157.11932 89.465619 157.455533 83.9970476 157.778613 80.1313333 157.26116 78.9108571 155.33056 77.7244286 151.834467 76.265619 147.01716 78.4001429 146.226533 75.5218095 145.695947 70.8520476 148.929373 72.9525238 153.930547 71.9022857 156.67016 71.3444286 157.384613 69.8018095 157.303187 65.6689524 157.093053 60.0484762 153.145173 59.9489524 149.725253 60.1768095 141.755947 60.6796667 146.89108 66.363 141.411853 67.5599048 134.72436 68.4268095 135.570147 64.9408571 135.40204 63.1651429 135.467707 59.8468095 135.63056 58.7101429 137.519133 57.3141905 140.12216 55.2739524 144.907947 55.2137143 151.582307 55.2634762 155.335813 55.3027619 166.026347 55.1377619 167.368573 63.9089524 167.933307 70.0087143 166.87476 71.6875238 162.790293 73.8691905 165.398573 75.8387143 167.51304 77.860619 167.295027 84.0546667 166.3074 96.2489524 154.77896 95.4475238 145.097067 95.020619" mask="url(#pg-13-copy-3-d)"/>
    <path fill="#FFF" d="M104.966065 70.9657143L108.606625 70.9657143C111.107212 71.002381 111.724479 73.4564286 111.650932 74.9807143 111.622039 75.7402381 110.912839 78.2571429 108.606625 78.2571429L101.772039 78.2309524C99.5131053 78.1811905 98.3284787 77.1021429 98.2733187 74.9807143 98.223412 72.2988095 99.5131053 71.1647619 101.793052 70.9657143L104.966065 70.9657143M192.135939 36.4757381C191.938939 39.877881 190.536299 42.6121667 187.841339 42.6121667 184.090459 42.6121667 183.210525 37.8088333 183.210525 33.9876429 183.210525 30.9338333 183.762125 25.3316905 187.875485 25.3316905 189.740419 25.3316905 190.662379 26.4893095 191.213979 27.5945476 191.938939 29.048119 192.028245 30.8159762 192.086032 31.8216905L189.632725 32.0705C189.556552 30.7374048 189.448859 28.327881 187.899125 28.327881 186.365152 28.327881 186.047325 30.8605 186.047325 34.2626429 186.047325 37.078119 186.286352 39.6159762 187.899125 39.6159762 189.351672 39.6159762 189.556552 37.1540714 189.648485 36.247881L192.135939 36.4757381z" mask="url(#pg-13-copy-3-d)"/>
    <polygon fill="#FFF" points="202.425 42.363 199.73 42.363 199.73 35.491 196.759 35.491 196.759 42.363 194.064 42.363 194.064 25.581 196.759 25.581 196.759 32.348 199.73 32.348 199.73 25.581 202.425 25.581" mask="url(#pg-13-copy-3-d)"/>
    <polygon fill="#FFF" points="212.577 25.58 212.577 28.471 207.797 28.471 207.797 32.348 211.511 32.348 211.511 35.239 207.797 35.239 207.797 39.369 212.577 39.369 212.577 42.363 205.105 42.363 205.105 25.58" mask="url(#pg-13-copy-3-d)"/>
    <path fill="#FFF" d="M222.753153,36.4757381 C222.5509,39.877881 221.153513,42.6121667 218.455927,42.6121667 C214.707673,42.6121667 213.822487,37.8088333 213.822487,33.9876429 C213.822487,30.9338333 214.376713,25.3316905 218.487447,25.3316905 C220.35238,25.3316905 221.276967,26.4893095 221.831193,27.5945476 C222.5509,29.048119 222.64546,30.8159762 222.703247,31.8216905 L220.247313,32.0705 C220.173767,30.7374048 220.06082,28.327881 218.513713,28.327881 C216.982367,28.327881 216.66454,30.8605 216.66454,34.2626429 C216.66454,37.078119 216.903567,39.6159762 218.513713,39.6159762 C219.968887,39.6159762 220.173767,37.1540714 220.263073,36.247881 L222.753153,36.4757381 Z" mask="url(#pg-13-copy-3-d)"/>
    <polygon fill="#FFF" points="227.378 25.58 227.378 32.573 230.364 25.58 233.094 25.58 230.018 31.745 233.351 42.363 230.567 42.363 228.392 34.639 227.378 36.674 227.378 42.363 224.68 42.363 224.68 25.58" mask="url(#pg-13-copy-3-d)"/>
    <polygon fill="#FFF" points="246.121 25.58 246.121 28.72 243.61 28.72 243.61 42.363 240.918 42.363 240.918 28.72 238.465 28.72 238.465 25.58" mask="url(#pg-13-copy-3-d)"/>
    <polygon fill="#FFF" points="255.799 42.363 253.11 42.363 253.11 35.491 250.136 35.491 250.136 42.363 247.444 42.363 247.444 25.581 250.136 25.581 250.136 32.348 253.11 32.348 253.11 25.581 255.799 25.581" mask="url(#pg-13-copy-3-d)"/>
    <polygon fill="#FFF" points="258.48 42.366 261.177 42.366 261.177 25.583 258.48 25.583" mask="url(#pg-13-copy-3-d)"/>
    <path fill="#FFF" d="M269.137985 30.4115952C268.990892 29.8092143 268.638919 28.3268333 267.407012 28.3268333 266.495559 28.3268333 266.114692 29.1780238 266.114692 29.8589762 266.114692 31.0113571 266.923705 31.4173095 268.231785 32.1035 269.623919 32.821119 271.622812 33.8582619 271.622812 37.2551667 271.622812 40.1230238 270.157132 42.611119 267.259919 42.611119 266.366852 42.611119 265.043012 42.3832619 264.044879 40.8537381 263.359319 39.7642143 263.138679 38.7375476 262.994212 38.0068333L265.358212 37.1032619C265.502679 37.8601667 265.854652 39.6175476 267.330839 39.6175476 268.255425 39.6175476 268.896332 38.9182619 268.896332 37.8077857 268.896332 36.6239762 268.124092 36.1499286 267.202132 35.6994524 265.523692 34.8639762 263.493279 33.8765952 263.493279 30.4613571 263.493279 27.8449286 264.725185 25.3332619 267.420145 25.3332619 270.488092 25.3332619 271.128999 28.1199286 271.394292 29.2277857L269.137985 30.4115952zM281.317051 39.4732381L282.651397 39.4732381C283.807131 39.4732381 284.492691 38.918 284.492691 37.2549048 284.492691 35.0627619 283.237144 35.0627619 282.622504 35.0627619L281.317051 35.0627619 281.317051 39.4732381zM281.317051 32.3468095L282.183851 32.3468095C282.921944 32.3468095 284.159104 32.3468095 284.159104 30.2594286 284.159104 28.2951429 282.921944 28.2951429 282.386104 28.2951429L281.317051 28.2951429 281.317051 32.3468095zM278.716651 25.5791905L282.903557 25.5791905C284.119704 25.5791905 285.506584 25.5791905 286.263064 27.0091905 286.722731 27.8708571 286.906597 28.9446667 286.906597 30.008 286.906597 32.700381 285.727224 33.305381 285.159864 33.6039524 285.564371 33.805619 285.950491 33.9863333 286.391771 34.6384762 286.840931 35.290619 287.242811 36.2989524 287.242811 37.710619 287.242811 39.1668095 286.780517 40.8534762 285.892704 41.5841905 284.952357 42.3646667 284.012011 42.3646667 282.903557 42.3646667L278.716651 42.3646667 278.716651 25.5791905zM291.838952 33.987119C291.838952 37.5830714 292.104245 39.6154524 293.464859 39.6154524 294.849112 39.6154524 295.090765 37.5333095 295.090765 33.987119 295.090765 30.4592619 294.867499 28.3273571 293.464859 28.3273571 292.104245 28.3273571 291.838952 30.3309286 291.838952 33.987119M297.927565 33.987119C297.927565 37.0487857 297.525685 42.6116429 293.464859 42.6116429 289.516979 42.6116429 289.002152 37.3552143 289.002152 33.987119 289.002152 30.7656905 289.464445 25.3311667 293.464859 25.3311667 297.378592 25.3311667 297.927565 30.4906905 297.927565 33.987119" mask="url(#pg-13-copy-3-d)"/>
    <polygon fill="#FFF" points="302.104 25.58 303.586 29.956 305.136 25.58 307.723 25.58 304.818 33.175 308.088 42.363 305.136 42.363 303.329 36.879 301.316 42.363 298.727 42.363 302.104 33.759 299.097 25.58" mask="url(#pg-13-copy-3-d)"/>
    <polygon fill="#FFF" points="190.943 50.755 190.943 53.649 186.349 53.649 186.349 58.023 189.89 58.023 189.89 60.925 186.349 60.925 186.349 67.538 183.652 67.538 183.652 50.755" mask="url(#pg-13-copy-3-d)"/>
    <path fill="#FFF" d="M194.583204 59.1621905C194.583204 62.7607619 194.840617 64.7931429 196.203857 64.7931429 197.593364 64.7931429 197.829764 62.708381 197.829764 59.1621905 197.829764 55.6343333 197.606497 53.5024286 196.203857 53.5024286 194.840617 53.5024286 194.583204 55.506 194.583204 59.1621905M200.671817 59.1621905C200.671817 62.2290952 200.267311 67.7840952 196.203857 67.7840952 192.258604 67.7840952 191.743777 62.5302857 191.743777 59.1621905 191.743777 55.943381 192.200817 50.5062381 196.203857 50.5062381 200.117591 50.5062381 200.671817 55.6657619 200.671817 59.1621905M205.605485 53.473881L205.605485 58.203881 206.805872 58.203881C207.966859 58.203881 208.392379 57.1693571 208.392379 55.783881 208.392379 53.473881 207.157845 53.473881 206.695552 53.473881L205.605485 53.473881zM206.769099 50.7553095C208.008885 50.7553095 209.204019 50.7553095 210.146992 52.1879286 210.790525 53.1674524 211.034805 54.5005476 211.034805 55.8310238 211.034805 58.8062619 209.910592 59.7150714 209.295952 60.2179286L211.568019 67.5381667 208.615645 67.5381667 206.973979 60.9250714 205.605485 60.9250714 205.605485 67.5381667 202.921032 67.5381667 202.921032 50.7553095 206.769099 50.7553095zM223.671436 55.5866667C223.526969 54.9869048 223.174996 53.5019048 221.940463 53.5019048 221.031636 53.5019048 220.648143 54.3504762 220.648143 55.0340476 220.648143 56.1864286 221.454529 56.595 222.762609 57.2785714 224.149489 57.9988095 226.166769 59.0333333 226.166769 62.4328571 226.166769 65.2980952 224.685329 67.7835714 221.793369 67.7835714 220.902929 67.7835714 219.576463 67.5583333 218.578329 66.0261905 217.900649 64.9419048 217.674756 63.9152381 217.530289 63.1819048L219.891663 62.2757143C220.036129 63.0352381 220.385476 64.7952381 221.861663 64.7952381 222.786249 64.7952381 223.429783 64.0907143 223.429783 62.9880952 223.429783 61.7990476 222.657543 61.325 221.735583 60.8719048 220.054516 60.0416667 218.029356 59.0542857 218.029356 55.6364286 218.029356 53.02 219.261263 50.5083333 221.953596 50.5083333 225.024169 50.5083333 225.665076 53.295 225.922489 54.4028571L223.671436 55.5866667zM230.874281 53.473881L230.874281 58.4526905 231.722695 58.4526905C232.665668 58.4526905 233.458921 58.1750714 233.458921 55.9410238 233.458921 53.473881 232.313695 53.473881 231.722695 53.473881L230.874281 53.473881zM231.722695 50.7553095C233.012388 50.7553095 234.362495 50.7553095 235.287081 52.0386429 236.132868 53.2460238 236.319361 54.8593571 236.319361 56.0117381 236.319361 57.6722143 235.980521 59.358881 235.029668 60.3698333 234.107708 61.3467381 232.589495 61.3467381 231.835641 61.3467381L230.874281 61.3467381 230.874281 67.5381667 228.179321 67.5381667 228.179321 50.7553095 231.722695 50.7553095z" mask="url(#pg-13-copy-3-d)"/>
    <polygon fill="#FFF" points="245.439 50.755 245.439 53.649 240.661 53.649 240.661 57.523 244.375 57.523 244.375 60.414 240.661 60.414 240.661 64.544 245.439 64.544 245.439 67.538 237.969 67.538 237.969 50.755" mask="url(#pg-13-copy-3-d)"/>
    <path fill="#FFF" d="M255.614592,61.6508095 C255.414965,65.0529524 254.012325,67.784619 251.317365,67.784619 C247.571739,67.784619 246.686552,62.9891429 246.686552,59.1627143 C246.686552,56.1115238 247.240779,50.5067619 251.354139,50.5067619 C253.213819,50.5067619 254.138405,51.664381 254.692632,52.767 C255.414965,54.2258095 255.506899,55.9910476 255.559432,56.9967619 L253.108752,57.2481905 C253.032579,55.9124762 252.924885,53.5029524 251.372525,53.5029524 C249.841179,53.5029524 249.525979,56.0381905 249.525979,59.4403333 C249.525979,62.2531905 249.765005,64.7936667 251.372525,64.7936667 C252.830325,64.7936667 253.032579,62.3317619 253.121885,61.4255714 L255.614592,61.6508095 Z" mask="url(#pg-13-copy-3-d)"/>
    <polygon fill="#FFF" points="257.542 67.537 260.237 67.537 260.237 50.755 257.542 50.755" mask="url(#pg-13-copy-3-d)"/>
    <polygon fill="#FFF" points="270.213 50.755 270.213 53.649 265.616 53.649 265.616 58.023 269.157 58.023 269.157 60.925 265.616 60.925 265.616 67.538 262.921 67.538 262.921 50.755" mask="url(#pg-13-copy-3-d)"/>
    <polygon fill="#FFF" points="271.458 67.537 274.156 67.537 274.156 50.755 271.458 50.755" mask="url(#pg-13-copy-3-d)"/>
    <path fill="#FFF" d="M285.323768 61.6508095C285.124141 65.0529524 283.724128 67.784619 281.023915 67.784619 277.280915 67.784619 276.393101 62.9891429 276.393101 59.1627143 276.393101 56.1115238 276.949955 50.5067619 281.060688 50.5067619 282.922995 50.5067619 283.847581 51.664381 284.401808 52.767 285.124141 54.2258095 285.216075 55.9910476 285.271235 56.9967619L282.817928 57.2481905C282.744381 55.9124762 282.631435 53.5029524 281.079075 53.5029524 279.555608 53.5029524 279.235155 56.0381905 279.235155 59.4403333 279.235155 62.2531905 279.474181 64.7936667 281.079075 64.7936667 282.539501 64.7936667 282.744381 62.3317619 282.836315 61.4255714L285.323768 61.6508095zM300.809281 61.6508095C300.604401 65.0529524 299.201761 67.784619 296.504175 67.784619 292.766428 67.784619 291.875988 62.9891429 291.875988 59.1627143 291.875988 56.1115238 292.430215 50.5067619 296.540948 50.5067619 298.405881 50.5067619 299.333095 51.664381 299.887321 52.767 300.604401 54.2258095 300.698961 55.9910476 300.754121 56.9967619L298.298188 57.2481905C298.227268 55.9124762 298.116948 53.5029524 296.564588 53.5029524 295.035868 53.5029524 294.718041 56.0381905 294.718041 59.4403333 294.718041 62.2531905 294.954441 64.7936667 296.564588 64.7936667 298.019761 64.7936667 298.227268 62.3317619 298.311321 61.4255714L300.809281 61.6508095zM305.131461 59.1621905C305.131461 62.7607619 305.391501 64.7931429 306.759995 64.7931429 308.138995 64.7931429 308.380648 62.708381 308.380648 59.1621905 308.380648 55.6343333 308.157381 53.5024286 306.759995 53.5024286 305.391501 53.5024286 305.131461 55.506 305.131461 59.1621905M311.222701 59.1621905C311.222701 62.2290952 310.815568 67.7840952 306.759995 67.7840952 302.809488 67.7840952 302.292035 62.5302857 302.292035 59.1621905 302.292035 55.943381 302.754328 50.5062381 306.759995 50.5062381 310.671101 50.5062381 311.222701 55.6657619 311.222701 59.1621905" mask="url(#pg-13-copy-3-d)"/>
    <polygon fill="#FFF" points="316.354 50.755 319.516 61.171 319.516 50.755 321.617 50.755 321.617 67.538 319.204 67.538 315.453 55.388 315.453 67.538 313.346 67.538 313.346 50.755" mask="url(#pg-13-copy-3-d)"/>
    <polygon fill="#FFF" points="330.464 50.755 330.464 53.898 327.953 53.898 327.953 67.538 325.261 67.538 325.261 53.898 322.802 53.898 322.802 50.755" mask="url(#pg-13-copy-3-d)"/>
    <polygon fill="#FFF" points="339.258 50.755 339.258 53.649 334.48 53.649 334.48 57.523 338.183 57.523 338.183 60.414 334.48 60.414 334.48 64.544 339.258 64.544 339.258 67.538 331.78 67.538 331.78 50.755" mask="url(#pg-13-copy-3-d)"/>
    <polygon fill="#FFF" points="343.839 50.755 346.999 61.171 346.999 50.755 349.1 50.755 349.1 67.538 346.681 67.538 342.935 55.388 342.935 67.538 340.831 67.538 340.831 50.755" mask="url(#pg-13-copy-3-d)"/>
    <polygon fill="#FFF" points="357.944 50.755 357.944 53.898 355.438 53.898 355.438 67.538 352.741 67.538 352.741 53.898 350.285 53.898 350.285 50.755" mask="url(#pg-13-copy-3-d)"/>
    <polygon fill="#FFF" points="183.651 92.706 186.349 92.706 186.349 75.924 183.651 75.924" mask="url(#pg-13-copy-3-d)"/>
    <polygon fill="#FFF" points="191.931 75.925 195.083 86.346 195.083 75.925 197.189 75.925 197.189 92.708 194.768 92.708 191.025 80.556 191.025 92.708 188.921 92.708 188.921 75.925" mask="url(#pg-13-copy-3-d)"/>
    <polygon fill="#FFF" points="207.052 75.925 207.052 78.819 202.453 78.819 202.453 83.201 205.996 83.201 205.996 86.09 202.453 86.09 202.453 92.708 199.76 92.708 199.76 75.925" mask="url(#pg-13-copy-3-d)"/>
    <path fill="#FFF" d="M210.689399 84.3322857C210.689399 87.925619 210.954692 89.9710952 212.315305 89.9710952 213.702185 89.9710952 213.938585 87.8784762 213.938585 84.3322857 213.938585 80.8096667 213.717945 78.6699048 212.315305 78.6699048 210.954692 78.6699048 210.689399 80.6839524 210.689399 84.3322857M216.780639 84.3322857C216.780639 87.4018095 216.378759 92.9646667 212.315305 92.9646667 208.364799 92.9646667 207.855225 87.700381 207.855225 84.3322857 207.855225 81.1108571 208.312265 75.6763333 212.315305 75.6763333 216.226412 75.6763333 216.780639 80.8332381 216.780639 84.3322857M221.71168 78.6489524L221.71168 83.3763333 222.914693 83.3763333C224.070427 83.3763333 224.5012 82.3444286 224.5012 80.9589524 224.5012 78.6489524 223.261413 78.6489524 222.801747 78.6489524L221.71168 78.6489524zM222.880547 75.9251429C224.112453 75.9251429 225.310213 75.9251429 226.253187 77.363 226.899347 78.3425238 227.138373 79.6782381 227.138373 81.0087143 227.138373 83.9734762 226.016787 84.8849048 225.404773 85.3851429L227.674213 92.708 224.72184 92.708 223.077547 86.0896667 221.71168 86.0896667 221.71168 92.708 219.021973 92.708 219.021973 75.9251429 222.880547 75.9251429z" mask="url(#pg-13-copy-3-d)"/>
    <polygon fill="#FFF" points="233.401 75.925 235.137 86.297 237.094 75.925 240.929 75.925 240.929 92.708 238.402 92.708 238.402 78.649 235.891 92.708 233.921 92.708 231.628 78.649 231.628 92.708 229.435 92.708 229.435 75.925" mask="url(#pg-13-copy-3-d)"/>
    <path fill="#FFF" d="M248.127016,86.3654524 L246.889856,79.527119 L245.692096,86.3654524 L248.127016,86.3654524 Z M248.500003,75.9259286 L252.003976,92.7087857 L249.251229,92.7087857 L248.626083,89.262119 L245.174643,89.262119 L244.567883,92.7087857 L242.075176,92.7087857 L245.765643,75.9259286 L248.500003,75.9259286 Z" mask="url(#pg-13-copy-3-d)"/>
    <polygon fill="#FFF" points="259.668 75.925 259.668 79.073 257.154 79.073 257.154 92.708 254.464 92.708 254.464 79.073 252.016 79.073 252.016 75.925" mask="url(#pg-13-copy-3-d)"/>
    <polygon fill="#FFF" points="260.988 92.706 263.681 92.706 263.681 75.924 260.988 75.924" mask="url(#pg-13-copy-3-d)"/>
    <path fill="#FFF" d="M268.766049,84.3322857 C268.766049,87.925619 269.023463,89.9710952 270.389329,89.9710952 C271.776209,89.9710952 272.009983,87.8784762 272.009983,84.3322857 C272.009983,80.8096667 271.786716,78.6699048 270.389329,78.6699048 C269.023463,78.6699048 268.766049,80.6839524 268.766049,84.3322857 M274.857289,84.3322857 C274.857289,87.4018095 274.452783,92.9646667 270.389329,92.9646667 C266.441449,92.9646667 265.923996,87.700381 265.923996,84.3322857 C265.923996,81.1108571 266.386289,75.6763333 270.389329,75.6763333 C274.300436,75.6763333 274.857289,80.8332381 274.857289,84.3322857" mask="url(#pg-13-copy-3-d)"/>
    <polygon fill="#FFF" points="279.993 75.925 283.148 86.346 283.148 75.925 285.252 75.925 285.252 92.708 282.836 92.708 279.087 80.556 279.087 92.708 276.986 92.708 276.986 75.925" mask="url(#pg-13-copy-3-d)"/>
    <g transform="translate(378.24 117.857)">
      <mask id="pg-13-copy-3-f" fill="#fff">
        <use xlink:href="#pg-13-copy-3-e"/>
      </mask>
      <path fill="#FFF" d="M6.651508,7.95682381 L7.71793467,7.95682381 C8.93145467,7.95682381 9.96373467,7.51944286 9.96373467,6.38015714 C9.96373467,5.57349048 9.37536133,4.7720619 7.71793467,4.7720619 C7.242508,4.7720619 6.911548,4.80610952 6.651508,4.84539524 L6.651508,7.95682381 Z M6.651508,13.0561095 L5.185828,13.0561095 L5.185828,3.85539524 C5.95281467,3.74277619 6.69353467,3.63015714 7.79148133,3.63015714 C9.19149467,3.63015714 10.1055747,3.92610952 10.6598013,4.3320619 C11.2087747,4.73277619 11.5082147,5.35610952 11.5082147,6.23610952 C11.5082147,7.44349048 10.6965747,8.17944286 9.70632133,8.47277619 L9.70632133,8.54872857 C10.512708,8.69015714 11.064308,9.42087143 11.2481747,10.7827762 C11.4714413,12.2127762 11.6894547,12.7601571 11.8391747,13.0561095 L10.292068,13.0561095 C10.071428,12.7601571 9.850788,11.9168238 9.66429467,10.7094429 C9.441028,9.53610952 8.85528133,9.09872857 7.68116133,9.09872857 L6.651508,9.09872857 L6.651508,13.0561095 Z M8.19336133,1.28349048 C4.55805467,1.28349048 1.57941467,4.40539524 1.57941467,8.25277619 C1.57941467,12.1734905 4.55805467,15.2561095 8.23013467,15.2561095 C11.9127213,15.2901571 14.8519613,12.1734905 14.8519613,8.28682381 C14.8519613,4.40539524 11.9127213,1.28349048 8.23013467,1.28349048 L8.19336133,1.28349048 Z M8.23013467,0.000157142857 C12.7558813,0.000157142857 16.3570413,3.66944286 16.3570413,8.25277619 C16.3570413,12.9068238 12.7558813,16.5368238 8.19336133,16.5368238 C3.67549467,16.5368238 0.000788,12.9068238 0.000788,8.25277619 C0.000788,3.66944286 3.67549467,0.000157142857 8.19336133,0.000157142857 L8.23013467,0.000157142857 Z" mask="url(#pg-13-copy-3-f)"/>
    </g>
  </g>
</svg>
