<svg xmlns="http://www.w3.org/2000/svg" width="84" height="69" viewBox="0 0 84 69"><g fill="none" fill-rule="evenodd"><g fill="#000" transform="translate(2 9)"><path d="M0,0 L0,50 L80,50 L80,0 L0,0 Z M64.1060976,2.86620374 L64.1060976,2.86671677 C65.1632797,2.86671677 65.8830736,3.55355148 66.032993,4.66579699 L64.9426467,4.82110612 C64.8931474,4.29509064 64.630552,3.85418174 64.0752443,3.85418174 C63.2670286,3.85418174 63.1466323,4.97850273 63.1466323,5.62620831 C63.1466323,6.31057001 63.3261056,7.26947844 64.1265017,7.26947844 C64.6296653,7.26947844 64.9700245,6.89885263 64.9426467,6.36367588 L64.0130384,6.36367588 L64.0130384,5.38071959 L66.032993,5.38071959 L66.032993,8.18630274 L65.5094661,8.18630274 L65.3447455,7.58609622 C64.979745,8.05978844 64.577343,8.26544827 64.005076,8.26544827 C62.5672464,8.26544827 61.9746697,6.99104583 61.9746697,5.61317014 C61.9746697,4.18951529 62.6226493,2.86620374 64.1060976,2.86620374 Z M34.1566084,2.86670471 C35.0130468,2.86670471 35.713094,3.18875821 36.0168186,4.0981673 L35.0449116,4.4433542 C34.8989109,3.99978425 34.6351027,3.82161696 34.1984128,3.82161696 C33.8881629,3.82161696 33.5171313,3.90625515 33.5171313,4.31059003 C33.5171313,4.6939839 33.9511102,4.7849797 34.2287692,4.83864092 C34.627655,4.93142101 35.1634657,5.03843896 35.5102126,5.2805202 C35.909101,5.56577291 36.1516822,6.00219339 36.1516822,6.52299273 C36.1516822,7.03592977 35.9207757,7.52437031 35.5440546,7.83710787 C35.1477728,8.16817848 34.6149458,8.26546032 34.1182896,8.26546032 C33.1979789,8.26546032 32.3598679,7.83706221 32.1356575,6.80856095 L33.1971431,6.55003458 C33.3418367,7.10486311 33.7124198,7.2955181 34.2208068,7.2955181 C34.5506072,7.2955181 34.9856919,7.16361529 34.9856919,6.72788841 C34.9856919,6.29346076 34.4281802,6.2072558 34.1257551,6.13921717 C33.2536747,5.94946869 32.3954298,5.67244637 32.3954298,4.52750963 C32.3954298,4.03811205 32.5726608,3.61010536 32.9259229,3.2960591 C33.2817966,2.97677745 33.7055836,2.86670471 34.1566084,2.86670471 L34.1566084,2.86670471 Z M40.8654098,2.86670471 C41.7257518,2.86670471 42.427106,3.18875821 42.72562,4.0981673 L41.7552062,4.4433542 C41.6105126,3.99978425 41.3460827,3.82161696 40.9106973,3.82161696 C40.6004448,3.82161696 40.2314058,3.90625515 40.2314058,4.31059003 C40.2314058,4.6939839 40.6597206,4.7849797 40.936075,4.83864092 C41.3375648,4.93142101 41.8753706,5.03843896 42.2195109,5.2805202 C42.6196987,5.56577291 42.8649629,6.00219339 42.8649629,6.52299273 C42.8649629,7.03592977 42.633687,7.52437031 42.2543466,7.83710787 C41.8619785,8.16817848 41.3236224,8.26546032 40.8295804,8.26546032 C39.9066707,8.26546032 39.0671329,7.83706221 38.8494351,6.80856095 L39.9069383,6.55003458 C40.0503299,7.10486311 40.4256318,7.2955181 40.9301051,7.2955181 C41.261205,7.2955181 41.6979764,7.16361529 41.6979764,6.72788841 C41.6979764,6.29346076 41.1342579,6.2072558 40.8370434,6.13921717 C39.9662726,5.94946869 39.1052275,5.67244637 39.1052275,4.52750963 C39.1052275,4.03811205 39.283256,3.61010536 39.6352237,3.2960591 C39.9936938,2.97677745 40.416984,2.86670471 40.8654098,2.86670471 L40.8654098,2.86670471 Z M54.3810481,2.86671677 C55.035423,2.86671677 55.5476931,3.09427848 55.9426704,3.67131799 C56.2920213,4.18295581 56.4716704,4.92295411 56.4716704,5.5575715 C56.4716704,6.15426254 56.3238122,6.88084124 56.0083594,7.38069958 C55.627722,7.9760819 55.0484711,8.26546032 54.3810481,8.26546032 C53.7175361,8.26546032 53.1810655,8.02068035 52.7965349,7.44232237 C52.4354353,6.8992828 52.2784835,6.21838451 52.2784835,5.5575715 C52.2784835,4.1653184 52.9301882,2.86671677 54.3810481,2.86671677 Z M5.62691177,2.94285625 L7.47418342,2.94285625 C7.95258856,2.94285625 8.38942117,2.9428029 8.79743125,3.24245252 C9.21196156,3.5538716 9.43491833,4.00670824 9.43491833,4.55105652 C9.43491833,5.04567025 9.27090863,5.55195264 8.90591833,5.88170453 C8.48486779,6.25725533 8.03242892,6.2469313 7.5110091,6.2469313 L6.77349417,6.2469313 L6.77349417,8.18679164 L5.62691177,8.18679164 L5.62691177,2.94285625 Z M11.0149522,2.94285625 L12.3476555,2.94285625 L13.88788,8.18679164 L12.6482359,8.18679164 L12.3476555,7.1111512 L10.7601561,7.1111512 L10.4501228,8.18679164 L9.4428807,8.18679164 L11.0149522,2.94285625 Z M14.5791138,2.94285625 L16.6458464,2.94285625 C17.0825364,2.94285625 17.5278639,2.94840714 17.9058946,3.21289353 C18.307387,3.4915924 18.5299438,4.0061588 18.5299438,4.51648789 C18.5299438,5.11446815 18.2108142,5.6638266 17.6789656,5.87318761 L18.5871735,8.18679164 L17.3107063,8.18679164 L16.5602528,6.12017922 L15.7247,6.12017922 L15.7247,8.18679164 L14.5791138,8.18679164 L14.5791138,2.94285625 Z M19.414764,2.94285625 L22.9216933,2.94285625 L22.9216933,3.95937924 L20.5598533,3.95937924 L20.5598533,5.02399768 L22.4205629,5.02399768 L22.4205629,6.00945879 L20.5598533,6.00945879 L20.5598533,7.17577978 L22.9216933,7.17577978 L22.9216933,8.18679164 L19.414764,8.18679164 L19.414764,2.94285625 Z M23.7020012,2.94285625 L24.9406542,2.94285625 L26.578914,6.02448877 L26.5903544,6.02448877 L26.5903544,2.94285625 L27.4801507,2.94285625 L27.4801507,8.18679164 L26.4982889,8.18679164 L24.6171778,4.66578493 L24.5888113,4.66578493 L24.5888113,8.18679164 L23.7020012,8.18679164 L23.7020012,2.94285625 Z M28.2082153,2.94285625 L31.8296041,2.94285625 L31.8296041,3.98092201 L30.5974255,3.98092201 L30.5974255,8.18679164 L29.4548255,8.18679164 L29.4548255,3.98092201 L28.2082153,3.98092201 L28.2082153,2.94285625 Z M43.3496717,2.94285625 L46.9690706,2.94285625 L46.9690706,3.98092201 L45.7378882,3.98092201 L45.7378882,8.18679164 L44.594292,8.18679164 L44.594292,3.98092201 L43.3496717,3.98092201 L43.3496717,2.94285625 Z M47.7200209,2.94285625 L49.7867561,2.94285625 C50.2247429,2.94285625 50.6707558,2.94840714 51.0487942,3.21289353 C51.4489821,3.4915924 51.6708534,4.0061588 51.6708534,4.51648789 C51.6708534,5.11446815 51.3491173,5.6638266 50.8198752,5.87318761 L51.7270894,8.18679164 L50.4555958,8.18679164 L49.7041461,6.12017922 L48.8656096,6.12017922 L48.8656096,8.18679164 L47.7200209,8.18679164 L47.7200209,2.94285625 Z M57.3430526,2.94285625 L58.5812036,2.94285625 L60.2209541,6.02448877 L60.2358851,6.02448877 L60.2358851,2.94285625 L61.123689,2.94285625 L61.123689,8.18679164 L60.1443165,8.18679164 L58.2592255,4.66578493 L58.2313559,4.66578493 L58.2313559,8.18679164 L57.343552,8.18679164 L57.3430526,2.94285625 Z M67.0322727,2.94285625 L68.1768626,2.94285625 L68.1768626,7.1492271 L70.1535248,7.1492271 L70.1535248,8.18679164 L67.0322727,8.18679164 L67.0322727,2.94285625 Z M69.7150947,2.94285625 L71.0463049,2.94285625 L71.991341,4.93932922 L72.9209493,2.94285625 L73.9520759,2.94285625 L72.4118539,5.97839691 L72.4118539,8.18679164 L71.2702477,8.18679164 L71.2702477,5.97839691 L69.7150947,2.94285625 Z M54.3810481,3.87170473 C53.9899794,3.87170473 53.7754385,4.08471281 53.638557,4.46288105 C53.5225534,4.77692758 53.4798063,5.22830852 53.4798063,5.55806041 C53.4798063,6.21886367 53.5728247,7.26445622 54.3810481,7.26445622 C54.7760279,7.26445622 54.9898171,7.05720577 55.1175693,6.66726781 C55.2335729,6.3440695 55.2718407,5.91365085 55.2718407,5.5655754 C55.2718407,5.1834905 55.2337436,4.73290397 55.0916922,4.38222057 C54.9456991,4.02891974 54.7382187,3.87170473 54.3810481,3.87170473 L54.3810481,3.87170473 Z M15.7247,3.87471104 L15.7247,5.21337499 L16.3517378,5.21337499 C16.586377,5.21337499 16.8479583,5.23567601 17.0539202,5.10616183 C17.241631,4.98447147 17.3395696,4.73795671 17.3395696,4.50897342 C17.3395696,4.30353881 17.2276147,4.08382914 17.0633757,3.97390851 C16.8691395,3.84698328 16.5395761,3.87471104 16.3218783,3.87471104 L15.7247,3.87471104 Z M48.8656096,3.87471104 L48.8656096,5.21337499 L49.4941406,5.21337499 C49.7313965,5.21337499 49.9889317,5.23567601 50.1988097,5.10616183 C50.3839089,4.98447147 50.4834654,4.73795671 50.4834654,4.50897342 C50.4834654,4.30353881 50.3659254,4.08382914 50.2042828,3.97390851 C50.0100543,3.84698328 49.682547,3.87471104 49.4687603,3.87471104 L48.8656096,3.87471104 Z M6.77349417,3.9007625 L6.77349417,5.29253207 L7.41595742,5.29253207 C7.68840069,5.29253207 7.91850959,5.29281423 8.11664667,5.06006947 C8.22483309,4.93052655 8.27589423,4.76182527 8.27589423,4.59564522 C8.27589423,4.39020112 8.19643861,4.17569759 8.0400091,4.04354673 C7.86012051,3.90091563 7.62327226,3.9007625 7.40948815,3.9007625 L6.77349417,3.9007625 Z M11.5598795,4.30406517 L11.0383425,6.14623094 L12.0824102,6.14623094 L11.5598795,4.30406517 Z M23.4307886,9.73888051 C24.6613492,9.73888051 25.2885426,10.5042993 25.4188937,11.7644112 L24.2185671,11.8505826 C24.2107704,11.2682887 24.0245756,10.7233394 23.3949592,10.7233394 C22.5880556,10.7233394 22.5061565,11.8538162 22.5061565,12.49236 C22.5061565,13.2120401 22.5879359,14.1356301 23.4521864,14.1356301 C23.9879487,14.1356301 24.2396006,13.6552627 24.3021708,13.150169 L25.4188937,13.2263205 C25.2989688,14.4275359 24.5251403,15.139127 23.3949592,15.139127 C21.932371,15.139127 21.2257068,13.871589 21.2257068,12.4387531 C21.2257068,10.9863045 21.9551676,9.73888051 23.4307886,9.73888051 Z M44.0573271,9.73888051 C44.7091108,9.73888051 45.2261965,9.96954138 45.6159632,10.5439824 C45.9679232,11.0529833 46.1459594,11.7975937 46.1459594,12.4322403 C46.1459594,13.0263039 45.9964859,13.7529329 45.6836447,14.2488553 C45.3043144,14.849463 44.7234405,15.139127 44.0573271,15.139127 C43.3938151,15.139127 42.8581038,14.8915544 42.4683371,14.3144859 C42.112466,13.7662209 41.9527725,13.0878082 41.9527725,12.4322403 C41.9527725,11.0399775 42.6038581,9.73888051 44.0573271,9.73888051 Z M27.4801558,9.81202601 L28.811366,9.81202601 L30.3505918,15.0619735 L29.113437,15.0619735 L28.811366,13.9828258 L27.2233698,13.9828258 L26.9143302,15.0619735 L25.9080843,15.0619735 L27.4801558,9.81202601 Z M30.9477701,9.81202601 L32.1918936,9.81202601 L32.1918936,12.9863429 C32.1918936,13.2310513 32.1884029,13.5822473 32.3018737,13.7994611 C32.4517856,14.0768802 32.760736,14.151662 33.0383924,14.151662 C33.2665139,14.151662 33.602539,14.0769228 33.7485372,13.8716046 C33.9062687,13.6334596 33.8804145,13.2637523 33.8804145,12.9863429 L33.8804145,9.81202601 L34.8702517,9.81202601 L34.8702517,12.9863429 C34.8702517,13.5621027 34.8791286,14.1606378 34.4711236,14.5885314 C34.0761463,15.0085621 33.4955246,15.139127 32.9597649,15.139127 C32.4448628,15.139127 31.8510401,15.0543508 31.4573623,14.6892317 C30.9698355,14.2351718 30.9477701,13.632759 30.9477701,12.9863429 L30.9477701,9.81202601 Z M35.5286267,9.81202601 L39.1475262,9.81202601 L39.1475262,10.8551017 L37.9188332,10.8551017 L37.9188332,15.0619735 L36.7727476,15.0619735 L36.7727476,10.8551017 L35.5286267,10.8551017 L35.5286267,9.81202601 Z M47.0193214,9.81202601 L48.2569858,9.81202601 L49.8962394,12.8966646 L49.9096671,12.8966646 L49.9096671,9.81202601 L50.7964747,9.81202601 L50.7964747,15.0619735 L49.8185954,15.0619735 L47.9354943,11.5394636 L47.9051379,11.5394636 L47.9051379,15.0619735 L47.0193214,15.0619735 L47.0193214,9.81202601 Z M51.8773784,9.81202601 L55.383314,9.81202601 L55.383314,10.8325567 L53.0219708,10.8325567 L53.0219708,11.8961735 L54.884171,11.8961735 L54.884171,12.8831375 L53.0219708,12.8831375 L53.0219708,14.0439476 L55.383314,14.0439476 L55.383314,15.0619735 L51.8773784,15.0619735 L51.8773784,9.81202601 Z M56.150189,9.81202601 L57.5739616,9.81202601 C58.2817826,9.81202601 58.8901363,9.86140376 59.4272056,10.4032023 C59.9551457,10.9383793 60.1861209,11.6665071 60.1861209,12.4202164 C60.1861209,13.1268181 59.9866283,13.8063745 59.5486313,14.3350267 C59.062409,14.9094583 58.4617833,15.0522397 57.7670511,15.0619735 L56.150189,15.0619735 L56.150189,9.81202601 Z M39.9019621,9.81503231 L41.0445646,9.81503231 L41.0445646,15.0609718 L39.9019621,15.0609718 L39.9019621,9.81503231 Z M44.0573271,10.7418767 C43.6649589,10.7418767 43.4513328,10.9555799 43.3118498,11.3350571 C43.1997471,11.6504124 43.1565847,12.1014865 43.1565847,12.4312384 C43.1565847,13.0867968 43.2491139,14.1351291 44.0573271,14.1351291 C44.4523069,14.1351291 44.6671,13.9305159 44.7948446,13.537941 C44.9095665,13.2173698 44.9451335,12.7818908 44.9451335,12.4377515 C44.9451335,12.0556568 44.9098799,11.6053868 44.7664781,11.2533947 C44.6217845,10.9027113 44.418419,10.7418767 44.0573271,10.7418767 Z M57.2937852,10.7779485 L57.2937852,14.0755107 L57.679465,14.0755107 C58.1591772,14.0755107 58.4667645,13.9724094 58.7339819,13.5143941 C58.9256192,13.1767891 59.0047028,12.7698494 59.0047028,12.3851468 C59.0047028,11.9716504 58.8901312,11.5265242 58.652865,11.1967818 C58.389569,10.8317018 58.0944539,10.7546129 57.6884211,10.7779485 L57.2937852,10.7779485 Z M28.0230906,11.176241 L27.5015536,13.018407 L28.5466151,13.018407 L28.0230906,11.176241 Z M2,18 L78,18 L78,48 L2,48 L2,18 Z"/><path d="M46.6509235,31.9354308 C45.6327046,32.0233213 45.0568082,32.5241875 45.0791063,33.7080767 C45.1037953,34.6445374 45.6333584,35.1207592 46.6421994,35.1427222 L49.6942504,35.1547791 C50.7241989,35.1547791 51.041203,34.0433282 51.0541037,33.7080381 C51.0869898,33.0351816 50.8110103,31.9516064 49.6942504,31.9354308 L48.0683518,31.9354308 L46.6509235,31.9354308 Z M13.8512191,27.5538861 C16.5527886,27.5203195 17.3649904,28.1070796 17.5679286,30.0852247 C17.6265868,33.943236 16.3160236,33.74255 13.0478633,33.74255 C12.7710154,33.74255 12.4955141,33.7426851 12.2139792,33.7183396 L12.2139792,28.2383849 C12.2139792,27.6834359 12.6148046,27.5538089 13.8512191,27.5538089 L13.8512191,27.5538861 Z M13.2955861,25.6691681 C11.0444698,25.6691681 9.28467514,25.7253054 7.98961031,25.7253054 C7.03355881,25.7253054 6.36391369,25.6877841 5.01606136,25.7572323 C3.74563083,25.786169 3.65534248,26.9147601 4.80846444,27.2858739 C6.07772005,27.8199981 7.12618724,27.4304709 7.2141677,29.0421127 L7.2141677,38.5837839 C7.18367247,40.4890856 5.9533073,40.3650337 5.32571535,40.6159057 C3.62594117,40.7569627 3.82753761,42.2066552 4.97245074,42.2505909 C5.63757866,42.2760552 6.81674696,42.2612975 8.23732921,42.2612975 C11.134803,42.2612975 14.5796912,42.2928385 15.3445322,42.271136 C16.4354839,42.2352544 16.5763231,40.6990313 14.6231681,40.5614467 C13.0078565,40.2816669 12.1576698,40.1124738 12.2139792,38.4568866 L12.1834254,35.6444757 C12.7101303,35.6710011 13.2677891,35.6543142 13.7264589,35.6543142 C19.9577851,35.6543142 23.3356784,36.2423379 22.9192394,29.8674178 C22.8441674,25.492625 19.8049059,25.6703642 13.2955637,25.6703642 L13.2955861,25.6691681 Z M56.4089304,25.635505 C55.9281206,25.6412924 55.419948,25.6532529 54.9941272,25.6613552 C53.7389335,25.8301529 52.7656817,26.2054625 50.7069459,26.900311 C49.5127623,27.363926 49.8915668,29.1453301 52.0101122,28.7013825 C53.456494,28.5441499 53.1734494,29.2984152 53.2051059,29.9851614 L53.1579724,38.768111 C53.1134738,40.4317812 52.7183141,40.4747619 51.9088876,40.605392 L51.5111419,40.605392 C50.2207689,40.7105578 50.4270729,42.2088834 51.4604954,42.1857533 L55.3106726,42.1857533 C57.0995963,42.1857533 58.8437091,42.1915406 59.8865583,42.1886469 C60.8871826,42.1857533 60.9014788,40.6382449 59.7600885,40.6255223 L59.5411473,40.6255223 C58.2695399,40.6093178 57.9165856,40.0901539 57.9318283,38.7675419 L57.9318283,28.7008231 C57.9318283,27.402489 57.9047974,26.6295788 57.9318283,26.0272411 C57.9396351,25.8387857 57.9376834,25.635804 57.6605525,25.635804 C57.3432361,25.6259655 56.8896622,25.6280876 56.4088524,25.6349263 L56.4089304,25.635505 Z M33.2163299,25.2664939 C30.6250302,25.4537919 23.9514821,24.2737898 23.9807158,34.7021119 C24.1767116,42.7487949 27.6574534,42.8829167 32.6066204,42.9927606 C40.6292123,43.1372804 41.4513638,41.0701162 41.4513638,41.0701162 C41.4513638,41.0701162 41.4455087,37.9671128 41.4513638,37.468822 C41.4631716,36.5173238 42.2737496,36.0765882 42.7676065,35.9436335 C44.636296,35.4557503 44.2979989,34.3663299 42.7518954,34.3339593 C41.9002537,34.2934479 38.9329775,34.3437978 37.593333,34.3529611 L35.0803412,34.3529611 C33.3852628,34.4512303 33.755917,35.7913105 35.287943,36.0040341 C36.057472,36.2410261 36.5863745,36.2511154 36.7306614,36.9205189 C36.8948936,37.6696913 36.776897,39.1009608 36.776897,39.1009608 C36.776897,40.6964174 35.5198883,40.8514798 33.2887153,40.8468595 C29.1243328,40.9012606 29.0510242,38.1699787 28.9771223,34.3952088 C28.880933,29.4053558 29.3461557,27.1843927 33.6149422,27.2167633 C36.0994949,27.2129051 36.7291878,27.7039714 37.071724,30.0671103 C37.2371262,30.9746728 37.4096336,31.9758843 39.7111935,31.7862811 C41.3499537,31.7133605 41.6704806,30.3767142 41.6493535,28.9454254 C41.6271042,27.514127 41.5542084,26.7303076 39.9013452,26.1580255 C38.8303349,25.7637816 36.9020914,25.3185704 33.2163172,25.2664939 L33.2163299,25.2664939 Z M68.8875223,25.0044042 C65.9067569,24.9825087 63.7688799,25.0082624 62.6063527,25.9096711 C61.7629375,26.5258888 61.6901783,27.0279221 61.6608248,28.4927389 C61.7358675,29.2766065 61.3581559,30.8153085 64.3447861,30.4326296 C66.7917921,29.9042735 64.498931,27.394734 68.0580128,27.1727698 C69.5853313,27.072176 71.3485415,27.1160538 71.4423887,29.5971871 C71.4787878,31.4215623 71.1595003,32.1029842 69.9359924,32.3492359 C67.7024725,32.8128412 66.2579547,31.8854666 66.4949002,33.9468435 C66.8480107,35.2174272 69.0000473,34.2754106 70.5614131,34.9193883 C71.4236036,35.4430953 71.6547136,35.9813574 71.510415,37.6878153 C71.3602711,40.1018058 69.6814328,40.4122874 68.3406183,40.4122874 C67.9042485,40.4122874 66.3109823,40.5475185 65.9907481,39.5544286 C65.4077183,36.9403984 63.8022929,37.0290992 62.8802439,37.3851755 C61.7494025,37.8314574 61.6630497,38.8100693 61.7087974,39.9234107 C61.748612,41.566285 62.1501147,42.361708 65.9907481,42.554774 C70.3146603,42.7432294 75.4638076,43.0966339 75.9048907,37.7136751 C76.0021827,34.9794224 75.0574354,34.0868588 73.892576,33.2174445 C75.7166888,32.2543909 76.1893698,31.5130025 75.937162,28.8203608 C75.3377281,24.9484694 70.5638332,25.0217373 68.8875223,25.0044042 L68.8875223,25.0044042 Z"/></g><rect width="84" height="69"/></g></svg>