<svg xmlns="http://www.w3.org/2000/svg" width="84" height="69" viewBox="0 0 84 69"><g fill="none" fill-rule="evenodd"><g fill="#000" transform="translate(5 6)"><path d="M0,0 L0,57 L74,57 L74,0 L0,0 Z M40.2410527,2.24620461 C41.2223631,2.24620461 41.8809044,2.89819357 42.018613,3.94710593 L41.0152029,4.09890043 C40.9693304,3.59918847 40.7247675,3.18056508 40.2161244,3.18056508 C39.4692889,3.18056508 39.3573929,4.24412278 39.3573929,4.86009941 C39.3573929,5.50330499 39.5226738,6.41454764 40.263312,6.41454764 C40.7248063,6.41454764 41.0412481,6.06087739 41.0152029,5.55497162 L40.1582516,5.55497162 L40.1582516,4.62773348 L42.018613,4.62773348 L42.018613,7.2834718 L41.539165,7.2834718 L41.3886993,6.71145988 C41.0487833,7.15922897 40.6804085,7.35647578 40.1506844,7.35647578 C38.8220071,7.35647578 38.272515,6.14912658 38.272515,4.84540964 C38.272515,3.49962127 38.8751642,2.24620461 40.2410527,2.24620461 L40.2410527,2.24620461 Z M64.5628635,2.24620461 C65.7004653,2.24620461 66.2832051,2.96857722 66.4023013,4.16344651 L65.2924951,4.24401794 C65.2837199,3.69482642 65.1114143,3.18056508 64.5308102,3.18056508 C63.7839815,3.18056508 63.7116992,4.25182538 63.7116992,4.85297709 C63.7116992,5.53204319 63.7834687,6.40742531 64.5824492,6.40742531 C65.0799217,6.40742531 65.3108546,5.95185356 65.3703981,5.47440019 L66.4023013,5.54740418 C66.2881671,6.68289672 65.5753929,7.35647578 64.5308102,7.35647578 C63.1835387,7.35647578 62.5320015,6.15542682 62.5320015,4.80223055 C62.5320015,3.42677523 63.2031677,2.24620461 64.5628635,2.24620461 L64.5628635,2.24620461 Z M4.19126591,2.32098906 L5.89715246,2.32098906 C6.33880572,2.32098906 6.74120546,2.32051045 7.11958859,2.60143084 C7.500447,2.89828108 7.70543045,3.32516797 7.70543045,3.8384903 C7.70543045,4.30976741 7.5553112,4.78521582 7.21663515,5.09691674 C6.8283281,5.45191232 6.41178779,5.44591087 5.92920577,5.44591087 L5.24898637,5.44591087 L5.24898637,7.2834718 L4.19126591,7.2834718 L4.19126591,2.32098906 Z M9.16380246,2.32098907 L10.3897988,2.32098907 L11.8116684,7.2834718 L10.6702556,7.2834718 L10.3897988,6.26408849 L8.92563746,6.26408849 L8.64072928,7.2834718 L7.7094374,7.2834718 L9.16380246,2.32098907 Z M12.449596,2.32098907 L14.3602609,2.32098907 C14.7622116,2.32098907 15.1709728,2.32514167 15.5208172,2.5724964 C15.8905209,2.83844782 16.0964206,3.32502734 16.0964206,3.80866563 C16.0964206,4.37393948 15.7988511,4.89605225 15.3075806,5.09023976 L16.149842,7.2834718 L14.9728134,7.2834718 L14.2779042,5.32260569 L13.5050919,5.32260569 L13.5050919,7.2834718 L12.449596,7.2834718 L12.449596,2.32098907 Z M16.9115247,2.32098907 L20.1487949,2.32098907 L20.1487949,3.28205839 L17.9692474,3.28205839 L17.9692474,4.28808727 L19.684928,4.28808727 L19.684928,5.22289308 L17.9692474,5.22289308 L17.9692474,6.32195736 L20.1487949,6.32195736 L20.1487949,7.2834718 L16.9115247,7.2834718 L16.9115247,2.32098907 Z M20.862401,2.32098907 L22.0055939,2.32098907 L23.5173874,5.23580239 L23.5307439,5.23580239 L23.5307439,2.32098907 L24.351635,2.32098907 L24.351635,7.2834718 L23.4457159,7.2834718 L21.7068871,3.94710593 L21.6828477,3.94710593 L21.6828477,7.2834718 L20.8628455,7.2834718 L20.862401,2.32098907 Z M25.020278,2.32098907 L28.36528,2.32098907 L28.36528,3.3020898 L27.2287631,3.3020898 L27.2287631,7.2834718 L26.1688158,7.2834718 L26.1688158,3.3020898 L25.020278,3.3020898 L25.020278,2.32098907 Z M29.686985,2.32098907 L30.9178772,2.32098907 L32.3384134,7.2834718 L31.1961094,7.2834718 L30.9178772,6.26408849 L29.4519357,6.26408849 L29.1674743,7.2834718 L28.2330644,7.2834718 L29.686985,2.32098907 Z M32.9278154,2.32098907 L33.9855382,2.32098907 L33.9855382,6.30103572 L35.8089505,6.30103572 L35.8089505,7.2834718 L32.9278154,7.2834718 L32.9278154,2.32098907 Z M42.9004927,2.32098907 L44.0481393,2.32098907 L44.0481393,5.32260569 C44.0481393,5.55514302 44.0442646,5.88840648 44.1505262,6.09003654 C44.2894748,6.35103492 44.5717253,6.42211531 44.8285188,6.42211531 C45.0419081,6.42211531 45.3523942,6.35049021 45.4851432,6.15502797 C45.6302982,5.92991587 45.6093381,5.58360407 45.6093472,5.32260569 L45.6093472,2.32098907 L46.5215044,2.32098907 L46.5215044,5.32260569 C46.5215044,5.86438042 46.5277886,6.42905007 46.1515617,6.83476506 C45.7880713,7.23305505 45.253269,7.35647578 44.7595186,7.35647578 C44.2819008,7.35647578 43.7331995,7.27669749 43.3697,6.92913603 C42.9193719,6.50238522 42.9004927,5.92993365 42.9004927,5.32260569 L42.9004927,2.32098907 Z M47.4657018,2.32098907 L48.5256491,2.32098907 L48.5256491,7.2834718 L47.4657018,7.2834718 L47.4657018,2.32098907 Z M49.5406333,2.32098907 L50.8534377,2.32098907 C51.5097203,2.32098907 52.0705563,2.36407244 52.5655581,2.87608563 C53.0555864,3.38322304 53.2671433,4.07037966 53.2671433,4.78531496 C53.2671433,5.45201989 53.0814743,6.09689153 52.6795213,6.59661238 C52.2279464,7.1383871 51.6738775,7.2834718 51.0337299,7.2834718 L49.5406333,7.2834718 L49.5406333,2.32098907 Z M54.9895021,2.32098907 L56.2146073,2.32098907 L57.6342523,7.2834718 L56.4932839,7.2834718 L56.2146073,6.26408849 L54.7468857,6.26408849 L54.4655377,7.2834718 L53.5329102,7.2834718 L54.9895021,2.32098907 Z M58.2530272,2.32098907 L59.3962315,2.32098907 L60.9089162,5.23580239 L60.9218168,5.23580239 L60.9218168,2.32098907 L61.7422634,2.32098907 L61.7422634,7.2834718 L60.8354531,7.2834718 L59.0984045,3.94710593 L59.0739183,3.94710593 L59.0739183,7.2834718 L58.2530272,7.2834718 L58.2530272,2.32098907 Z M67.2151785,2.32098907 L70.4528932,2.32098907 L70.4528932,3.28205839 L68.2746814,3.28205839 L68.2746814,4.28808727 L69.9890285,4.28808727 L69.9890285,5.22289308 L68.2746814,5.22289308 L68.2746814,6.32195736 L70.4528932,6.32195736 L70.4528932,7.2834718 L67.2151785,7.2834718 L67.2151785,2.32098907 Z M14.224485,3.2001516 C14.1650122,3.20110884 14.1083724,3.20282276 14.058436,3.20282276 L13.5050919,3.20282276 L13.5050919,4.46926177 L14.0873735,4.46926177 C14.3057158,4.46926177 14.5436893,4.49023447 14.7359841,4.3677687 C14.9071866,4.25149559 14.9977441,4.01968395 14.9977441,3.80198865 C14.9977441,3.60655216 14.8918836,3.39718531 14.7417712,3.29452258 C14.6077914,3.20267918 14.4029059,3.1972817 14.224485,3.2001516 L14.224485,3.2001516 Z M5.24898637,3.22418951 L5.24898637,4.54092995 L5.84462223,4.54092995 C6.09646054,4.54092995 6.30491304,4.54088027 6.49100822,4.3232538 C6.59149419,4.200796 6.63657806,4.04159565 6.63657806,3.88077916 C6.63657806,3.68906383 6.56406096,3.4846425 6.41889226,3.36218448 C6.25388713,3.22364412 6.03394941,3.22418951 5.83794626,3.22418951 L5.24898637,3.22418951 Z M50.5988005,3.23264743 L50.5988005,6.35133737 L50.9567158,6.35133737 C51.3958778,6.35133737 51.680574,6.25709972 51.9249591,5.82294943 C52.104857,5.50382327 52.1778163,5.11875438 52.1778163,4.75014866 C52.1778163,4.36052466 52.0699455,3.93973267 51.8528409,3.62927205 C51.6059668,3.28167618 51.3383127,3.23264743 50.9611672,3.23264743 L50.5988005,3.23264743 Z M9.6655098,3.60745994 L9.18161036,5.35154035 L10.1471824,5.35154035 L9.6655098,3.60745994 Z M30.1909169,3.60745994 L29.7083531,5.35154035 L30.6739251,5.35154035 L30.1909169,3.60745994 Z M55.487647,3.60745994 L55.0059744,5.35154035 L55.972882,5.35154035 L55.487647,3.60745994 Z M21.3587635,8.81121163 C22.1527365,8.81121163 22.798425,9.11481999 23.0775621,9.97571176 L22.1809902,10.3020033 C22.0482527,9.88144631 21.8037946,9.71663675 21.4006085,9.71663675 C21.117754,9.71663675 20.7702503,9.79585073 20.7702503,10.1804793 C20.7702503,10.5416691 21.1699833,10.6290219 21.4255391,10.6772623 C21.7964805,10.7663655 22.2920999,10.8670559 22.6096882,11.0983686 C22.976912,11.3667836 23.2039884,11.779375 23.2039884,12.2704373 C23.2039884,12.7553073 22.9911392,13.219437 22.6412947,13.5150649 C22.2753222,13.8267745 21.7813963,13.9205932 21.3298282,13.9205932 C20.4750513,13.9205932 19.7016692,13.5149532 19.4957307,12.5464282 L20.4742125,12.2993711 C20.6069546,12.8213683 20.9486803,13.0013661 21.4188609,13.0013661 C21.7215656,13.0013661 22.1244553,12.8781942 22.1244553,12.4663025 C22.1244553,12.0543926 21.6114725,11.9733097 21.3360597,11.9089786 C20.5284385,11.7271529 19.7352314,11.467262 19.7352314,10.3812401 C19.7352314,9.9186374 19.8992564,9.51316149 20.2218021,9.21629393 C20.5542831,8.9132501 20.94316,8.81121163 21.3587635,8.81121163 L21.3587635,8.81121163 Z M30.2109493,8.81121163 C31.1885217,8.81121163 31.8515942,9.4629542 31.9880652,10.5143376 L30.9850995,10.6647977 C30.9379598,10.1650768 30.6938687,9.74468164 30.1864655,9.74468164 C29.4371501,9.74468164 29.325498,10.8099154 29.3255094,11.4246602 C29.3255094,12.0678578 29.4894638,12.9808902 30.2300929,12.9808902 C30.6928362,12.9808902 31.0099094,12.6261299 30.9850995,12.1177528 L30.1241412,12.1177528 L30.1241412,11.19007 L31.9880652,11.19007 L31.9880652,13.8480344 L31.5063926,13.8480344 L31.3550334,13.2760213 C31.0151061,13.7250221 30.6472851,13.9205932 30.1187986,13.9205932 C28.7901237,13.9205932 28.2406315,12.7115568 28.2406315,11.4090822 C28.2406315,10.0633016 28.8438118,8.81121163 30.2109493,8.81121163 L30.2109493,8.81121163 Z M34.6906859,8.81121163 C35.669505,8.81121163 36.3323177,9.4629542 36.4700264,10.5143376 L35.4639449,10.6647977 C35.419244,10.1650768 35.1764293,9.74468164 34.6653109,9.74468164 C33.9184754,9.74468164 33.8052437,10.8099154 33.8052437,11.4246602 C33.8052437,12.0678578 33.9723162,12.9808902 34.7129452,12.9808902 C35.1769353,12.9808902 35.4924722,12.6261299 35.4639449,12.1177528 L34.6065491,12.1177528 L34.6065491,11.19007 L36.4700264,11.19007 L36.4700264,13.8480344 L35.9830112,13.8480344 L35.8356612,13.2760213 C35.4982205,13.7250221 35.1292553,13.9205932 34.6007621,13.9205932 C33.2720939,13.9205932 32.721257,12.7115568 32.721257,11.4090822 C32.721257,10.0633016 33.324786,8.81121163 34.6906859,8.81121163 L34.6906859,8.81121163 Z M42.8444023,8.81121163 C43.6371467,8.81121163 44.2825481,9.11481999 44.5591916,9.97571176 L43.6626221,10.3020033 C43.5298822,9.88144631 43.2845398,9.71663675 42.8813515,9.71663675 C42.5984969,9.71663675 42.2558868,9.79585073 42.2558868,10.1804793 C42.2558868,10.5416691 42.6500151,10.6290219 42.9080599,10.6772623 C43.2789944,10.7663655 43.7741807,10.8670559 44.0917645,11.0983686 C44.4602214,11.3667836 44.6869559,11.779375 44.6869559,12.2704373 C44.6869559,12.7553073 44.4724268,13.219437 44.1238178,13.5150649 C43.7603228,13.8267745 43.2666499,13.9205932 42.8101244,13.9205932 C41.9565851,13.9205932 41.1854299,13.5149532 40.9782537,12.5464282 L41.9567333,12.2993711 C42.0907153,12.8213683 42.4345744,13.0013661 42.9022728,13.0013661 C43.2062174,13.0013661 43.6087562,12.8781942 43.6087562,12.4663025 C43.6087562,12.0543926 43.0943351,11.9733097 42.8176916,11.9089786 C42.0113012,11.7271529 41.2164187,11.467262 41.2164187,10.3812401 C41.2164187,9.9186374 41.3824062,9.51316149 41.7074409,9.21629393 C42.0374307,8.9132501 42.4288079,8.81121163 42.8444023,8.81121163 L42.8444023,8.81121163 Z M23.9060203,8.88243492 L25.0550026,8.88243492 L25.0550026,11.8867227 C25.0550026,12.1168047 25.0501478,12.4504192 25.156945,12.6532631 C25.2946537,12.9142617 25.579033,12.9880126 25.8358288,12.9880126 C26.0467315,12.9880126 26.3579219,12.91446 26.4906731,12.7178085 C26.6333392,12.4939121 26.6162105,12.1477031 26.6162105,11.8867227 L26.6162105,8.88243492 L27.5265988,8.88243492 L27.5265988,11.8867227 C27.5265988,12.4285052 27.5354473,12.9940751 27.1579805,13.3997721 C26.7944923,13.7968311 26.2569299,13.9210377 25.7619304,13.9210377 C25.2867834,13.9210377 24.7374758,13.8429017 24.3752299,13.4941424 C23.9273702,13.0674089 23.9060203,12.4940511 23.9060203,11.8867227 L23.9060203,8.88243492 Z M37.4146747,8.88243492 L40.654614,8.88243492 L40.654614,9.8470654 L38.4737331,9.8470654 L38.4737331,10.8526494 L40.1907493,10.8526494 L40.1907493,11.7843389 L38.4737331,11.7843389 L38.4737331,12.8869644 L40.654614,12.8869644 L40.654614,13.8480344 L37.4146747,13.8480344 L37.4146747,8.88243492 Z M45.1312348,8.88243492 L48.4748989,8.88243492 L48.4748989,9.86843239 L47.338382,9.86843239 L47.338382,13.8480344 L46.2815504,13.8480344 L46.2815504,9.86843239 L45.1312348,9.86843239 L45.1312348,8.88243492 Z M49.1444331,8.88243492 L52.3790321,8.88243492 L52.3790321,9.8470654 L50.2012647,9.8470654 L50.2012647,10.8526494 L51.9187276,10.8526494 L51.9187276,11.7843389 L50.2012647,11.7843389 L50.2012647,12.8869644 L52.3790321,12.8869644 L52.3790321,13.8480344 L49.1444331,13.8480344 L49.1444331,8.88243492 Z M53.0837331,8.88243492 L54.4005445,8.88243492 C55.053105,8.88243492 55.6157964,8.9254237 56.1095491,9.43886592 C56.5983467,9.94848509 56.8097987,10.6341454 56.8097987,11.3503213 C56.8097987,12.0170351 56.6263565,12.6622475 56.2244013,13.1607285 C55.7728195,13.703744 55.2162776,13.8480344 54.5786121,13.8480344 L53.0837331,13.8480344 L53.0837331,8.88243492 Z M54.1410114,9.79587352 L54.1410114,12.9145625 L54.4971466,12.9145625 C54.9400375,12.9145625 55.2253423,12.8216099 55.4685057,12.3861746 C55.6483944,12.0682817 55.7200249,11.6846514 55.7200249,11.3160452 C55.7200249,10.9251809 55.6154226,10.505098 55.3946073,10.1933884 C55.1514439,9.84704945 54.8813099,9.79587352 54.5029336,9.79587352 L54.1410114,9.79587352 Z M2,16 L72,16 L72,55 L2,55 L2,16 Z"/><path d="M19.733545,23.2321452 C16.1661617,23.2321452 13.3797214,23.308255 11.324832,23.308255 C9.80875546,23.308255 8.74407811,23.2570616 6.61511822,23.3660814 C4.59129443,23.4117473 4.45829701,25.1937624 6.27902086,25.7741867 C8.29448712,26.6254683 9.95834871,26.0125167 10.0921565,28.5523216 L10.0921565,43.608573 C10.0479412,46.6186004 8.09491627,46.4223137 7.10808993,46.8174638 C4.41045416,47.036728 4.72273592,49.3303454 6.54226497,49.3971945 C7.59718956,49.4335911 9.46477053,49.4205802 11.7167824,49.4205802 C16.3116073,49.4205802 21.7718947,49.4652256 22.9857117,49.4300195 C24.7120578,49.3737238 24.9358952,46.9478624 21.8380301,46.7274246 C19.2765899,46.2877056 17.9298429,46.021619 18.027811,43.4114529 L17.972434,38.9691072 C18.8027497,39.0077999 19.6882127,38.9866252 20.4217576,38.9866252 C30.2971682,38.9866252 35.6532818,39.9134129 34.9914195,29.8538246 C34.8719476,22.9367627 30.0545691,23.2318901 19.7335381,23.2318901 L19.733545,23.2321452 Z M20.6165259,26.2067624 C24.8995321,26.1480856 26.1839268,27.0794739 26.5088883,30.1997202 C26.598486,36.2830694 24.5276124,35.9692165 19.3449949,35.9692165 C18.9029545,35.9692165 18.4638731,35.9687232 18.027811,35.9323096 L18.027811,27.2814242 C18.027811,26.4031512 18.6584064,26.2066859 20.6165259,26.2066859 L20.6165259,26.2067624 Z M51.8427776,22 C47.7305937,22.3060379 37.1544013,20.4356589 37.1972781,36.8987083 C37.5116146,49.6001228 43.0262423,49.8085105 50.8682621,49.9890906 C63.5870625,50.2118754 64.8882163,46.9486448 64.8882163,46.9486448 C64.8882163,46.9486448 64.8804411,42.056588 64.8882163,41.2639067 C64.9120604,39.7676988 66.1986659,39.0652862 66.9776166,38.8600959 C69.9381043,38.0885297 69.402735,36.3711527 66.9572281,36.3172125 C65.6096042,36.2514775 60.9035552,36.3278424 58.7781814,36.3513982 L54.7948162,36.3513982 C52.1019527,36.5038388 52.6985564,38.6210346 55.1226121,38.9493697 C56.344804,39.3328015 57.1824751,39.3385586 57.4154476,40.4044273 C57.6675471,41.5840696 57.4759217,43.8392324 57.4759217,43.8392324 C57.4759217,46.3544271 55.4878244,46.6019158 51.9574885,46.593735 C45.3531635,46.6840208 45.238755,42.3660785 45.1145151,36.4187319 C44.9603924,28.5331198 45.7047345,25.0437708 52.4727371,25.0859926 C57.1308733,25.1200932 57.4147651,25.3487372 57.9511883,29.5841153 C58.211642,31.0181853 58.4855468,32.5941852 62.1317685,32.293998 C64.7326335,32.1826141 65.2439687,30.0685732 65.2081247,27.8054932 C65.1698532,25.5564787 65.058814,24.3143244 62.4400227,23.4114327 C60.7339942,22.7899601 57.6801862,22.0856852 51.8428899,22 L51.8427776,22 Z"/></g><rect width="84" height="69"/></g></svg>