<svg xmlns="http://www.w3.org/2000/svg" xmlns:xlink="http://www.w3.org/1999/xlink" width="395" height="153" viewBox="0 0 395 153">
  <defs>
    <polygon id="pg-13-copy-2-a" points="0 .186 369.924 .186 369.924 151.905 0 151.905"/>
    <polygon id="pg-13-copy-2-c" points="0 154.338 369.924 154.338 369.924 2.619 0 2.619"/>
    <polygon id="pg-13-copy-2-e" points=".001 0 16.356 0 16.356 16.537 .001 16.537"/>
  </defs>
  <g fill="none" fill-rule="evenodd" transform="translate(0 -2)">
    <g transform="translate(0 2.433)">
      <mask id="pg-13-copy-2-b" fill="#fff">
        <use xlink:href="#pg-13-copy-2-a"/>
      </mask>
      <path fill="#FFF" d="M115.484289,28.041881 L116.238143,28.041881 C117.175863,28.041881 117.779996,27.8428333 118.294823,26.9209286 C118.675689,26.2478333 118.828036,25.4359286 118.828036,24.6554524 C118.828036,23.8278333 118.607396,22.9399762 118.139849,22.2799762 C117.625023,21.5466429 117.052409,21.4366429 116.251276,21.4366429 L115.484289,21.4366429 L115.484289,28.041881 Z M116.033263,19.5037857 C117.414889,19.5037857 118.607396,19.5954524 119.652809,20.6823571 C120.687716,21.7614048 121.134249,23.2123571 121.134249,24.7287857 C121.134249,26.1404524 120.748129,27.5075952 119.897089,28.5630714 C118.940983,29.7128333 117.761609,30.0166429 116.411503,30.0166429 L113.246369,30.0166429 L113.246369,19.5037857 L116.033263,19.5037857 Z M107.141996,21.5466429 L107.141996,23.6759286 L110.779929,23.6759286 L110.779929,25.6480714 L107.141996,25.6480714 L107.141996,27.9816429 L111.754423,27.9816429 L111.754423,30.0166429 L104.906703,30.0166429 L104.906703,19.5037857 L111.754423,19.5037857 L111.754423,21.5466429 L107.141996,21.5466429 Z M103.488303,21.5911667 L101.082276,21.5911667 L101.082276,30.0166429 L98.844356,30.0166429 L98.844356,21.5911667 L96.409436,21.5911667 L96.409436,19.5037857 L103.488303,19.5037857 L103.488303,21.5911667 Z M93.2994627,22.5104524 C93.0184093,21.6199762 92.4983293,21.2690238 91.6446627,21.2690238 C91.0457827,21.2690238 90.3208227,21.4366429 90.3208227,22.2511667 C90.3208227,23.0159286 91.1561027,23.201881 91.7024493,23.3040238 C92.4878227,23.4925952 93.5358627,23.7047381 94.2082893,24.1945 C94.9884093,24.7628333 95.4664627,25.6375952 95.4664627,26.6773571 C95.4664627,27.7040238 95.014676,28.6861667 94.2765827,29.312119 C93.5069693,29.972119 92.461556,30.1711667 91.4949427,30.1711667 C89.687796,30.1711667 88.0540093,29.312119 87.615356,27.2614048 L89.687796,26.7375952 C89.971476,27.8428333 90.6990627,28.2252143 91.689316,28.2252143 C92.3328493,28.2252143 93.186516,27.9633095 93.186516,27.0911667 C93.186516,26.2190238 92.0964493,26.0487857 91.5107027,25.9125952 C89.8033693,25.5275952 88.119676,24.9775952 88.119676,22.6780714 C88.119676,21.6985476 88.4716493,20.8395 89.159836,20.2109286 C89.8585293,19.5692619 90.6859293,19.3545 91.5658627,19.3545 C93.2443027,19.3545 94.612796,19.9961667 95.1985427,21.8190238 L93.2994627,22.5104524 Z M82.312116,21.5466429 L82.312116,23.6759286 L85.9474227,23.6759286 L85.9474227,25.6480714 L82.312116,25.6480714 L82.312116,27.9816429 L86.929796,27.9816429 L86.929796,30.0166429 L80.0715693,30.0166429 L80.0715693,19.5037857 L86.929796,19.5037857 L86.929796,21.5466429 L82.312116,21.5466429 Z M74.124796,26.3525952 L74.124796,24.3909286 L78.0700493,24.3909286 L78.0700493,30.0166429 L77.040396,30.0166429 L76.7278227,28.8066429 C76.0133693,29.7573571 75.2332493,30.1711667 74.1142893,30.1711667 C71.3011293,30.1711667 70.1322627,27.6123571 70.1322627,24.8545 C70.1322627,22.0049762 71.4114493,19.3545 74.3034093,19.3545 C76.3758493,19.3545 77.7784893,20.732119 78.0700493,22.9583095 L75.9398227,23.2778333 C75.8452627,22.2197381 75.3330627,21.3292619 74.250876,21.3292619 C72.6696227,21.3292619 72.4279693,23.5842619 72.4279693,24.8859286 C72.4279693,26.2478333 72.7825693,28.1806905 74.3506893,28.1806905 C75.3330627,28.1806905 76.000236,27.4290238 75.9398227,26.3525952 L74.124796,26.3525952 Z M64.6346493,26.3525952 L64.6346493,24.3909286 L68.5799027,24.3909286 L68.5799027,30.0166429 L67.560756,30.0166429 L67.2403027,28.8066429 C66.520596,29.7573571 65.7431027,30.1711667 64.6241427,30.1711667 C61.8109827,30.1711667 60.6473693,27.6123571 60.6473693,24.8545 C60.6473693,22.0049762 61.9239293,19.3545 64.818516,19.3545 C66.8883293,19.3545 68.2909693,20.732119 68.5799027,22.9583095 L66.457556,23.2778333 C66.3577427,22.2197381 65.8402893,21.3292619 64.7659827,21.3292619 C63.179476,21.3292619 62.943076,23.5842619 62.943076,24.8859286 C62.943076,26.2478333 63.2924227,28.1806905 64.8605427,28.1806905 C65.8402893,28.1806905 66.5100893,27.4290238 66.457556,26.3525952 L64.6346493,26.3525952 Z M59.1344093,25.8654524 C59.1344093,27.0125952 59.152796,28.2095 58.3542893,29.0685476 C57.584676,29.9092619 56.4473293,30.1711667 55.3992893,30.1711667 C54.393276,30.1711667 53.2296627,30.0061667 52.462676,29.2675952 C51.5144493,28.3640238 51.469796,27.1514048 51.469796,25.8654524 L51.469796,19.5037857 L53.9020893,19.5037857 L53.9020893,25.8654524 C53.9020893,26.3525952 53.8915827,27.0597381 54.117476,27.4892619 C54.409036,28.041881 55.0105427,28.1964048 55.5542627,28.1964048 C56.000796,28.1964048 56.6600893,28.041881 56.9411427,27.6254524 C57.2432093,27.1514048 57.206436,26.4180714 57.206436,25.8654524 L57.206436,19.5037857 L59.134445,19.5037857 L59.1344093,25.8654524 Z M47.8161027,22.5104524 C47.5350493,21.6199762 47.017596,21.2690238 46.1639293,21.2690238 C45.5650493,21.2690238 44.8295827,21.4366429 44.8295827,22.2511667 C44.8295827,23.0159286 45.6753693,23.201881 46.2164627,23.3040238 C47.001836,23.4925952 48.0525027,23.7047381 48.7249293,24.1945 C49.5024227,24.7628333 49.9831027,25.6375952 49.9831027,26.6773571 C49.9831027,27.7040238 49.531316,28.6861667 48.790596,29.312119 C48.0157293,29.972119 46.970316,30.1711667 46.0142093,30.1711667 C44.204436,30.1711667 42.5680227,29.312119 42.131996,27.2614048 L44.204436,26.7375952 C44.4854893,27.8428333 45.2078227,28.2252143 46.2033293,28.2252143 C46.844236,28.2252143 47.6979027,27.9633095 47.6979027,27.0911667 C47.6979027,26.2190238 46.6104627,26.0487857 46.0273427,25.9125952 C44.3173827,25.5275952 42.6389427,24.9775952 42.6389427,22.6780714 C42.6389427,21.6985476 42.9856627,20.8395 43.668596,20.2109286 C44.3725427,19.5692619 45.197316,19.3545 46.0772493,19.3545 C47.758316,19.3545 49.1241827,19.9961667 49.7151827,21.8190238 L47.8161027,22.5104524 Z M145.409903,7.13402381 L145.409903,9.26592857 L149.039956,9.26592857 L149.039956,11.2433095 L145.409903,11.2433095 L145.409903,13.5716429 L150.022329,13.5716429 L150.022329,15.6066429 L143.166729,15.6066429 L143.166729,5.09902381 L150.022329,5.09902381 L150.022329,7.13402381 L145.409903,7.13402381 Z M139.095396,9.17164286 C139.077009,8.00878571 138.711903,6.9192619 137.482623,6.9192619 C135.901369,6.9192619 135.749023,9.18735714 135.749023,10.4602143 C135.749023,11.8980714 135.901369,13.7523571 137.592943,13.7523571 C138.646236,13.7523571 139.134796,12.7885476 139.260876,11.7775952 L141.446263,11.932119 C141.204609,14.3364048 139.694276,15.7611667 137.482623,15.7611667 C134.630063,15.7611667 133.251063,13.2180714 133.251063,10.3528333 C133.251063,7.44045238 134.672089,4.94188095 137.550916,4.94188095 C139.959569,4.94188095 141.194103,6.47140476 141.446263,9.00140476 L139.095396,9.17164286 Z M131.577876,15.6066429 L129.657783,15.6066429 L125.980449,8.54307143 L125.930543,8.54307143 L125.930543,15.6066429 L124.191689,15.6066429 L124.191689,5.09902381 L126.610849,5.09902381 L129.815383,11.272119 L129.841649,11.272119 L129.841649,5.09902381 L131.577876,5.09902381 L131.577876,15.6066429 Z M119.363876,11.5156905 L118.336849,7.82283333 L117.317703,11.5156905 L119.363876,11.5156905 Z M122.880983,15.6066429 L120.464449,15.6066429 L119.876076,13.4485476 L116.768729,13.4485476 L116.172476,15.6066429 L114.197223,15.6066429 L117.280929,5.09902381 L119.876076,5.09902381 L122.880983,15.6066429 Z M107.985156,13.631881 L108.741636,13.631881 C109.671476,13.631881 110.275609,13.4328333 110.793063,12.5135476 C111.173929,11.8378333 111.328903,11.0233095 111.328903,10.2428333 C111.328903,9.41783333 111.100383,8.52735714 110.640716,7.86997619 C110.118009,7.13402381 109.550649,7.0292619 108.752143,7.0292619 L107.985156,7.0292619 L107.985156,13.631881 Z M108.523623,5.09902381 C109.913129,5.09902381 111.100383,5.19069048 112.148423,6.27497619 C113.185956,7.34878571 113.635116,8.80497619 113.635116,10.3187857 C113.635116,11.7304524 113.241116,13.0949762 112.390076,14.1530714 C111.433969,15.3002143 110.262476,15.6066429 108.907116,15.6066429 L105.744609,15.6066429 L105.744609,5.09902381 L108.523623,5.09902381 Z M101.352823,15.6066429 L103.595996,15.6066429 L103.595996,5.09902381 L101.352823,5.09902381 L101.352823,15.6066429 Z M99.3513027,11.4554524 C99.3513027,12.6025952 99.364436,13.7995 98.568556,14.6585476 C97.7989427,15.501881 96.6668493,15.7611667 95.621436,15.7611667 C94.6101693,15.7611667 93.4491827,15.5935476 92.6795693,14.8575952 C91.7260893,13.9540238 91.6866893,12.7414048 91.6866893,11.4554524 L91.6866893,5.09902381 L94.116356,5.09902381 L94.116356,11.4554524 C94.116356,11.9478333 94.1058493,12.6523571 94.3317427,13.0792619 C94.6259293,13.631881 95.2248093,13.7837857 95.7685293,13.7837857 C96.220316,13.7837857 96.8769827,13.631881 97.158036,13.2180714 C97.465356,12.7414048 97.4207027,12.0080714 97.4207027,11.4554524 L97.4207027,5.09902381 L99.3513161,5.09902381 L99.3513027,11.4554524 Z M85.8791293,11.9478333 L85.8791293,9.98354762 L89.8191293,9.98354762 L89.8191293,15.6066429 L88.8026093,15.6066429 L88.4847827,14.3966429 C87.765076,15.3447381 86.984956,15.7611667 85.8633693,15.7611667 C83.0502093,15.7611667 81.886596,13.2049762 81.886596,10.4445 C81.886596,7.59497619 83.163156,4.94188095 86.055116,4.94188095 C88.1328093,4.94188095 89.5275693,6.32211905 89.8191293,8.54307143 L87.694156,8.86521429 C87.5969693,7.80711905 87.079516,6.9192619 86.0025827,6.9192619 C84.4213293,6.9192619 84.1849293,9.17164286 84.1849293,10.4759286 C84.1849293,11.8378333 84.534276,13.7680714 86.102396,13.7680714 C87.079516,13.7680714 87.749316,13.0190238 87.694156,11.9478333 L85.8791293,11.9478333 Z M76.670036,13.527119 L76.670036,15.6066429 L70.570916,15.6066429 L70.570916,5.09902381 L72.8114627,5.09902381 L72.8114627,13.527119 L76.670036,13.527119 Z M65.7982627,11.5156905 L64.7764893,7.82283333 L63.754716,11.5156905 L65.7982627,11.5156905 Z M69.3232493,15.6066429 L66.9040893,15.6066429 L66.315716,13.4485476 L63.210996,13.4485476 L62.6094893,15.6066429 L60.6316093,15.6066429 L63.7100627,5.09902381 L66.315716,5.09902381 L69.3232493,15.6066429 Z M60.910036,7.17854762 L58.5040093,7.17854762 L58.5040093,15.6066429 L56.260836,15.6066429 L56.260836,7.17854762 L53.8285427,7.17854762 L53.8285427,5.09902381 L60.910036,5.09902381 L60.910036,7.17854762 Z M52.4127693,15.6066429 L50.4953027,15.6066429 L46.812716,8.54307143 L46.7628093,8.54307143 L46.7628093,15.6066429 L45.0265827,15.6066429 L45.0265827,5.09902381 L47.4457427,5.09902381 L50.6476493,11.272119 L50.673916,11.272119 L50.673916,5.09902381 L52.4127693,5.09902381 L52.4127693,15.6066429 Z M38.8985693,7.13402381 L38.8985693,9.26592857 L42.5312493,9.26592857 L42.5312493,11.2433095 L38.8985693,11.2433095 L38.8985693,13.5716429 L43.5136227,13.5716429 L43.5136227,15.6066429 L36.6606493,15.6066429 L36.6606493,5.09902381 L43.5136227,5.09902381 L43.5136227,7.13402381 L38.8985693,7.13402381 Z M29.4478227,9.64830952 L30.6797293,9.64830952 C31.1420227,9.64830952 31.6463427,9.69283333 32.053476,9.43354762 C32.415956,9.18735714 32.6077027,8.69759524 32.6077027,8.23664286 C32.6077027,7.82283333 32.384436,7.38021429 32.0666093,7.16283333 C31.6883693,6.90354762 31.0422093,6.96640476 30.619316,6.96640476 L29.4478227,6.96640476 L29.4478227,9.64830952 Z M29.4478227,15.6066429 L27.2125293,15.6066429 L27.2125293,5.09902381 L31.257596,5.09902381 C32.108636,5.09902381 32.975436,5.1095 33.716156,5.63330952 C34.4989027,6.19640476 34.9349293,7.22569048 34.9349293,8.2497381 C34.9349293,9.44664286 34.3045293,10.551881 33.2643693,10.9630714 L35.047876,15.6066429 L32.5551693,15.6066429 L31.084236,11.4554524 L29.4478227,11.4554524 L29.4478227,15.6066429 Z M22.337436,11.5156905 L21.3182893,7.82283333 L20.2938893,11.5156905 L22.337436,11.5156905 Z M25.8624227,15.6066429 L23.4458893,15.6066429 L22.8522627,13.4485476 L19.752796,13.4485476 L19.1486627,15.6066429 L17.176036,15.6066429 L20.257116,5.09902381 L22.8522627,5.09902381 L25.8624227,15.6066429 Z M13.228156,9.80021429 C13.7613693,9.80021429 14.2026493,9.80021429 14.5966493,9.3392619 C14.8094093,9.07997619 14.9039693,8.74211905 14.9039693,8.40164286 C14.9039693,7.99569048 14.7516227,7.56354762 14.4443027,7.3042619 C14.094956,7.01092857 13.6274093,7.01092857 13.212396,7.01092857 L11.967356,7.01092857 L11.967356,9.80021429 L13.228156,9.80021429 Z M11.967356,15.6066429 L9.72680933,15.6066429 L9.72680933,5.09902381 L13.3411027,5.09902381 C14.276196,5.09902381 15.127236,5.09902381 15.9283693,5.69354762 C16.734756,6.32211905 17.168156,7.22569048 17.168156,8.31259524 C17.168156,9.31045238 16.8503293,10.3187857 16.1332493,10.9787857 C15.3111027,11.7304524 14.4285427,11.7173571 13.4067693,11.7173571 L11.967356,11.7173571 L11.967356,15.6066429 Z M163.331649,122.531881 L366.719703,122.531881 L366.719703,3.49354762 L163.331649,3.49354762 L163.331649,122.531881 Z M328.091943,148.722357 L366.719703,148.722357 L366.719703,125.459976 L328.091943,125.459976 L328.091943,148.722357 Z M2.992036,148.722357 L325.123809,148.722357 L325.123809,125.459976 L2.992036,125.459976 L2.992036,148.722357 Z M2.99466267,122.586881 L160.174396,122.586881 L160.174396,33.5445 L2.99466267,33.5445 L2.99466267,122.586881 Z M0.000262666667,151.9045 L369.924236,151.9045 L369.924236,0.185690476 L0.000262666667,0.185690476 L0.000262666667,151.9045 Z" mask="url(#pg-13-copy-2-b)"/>
    </g>
    <path fill="#FFF" d="M356.373263,145.4035 C358.298609,144.185643 359.543649,142.582786 359.777423,140.81231 L362.853249,140.81231 C362.419849,142.661357 359.963916,144.32969 356.373263,145.4035 M354.786756,140.81231 L358.634823,140.81231 C358.259209,143.132786 355.669316,145.089214 352.065529,146.032071 C353.599503,144.767071 354.621276,142.910167 354.786756,140.81231 M335.861623,140.81231 L339.717569,140.81231 C339.877796,142.910167 340.899569,144.767071 342.433543,146.032071 C338.827129,145.089214 336.247743,143.132786 335.861623,140.81231 M331.645823,140.81231 L334.726903,140.81231 C334.958049,142.582786 336.208343,144.185643 338.128436,145.406119 C334.537783,144.32969 332.084476,142.661357 331.645823,140.81231 M338.128436,135.03731 C336.184703,136.265643 334.931783,137.889452 334.716396,139.686119 L331.635316,139.686119 C332.034569,137.816119 334.503636,136.118976 338.128436,135.03731 M339.712316,139.686119 L335.858996,139.686119 C336.203089,137.342071 338.800863,135.354214 342.433543,134.406119 C340.886436,135.686833 339.859409,137.56469 339.712316,139.686119 M347.250849,146.634452 C343.696969,146.634452 340.815516,143.763976 340.815516,140.217786 C340.815516,136.674214 343.696969,133.803738 347.250849,133.803738 C350.802103,133.803738 353.691436,136.674214 353.691436,140.217786 C353.691436,143.763976 350.802103,146.634452 347.250849,146.634452 M358.642703,139.686119 L354.786756,139.686119 C354.637036,137.56469 353.620516,135.686833 352.070783,134.406119 C355.700836,135.354214 358.298609,137.342071 358.642703,139.686119 M362.869009,139.686119 L359.780049,139.686119 C359.575169,137.889452 358.311743,136.265643 356.373263,135.03731 C359.998063,136.118976 362.469756,137.816119 362.869009,139.686119 M347.250849,132.680167 C337.970836,132.680167 330.445436,136.056119 330.445436,140.217786 C330.445436,144.382071 337.970836,147.760643 347.250849,147.760643 C356.528236,147.760643 364.056263,144.382071 364.056263,140.217786 C364.056263,136.056119 356.528236,132.680167 347.250849,132.680167"/>
    <path fill="#FFF" d="M346.335981 140.219095C346.335981 139.731952 346.732608 139.336476 347.226421 139.336476 347.707101 139.336476 348.106355 139.731952 348.106355 140.219095 348.106355 140.706238 347.707101 141.104333 347.226421 141.104333 346.732608 141.104333 346.335981 140.706238 346.335981 140.219095M347.251637 136.344214L348.436264 135.1735C347.708677 134.440167 346.789344 134.440167 346.061757 135.1735L347.251637 136.344214zM348.195661 137.72419C348.195661 136.820619 348.933755 136.084667 349.842581 136.084667 350.754035 136.084667 351.492128 136.820619 351.492128 137.72419 351.492128 138.633 350.754035 139.368952 349.842581 139.368952 348.933755 139.368952 348.195661 138.633 348.195661 137.72419M342.996175 137.72419C342.996175 136.820619 343.731641 136.084667 344.640468 136.084667 345.549295 136.084667 346.284761 136.820619 346.284761 137.72419 346.284761 138.633 345.549295 139.368952 344.640468 139.368952 343.731641 139.368952 342.996175 138.633 342.996175 137.72419M343.088633 142.804881C343.088633 141.90131 343.821473 141.162738 344.732927 141.162738 345.641753 141.162738 346.382473 141.90131 346.382473 142.804881 346.382473 143.708452 345.641753 144.444405 344.732927 144.444405 343.821473 144.444405 343.088633 143.708452 343.088633 142.804881M348.0596 142.775548C348.0596 141.866738 348.795067 141.130786 349.70652 141.130786 350.617973 141.130786 351.35344 141.866738 351.35344 142.775548 351.35344 143.679119 350.617973 144.415071 349.70652 144.415071 348.795067 144.415071 348.0596 143.679119 348.0596 142.775548M347.226159 144.0505L346.033652 145.226452C346.758612 145.957167 347.677945 145.957167 348.405532 145.226452L347.226159 144.0505zM351.02248 140.228L352.199227 141.414429C352.93732 140.683714 352.93732 139.769667 352.199227 139.041571L351.02248 140.228zM343.35524 140.228L342.178493 141.414429C341.443027 140.683714 341.443027 139.769667 342.178493 139.041571L343.35524 140.228zM14.2113173 136.249667C13.9328907 135.191571 13.410184 134.775143 12.551264 134.775143 11.9497573 134.775143 11.211664 134.97419 11.211664 135.938 11.211664 136.849429 12.0600773 137.072048 12.606424 137.197762 13.3970507 137.417762 14.450344 137.67181 15.128024 138.255857 15.916024 138.931571 16.396704 139.968714 16.396704 141.212762 16.396704 142.433238 15.947544 143.606571 15.198944 144.350381 14.4240773 145.133476 13.3655307 145.37181 12.393664 145.37181 10.5786373 145.37181 8.92909067 144.350381 8.48781067 141.90681L10.5786373 141.283476C10.8596907 142.598238 11.5925307 143.053952 12.5959173 143.053952 13.2394507 143.053952 14.1009973 142.744905 14.1009973 141.705143 14.1009973 140.665381 13.000424 140.463714 12.4067973 140.298714 10.6863307 139.845619 8.99475733 139.188238 8.99475733 136.451333 8.99475733 135.280619 9.34935733 134.26181 10.0401707 133.515381 10.746744 132.745381 11.5767707 132.491333 12.4672107 132.491333 14.158784 132.491333 15.537784 133.261333 16.128784 135.429905L14.2113173 136.249667zM19.6776733 140.26519C19.6776733 141.323286 19.6619133 143.586143 20.84654 143.586143 22.0154067 143.586143 22.0731933 141.760667 22.0731933 140.647571 22.0731933 139.919476 22.0416733 139.042095 21.8473 138.345429 21.67394 137.743048 21.3377267 137.507333 20.8596733 137.507333 19.74334 137.507333 19.6776733 139.204476 19.6776733 140.26519M24.29798 140.629238C24.29798 143.271857 22.95838 145.372333 20.84654 145.372333 18.64802 145.372333 17.45026 143.222095 17.45026 140.537571 17.45026 137.837333 18.6585267 135.736857 20.84654 135.736857 23.0870867 135.736857 24.29798 137.887095 24.29798 140.629238M27.5064533 135.919667L27.5064533 137.344429 27.5379733 137.344429C27.9057067 136.247048 28.5938933 135.738952 29.5237333 135.738952 30.4693333 135.738952 31.0655867 136.247048 31.48848 137.344429 31.8457067 136.247048 32.67836 135.738952 33.5688 135.738952 34.2018267 135.738952 34.89264 136.029667 35.3155333 136.687048 35.7962133 137.415143 35.6937733 138.475857 35.6937733 139.408238L35.6937733 145.188476 33.6265867 145.188476 33.6265867 140.285619C33.6265867 139.913714 33.65548 139.004905 33.5819333 138.65919 33.4716133 138.075143 33.1354 137.907524 32.6967467 137.907524 32.3290133 137.907524 31.94552 138.182524 31.7931733 138.619905 31.6382 139.059905 31.6513333 139.790619 31.6513333 140.285619L31.6513333 145.188476 29.5762667 145.188476 29.5762667 140.285619C29.5762667 139.313952 29.7207333 137.88919 28.6490533 137.88919 27.5616133 137.88919 27.60364 139.279905 27.60364 140.285619L27.60364 145.188476 25.5364533 145.188476 25.5364533 135.919667 27.5064533 135.919667zM41.6760067 139.425C41.63398 138.421905 41.38182 137.489524 40.4808733 137.489524 39.56154 137.489524 39.21482 138.361667 39.1386467 139.425L41.6760067 139.425zM39.1544067 141.012143L39.1386467 141.467857C39.1386467 142.56 39.6219533 143.458333 40.5255267 143.458333 41.16118 143.458333 41.79158 142.853333 41.79158 141.999524L43.7011667 142.177619C43.7011667 142.635952 42.8737667 145.372857 40.4546067 145.372857 38.3112467 145.372857 36.9164867 143.437381 36.9164867 140.682143 36.9164867 137.947857 38.1694067 135.737381 40.39682 135.737381 41.3923267 135.737381 42.4246067 136.321429 43.0182333 137.379524 43.6092333 138.437619 43.76158 139.752381 43.7484467 141.012143L39.1544067 141.012143z"/>
    <polygon fill="#FFF" points="55.453 145.189 53.901 145.189 51.553 134.993 51.526 134.993 51.526 145.189 49.617 145.189 49.617 132.672 53.155 132.672 54.849 140.171 56.625 132.672 60.163 132.672 60.163 145.189 57.909 145.189 57.909 134.993 57.851 134.993"/>
    <path fill="#FFF" d="M66.1599547 140.757571C65.3667013 140.864952 63.9167813 141.103286 63.9167813 142.452095 63.9167813 143.18281 64.2529947 143.67519 64.833488 143.67519 65.2537547 143.67519 65.637248 143.381857 65.8762747 142.90781 66.173088 142.323762 66.1599547 141.779 66.1599547 141.121619L66.1599547 140.757571zM66.354328 145.189C66.267648 144.714952 66.2413813 144.22519 66.2545147 143.748524 65.6635147 144.843286 65.038368 145.372333 63.9719413 145.372333 62.705888 145.372333 61.720888 144.492333 61.720888 142.745429 61.720888 141.375667 62.382808 140.443286 63.328408 139.99019 64.1374213 139.584238 65.282648 139.513524 66.1599547 139.406143L66.1599547 139.186143C66.1599547 138.788048 66.188848 138.311381 65.976088 137.965667 65.7843413 137.654 65.4428747 137.528286 65.125048 137.528286 64.463128 137.528286 63.8905147 137.965667 63.8905147 138.877095L61.925768 138.638762C62.1411547 136.391619 63.832728 135.736857 65.3404347 135.736857 66.0759013 135.736857 67.0346347 135.959476 67.6125013 136.58281 68.3453413 137.344952 68.2744213 138.361143 68.2744213 139.479476L68.2744213 143.806143C68.2744213 144.277571 68.2980613 144.735905 68.4162613 145.189L66.354328 145.189zM73.9193907 138.037429L72.3854173 138.037429 72.3854173 141.722429C72.3854173 142.945524 72.4563373 143.220524 73.3441507 143.220524 73.5280173 143.220524 73.7933107 143.181238 74.0323373 143.144571L74.0323373 145.171714C73.6225773 145.300048 73.1182573 145.370762 72.7321373 145.370762 72.1411373 145.370762 71.3531373 145.260762 70.890844 144.768381 70.307724 144.147667 70.307724 143.034571 70.307724 142.123143L70.307724 138.037429 69.1388573 138.037429 69.1388573 135.902905 70.394404 135.902905 70.5808973 133.181714 72.3854173 133.003619 72.3854173 135.902905 73.9193907 135.902905 73.9193907 138.037429zM79.7062 139.425C79.6615467 138.421905 79.41464 137.489524 78.5110667 137.489524 77.5917333 137.489524 77.2450133 138.361667 77.16884 139.425L79.7062 139.425zM77.1872267 141.012143L77.16884 141.467857C77.16884 142.56 77.6521467 143.458333 78.5530933 143.458333 79.1887467 143.458333 79.81652 142.853333 79.81652 141.999524L81.73136 142.177619C81.73136 142.635952 80.90396 145.372857 78.4795467 145.372857 76.3388133 145.372857 74.94668 143.437381 74.94668 140.682143 74.94668 137.947857 76.1969733 135.737381 78.4270133 135.737381 79.4277733 135.737381 80.4574267 136.321429 81.0458 137.379524 81.6420533 138.437619 81.7917733 139.752381 81.7760133 141.012143L77.1872267 141.012143zM85.1263267 135.919667L85.1263267 137.656095 85.1604733 137.656095C85.3706067 136.668714 85.78562 135.647286 86.69182 135.738952L87.0437933 135.775619 87.0437933 138.457524C85.4677933 138.347524 85.2681667 140.005381 85.2681667 141.650143L85.2681667 145.188476 83.1983533 145.188476 83.1983533 135.919667 85.1263267 135.919667z"/>
    <mask id="pg-13-copy-2-d" fill="#fff">
      <use xlink:href="#pg-13-copy-2-c"/>
    </mask>
    <path fill="#FFF" d="M88.1036533 145.189524L90.17084 145.189524 90.17084 135.920714 88.1036533 135.920714 88.1036533 145.189524zM88.1036533 135.08L90.17084 135.08 90.17084 132.489762 88.1036533 132.489762 88.1036533 135.08zM96.0178 140.757571C95.2324267 140.864952 93.7772533 141.103286 93.7772533 142.452095 93.7772533 143.18281 94.1134667 143.67519 94.6887067 143.67519 95.1168533 143.67519 95.4924667 143.381857 95.73412 142.90781 96.0361867 142.323762 96.0178 141.779 96.0178 141.121619L96.0178 140.757571zM96.2148 145.189C96.1307467 144.714952 96.10448 144.22519 96.1176133 143.748524 95.5266133 144.843286 94.9014667 145.372333 93.83504 145.372333 92.5716133 145.372333 91.5839867 144.492333 91.5839867 142.745429 91.5839867 141.375667 92.24328 140.443286 93.1862533 139.99019 94.00052 139.584238 95.14312 139.513524 96.0178 139.406143L96.0178 139.186143C96.0178 138.788048 96.0466933 138.311381 95.8339333 137.965667 95.64744 137.654 95.3033467 137.528286 94.98552 137.528286 94.3262267 137.528286 93.74836 137.965667 93.74836 138.877095L91.7888667 138.638762C92.0016267 136.391619 93.6905733 135.736857 95.19828 135.736857 95.9337467 135.736857 96.8951067 135.959476 97.4703467 136.58281 98.20056 137.344952 98.1322667 138.361143 98.1322667 139.479476L98.1322667 143.806143C98.1322667 144.277571 98.1585333 144.735905 98.2741067 145.189L96.2148 145.189z" mask="url(#pg-13-copy-2-d)"/>
    <polygon fill="#FFF" points="99.703 145.192 101.778 145.192 101.778 132.676 99.703 132.676" mask="url(#pg-13-copy-2-d)"/>
    <polygon fill="#FFF" points="113.879 145.189 112.324 145.189 109.973 134.993 109.949 134.993 109.949 145.189 108.042 145.189 108.042 132.672 111.578 132.672 113.274 140.171 115.05 132.672 118.586 132.672 118.586 145.189 116.332 145.189 116.332 134.993 116.274 134.993" mask="url(#pg-13-copy-2-d)"/>
    <path fill="#FFF" d="M124.580173 140.757571C123.792173 140.864952 122.337 141.103286 122.337 142.452095 122.337 143.18281 122.673213 143.67519 123.256333 143.67519 123.6766 143.67519 124.06272 143.381857 124.29912 142.90781 124.595933 142.323762 124.580173 141.779 124.580173 141.121619L124.580173 140.757571zM124.774547 145.189C124.69312 144.714952 124.6616 144.22519 124.67736 143.748524 124.08636 144.843286 123.466467 145.372333 122.397413 145.372333 121.128733 145.372333 120.14636 144.492333 120.14636 142.745429 120.14636 141.375667 120.805653 140.443286 121.751253 139.99019 122.562893 139.584238 123.70812 139.513524 124.580173 139.406143L124.580173 139.186143C124.580173 138.788048 124.609067 138.311381 124.398933 137.965667 124.21244 137.654 123.86572 137.528286 123.553147 137.528286 122.8886 137.528286 122.315987 137.965667 122.315987 138.877095L120.35124 138.638762C120.564 136.391619 122.255573 135.736857 123.76328 135.736857 124.498747 135.736857 125.460107 135.959476 126.035347 136.58281 126.760307 137.344952 126.69464 138.361143 126.69464 139.479476L126.69464 143.806143C126.69464 144.277571 126.71828 144.735905 126.83648 145.189L124.774547 145.189zM131.595737 144.604167C131.059897 146.702024 130.778844 148.4175 128.748431 148.4175 128.412217 148.4175 128.070751 148.383452 127.734537 148.310119L127.734537 146.209643C128.094391 146.285595 128.427977 146.340595 128.777324 146.340595 129.468137 146.340595 129.733431 146.062976 129.917297 145.188214L127.311644 135.922024 129.552191 135.922024 130.920684 141.429881 132.231391 135.922024 133.778497 135.922024 131.595737 144.604167z" mask="url(#pg-13-copy-2-d)"/>
    <polygon fill="#FFF" points="146.779 145.189 144.851 145.189 141.142 136.779 141.089 136.779 141.089 145.189 139.337 145.189 139.337 132.672 141.78 132.672 145.003 140.027 145.035 140.027 145.035 132.672 146.779 132.672" mask="url(#pg-13-copy-2-d)"/>
    <path fill="#FFF" d="M150.533741 140.26519C150.533741 141.323286 150.523235 143.586143 151.705235 143.586143 152.876728 143.586143 152.934515 141.760667 152.934515 140.647571 152.934515 139.919476 152.902995 139.042095 152.705995 138.345429 152.540515 137.743048 152.201675 137.507333 151.720995 137.507333 150.607288 137.507333 150.533741 139.204476 150.533741 140.26519M155.161928 140.629238C155.161928 143.271857 153.822328 145.372333 151.705235 145.372333 149.506715 145.372333 148.308955 143.222095 148.308955 140.537571 148.308955 137.837333 149.519848 135.736857 151.705235 135.736857 153.948408 135.736857 155.161928 137.887095 155.161928 140.629238M160.555788 138.037429L159.019188 138.037429 159.019188 141.722429C159.019188 142.945524 159.087481 143.220524 159.975295 143.220524 160.161788 143.220524 160.424455 143.181238 160.668735 143.144571L160.668735 145.171714C160.258975 145.300048 159.749401 145.370762 159.368535 145.370762 158.774908 145.370762 157.984281 145.260762 157.524615 144.768381 156.949375 144.147667 156.949375 143.034571 156.949375 142.123143L156.949375 138.037429 155.772628 138.037429 155.772628 135.902905 157.030801 135.902905 157.217295 133.181714 159.019188 133.003619 159.019188 135.902905 160.555788 135.902905 160.555788 138.037429zM168.792227 142.874024L170.355093 142.874024C170.76748 142.874024 171.284933 142.908071 171.636907 142.601643 171.962613 142.326643 172.141227 141.81069 172.141227 141.302595 172.141227 140.828548 171.923213 140.336167 171.59488 140.097833 171.2718 139.862119 170.820013 139.862119 170.454907 139.862119L168.792227 139.862119 168.792227 142.874024zM168.792227 137.635929L170.3262 137.635929C170.722827 137.635929 171.190373 137.669976 171.52396 137.345214 171.794507 137.091167 171.936347 136.630214 171.936347 136.216405 171.936347 135.758071 171.765613 135.32069 171.45304 135.079738 171.132587 134.846643 170.541587 134.901643 170.16072 134.901643L168.792227 134.901643 168.792227 137.635929zM170.86204 132.675452C171.621147 132.675452 172.4144 132.675452 173.07632 133.217595 173.851187 133.859262 174.260947 134.77069 174.260947 135.959738 174.260947 137.381881 173.53336 138.327357 172.511587 138.659976L172.511587 138.694024C173.7146 139.003071 174.531493 140.1895 174.531493 141.81069 174.531493 142.908071 174.019293 143.871881 173.34424 144.513548 172.645547 145.189262 171.694693 145.189262 170.86204 145.189262L166.53592 145.189262 166.53592 132.675452 170.86204 132.675452zM180.204305 139.425C180.157025 138.421905 179.907492 137.489524 179.001292 137.489524 178.081959 137.489524 177.737865 138.361667 177.666945 139.425L180.204305 139.425zM177.677452 141.012143L177.666945 141.467857C177.666945 142.56 178.147625 143.458333 179.045945 143.458333 179.676345 143.458333 180.314625 142.853333 180.314625 141.999524L182.232092 142.177619C182.232092 142.635952 181.402065 145.372857 178.972399 145.372857 176.834292 145.372857 175.439532 143.437381 175.439532 140.682143 175.439532 137.947857 176.689825 135.737381 178.922492 135.737381 179.920625 135.737381 180.952905 136.321429 181.541279 137.379524 182.129652 138.437619 182.284625 139.752381 182.274119 141.012143L177.677452 141.012143zM193.022176 136.249667C192.738496 135.191571 192.215789 134.775143 191.356869 134.775143 190.750109 134.775143 190.012016 134.97419 190.012016 135.938 190.012016 136.849429 190.863056 137.072048 191.412029 137.197762 192.202656 137.417762 193.261203 137.67181 193.933629 138.255857 194.724256 138.931571 195.199683 139.968714 195.199683 141.212762 195.199683 142.433238 194.753149 143.606571 194.007176 144.350381 193.229683 145.133476 192.176389 145.37181 191.204523 145.37181 189.386869 145.37181 187.734696 144.350381 187.296043 141.90681L189.386869 141.283476C189.667923 142.598238 190.400763 143.053952 191.401523 143.053952 192.045056 143.053952 192.901349 142.744905 192.901349 141.705143 192.901349 140.665381 191.806029 140.463714 191.217656 140.298714 189.494563 139.845619 187.802989 139.188238 187.802989 136.451333 187.802989 135.280619 188.157589 134.26181 188.851029 133.515381 189.554976 132.745381 190.382376 132.491333 191.275443 132.491333 192.964389 132.491333 194.343389 133.261333 194.939643 135.429905L193.022176 136.249667zM200.807353 145.188738L200.807353 143.604214 200.77846 143.604214C200.442247 144.767071 199.712033 145.372071 198.734913 145.372071 198.017833 145.372071 197.392687 145.170405 196.98818 144.33231 196.591553 143.530881 196.636207 142.6535 196.636207 141.760405L196.636207 135.919929 198.708647 135.919929 198.708647 141.760405C198.708647 142.509452 198.763807 143.219214 199.499273 143.219214 199.961567 143.219214 200.35294 142.8735 200.536807 142.326119 200.678647 141.907071 200.655007 141.378024 200.655007 140.901357L200.655007 135.919929 202.72482 135.919929 202.72482 145.188738 200.807353 145.188738zM204.428213 145.189524L206.500653 145.189524 206.500653 135.920714 204.428213 135.920714 204.428213 145.189524zM204.428213 135.08L206.500653 135.08 206.500653 132.489762 204.428213 132.489762 204.428213 135.08zM212.329752 138.037429L210.793152 138.037429 210.793152 141.722429C210.793152 142.945524 210.864072 143.220524 211.749259 143.220524 211.933125 143.220524 212.201045 143.181238 212.445325 143.144571L212.445325 145.171714C212.035565 145.300048 211.525992 145.370762 211.145125 145.370762 210.554125 145.370762 209.763499 145.260762 209.306459 144.768381 208.720712 144.147667 208.720712 143.034571 208.720712 142.123143L208.720712 138.037429 207.551845 138.037429 207.551845 135.902905 208.802139 135.902905 208.988632 133.181714 210.793152 133.003619 210.793152 135.902905 212.329752 135.902905 212.329752 138.037429zM217.865189 140.757571C217.071936 140.864952 215.624643 141.103286 215.624643 142.452095 215.624643 143.18281 215.958229 143.67519 216.536096 143.67519 216.961616 143.67519 217.345109 143.381857 217.584136 142.90781 217.878323 142.323762 217.865189 141.779 217.865189 141.121619L217.865189 140.757571zM218.059563 145.189C217.978136 144.714952 217.949243 144.22519 217.959749 143.748524 217.371376 144.843286 216.751483 145.372333 215.677176 145.372333 214.408496 145.372333 213.420869 144.492333 213.420869 142.745429 213.420869 141.375667 214.090669 140.443286 215.031016 139.99019 215.847909 139.584238 216.993136 139.513524 217.865189 139.406143L217.865189 139.186143C217.865189 138.788048 217.888829 138.311381 217.681323 137.965667 217.497456 137.654 217.150736 137.528286 216.835536 137.528286 216.173616 137.528286 215.598376 137.965667 215.598376 138.877095L213.636256 138.638762C213.851643 136.391619 215.543216 135.736857 217.048296 135.736857 217.781136 135.736857 218.734616 135.959476 219.320363 136.58281 220.047949 137.344952 219.979656 138.361143 219.979656 139.479476L219.979656 143.806143C219.979656 144.277571 220.003296 144.735905 220.121496 145.189L218.059563 145.189zM223.664869 141.302333C223.664869 141.813048 223.678003 142.394476 223.903896 142.85281 224.100896 143.256143 224.397709 143.494476 224.783829 143.494476 225.950069 143.494476 225.950069 141.556381 225.950069 140.555905 225.950069 139.513524 225.950069 137.583286 224.810096 137.583286 223.811963 137.583286 223.664869 138.987095 223.664869 139.971857L223.664869 141.302333zM221.560909 132.67519L223.635976 132.67519 223.635976 137.088286 223.696389 137.088286C224.048363 136.176857 224.639363 135.736857 225.443123 135.736857 227.481416 135.736857 228.103936 138.361143 228.103936 140.555905 228.103936 142.983762 227.357963 145.372333 225.201469 145.372333 224.169189 145.372333 223.678003 144.877333 223.157923 143.764238 222.903136 144.164952 222.819083 144.696619 222.690376 145.191619L221.560909 145.191619 221.560909 132.67519z" mask="url(#pg-13-copy-2-d)"/>
    <polygon fill="#FFF" points="229.332 145.192 231.396 145.192 231.396 132.676 229.332 132.676" mask="url(#pg-13-copy-2-d)"/>
    <path fill="#FFF" d="M237.498472 139.425C237.453819 138.421905 237.204285 137.489524 236.303339 137.489524 235.384005 137.489524 235.034659 138.361667 234.961112 139.425L237.498472 139.425zM234.976872 141.012143L234.961112 141.467857C234.961112 142.56 235.439165 143.458333 236.345365 143.458333 236.975765 143.458333 237.611419 142.853333 237.611419 141.999524L239.523632 142.177619C239.523632 142.635952 238.696232 145.372857 236.274445 145.372857 234.131085 145.372857 232.738952 143.437381 232.738952 140.682143 232.738952 137.947857 233.989245 135.737381 236.216659 135.737381 237.220045 135.737381 238.241819 136.321429 238.840699 137.379524 239.429072 138.437619 239.584045 139.752381 239.573539 141.012143L234.976872 141.012143zM247.592227 145.188738L245.519787 145.188738 245.519787 138.235167 244.692387 138.235167 244.692387 136.155643 245.519787 136.155643C245.519787 135.359452 245.49352 134.387786 245.850747 133.693738 246.28152 132.855643 247.10104 132.473262 247.8654 132.473262 248.033507 132.473262 248.614 132.488976 249.050027 132.598976L249.050027 134.660167C248.737453 134.607786 248.585107 134.607786 248.262027 134.607786 247.592227 134.607786 247.592227 135.1735 247.592227 135.959214L247.592227 136.155643 248.86616 136.155643 248.86616 138.235167 247.592227 138.235167 247.592227 145.188738zM251.552715 140.26519C251.552715 141.323286 251.536955 143.586143 252.721581 143.586143 253.893075 143.586143 253.948235 141.760667 253.948235 140.647571 253.948235 139.919476 253.916715 139.042095 253.722341 138.345429 253.554235 137.743048 253.212768 137.507333 252.732088 137.507333 251.615755 137.507333 251.552715 139.204476 251.552715 140.26519M256.173021 140.629238C256.173021 143.271857 254.836048 145.372333 252.721581 145.372333 250.523061 145.372333 249.325301 143.222095 249.325301 140.537571 249.325301 137.837333 250.536195 135.736857 252.721581 135.736857 254.964755 135.736857 256.173021 137.887095 256.173021 140.629238M259.481571 135.919667L259.481571 137.656095 259.513091 137.656095C259.723224 136.668714 260.143491 135.647286 261.044437 135.738952L261.399037 135.775619 261.399037 138.457524C259.820411 138.347524 259.623411 140.005381 259.623411 141.650143L259.623411 145.188476 257.553597 145.188476 257.553597 135.919667 259.481571 135.919667zM272.399517 137.527238C272.383757 136.139143 272.018651 134.845333 270.778864 134.845333 269.181851 134.845333 269.034757 137.542952 269.034757 139.059381 269.034757 140.774857 269.181851 142.982714 270.889184 142.982714 271.947731 142.982714 272.444171 141.832952 272.567624 140.63081L274.768771 140.808905C274.529744 143.674143 273.006277 145.371286 270.778864 145.371286 267.905291 145.371286 266.510531 142.343667 266.510531 138.933667 266.510531 135.466048 267.947317 132.49081 270.847157 132.49081 273.276824 132.49081 274.513984 134.313667 274.768771 137.325571L272.399517 137.527238zM282.416048 145.188738L280.338355 145.188738 280.338355 140.188976C280.338355 139.387548 280.411901 137.873738 279.510955 137.873738 279.130088 137.873738 278.696688 138.106833 278.528581 138.567786 278.336835 139.060167 278.336835 139.644214 278.336835 140.188976L278.336835 145.188738 276.267021 145.188738 276.267021 132.67231 278.336835 132.67231 278.336835 137.198024 278.368355 137.198024C278.641528 136.268262 279.453168 135.739214 280.230661 135.739214 280.889955 135.739214 281.596528 136.029929 282.022048 136.74231 282.460701 137.473024 282.416048 138.400167 282.416048 139.295881L282.416048 145.188738zM284.087133 145.189524L286.1622 145.189524 286.1622 135.920714 284.087133 135.920714 284.087133 145.189524zM284.087133 135.08L286.1622 135.08 286.1622 132.489762 284.087133 132.489762 284.087133 135.08z" mask="url(#pg-13-copy-2-d)"/>
    <polygon fill="#FFF" points="287.919 145.192 289.989 145.192 289.989 132.676 287.919 132.676" mask="url(#pg-13-copy-2-d)"/>
    <path fill="#FFF" d="M295.806007 140.043881C295.806007 139.153405 295.750847 137.616024 294.805247 137.616024 293.623247 137.616024 293.578593 139.624833 293.578593 140.737929 293.578593 141.741024 293.69154 143.438167 294.721193 143.438167 295.096807 143.438167 295.44878 143.108167 295.62214 142.689119 295.792873 142.270071 295.806007 141.78031 295.806007 141.321976L295.806007 140.043881zM295.908447 145.18769L295.908447 143.749833 295.871673 143.749833C295.477673 144.731976 294.886673 145.371024 293.969967 145.371024 291.95794 145.371024 291.395833 142.814833 291.395833 140.664595 291.395833 138.459357 291.92642 135.738167 294.011993 135.738167 294.815753 135.738167 295.351593 136.052452 295.806007 136.903643L295.806007 132.6765 297.878447 132.6765 297.878447 145.18769 295.908447 145.18769zM301.510864 135.919667L301.510864 137.656095 301.534504 137.656095C301.749891 136.668714 302.170157 135.647286 303.073731 135.738952L303.425704 135.775619 303.425704 138.457524C301.847077 138.347524 301.647451 140.005381 301.647451 141.650143L301.647451 145.188476 299.575011 145.188476 299.575011 135.919667 301.510864 135.919667zM308.818776 139.425C308.774123 138.421905 308.524589 137.489524 307.623643 137.489524 306.701683 137.489524 306.352336 138.361667 306.278789 139.425L308.818776 139.425zM306.294549 141.012143L306.278789 141.467857C306.278789 142.56 306.764723 143.458333 307.665669 143.458333 308.301323 143.458333 308.934349 142.853333 308.934349 141.999524L310.846563 142.177619C310.846563 142.635952 310.011283 145.372857 307.594749 145.372857 305.448763 145.372857 304.059256 143.437381 304.059256 140.682143 304.059256 137.947857 305.309549 135.737381 307.536963 135.737381 308.537723 135.737381 309.567376 136.321429 310.158376 137.379524 310.746749 138.437619 310.899096 139.752381 310.888589 141.012143L306.294549 141.012143zM312.184061 135.919667L314.143555 135.919667 314.143555 137.488476 314.169821 137.488476C314.592715 136.302048 315.183715 135.738952 316.226501 135.738952 316.906808 135.738952 317.573981 136.011333 317.988995 136.757762 318.382995 137.454429 318.382995 138.619905 318.382995 139.458L318.382995 145.188476 316.307928 145.188476 316.307928 140.204429C316.307928 139.258952 316.407741 137.873476 315.372835 137.873476 314.997221 137.873476 314.663635 138.145857 314.495528 138.567524 314.282768 139.093952 314.253875 139.625619 314.253875 140.204429L314.253875 145.188476 312.184061 145.188476 312.184061 135.919667zM49.3865867 105.553905C43.7550133 104.571762 40.79476 103.977238 41.0101467 98.1472381L40.88932 88.2262857C42.7148533 88.3127143 44.6612133 88.2655714 46.2739867 88.2655714 67.9860133 88.2655714 79.76136 90.334619 78.3061867 67.8658095 78.04352 52.4160476 67.4528 53.0760476 44.7610267 53.0760476 36.9178 53.0760476 30.7924133 53.2462857 26.2745467 53.2462857 22.9413067 53.2462857 20.59832 53.1310476 15.9176 53.374619 11.4680267 53.4767619 11.1764667 57.4577143 15.1795067 58.7541429 19.6106933 60.6555714 23.26964 59.2858095 23.5638267 64.9586667L23.5638267 98.5872381C23.46664 105.310333 19.17204 104.872952 17.0024133 105.755571 11.0714 106.245333 11.75696 111.36819 15.7573733 111.517476 18.07672 111.598667 22.1848267 111.569857 27.1360933 111.569857 37.2382533 111.569857 49.24212 111.669381 51.9108133 111.59081 55.7063467 111.465095 56.1975333 106.046286 49.3865867 105.553905M41.0101467 81.4429524L41.0101467 62.119619C41.0101467 60.1579524 42.3970267 59.7205714 46.7021333 59.7205714 56.1187333 59.589619 58.9424 61.6691429 59.6568533 68.6384286 59.8538533 82.2260476 55.30184 81.5241429 43.90736 81.5241429 42.9354933 81.5241429 41.96888 81.5241429 41.0101467 81.4429524M127.606881 91.4317381C127.094681 89.0510238 125.253388 89.0379286 122.566308 88.1815 117.236801 87.4481667 115.926095 82.7181667 121.846601 82.3776905L130.603908 82.3776905C135.276748 82.3253095 145.623188 82.1550714 148.586068 82.3017381 153.962855 82.4222143 155.139601 86.259119 148.630721 87.9824524 146.918135 88.4407857 144.089215 90.0095952 144.036681 93.3515 144.020921 95.1219762 144.036681 106.048643 144.036681 106.048643 144.036681 106.048643 141.176241 113.337452 113.212748 112.839833 95.971308 112.4365 83.8466147 111.97031 83.1558013 83.6007857 83.0612413 46.8293571 106.315121 51.0067381 115.356108 50.3231667 128.190001 50.5143571 134.903761 52.0884048 138.654641 53.4765 144.412295 55.4931667 144.656575 58.2667381 144.740628 63.2900714 144.819428 68.3448333 143.695215 73.0669762 137.976961 73.3157857 129.960375 73.9862619 129.358868 70.4662619 128.786255 67.2631667 127.606881 57.8031667 126.981735 57.2924524 116.740361 57.2165 101.860295 57.1222143 100.223881 64.9165 100.562721 82.5295952 100.835895 95.8134048 101.088055 105.456738 115.608268 105.255071 123.370068 105.273405 127.740841 104.720786 127.740841 99.1029286 127.740841 99.1029286 128.161108 94.0665 127.606881 91.4317381M183.798111 44.6393095C183.590604 48.0362143 182.130177 50.7783571 179.335404 50.7783571 175.437431 50.7783571 174.520724 45.9724048 174.520724 42.1459762 174.520724 39.1026429 175.095964 33.4926429 179.372177 33.4926429 181.305404 33.4926429 182.266764 34.6502619 182.844631 35.7555 183.590604 37.2143095 183.682537 38.9769286 183.742951 39.987881L181.195084 40.2340714C181.116284 38.9035952 181.000711 36.4888333 179.390564 36.4888333 177.801431 36.4888333 177.470471 39.0266905 177.470471 42.4235952 177.470471 45.2416905 177.720004 47.7847857 179.390564 47.7847857 180.906151 47.7847857 181.116284 45.3202619 181.210844 44.4114524L183.798111 44.6393095z" mask="url(#pg-13-copy-2-d)"/>
    <polygon fill="#FFF" points="194.505 50.526 191.71 50.526 191.71 43.656 188.619 43.656 188.619 50.526 185.821 50.526 185.821 33.743 188.619 33.743 188.619 40.513 191.71 40.513 191.71 33.743 194.505 33.743" mask="url(#pg-13-copy-2-d)"/>
    <polygon fill="#FFF" points="205.086 33.744 205.086 36.635 200.111 36.635 200.111 40.511 203.967 40.511 203.967 43.403 200.111 43.403 200.111 47.533 205.086 47.533 205.086 50.526 197.314 50.526 197.314 33.744" mask="url(#pg-13-copy-2-d)"/>
    <path fill="#FFF" d="M215.669559,44.6393095 C215.462052,48.0362143 214.004252,50.7783571 211.201599,50.7783571 C207.308879,50.7783571 206.392172,45.9724048 206.392172,42.1459762 C206.392172,39.1026429 206.964785,33.4926429 211.240999,33.4926429 C213.179479,33.4926429 214.135585,34.6502619 214.713452,35.7555 C215.462052,37.2143095 215.553985,38.9769286 215.614399,39.987881 L213.063905,40.2340714 C212.987732,38.9035952 212.877412,36.4888333 211.259385,36.4888333 C209.667625,36.4888333 209.347172,39.0266905 209.347172,42.4235952 C209.347172,45.2416905 209.594079,47.7847857 211.259385,47.7847857 C212.774972,47.7847857 212.987732,45.3202619 213.079665,44.4114524 L215.669559,44.6393095 Z" mask="url(#pg-13-copy-2-d)"/>
    <polygon fill="#FFF" points="220.494 33.744 220.494 40.742 223.597 33.744 226.433 33.744 223.234 39.909 226.704 50.526 223.812 50.526 221.543 42.8 220.494 44.84 220.494 50.526 217.689 50.526 217.689 33.744" mask="url(#pg-13-copy-2-d)"/>
    <polygon fill="#FFF" points="240.005 33.744 240.005 36.889 237.399 36.889 237.399 50.526 234.596 50.526 234.596 36.889 232.048 36.889 232.048 33.744" mask="url(#pg-13-copy-2-d)"/>
    <polygon fill="#FFF" points="250.075 50.526 247.275 50.526 247.275 43.656 244.189 43.656 244.189 50.526 241.389 50.526 241.389 33.743 244.189 33.743 244.189 40.513 247.275 40.513 247.275 33.743 250.075 33.743" mask="url(#pg-13-copy-2-d)"/>
    <polygon fill="#FFF" points="252.882 50.527 255.68 50.527 255.68 33.744 252.882 33.744" mask="url(#pg-13-copy-2-d)"/>
    <path fill="#FFF" d="M263.970544 38.5725476C263.810317 37.9701667 263.450464 36.4877857 262.166024 36.4877857 261.225677 36.4877857 260.826424 37.3415952 260.826424 38.0199286 260.826424 39.1775476 261.666957 39.580881 263.030197 40.2618333 264.464357 40.9873095 266.557811 42.0192143 266.557811 45.4187381 266.557811 48.2892143 265.021211 50.7773095 262.016304 50.7773095 261.094344 50.7773095 259.710091 50.5520714 258.675184 49.0146905 257.965984 47.9356429 257.737464 46.901119 257.582491 46.1730238L260.033171 45.2668333C260.193397 46.021119 260.553251 47.7837381 262.092477 47.7837381 263.048584 47.7837381 263.721011 47.0792143 263.721011 45.9713571 263.721011 44.7927857 262.917251 44.3135 261.953264 43.8577857 260.211784 43.0275476 258.099944 42.0454048 258.099944 38.6275476 258.099944 36.0085 259.389637 33.4942143 262.181784 33.4942143 265.370557 33.4942143 266.040357 36.286119 266.308277 37.3913571L263.970544 38.5725476zM276.652353 47.6305238L278.036607 47.6305238C279.242247 47.6305238 279.9567 47.0779048 279.9567 45.4200476 279.9567 43.2305238 278.651247 43.2305238 278.01822 43.2305238L276.652353 43.2305238 276.652353 47.6305238zM276.652353 40.5119524L277.558553 40.5119524C278.32554 40.5119524 279.604727 40.5119524 279.604727 38.4245714 279.604727 36.4602857 278.32554 36.4602857 277.76606 36.4602857L276.652353 36.4602857 276.652353 40.5119524zM273.95214 33.7443333L278.307153 33.7443333C279.567953 33.7443333 281.00474 33.7443333 281.795367 35.1795714 282.276047 36.033381 282.47042 37.1150476 282.47042 38.1731429 282.47042 40.8655238 281.23326 41.4679048 280.647513 41.7690952 281.065153 41.9707619 281.46966 42.1462381 281.9267 42.801 282.39162 43.4557619 282.806633 44.4614762 282.806633 45.8731429 282.806633 47.3319524 282.32858 49.016 281.409247 49.7467143 280.432127 50.5245714 279.45238 50.5245714 278.307153 50.5245714L273.95214 50.5245714 273.95214 33.7443333zM287.612908 42.1467619C287.612908 45.7453333 287.880828 47.7829524 289.299228 47.7829524 290.736015 47.7829524 290.982921 45.6955714 290.982921 42.1467619 290.982921 38.6267619 290.754401 36.487 289.299228 36.487 287.880828 36.487 287.612908 38.4984286 287.612908 42.1467619M293.940548 42.1467619C293.940548 45.2162857 293.515028 50.7765238 289.299228 50.7765238 285.191121 50.7765238 284.657908 45.5200952 284.657908 42.1467619 284.657908 38.9279524 285.135961 33.4934286 289.299228 33.4934286 293.362681 33.4934286 293.940548 38.6503333 293.940548 42.1467619" mask="url(#pg-13-copy-2-d)"/>
    <polygon fill="#FFF" points="298.297 33.744 299.833 38.123 301.438 33.744 304.133 33.744 301.12 41.344 304.511 50.526 301.438 50.526 299.563 45.042 297.474 50.526 294.787 50.526 298.297 41.92 295.176 33.744" mask="url(#pg-13-copy-2-d)"/>
    <polygon fill="#FFF" points="182.551 58.919 182.551 61.813 177.779 61.813 177.779 66.194 181.461 66.194 181.461 69.083 177.779 69.083 177.779 75.704 174.979 75.704 174.979 58.919" mask="url(#pg-13-copy-2-d)"/>
    <path fill="#FFF" d="M186.35806 67.3244524C186.35806 70.9204048 186.62598 72.9606429 188.041753 72.9606429 189.481167 72.9606429 189.733327 70.8706429 189.733327 67.3244524 189.733327 63.8018333 189.499553 61.6620714 188.041753 61.6620714 186.62598 61.6620714 186.35806 63.6735 186.35806 67.3244524M192.683073 67.3244524C192.683073 70.3913571 192.262807 75.9515952 188.041753 75.9515952 183.9389 75.9515952 183.400433 70.6925476 183.400433 67.3244524 183.400433 64.1056429 183.886367 58.671119 188.041753 58.671119 192.107833 58.671119 192.683073 63.8280238 192.683073 67.3244524M197.829239 61.6387619L197.829239 66.3661429 199.082159 66.3661429C200.285172 66.3661429 200.729079 65.3342381 200.729079 63.951381 200.729079 61.6387619 199.442012 61.6387619 198.963959 61.6387619L197.829239 61.6387619zM199.034879 58.9175714C200.324572 58.9175714 201.566985 58.9175714 202.546732 60.3554286 203.219159 61.3349524 203.466065 62.6680476 203.466065 64.0011429 203.466065 66.9711429 202.297199 67.8773333 201.669425 68.3828095L204.022919 75.7030476 200.954972 75.7030476 199.250265 69.0847143 197.829239 69.0847143 197.829239 75.7030476 195.029212 75.7030476 195.029212 58.9175714 199.034879 58.9175714zM216.634071 63.7502381C216.476471 63.1452381 216.119244 61.6628571 214.829551 61.6628571 213.889204 61.6628571 213.489951 62.5192857 213.489951 63.197619 213.489951 64.3552381 214.330484 64.7585714 215.693724 65.4369048 217.130511 66.165 219.218711 67.1969048 219.218711 70.5938095 219.218711 73.4642857 217.687364 75.952381 214.674577 75.952381 213.755244 75.952381 212.376244 75.7271429 211.338711 74.1897619 210.632137 73.1080952 210.400991 72.0761905 210.248644 71.3507143L212.701951 70.4419048C212.854297 71.1988095 213.222031 72.9614286 214.750751 72.9614286 215.712111 72.9614286 216.381911 72.2569048 216.381911 71.1464286 216.381911 69.9678571 215.583404 69.4885714 214.619417 69.0354762 212.875311 68.2052381 210.768724 67.2230952 210.768724 63.802619 210.768724 61.1835714 212.045284 58.6719048 214.850564 58.6719048 218.028831 58.6719048 218.703884 61.4611905 218.974431 62.5690476L216.634071 63.7502381zM224.134517 61.6387619L224.134517 66.6201905 225.017077 66.6201905C225.996824 66.6201905 226.824224 66.3425714 226.824224 64.1032857 226.824224 61.6387619 225.634344 61.6387619 225.017077 61.6387619L224.134517 61.6387619zM225.017077 58.9175714C226.364557 58.9175714 227.764571 58.9175714 228.723304 60.2009048 229.603237 61.4109048 229.794984 63.021619 229.794984 64.176619 229.794984 65.8397143 229.448264 67.526381 228.455384 68.5294762 227.494024 69.5142381 225.923277 69.5142381 225.135277 69.5142381L224.134517 69.5142381 224.134517 75.7030476 221.342371 75.7030476 221.342371 58.9175714 225.017077 58.9175714z" mask="url(#pg-13-copy-2-d)"/>
    <polygon fill="#FFF" points="239.297 58.919 239.297 61.813 234.327 61.813 234.327 65.689 238.178 65.689 238.178 68.58 234.327 68.58 234.327 72.711 239.297 72.711 239.297 75.704 231.53 75.704 231.53 58.919" mask="url(#pg-13-copy-2-d)"/>
    <path fill="#FFF" d="M249.880316,69.814381 C249.672809,73.2112857 248.217636,75.9534286 245.414983,75.9534286 C241.522263,75.9534286 240.602929,71.1474762 240.602929,67.3236667 C240.602929,64.2777143 241.178169,58.6703333 245.451756,58.6703333 C247.392863,58.6703333 248.351596,59.8279524 248.926836,60.9331905 C249.672809,62.392 249.767369,64.154619 249.827783,65.1603333 L247.274663,65.4117619 C247.201116,64.0786667 247.088169,61.6639048 245.470143,61.6639048 C243.881009,61.6639048 243.557929,64.204381 243.557929,67.6012857 C243.557929,70.4167619 243.804836,72.9624762 245.470143,72.9624762 C246.985729,72.9624762 247.201116,70.4953333 247.295676,69.5891429 L249.880316,69.814381 Z" mask="url(#pg-13-copy-2-d)"/>
    <polygon fill="#FFF" points="251.905 75.704 254.705 75.704 254.705 58.918 251.905 58.918" mask="url(#pg-13-copy-2-d)"/>
    <polygon fill="#FFF" points="265.081 58.919 265.081 61.813 260.308 61.813 260.308 66.194 263.991 66.194 263.991 69.083 260.308 69.083 260.308 75.704 257.508 75.704 257.508 58.919" mask="url(#pg-13-copy-2-d)"/>
    <polygon fill="#FFF" points="266.391 75.704 269.191 75.704 269.191 58.918 266.391 58.918" mask="url(#pg-13-copy-2-d)"/>
    <path fill="#FFF" d="M280.81562 69.814381C280.60286 73.2112857 279.150313 75.9534286 276.34766 75.9534286 272.457567 75.9534286 271.53298 71.1474762 271.53298 67.3236667 271.53298 64.2777143 272.110847 58.6703333 276.384433 58.6703333 278.32554 58.6703333 279.27902 59.8279524 279.856887 60.9331905 280.60286 62.392 280.700047 64.154619 280.76046 65.1603333L278.204713 65.4117619C278.131167 64.0786667 278.01822 61.6639048 276.405447 61.6639048 274.81106 61.6639048 274.490607 64.204381 274.490607 67.6012857 274.490607 70.4167619 274.74014 72.9624762 276.405447 72.9624762 277.921033 72.9624762 278.131167 70.4953333 278.23098 69.5891429L280.81562 69.814381zM296.934685 69.814381C296.724552 73.2112857 295.266752 75.9534286 292.469352 75.9534286 288.568752 75.9534286 287.652045 71.1474762 287.652045 67.3236667 287.652045 64.2777143 288.232539 58.6703333 292.503499 58.6703333 294.439352 58.6703333 295.400712 59.8279524 295.981205 60.9331905 296.724552 62.392 296.816485 64.154619 296.874272 65.1603333L294.329032 65.4117619C294.252859 64.0786667 294.134659 61.6639048 292.521885 61.6639048 290.932752 61.6639048 290.604419 64.204381 290.604419 67.6012857 290.604419 70.4167619 290.856579 72.9624762 292.521885 72.9624762 294.037472 72.9624762 294.252859 70.4953333 294.344792 69.5891429L296.934685 69.814381zM301.449137 67.3244524C301.449137 70.9204048 301.719684 72.9606429 303.138084 72.9606429 304.569617 72.9606429 304.819151 70.8706429 304.819151 67.3244524 304.819151 63.8018333 304.590631 61.6620714 303.138084 61.6620714 301.719684 61.6620714 301.449137 63.6735 301.449137 67.3244524M307.774151 67.3244524C307.774151 70.3913571 307.353884 75.9515952 303.138084 75.9515952 299.029977 75.9515952 298.494137 70.6925476 298.494137 67.3244524 298.494137 64.1056429 298.974817 58.671119 303.138084 58.671119 307.198911 58.671119 307.774151 63.8280238 307.774151 67.3244524" mask="url(#pg-13-copy-2-d)"/>
    <polygon fill="#FFF" points="313.136 58.919 316.409 69.335 316.409 58.919 318.602 58.919 318.602 75.704 316.085 75.704 312.198 63.552 312.198 75.704 310.01 75.704 310.01 58.919" mask="url(#pg-13-copy-2-d)"/>
    <polygon fill="#FFF" points="327.808 58.919 327.808 62.064 325.2 62.064 325.2 75.704 322.397 75.704 322.397 62.064 319.855 62.064 319.855 58.919" mask="url(#pg-13-copy-2-d)"/>
    <polygon fill="#FFF" points="336.966 58.919 336.966 61.813 331.993 61.813 331.993 65.689 335.849 65.689 335.849 68.58 331.993 68.58 331.993 72.711 336.966 72.711 336.966 75.704 329.193 75.704 329.193 58.919" mask="url(#pg-13-copy-2-d)"/>
    <polygon fill="#FFF" points="341.744 58.919 345.02 69.335 345.02 58.919 347.208 58.919 347.208 75.704 344.697 75.704 340.804 63.552 340.804 75.704 338.619 75.704 338.619 58.919" mask="url(#pg-13-copy-2-d)"/>
    <polygon fill="#FFF" points="356.422 58.919 356.422 62.064 353.811 62.064 353.811 75.704 351.016 75.704 351.016 62.064 348.46 62.064 348.46 58.919" mask="url(#pg-13-copy-2-d)"/>
    <polygon fill="#FFF" points="174.981 100.875 177.778 100.875 177.778 84.092 174.981 84.092" mask="url(#pg-13-copy-2-d)"/>
    <polygon fill="#FFF" points="183.59 84.091 186.868 94.507 186.868 84.091 189.059 84.091 189.059 100.874 186.543 100.874 182.655 88.724 182.655 100.874 180.47 100.874 180.47 84.091" mask="url(#pg-13-copy-2-d)"/>
    <polygon fill="#FFF" points="199.325 84.091 199.325 86.983 194.544 86.983 194.544 91.364 198.229 91.364 198.229 94.256 194.544 94.256 194.544 100.874 191.749 100.874 191.749 84.091" mask="url(#pg-13-copy-2-d)"/>
    <path fill="#FFF" d="M203.128801 92.4982143C203.128801 96.0941667 203.396721 98.1317857 204.812495 98.1317857 206.249281 98.1317857 206.498815 96.0444048 206.498815 92.4982143 206.498815 88.9755952 206.270295 86.8358333 204.812495 86.8358333 203.396721 86.8358333 203.128801 88.8472619 203.128801 92.4982143M209.451188 92.4982143C209.451188 95.565119 209.030921 101.125357 204.812495 101.125357 200.709641 101.125357 200.168548 95.8663095 200.168548 92.4982143 200.168548 89.2767857 200.654481 83.8422619 204.812495 83.8422619 208.875948 83.8422619 209.451188 88.9991667 209.451188 92.4982143M214.59998 86.8099048L214.59998 91.5399048 215.850273 91.5399048C217.055913 91.5399048 217.497193 90.508 217.497193 89.1251429 217.497193 86.8099048 216.210127 86.8099048 215.729447 86.8099048L214.59998 86.8099048zM215.802993 84.0913333C217.092687 84.0913333 218.337727 84.0913333 219.314847 85.5265714 219.987273 86.5060952 220.23418 87.8391905 220.23418 89.1722857 220.23418 92.1422857 219.06794 93.0510952 218.43754 93.5539524L220.791033 100.87419 217.723087 100.87419 216.01838 94.2558571 214.59998 94.2558571 214.59998 100.87419 211.797327 100.87419 211.797327 84.0913333 215.802993 84.0913333z" mask="url(#pg-13-copy-2-d)"/>
    <polygon fill="#FFF" points="226.766 84.091 228.568 94.458 230.601 84.091 234.588 84.091 234.588 100.874 231.962 100.874 231.962 86.81 229.353 100.874 227.302 100.874 224.928 86.81 224.928 100.874 222.642 100.874 222.642 84.091" mask="url(#pg-13-copy-2-d)"/>
    <path fill="#FFF" d="M242.097765,94.5329524 L240.813325,87.692 L239.568285,94.5329524 L242.097765,94.5329524 Z M242.476005,84.0908095 L246.121819,100.873667 L243.266632,100.873667 L242.609965,97.427 L239.024565,97.427 L238.391539,100.873667 L235.804272,100.873667 L239.641832,84.0908095 L242.476005,84.0908095 Z" mask="url(#pg-13-copy-2-d)"/>
    <polygon fill="#FFF" points="254.105 84.091 254.105 87.237 251.499 87.237 251.499 100.874 248.699 100.874 248.699 87.237 246.149 87.237 246.149 84.091" mask="url(#pg-13-copy-2-d)"/>
    <polygon fill="#FFF" points="255.493 100.875 258.293 100.875 258.293 84.092 255.493 84.092" mask="url(#pg-13-copy-2-d)"/>
    <path fill="#FFF" d="M263.583111,92.4982143 C263.583111,96.0941667 263.856284,98.1317857 265.277311,98.1317857 C266.711471,98.1317857 266.961004,96.0444048 266.961004,92.4982143 C266.961004,88.9755952 266.729857,86.8358333 265.277311,86.8358333 C263.856284,86.8358333 263.583111,88.8472619 263.583111,92.4982143 M269.918631,92.4982143 C269.918631,95.565119 269.490484,101.125357 265.277311,101.125357 C261.171831,101.125357 260.630737,95.8663095 260.630737,92.4982143 C260.630737,89.2767857 261.114044,83.8422619 265.277311,83.8422619 C269.338137,83.8422619 269.918631,88.9991667 269.918631,92.4982143" mask="url(#pg-13-copy-2-d)"/>
    <polygon fill="#FFF" points="275.275 84.091 278.55 94.507 278.55 84.091 280.738 84.091 280.738 100.874 278.23 100.874 274.335 88.724 274.335 100.874 272.149 100.874 272.149 84.091" mask="url(#pg-13-copy-2-d)"/>
    <g transform="translate(378.24 133.571)">
      <mask id="pg-13-copy-2-f" fill="#fff">
        <use xlink:href="#pg-13-copy-2-e"/>
      </mask>
      <path fill="#FFF" d="M6.651508,7.95682381 L7.71793467,7.95682381 C8.93145467,7.95682381 9.96373467,7.51944286 9.96373467,6.38015714 C9.96373467,5.57349048 9.37536133,4.7720619 7.71793467,4.7720619 C7.242508,4.7720619 6.911548,4.80610952 6.651508,4.84539524 L6.651508,7.95682381 Z M6.651508,13.0561095 L5.185828,13.0561095 L5.185828,3.85539524 C5.95281467,3.74277619 6.69353467,3.63015714 7.79148133,3.63015714 C9.19149467,3.63015714 10.1055747,3.92610952 10.6598013,4.3320619 C11.2087747,4.73277619 11.5082147,5.35610952 11.5082147,6.23610952 C11.5082147,7.44349048 10.6965747,8.17944286 9.70632133,8.47277619 L9.70632133,8.54872857 C10.512708,8.69015714 11.064308,9.42087143 11.2481747,10.7827762 C11.4714413,12.2127762 11.6894547,12.7601571 11.8391747,13.0561095 L10.292068,13.0561095 C10.071428,12.7601571 9.850788,11.9168238 9.66429467,10.7094429 C9.441028,9.53610952 8.85528133,9.09872857 7.68116133,9.09872857 L6.651508,9.09872857 L6.651508,13.0561095 Z M8.19336133,1.28349048 C4.55805467,1.28349048 1.57941467,4.40539524 1.57941467,8.25277619 C1.57941467,12.1734905 4.55805467,15.2561095 8.23013467,15.2561095 C11.9127213,15.2901571 14.8519613,12.1734905 14.8519613,8.28682381 C14.8519613,4.40539524 11.9127213,1.28349048 8.23013467,1.28349048 L8.19336133,1.28349048 Z M8.23013467,0.000157142857 C12.7558813,0.000157142857 16.3570413,3.66944286 16.3570413,8.25277619 C16.3570413,12.9068238 12.7558813,16.5368238 8.19336133,16.5368238 C3.67549467,16.5368238 0.000788,12.9068238 0.000788,8.25277619 C0.000788,3.66944286 3.67549467,0.000157142857 8.19336133,0.000157142857 L8.23013467,0.000157142857 Z" mask="url(#pg-13-copy-2-f)"/>
    </g>
  </g>
</svg>
