<svg xmlns="http://www.w3.org/2000/svg" xmlns:xlink="http://www.w3.org/1999/xlink" width="395" height="160" viewBox="0 0 395 160">
  <defs>
    <polygon id="pg-13-copy-4-a" points="0 1.344 369.811 1.344 369.811 159.762 0 159.762"/>
    <polygon id="pg-13-copy-4-c" points="0 161.037 369.811 161.037 369.811 2.619 0 2.619"/>
    <polygon id="pg-13-copy-4-e" points=".001 0 16.356 0 16.356 16.537 .001 16.537"/>
  </defs>
  <g fill="none" fill-rule="evenodd" transform="translate(0 -2)">
    <path fill="#FFF" d="M356.268196,152.10931 C358.188289,150.894071 359.438583,149.296452 359.667103,147.520738 L362.748183,147.520738 C362.306903,149.372405 359.850969,151.038119 356.268196,152.10931 M354.681689,147.520738 L358.527129,147.520738 C358.151516,149.841214 355.556369,151.797643 351.957836,152.743119 C353.497063,151.478119 354.516209,149.621214 354.681689,147.520738 M335.764436,147.520738 L339.617756,147.520738 C339.777983,149.621214 340.797129,151.478119 342.328476,152.743119 C338.727316,151.797643 336.145303,149.841214 335.764436,147.520738 M331.548636,147.520738 L334.621836,147.520738 C334.860863,149.296452 336.103276,150.894071 338.028623,152.117167 C334.435343,151.038119 331.984663,149.372405 331.548636,147.520738 M338.028623,141.748357 C336.087516,142.984548 334.829343,144.597881 334.619209,146.397167 L331.538129,146.397167 C331.937383,144.527167 334.406449,142.830024 338.028623,141.748357 M339.609876,146.397167 L335.761809,146.397167 C336.100649,144.053119 338.703676,142.067881 342.328476,141.114548 C340.781369,142.4005 339.762223,144.278357 339.609876,146.397167 M347.148409,153.342881 C343.597156,153.342881 340.710449,150.472405 340.710449,146.926214 C340.710449,143.385262 343.597156,140.512167 347.148409,140.512167 C350.702289,140.512167 353.583743,143.385262 353.583743,146.926214 C353.583743,150.472405 350.702289,153.342881 347.148409,153.342881 M358.529756,146.397167 L354.681689,146.397167 C354.531969,144.278357 353.512823,142.4005 351.963089,141.114548 C355.598396,142.067881 358.188289,144.053119 358.529756,146.397167 M362.763943,146.397167 L359.672356,146.397167 C359.467476,144.597881 358.209303,142.984548 356.268196,141.748357 C359.892996,142.830024 362.362063,144.527167 362.763943,146.397167 M347.148409,139.393833 C337.865769,139.393833 330.348249,142.769786 330.348249,146.926214 C330.348249,151.0905 337.865769,154.463833 347.148409,154.463833 C356.425796,154.463833 363.948569,151.0905 363.948569,146.926214 C363.948569,142.769786 356.425796,139.393833 347.148409,139.393833"/>
    <path fill="#FFF" d="M346.235905 146.9325C346.235905 146.442738 346.624652 146.044643 347.115839 146.044643 347.604399 146.044643 348.001025 146.442738 348.001025 146.9325 348.001025 147.417024 347.604399 147.8125 347.115839 147.8125 346.624652 147.8125 346.235905 147.417024 346.235905 146.9325M347.149197 143.057881L348.331197 141.881929C347.603611 141.148595 346.686904 141.148595 345.959317 141.881929L347.149197 143.057881zM348.090595 144.436286C348.090595 143.532714 348.826061 142.794143 349.737515 142.794143 350.651595 142.794143 351.384435 143.532714 351.384435 144.436286 351.384435 145.345095 350.651595 146.081048 349.737515 146.081048 348.826061 146.081048 348.090595 145.345095 348.090595 144.436286M342.893735 144.436286C342.893735 143.532714 343.629201 142.794143 344.540655 142.794143 345.449481 142.794143 346.184948 143.532714 346.184948 144.436286 346.184948 145.345095 345.449481 146.081048 344.540655 146.081048 343.629201 146.081048 342.893735 145.345095 342.893735 144.436286M342.988557 149.51331C342.988557 148.601881 343.724024 147.873786 344.632851 147.873786 345.541677 147.873786 346.277144 148.601881 346.277144 149.51331 346.277144 150.414262 345.541677 151.150214 344.632851 151.150214 343.724024 151.150214 342.988557 150.414262 342.988557 149.51331M347.95716 149.482667C347.95716 148.576476 348.692627 147.837905 349.598827 147.837905 350.51028 147.837905 351.251 148.576476 351.251 149.482667 351.251 150.388857 350.51028 151.12219 349.598827 151.12219 348.692627 151.12219 347.95716 150.388857 347.95716 149.482667M347.115839 150.763905L345.928585 151.932C346.661425 152.665333 347.570252 152.665333 348.305719 151.932L347.115839 150.763905zM350.914787 146.937738L352.096787 148.121548C352.829627 147.393452 352.829627 146.474167 352.096787 145.756548L350.914787 146.937738zM343.250173 146.937738L342.07868 148.121548C341.34584 147.393452 341.34584 146.474167 342.07868 145.756548L343.250173 146.937738z"/>
    <g transform="translate(0 1.275)">
      <mask id="pg-13-copy-4-b" fill="#fff">
        <use xlink:href="#pg-13-copy-4-a"/>
      </mask>
      <path fill="#FFF" d="M107.958364,18.2369524 L108.528351,18.2369524 C109.841684,18.2369524 111.706617,18.1007619 111.706617,13.923381 C111.706617,9.99480952 109.865324,9.8612381 108.528351,9.8612381 L107.958364,9.8612381 L107.958364,18.2369524 Z M104.648764,7.6612381 L108.210524,7.6612381 C110.524617,7.6612381 115.231604,7.67433333 115.231604,13.9600476 C115.231604,16.3564762 114.385817,18.5067143 112.752031,19.5543333 C111.407177,20.4448095 109.778644,20.4448095 108.615031,20.4448095 L104.648764,20.4448095 L104.648764,7.6612381 Z M102.923044,7.6612381 L102.923044,9.8612381 L97.044564,9.8612381 L97.044564,12.8102857 L101.604457,12.8102857 L101.604457,15.0181429 L97.044564,15.0181429 L97.044564,18.158381 L102.923044,18.158381 L102.923044,20.4448095 L93.7297107,20.4448095 L93.7297107,7.6612381 L102.923044,7.6612381 Z M92.4557773,7.6612381 L92.4557773,10.0524286 L89.3746973,10.0524286 L89.3746973,20.4448095 L86.0572173,20.4448095 L86.0572173,10.0524286 L83.0365507,10.0524286 L83.0365507,7.6612381 L92.4557773,7.6612381 Z M82.7239773,15.9505238 C82.4691907,18.543381 80.7460973,20.633381 77.4259907,20.633381 C72.8266973,20.633381 71.734004,16.9745714 71.734004,14.0595714 C71.734004,11.7390952 72.4143107,7.47004762 77.478524,7.47004762 C79.771604,7.47004762 80.9089507,8.35004762 81.5866307,9.19338095 C82.4691907,10.3012381 82.5873907,11.6369524 82.6530573,12.4121905 L79.6350173,12.606 C79.543084,11.5845714 79.4064973,9.746 77.4995373,9.746 C75.6135907,9.746 75.232724,11.6840952 75.232724,14.2612381 C75.232724,16.4167143 75.5216573,18.3469524 77.4995373,18.3469524 C79.2935507,18.3469524 79.543084,16.4690952 79.6560307,15.7829048 L82.7239773,15.9505238 Z M66.0104973,20.4448095 L69.330604,20.4448095 L69.330604,7.6612381 L66.0104973,7.6612381 L66.0104973,20.4448095 Z M56.8670707,9.72504762 L56.8670707,13.3288571 L58.3406307,13.3288571 C59.772164,13.3288571 60.2948707,12.548381 60.2948707,11.4902857 C60.2948707,9.72504762 58.771404,9.72504762 58.204044,9.72504762 L56.8670707,9.72504762 Z M58.298604,7.6612381 C59.8168173,7.6612381 61.293004,7.6612381 62.451364,8.7507619 C63.2446173,9.49719048 63.538804,10.5107619 63.538804,11.5269524 C63.538804,13.7898095 62.1545507,14.473381 61.403324,14.861 L64.1954707,20.4448095 L60.568044,20.4448095 L58.5455107,15.3979048 L56.8670707,15.3979048 L56.8670707,20.4448095 L53.5495907,20.4448095 L53.5495907,7.6612381 L58.298604,7.6612381 Z M52.2809107,7.6612381 L52.2809107,10.0524286 L49.1998307,10.0524286 L49.1998307,20.4448095 L45.8770973,20.4448095 L45.8770973,10.0524286 L42.8590573,10.0524286 L42.8590573,7.6612381 L52.2809107,7.6612381 Z M39.3682173,11.3331429 C39.1869773,10.8721905 38.7535773,9.746 37.2327373,9.746 C36.1190307,9.746 35.6488573,10.3981429 35.6488573,10.9140952 C35.6488573,11.7940952 36.644364,12.1005238 38.2545107,12.6164762 C39.9565907,13.1795714 42.4335373,13.9600476 42.4335373,16.5476667 C42.4335373,18.7319524 40.6132573,20.633381 37.054124,20.633381 C35.9614307,20.633381 34.3302707,20.4605238 33.1009907,19.2950476 C32.263084,18.4621905 31.987284,17.6817143 31.8086707,17.1238571 L34.7111373,16.4376667 C34.895004,17.0112381 35.328404,18.3469524 37.1434307,18.3469524 C38.2781507,18.3469524 39.0740307,17.8126667 39.0740307,16.9745714 C39.0740307,16.071 38.117924,15.7043333 36.983204,15.3638571 C34.918644,14.7352857 32.4233107,13.981 32.4233107,11.3802857 C32.4233107,9.38457143 33.941524,7.47004762 37.251124,7.47004762 C41.025644,7.47004762 41.8241507,9.59671429 42.136724,10.4400476 L39.3682173,11.3331429 Z M31.1493773,7.6612381 L31.1493773,9.8612381 L25.273524,9.8612381 L25.273524,12.8102857 L29.8334173,12.8102857 L29.8334173,15.0181429 L25.273524,15.0181429 L25.273524,18.158381 L31.1493773,18.158381 L31.1493773,20.4448095 L21.9612973,20.4448095 L21.9612973,7.6612381 L31.1493773,7.6612381 Z M12.8047373,9.72504762 L12.8047373,13.3288571 L14.2835507,13.3288571 C15.7177107,13.3288571 16.2377907,12.548381 16.2377907,11.4902857 C16.2377907,9.72504762 14.714324,9.72504762 14.1495907,9.72504762 L12.8047373,9.72504762 Z M14.2388973,7.6612381 C15.7597373,7.6612381 17.2332973,7.6612381 18.3916573,8.7507619 C19.190164,9.49719048 19.4869773,10.5107619 19.4869773,11.5269524 C19.4869773,13.7898095 18.0974707,14.473381 17.3514973,14.861 L20.143644,20.4448095 L16.5135907,20.4448095 L14.493684,15.3979048 L12.8047373,15.3979048 L12.8047373,20.4448095 L9.49251067,20.4448095 L9.49251067,7.6612381 L14.2388973,7.6612381 Z M124.913497,130.405524 L366.614111,130.405524 L366.614111,4.64671429 L124.913497,4.64671429 L124.913497,130.405524 Z M327.996857,156.588143 L366.614111,156.588143 L366.614111,133.325762 L327.996857,133.325762 L327.996857,156.588143 Z M2.99151067,156.588143 L325.031351,156.588143 L325.031351,133.325762 L2.99151067,133.325762 L2.99151067,156.588143 Z M2.99151067,130.460524 L121.745737,130.460524 L121.745737,25.6855238 L2.99151067,25.6855238 L2.99151067,130.460524 Z M-0.000262666667,159.762429 L369.810764,159.762429 L369.810764,1.34409524 L-0.000262666667,1.34409524 L-0.000262666667,159.762429 Z" mask="url(#pg-13-copy-4-b)"/>
    </g>
    <path fill="#FFF" d="M9.84816133 139.730119L9.84816133 146.681071C9.84816133 148.44631 9.84816133 149.910357 11.1483613 149.910357 11.7682547 149.910357 12.0545613 149.525357 12.2016547 149.108929 12.3697613 148.632262 12.3697613 148.00631 12.3697613 146.681071L12.3697613 139.730119 14.058708 139.730119 14.058708 146.568452C14.058708 148.726548 14.058708 150.400119 12.947628 151.384881 12.5247347 151.748929 11.9179747 152.07631 10.9723747 152.07631 7.85977467 152.07631 7.84664133 149.266071 7.84664133 146.681071L7.84664133 139.730119 9.84816133 139.730119zM17.458928 142.904405L17.458928 144.132738C17.7321013 143.378452 18.089328 142.705357 19.1478747 142.705357 19.4026613 142.705357 20.1749013 142.705357 20.6398213 143.653452 20.9077413 144.216548 20.9077413 145.096548 20.9077413 145.984405L20.9077413 151.898214 19.0323013 151.898214 19.0323013 145.984405C19.0323013 145.185595 18.9823947 144.653929 18.3913947 144.653929 17.553488 144.653929 17.553488 145.533929 17.553488 146.626071L17.553488 151.898214 15.6727947 151.898214 15.6727947 142.904405 17.458928 142.904405zM25.5645587 146.681857C25.5645587 145.87781 25.5645587 144.437333 24.742412 144.437333 24.0148253 144.437333 23.922892 145.608048 23.922892 147.045905 23.922892 148.798048 23.922892 150.293524 24.7319053 150.293524 25.5645587 150.293524 25.5645587 148.923762 25.5645587 148.263762L25.5645587 146.681857zM27.4111053 139.730905L27.4111053 151.896381 25.6748787 151.896381 25.6748787 150.419238C25.483132 151.076619 25.191572 152.024714 24.1225187 152.024714 22.3179987 152.024714 21.9712787 149.238048 21.9712787 147.449238 21.9712787 146.731619 21.9712787 142.782095 24.2039453 142.782095 25.1101453 142.782095 25.388572 143.355667 25.5645587 143.724952L25.5645587 139.730905 27.4111053 139.730905zM32.3006453 146.369929C32.3085253 145.880167 32.3374187 144.361119 31.4180853 144.361119 30.5722987 144.361119 30.5591653 145.730881 30.5434053 146.369929L32.3006453 146.369929zM30.5250187 147.813024C30.5171387 149.041357 30.5013787 150.3535 31.4338453 150.3535 32.2454853 150.3535 32.3374187 149.376595 32.3925787 148.797786L34.084152 148.947071C33.9475653 149.785167 33.564072 152.082071 31.389192 152.082071 29.3193787 152.082071 28.5812853 149.910881 28.5812853 147.51969 28.5812853 146.933024 28.6364453 145.5135 29.088232 144.421357 29.5715387 143.268976 30.459352 142.705881 31.3760587 142.705881 32.5580587 142.705881 33.2856453 143.585881 33.5850853 144.348024 34.0657653 145.5685 34.084152 146.718262 34.084152 147.813024L30.5250187 147.813024zM36.8896947 142.904405L36.8896947 145.072976C37.060428 144.305595 37.391388 142.773452 38.4840813 142.773452 38.620668 142.773452 38.7178547 142.794405 38.809788 142.831071L38.809788 145.279881C38.6495613 145.245833 38.565508 145.245833 38.494588 145.245833 37.1103347 145.245833 37.1103347 147.322738 37.1103347 148.00631L37.1103347 151.898214 35.2348947 151.898214 35.2348947 142.904405 36.8896947 142.904405zM47.119248 149.909833L48.6295813 149.909833 48.6295813 151.89769 43.5863813 151.89769 43.5863813 149.909833 45.1203547 149.909833 45.1203547 142.725786C44.6974613 143.294119 44.3271013 143.726262 43.5863813 144.25531L43.5863813 141.866738C44.6633147 141.101976 45.1991547 140.313643 45.582648 139.622214L47.119248 139.622214 47.119248 149.909833zM50.2872707 139.730119L55.7165907 139.730119 55.7165907 141.775595C54.7893773 143.491071 53.5653507 146.021071 53.4970573 151.898214L51.3195507 151.898214C51.3274307 150.984167 51.3615773 149.032976 52.0287507 146.626071 52.6932973 144.255833 53.523324 142.904405 53.9934973 142.11869L50.1375507 142.11869 50.2872707 139.730119zM62.8947453 141.704881L62.8947453 145.133214 63.7825587 145.133214C64.646732 145.133214 64.9671853 144.384167 64.9671853 143.378452 64.9671853 141.704881 64.0425987 141.704881 63.6985053 141.704881L62.8947453 141.704881zM63.7536653 139.730119C64.6756253 139.730119 65.568692 139.730119 66.262132 140.777738 66.742812 141.482262 66.924052 142.44869 66.924052 143.420357 66.924052 145.570595 66.0861453 146.222738 65.6343587 146.592024L67.318052 151.898214 65.1300387 151.898214 63.9086387 147.102738 62.8947453 147.102738 62.8947453 151.898214 60.8905987 151.898214 60.8905987 139.730119 63.7536653 139.730119zM71.5595933 146.369929C71.5753533 145.880167 71.60162 144.361119 70.6822867 144.361119 69.8312467 144.361119 69.8154867 145.730881 69.8076067 146.369929L71.5595933 146.369929zM69.7918467 147.813024C69.7760867 149.041357 69.76558 150.3535 70.69542 150.3535 71.5018067 150.3535 71.60162 149.376595 71.6541533 148.797786L73.3431 148.947071C73.2038867 149.785167 72.8309 152.082071 70.65602 152.082071 68.5862067 152.082071 67.8481133 149.910881 67.8481133 147.51969 67.8481133 146.933024 67.89802 145.5135 68.3498067 144.421357 68.8331133 143.268976 69.72618 142.705881 70.64026 142.705881 71.82226 142.705881 72.54722 143.585881 72.84666 144.348024 73.3325933 145.5685 73.3431 146.718262 73.3431 147.813024L69.7918467 147.813024zM77.7312093 146.487524C77.7312093 145.060143 77.5552227 144.43681 76.9327027 144.43681 76.2655293 144.43681 76.1447027 145.073238 76.1447027 147.171095 76.1447027 149.124905 76.1683427 150.293 76.9327027 150.293 77.6655427 150.293 77.7312093 149.124905 77.7312093 147.812762L77.7312093 146.487524zM79.6355427 142.904667C79.577756 143.677286 79.577756 144.182762 79.577756 145.201571L79.577756 154.94181 77.7312093 154.94181 77.7312093 150.968714C77.544716 151.332762 77.158596 152.02419 76.3338227 152.02419 75.070396 152.02419 74.195716 150.400381 74.195716 147.556095 74.195716 146.314667 74.2640093 142.773714 76.4835427 142.773714 77.4449027 142.773714 77.8572893 143.596095 78.0858093 144.072762 78.332716 143.690381 78.4325293 143.488714 78.6111427 142.904667L79.6355427 142.904667zM82.8742227 142.904405L82.8742227 148.689881C82.8742227 149.585595 82.8742227 150.146071 83.5151293 150.146071 84.3504093 150.146071 84.3504093 149.43369 84.3504093 147.498214L84.3504093 142.904405 86.2311027 142.904405 86.2311027 151.898214 84.463356 151.898214 84.463356 150.656786C84.1271427 151.424167 83.8198227 152.081548 82.721876 152.081548 80.996156 152.081548 80.996156 150.400119 80.996156 148.760595L80.996156 142.904405 82.8742227 142.904405z"/>
    <mask id="pg-13-copy-4-d" fill="#fff">
      <use xlink:href="#pg-13-copy-4-c"/>
    </mask>
    <path fill="#FFF" d="M87.6833867 151.896905L89.56408 151.896905 89.56408 142.903095 87.6833867 142.903095 87.6833867 151.896905zM87.6781333 142.133095L89.57984 142.133095 89.57984 139.658095 87.6781333 139.658095 87.6781333 142.133095zM92.6627587 142.904405L92.6627587 145.072976C92.8282387 144.305595 93.156572 142.773452 94.251892 142.773452 94.3911053 142.773452 94.488292 142.794405 94.5802253 142.831071L94.5802253 145.279881C94.417372 145.245833 94.330692 145.245833 94.267652 145.245833 92.8833987 145.245833 92.8833987 147.322738 92.8833987 148.00631L92.8833987 151.898214 91.0027053 151.898214 91.0027053 142.904405 92.6627587 142.904405zM98.6956867 146.369929C98.7114467 145.880167 98.7455933 144.361119 97.8210067 144.361119 96.9699667 144.361119 96.9568333 145.730881 96.9410733 146.369929L98.6956867 146.369929zM96.9305667 147.813024C96.9148067 149.041357 96.8990467 150.3535 97.83414 150.3535 98.6431533 150.3535 98.7455933 149.376595 98.7928733 148.797786L100.48182 148.947071C100.342607 149.785167 99.9722467 152.082071 97.7921133 152.082071 95.7249267 152.082071 94.98158 149.910881 94.98158 147.51969 94.98158 146.933024 95.03674 145.5135 95.4911533 144.421357 95.9692067 143.268976 96.8622733 142.705881 97.77898 142.705881 98.9583533 142.705881 99.6833133 143.585881 99.98538 144.348024 100.46606 145.5685 100.48182 146.718262 100.48182 147.813024L96.9305667 147.813024zM104.749365 145.592333C104.639045 145.131381 104.444672 144.361381 103.759112 144.361381 103.323085 144.361381 103.168112 144.788286 103.168112 145.152333 103.168112 145.862095 103.541099 146.021857 104.294952 146.385905 105.240552 146.825905 106.299099 147.323524 106.299099 149.146381 106.299099 150.471619 105.592525 152.082333 103.730219 152.082333 101.510685 152.082333 101.274285 150.070905 101.198112 149.400429L102.695312 149.073048C102.745219 149.413524 102.913325 150.419238 103.759112 150.419238 103.950859 150.419238 104.512965 150.361619 104.512965 149.575905 104.512965 148.868762 104.103205 148.690667 103.433405 148.392095 102.721579 148.101381 101.405619 147.506857 101.405619 145.568762 101.405619 143.633286 102.595499 142.703524 103.803765 142.703524 104.938485 142.703524 105.842059 143.575667 106.091592 145.060667L104.749365 145.592333zM113.686336 147.301L112.774883 142.340524 111.881816 147.301 113.686336 147.301zM113.962136 139.729333L116.567789 151.897429 114.521616 151.897429 114.059323 149.401476 111.493069 149.401476 111.043909 151.897429 109.197363 151.897429 111.931723 139.729333 113.962136 139.729333zM120.522236 146.300786C120.451316 144.999119 120.214916 144.619357 119.778889 144.619357 119.216783 144.619357 118.835916 145.221738 118.835916 147.285548 118.835916 148.634357 118.943609 150.059119 119.736863 150.059119 120.346249 150.059119 120.480209 149.328405 120.522236 148.393405L122.268969 148.540071C122.190169 149.472452 121.987916 152.075786 119.623916 152.075786 117.325583 152.075786 116.942089 149.328405 116.942089 147.408643 116.942089 144.988643 117.598756 142.704833 119.723729 142.704833 120.346249 142.704833 121.013423 142.864595 121.546636 143.631976 122.177036 144.546024 122.232196 145.441738 122.268969 146.2065L120.522236 146.300786zM126.650249 146.300786C126.584583 144.999119 126.345556 144.619357 125.912156 144.619357 125.347423 144.619357 124.961303 145.221738 124.961303 147.285548 124.961303 148.634357 125.074249 150.059119 125.867503 150.059119 126.474263 150.059119 126.605596 149.328405 126.650249 148.393405L128.402236 148.540071C128.323436 149.472452 128.118556 152.075786 125.757183 152.075786 123.456223 152.075786 123.075356 149.328405 123.075356 147.408643 123.075356 144.988643 123.729396 142.704833 125.849116 142.704833 126.474263 142.704833 127.141436 142.864595 127.679903 143.631976 128.307676 144.546024 128.362836 145.441738 128.402236 146.2065L126.650249 146.300786zM131.934315 144.456714C131.330181 144.456714 131.133181 145.18481 131.133181 147.392667 131.133181 149.783857 131.380088 150.328619 131.939568 150.328619 132.493795 150.328619 132.738075 149.80481 132.738075 147.392667 132.738075 145.07219 132.522688 144.456714 131.939568 144.456714L131.934315 144.456714zM134.684435 147.392667C134.684435 150.273619 133.906941 152.080762 131.934315 152.080762 129.985328 152.080762 129.186821 150.294571 129.186821 147.392667 129.186821 144.585048 129.924915 142.704571 131.939568 142.704571 133.946341 142.704571 134.684435 144.585048 134.684435 147.392667zM135.853827 142.904405L137.634707 142.904405 137.634707 144.132738C137.826453 143.611548 138.16792 142.705357 139.281627 142.705357 140.426853 142.705357 140.6186 143.598452 140.731547 144.132738 140.94168 143.525119 141.293653 142.705357 142.388973 142.705357 144.11732 142.705357 144.11732 144.384167 144.11732 146.010595L144.11732 151.898214 142.24188 151.898214 142.24188 146.264643C142.24188 145.245833 142.24188 144.653929 141.637747 144.653929 140.94956 144.653929 140.92592 145.368929 140.92592 146.662738L140.92592 151.898214 139.05048 151.898214 139.05048 146.207024C139.05048 145.107024 139.01896 144.674881 138.45948 144.674881 137.779173 144.674881 137.731893 145.405595 137.731893 146.662738L137.731893 151.898214 135.853827 151.898214 135.853827 142.904405zM147.330259 148.229452C147.330259 149.525881 147.330259 150.293262 148.126139 150.293262 148.893125 150.293262 148.961419 149.180167 148.961419 147.278738 148.961419 145.696833 148.908885 144.437071 148.178672 144.437071 147.330259 144.437071 147.330259 145.712548 147.330259 146.513976L147.330259 148.229452zM147.222565 142.904929L147.222565 144.253738C147.458965 143.677548 147.821445 142.773976 148.740779 142.773976 149.192565 142.773976 149.702139 143.030643 150.027845 143.470643 150.687139 144.361119 150.907779 145.770167 150.907779 147.278738 150.907779 148.562071 150.773819 152.024452 148.614699 152.024452 147.876605 152.024452 147.532512 151.53731 147.330259 151.243976L147.330259 154.942071 145.478459 154.942071 145.478459 142.904929 147.222565 142.904929zM155.266469 147.5925C154.189536 147.775833 153.732496 148.121548 153.732496 149.287024 153.732496 149.933929 153.911109 150.418452 154.362896 150.418452 154.599296 150.418452 154.806803 150.271786 154.982789 149.933929 155.237576 149.412738 155.266469 148.852262 155.266469 148.029881L155.266469 147.5925zM152.019909 145.512976C152.072443 145.010119 152.188016 143.931071 153.141496 143.197738 153.624803 142.831071 154.189536 142.705357 154.751643 142.705357 155.458216 142.705357 156.196309 142.94631 156.713763 143.653452 157.118269 144.200833 157.147163 145.222262 157.147163 146.314405L157.147163 149.886786C157.147163 151.424167 157.189189 151.583929 157.260109 151.898214L155.516003 151.898214C155.429323 151.536786 155.421443 151.3325 155.421443 150.512738 155.177163 151.096786 154.733256 152.081548 153.559136 152.081548 152.647683 152.081548 151.791389 151.384881 151.791389 149.614405 151.791389 147.121071 153.254443 146.461071 155.266469 146.314405L155.266469 145.96869C155.266469 145.185595 155.266469 144.363214 154.599296 144.363214 153.966269 144.363214 153.845443 145.03631 153.790283 145.756548L152.019909 145.512976zM160.386631 142.904405L160.386631 144.132738C160.659804 143.378452 161.014404 142.705357 162.070324 142.705357 162.332991 142.705357 163.099977 142.705357 163.562271 143.653452 163.840697 144.216548 163.840697 145.096548 163.840697 145.984405L163.840697 151.898214 161.962631 151.898214 161.962631 145.984405C161.962631 145.185595 161.907471 144.653929 161.316471 144.653929 160.481191 144.653929 160.481191 145.533929 160.481191 146.626071L160.481191 151.898214 158.603124 151.898214 158.603124 142.904405 160.386631 142.904405zM166.009273 142.904405L166.931233 148.414881 167.805913 142.904405 169.42394 142.904405 167.388273 152.060595C167.007407 153.755119 166.710593 155.088214 165.20814 155.088214 164.84566 155.088214 164.638153 155.020119 164.401753 154.946786L164.401753 152.974643C164.580367 153.00869 164.722207 153.021786 164.937593 153.021786 165.678313 153.021786 165.83066 152.807024 166.061807 151.733214L164.125953 142.904405 166.009273 142.904405zM170.000493 151.896905L171.881187 151.896905 171.881187 142.903095 170.000493 142.903095 170.000493 151.896905zM169.992613 142.133095L171.891693 142.133095 171.891693 139.658095 169.992613 139.658095 169.992613 142.133095zM175.099904 142.904405L175.099904 144.132738C175.373077 143.378452 175.725051 142.705357 176.783597 142.705357 177.046264 142.705357 177.813251 142.705357 178.278171 143.653452 178.553971 144.216548 178.553971 145.096548 178.553971 145.984405L178.553971 151.898214 176.678531 151.898214 176.678531 145.984405C176.678531 145.185595 176.620744 144.653929 176.029744 144.653929 175.194464 144.653929 175.194464 145.533929 175.194464 146.626071L175.194464 151.898214 173.316397 151.898214 173.316397 142.904405 175.099904 142.904405zM181.805259 145.569286C181.805259 146.116667 181.849912 146.952143 182.448792 146.952143 182.945232 146.952143 183.063432 146.462381 183.063432 145.514286 183.063432 144.40119 182.855925 144.058095 182.477685 144.058095 181.981245 144.058095 181.805259 144.529524 181.805259 145.569286zM181.035645 152.593571C181.035645 153.235238 181.513699 153.499762 182.527592 153.499762 183.507339 153.499762 183.919725 153.235238 183.919725 152.559524 183.919725 151.862857 183.460059 151.697857 183.173752 151.679524 182.955739 151.640238 181.870925 151.545952 181.629272 151.517143 181.406005 151.66381 181.035645 151.917857 181.035645 152.593571zM185.629685 143.052381C185.519365 143.013095 185.395912 142.984286 185.219925 142.984286 184.999285 142.984286 184.628925 143.013095 184.505472 143.804048 185.012419 144.490238 185.012419 145.406905 185.012419 145.608571 185.012419 147.407857 183.859312 148.30881 182.574872 148.30881 182.162485 148.30881 181.918205 148.217143 181.681805 148.138571 181.243152 148.47119 181.243152 148.816905 181.243152 148.890238 181.243152 149.377381 181.642405 149.414048 182.364739 149.492619 183.903965 149.6 184.366259 149.634048 184.846939 150.087143 185.367019 150.571667 185.545632 151.315476 185.545632 152.080238 185.545632 154.872143 183.341859 155.07381 182.243912 155.07381 181.666045 155.07381 179.475405 155.07381 179.475405 152.934048 179.475405 151.818333 180.147832 151.456905 180.568099 151.257857 180.350085 151.108571 179.693419 150.710476 179.693419 149.712619 179.693419 148.615238 180.402619 148.067857 180.857032 147.714286 180.444645 147.42881 179.861525 146.996667 179.861525 145.475 179.861525 143.340476 181.214259 142.704048 182.380499 142.704048 183.121219 142.704048 183.507339 142.924048 183.830419 143.117857 183.927605 142.190714 184.082579 141.342143 185.112232 141.342143 185.367019 141.342143 185.487845 141.389286 185.629685 141.428571L185.629685 143.052381zM191.963104 141.704881L191.963104 145.316548 192.596131 145.316548C193.297451 145.316548 193.885824 145.1175 193.885824 143.491071 193.885824 141.704881 193.034784 141.704881 192.596131 141.704881L191.963104 141.704881zM192.596131 139.730119C193.552237 139.730119 194.552997 139.730119 195.246437 140.659881 195.871584 141.539881 196.008171 142.705357 196.008171 143.540833 196.008171 144.745595 195.763891 145.973929 195.052064 146.696786 194.363877 147.409167 193.234411 147.409167 192.674931 147.409167L191.963104 147.409167 191.963104 151.898214 189.964211 151.898214 189.964211 139.730119 192.596131 139.730119zM199.712033 147.5925C198.629847 147.775833 198.175433 148.121548 198.175433 149.287024 198.175433 149.933929 198.354047 150.418452 198.805833 150.418452 199.042233 150.418452 199.24974 150.271786 199.428353 149.933929 199.68314 149.412738 199.712033 148.852262 199.712033 148.029881L199.712033 147.5925zM196.465473 145.512976C196.51538 145.010119 196.628327 143.931071 197.584433 143.197738 198.065113 142.831071 198.629847 142.705357 199.191953 142.705357 199.90378 142.705357 200.641873 142.94631 201.154073 143.653452 201.561207 144.200833 201.5901 145.222262 201.5901 146.314405L201.5901 149.886786C201.5901 151.424167 201.632127 151.583929 201.70042 151.898214L199.961567 151.898214C199.874887 151.536786 199.861753 151.3325 199.861753 150.512738 199.617473 151.096786 199.17882 152.081548 197.999447 152.081548 197.093247 152.081548 196.234327 151.384881 196.234327 149.614405 196.234327 147.121071 197.694753 146.461071 199.712033 146.314405L199.712033 145.96869C199.712033 145.185595 199.712033 144.363214 199.042233 144.363214 198.411833 144.363214 198.285753 145.03631 198.230593 145.756548L196.465473 145.512976zM204.706377 142.904405L204.706377 145.072976C204.869231 144.305595 205.197564 142.773452 206.298137 142.773452 206.434724 142.773452 206.531911 142.794405 206.623844 142.831071L206.623844 145.279881C206.460991 145.245833 206.379564 145.245833 206.306017 145.245833 204.927017 145.245833 204.927017 147.322738 204.927017 148.00631L204.927017 151.898214 203.046324 151.898214 203.046324 142.904405 204.706377 142.904405zM210.739568 146.369929C210.755328 145.880167 210.781595 144.361119 209.864888 144.361119 209.013848 144.361119 208.998088 145.730881 208.984955 146.369929L210.739568 146.369929zM208.971821 147.813024C208.956061 149.041357 208.942928 150.3535 209.878021 150.3535 210.684408 150.3535 210.781595 149.376595 210.836755 148.797786L212.523075 148.947071C212.386488 149.785167 212.010875 152.082071 209.835995 152.082071 207.763555 152.082071 207.025461 149.910881 207.025461 147.51969 207.025461 146.933024 207.077995 145.5135 207.529781 144.421357 208.010461 143.268976 208.903528 142.705881 209.817608 142.705881 211.004861 142.705881 211.729821 143.585881 212.026635 144.348024 212.509941 145.5685 212.523075 146.718262 212.523075 147.813024L208.971821 147.813024zM215.459425 142.904405L215.459425 144.132738C215.737852 143.378452 216.089825 142.705357 217.150999 142.705357 217.405785 142.705357 218.172772 142.705357 218.640319 143.653452 218.910865 144.216548 218.910865 145.096548 218.910865 145.984405L218.910865 151.898214 217.035425 151.898214 217.035425 145.984405C217.035425 145.185595 216.982892 144.653929 216.386639 144.653929 215.556612 144.653929 215.556612 145.533929 215.556612 146.626071L215.556612 151.898214 213.678545 151.898214 213.678545 142.904405 215.459425 142.904405zM222.385157 140.0575L222.385157 142.909643 223.635451 142.909643 223.635451 144.876548 222.385157 144.876548 222.385157 148.173929C222.385157 149.868452 222.385157 150.085833 223.730011 149.981071L223.730011 151.898214C223.456837 151.968929 223.073344 152.081548 222.563771 152.081548 221.946504 152.081548 221.263571 151.874643 220.877451 151.149167 220.549117 150.512738 220.549117 149.60131 220.549117 148.44631L220.549117 144.876548 219.808397 144.876548 219.808397 142.909643 220.643677 142.909643 220.793397 140.264405 222.385157 140.0575zM230.534391 144.456714C229.922377 144.456714 229.730631 145.18481 229.730631 147.392667 229.730631 149.783857 229.982791 150.328619 230.542271 150.328619 231.096497 150.328619 231.338151 149.80481 231.338151 147.392667 231.338151 145.07219 231.122764 144.456714 230.542271 144.456714L230.534391 144.456714zM233.284511 147.392667C233.284511 150.273619 232.504391 152.080762 230.534391 152.080762 228.585404 152.080762 227.784271 150.294571 227.784271 147.392667 227.784271 144.585048 228.524991 142.704571 230.542271 142.704571 232.543791 142.704571 233.284511 144.585048 233.284511 147.392667zM236.111067 142.904405L236.111067 145.072976C236.27392 144.305595 236.607507 142.773452 237.702827 142.773452 237.839413 142.773452 237.9366 142.794405 238.03116 142.831071L238.03116 145.279881C237.86568 145.245833 237.781627 145.245833 237.713333 145.245833 236.32908 145.245833 236.32908 147.322738 236.32908 148.00631L236.32908 151.898214 234.456267 151.898214 234.456267 142.904405 236.111067 142.904405zM245.104248 147.301L244.192795 142.340524 243.299728 147.301 245.104248 147.301zM245.377421 139.729333L247.983075 151.897429 245.939528 151.897429 245.479861 149.401476 242.910981 149.401476 242.464448 151.897429 240.615275 151.897429 243.352261 139.729333 245.377421 139.729333zM251.937784 146.681857C251.937784 145.87781 251.937784 144.437333 251.115637 144.437333 250.390677 144.437333 250.293491 145.608048 250.293491 147.045905 250.293491 148.798048 250.293491 150.293524 251.099877 150.293524 251.937784 150.293524 251.937784 148.923762 251.937784 148.263762L251.937784 146.681857zM253.789584 139.730905L253.789584 151.896381 252.045477 151.896381 252.045477 150.419238C251.853731 151.076619 251.570051 152.024714 250.498371 152.024714 248.691224 152.024714 248.347131 149.238048 248.347131 147.449238 248.347131 146.731619 248.347131 142.782095 250.582424 142.782095 251.483371 142.782095 251.761797 143.355667 251.937784 143.724952L251.937784 139.730905 253.789584 139.730905zM257.024324 142.904405L257.024324 148.689881C257.024324 149.585595 257.024324 150.146071 257.673111 150.146071 258.503137 150.146071 258.503137 149.43369 258.503137 147.498214L258.503137 142.904405 260.383831 142.904405 260.383831 151.898214 258.616084 151.898214 258.616084 150.656786C258.271991 151.424167 257.972551 152.081548 256.874604 152.081548 255.148884 152.081548 255.148884 150.400119 255.148884 148.760595L255.148884 142.904405 257.024324 142.904405z" mask="url(#pg-13-copy-4-d)"/>
    <polygon fill="#FFF" points="261.842 151.897 263.717 151.897 263.717 139.729 261.842 139.729" mask="url(#pg-13-copy-4-d)"/>
    <path fill="#FFF" d="M267.282245 140.0575L267.282245 142.909643 268.532539 142.909643 268.532539 144.876548 267.282245 144.876548 267.282245 148.173929C267.282245 149.868452 267.282245 150.085833 268.629725 149.981071L268.629725 151.898214C268.353925 151.968929 267.973059 152.081548 267.460859 152.081548 266.848845 152.081548 266.160659 151.874643 265.777165 151.149167 265.451459 150.512738 265.451459 149.60131 265.451459 148.44631L265.451459 144.876548 264.705485 144.876548 264.705485 142.909643 265.540765 142.909643 265.690485 140.264405 267.282245 140.0575zM279.540636 145.405595L279.540636 151.898214 278.689596 151.898214 278.434809 150.512738C278.227303 150.931786 277.649436 152.081548 276.210023 152.081548 273.935329 152.081548 272.821623 149.37869 272.821623 146.021071 272.821623 144.221786 273.126316 139.549405 276.391263 139.549405 278.923369 139.549405 279.367276 141.961548 279.540636 143.711071L277.733489 144.106548C277.636303 143.197738 277.504969 141.717976 276.430663 141.717976 275.290689 141.717976 274.936089 143.362738 274.936089 145.86131 274.936089 148.050833 275.180369 149.910357 276.501583 149.910357 277.665196 149.910357 277.707223 148.286548 277.733489 147.50869L276.359743 147.50869 276.359743 145.405595 279.540636 145.405595zM282.765132 142.904405L282.765132 148.689881C282.765132 149.585595 282.765132 150.146071 283.411292 150.146071 284.246572 150.146071 284.246572 149.43369 284.246572 147.498214L284.246572 142.904405 286.124639 142.904405 286.124639 151.898214 284.359519 151.898214 284.359519 150.656786C284.015425 151.424167 283.710732 152.081548 282.615412 152.081548 280.889692 152.081548 280.889692 150.400119 280.889692 148.760595L280.889692 142.904405 282.765132 142.904405zM290.842657 147.5925C289.760471 147.775833 289.308684 148.121548 289.308684 149.287024 289.308684 149.933929 289.489924 150.418452 289.939084 150.418452 290.170231 150.418452 290.377737 150.271786 290.558977 149.933929 290.816391 149.412738 290.842657 148.852262 290.842657 148.029881L290.842657 147.5925zM287.598724 145.512976C287.646004 145.010119 287.761577 143.931071 288.720311 143.197738 289.198364 142.831071 289.760471 142.705357 290.325204 142.705357 291.029151 142.705357 291.777751 142.94631 292.287324 143.653452 292.697084 144.200833 292.723351 145.222262 292.723351 146.314405L292.723351 149.886786C292.723351 151.424167 292.765377 151.583929 292.831044 151.898214L291.089564 151.898214C291.005511 151.536786 290.997631 151.3325 290.997631 150.512738 290.750724 151.096786 290.309444 152.081548 289.130071 152.081548 288.223871 152.081548 287.359697 151.384881 287.359697 149.614405 287.359697 147.121071 288.828004 146.461071 290.842657 146.314405L290.842657 145.96869C290.842657 145.185595 290.842657 144.363214 290.170231 144.363214 289.539831 144.363214 289.419004 145.03631 289.363844 145.756548L287.598724 145.512976zM295.834375 142.904405L295.834375 145.072976C295.997228 144.305595 296.330815 142.773452 297.426135 142.773452 297.562721 142.773452 297.662535 142.794405 297.754468 142.831071L297.754468 145.279881C297.588988 145.245833 297.507561 145.245833 297.436641 145.245833 296.057641 145.245833 296.057641 147.322738 296.057641 148.00631L296.057641 151.898214 294.179575 151.898214 294.179575 142.904405 295.834375 142.904405zM301.734131 146.681857C301.734131 145.87781 301.734131 144.437333 300.911984 144.437333 300.181771 144.437333 300.092464 145.608048 300.092464 147.045905 300.092464 148.798048 300.092464 150.293524 300.898851 150.293524 301.734131 150.293524 301.734131 148.923762 301.734131 148.263762L301.734131 146.681857zM303.580677 139.730905L303.580677 151.896381 301.841824 151.896381 301.841824 150.419238C301.652704 151.076619 301.361144 152.024714 300.294717 152.024714 298.484944 152.024714 298.140851 149.238048 298.140851 147.449238 298.140851 146.731619 298.140851 142.782095 300.373517 142.782095 301.279717 142.782095 301.558144 143.355667 301.734131 143.724952L301.734131 139.730905 303.580677 139.730905zM305.0348 151.896905L306.91812 151.896905 306.91812 142.903095 305.0348 142.903095 305.0348 151.896905zM305.032173 142.133095L306.931253 142.133095 306.931253 139.658095 305.032173 139.658095 305.032173 142.133095zM311.62248 147.5925C310.537667 147.775833 310.083253 148.121548 310.083253 149.287024 310.083253 149.933929 310.264493 150.418452 310.718907 150.418452 310.947427 150.418452 311.152307 150.271786 311.336173 149.933929 311.593587 149.412738 311.62248 148.852262 311.62248 148.029881L311.62248 147.5925zM308.370667 145.512976C308.425827 145.010119 308.53352 143.931071 309.492253 143.197738 309.97556 142.831071 310.537667 142.705357 311.1024 142.705357 311.814227 142.705357 312.554947 142.94631 313.059267 143.653452 313.471653 144.200833 313.49792 145.222262 313.49792 146.314405L313.49792 149.886786C313.49792 151.424167 313.542573 151.583929 313.605613 151.898214L311.86676 151.898214C311.785333 151.536786 311.774827 151.3325 311.774827 150.512738 311.525293 151.096786 311.091893 152.081548 309.907267 152.081548 308.99844 152.081548 308.142147 151.384881 308.142147 149.614405 308.142147 147.121071 309.599947 146.461071 311.62248 146.314405L311.62248 145.96869C311.62248 145.185595 311.62248 144.363214 310.947427 144.363214 310.317027 144.363214 310.190947 145.03631 310.14104 145.756548L308.370667 145.512976zM316.737388 142.904405L316.737388 144.132738C317.010561 143.378452 317.367788 142.705357 318.426335 142.705357 318.681121 142.705357 319.453361 142.705357 319.915655 143.653452 320.188828 144.216548 320.188828 145.096548 320.188828 145.984405L320.188828 151.898214 318.310761 151.898214 318.310761 145.984405C318.310761 145.185595 318.258228 144.653929 317.667228 144.653929 316.831948 144.653929 316.831948 145.533929 316.831948 146.626071L316.831948 151.898214 314.951255 151.898214 314.951255 142.904405 316.737388 142.904405zM75.4867227 64.4453333C75.2266827 76.6684286 73.080696 75.7229524 61.654696 75.9953333 60.2809493 76.029381 53.6985227 75.9953333 51.276736 75.9953333 51.3607893 72.2055714 51.3607893 56.1665238 51.3607893 56.1665238 51.3607893 53.5186667 52.860616 51.5936667 55.7026693 51.499381 75.137376 50.894381 75.728376 53.1022381 75.4867227 64.4453333M60.646056 88.7212857C62.5109893 91.1962857 63.9451493 93.1972381 63.9451493 93.1972381 66.4877627 96.5574762 78.588816 116.666524 83.9918693 117.122238L111.007136 117.158905C115.446203 117.080333 116.412816 111.234619 111.414269 109.974857 109.273536 109.270333 102.496736 108.772714 93.5949627 97.6050952 88.407296 91.2460476 83.679296 85.3977143 81.4834027 82.357 93.8786427 82.357 98.170616 78.6824762 98.3255893 64.6574762 98.4595493 40.1850952 88.6883493 44.3467619 61.891096 43.7548571 61.891096 43.7548571 20.1060827 43.6160476 19.1053227 43.5558095 10.032816 43.2703333 7.306336 50.9336667 19.7120827 51.5203333 26.0975093 51.9786667 29.4281227 55.3415238 29.9088027 64.6522381L29.9088027 97.8198571C29.5253093 107.41081 29.3519493 109.574143 17.8602827 110.49081 11.5878027 110.569381 10.765656 117.130095 19.3522293 117.179857 20.5263493 117.14581 60.890336 117.122238 60.929736 117.122238 70.1834827 117.491524 69.3166827 110.794619 63.2254427 110.477714 55.1484427 109.867476 51.3502827 111.14819 51.0613493 100.949619 51.016696 99.8574762 50.827576 93.7839048 50.827576 91.8353333 50.851216 83.1165238 57.3732293 83.9729524 60.646056 88.7212857M151.095848 42.2832143C150.843688 46.3505952 149.099581 49.6427381 145.740075 49.6427381 141.067235 49.6427381 139.964035 43.8755952 139.964035 39.294881 139.964035 35.6517857 140.654848 28.9260714 145.787355 28.9260714 148.104075 28.9260714 149.254555 30.3115476 149.947995 31.6394048 150.843688 33.3863095 150.961888 35.4920238 151.032808 36.6994048L147.967488 37.0032143C147.875555 35.4082143 147.741595 32.5167857 145.805741 32.5167857 143.898781 32.5167857 143.507408 35.5575 143.507408 39.6275 143.507408 43.0086905 143.809475 46.0467857 145.805741 46.0467857 147.628648 46.0467857 147.875555 43.095119 147.996381 42.0082143L151.095848 42.2832143z" mask="url(#pg-13-copy-4-d)"/>
    <polygon fill="#FFF" points="163.937 49.335 160.577 49.335 160.577 41.108 156.868 41.108 156.868 49.335 153.511 49.335 153.511 29.223 156.868 29.223 156.868 37.337 160.577 37.337 160.577 29.223 163.937 29.223" mask="url(#pg-13-copy-4-d)"/>
    <polygon fill="#FFF" points="176.606 29.224 176.606 32.691 170.641 32.691 170.641 37.338 175.266 37.338 175.266 40.803 170.641 40.803 170.641 45.745 176.606 45.745 176.606 49.336 167.284 49.336 167.284 29.224" mask="url(#pg-13-copy-4-d)"/>
    <path fill="#FFF" d="M189.300452,42.2832143 C189.048292,46.3505952 187.296305,49.6427381 183.939425,49.6427381 C179.266585,49.6427381 178.163385,43.8755952 178.163385,39.294881 C178.163385,35.6517857 178.851572,28.9260714 183.986705,28.9260714 C186.308679,28.9260714 187.459159,30.3115476 188.152599,31.6394048 C189.048292,33.3863095 189.161239,35.4920238 189.234785,36.6994048 L186.174719,37.0032143 C186.077532,35.4082143 185.940945,32.5167857 184.007719,32.5167857 C182.098132,32.5167857 181.704132,35.5575 181.704132,39.6275 C181.704132,43.0086905 182.003572,46.0467857 184.007719,46.0467857 C185.822745,46.0467857 186.077532,43.095119 186.195732,42.0082143 L189.300452,42.2832143 Z" mask="url(#pg-13-copy-4-d)"/>
    <polygon fill="#FFF" points="195.067 29.224 195.067 37.61 198.797 29.224 202.203 29.224 198.358 36.617 202.527 49.336 199.051 49.336 196.33 40.08 195.067 42.526 195.067 49.336 191.707 49.336 191.707 29.224" mask="url(#pg-13-copy-4-d)"/>
    <polygon fill="#FFF" points="218.463 29.224 218.463 32.995 215.332 32.995 215.332 49.336 211.973 49.336 211.973 32.995 208.907 32.995 208.907 29.224" mask="url(#pg-13-copy-4-d)"/>
    <polygon fill="#FFF" points="230.54 49.335 227.18 49.335 227.18 41.108 223.477 41.108 223.477 49.335 220.112 49.335 220.112 29.223 223.477 29.223 223.477 37.337 227.18 37.337 227.18 29.223 230.54 29.223" mask="url(#pg-13-copy-4-d)"/>
    <polygon fill="#FFF" points="233.892 49.332 237.248 49.332 237.248 29.221 233.892 29.221" mask="url(#pg-13-copy-4-d)"/>
    <path fill="#FFF" d="M247.187195 35.0116905C247.005955 34.2888333 246.569928 32.5183571 245.022821 32.5183571 243.895981 32.5183571 243.412675 33.5371667 243.412675 34.3543095 243.412675 35.7371667 244.423941 36.2190714 246.060355 37.0335952 247.786075 37.9057381 250.294541 39.1497857 250.294541 43.2119286 250.294541 46.6533571 248.450621 49.6416905 244.838955 49.6416905 243.738381 49.6416905 242.078328 49.3614524 240.835915 47.522881 239.990128 46.2264524 239.706448 44.9955 239.522581 44.1207381L242.469701 43.0338333C242.653568 43.9374048 243.089595 46.0483571 244.930888 46.0483571 246.086621 46.0483571 246.890381 45.2076429 246.890381 43.8771667 246.890381 42.462881 245.921141 41.8866905 244.770661 41.3445476 242.679835 40.3519286 240.142475 39.1759762 240.142475 35.0745476 240.142475 31.9421667 241.684328 28.9276429 245.049088 28.9276429 248.865635 28.9276429 249.666768 32.2774048 249.995101 33.6026429L247.187195 35.0116905zM262.387977 45.8639762L264.045404 45.8639762C265.492697 45.8639762 266.346364 45.2065952 266.346364 43.210881 266.346364 40.5944524 264.780871 40.5944524 264.019137 40.5944524L262.387977 40.5944524 262.387977 45.8639762zM262.387977 37.3363571L263.470164 37.3363571C264.392124 37.3363571 265.933977 37.3363571 265.933977 34.8351667 265.933977 32.4806429 264.392124 32.4806429 263.722324 32.4806429L262.387977 32.4806429 262.387977 37.3363571zM259.144044 29.2225476L264.368484 29.2225476C265.884071 29.2225476 267.609791 29.2225476 268.558017 30.9485 269.125377 31.9699286 269.356524 33.2663571 269.356524 34.5287381 269.356524 37.7580238 267.885591 38.480881 267.168511 38.8423095 267.680711 39.085881 268.164017 39.2954048 268.715617 40.0785 269.269844 40.8668333 269.776791 42.0689762 269.776791 43.7582619 269.776791 45.5025476 269.198924 47.5244524 268.093097 48.4018333 266.924231 49.3342143 265.750111 49.3342143 264.368484 49.3342143L259.144044 49.3342143 259.144044 29.2225476zM275.516057 39.2959286C275.516057 43.6095 275.836511 46.0478333 277.541217 46.0478333 279.269564 46.0478333 279.571631 43.5440238 279.571631 39.2959286 279.571631 35.0766429 279.290577 32.5178333 277.541217 32.5178333 275.836511 32.5178333 275.516057 34.9273571 275.516057 39.2959286M283.112377 39.2959286C283.112377 42.9704524 282.605431 49.6411667 277.541217 49.6411667 272.618844 49.6411667 271.972684 43.331881 271.972684 39.2959286 271.972684 35.4380714 272.550551 28.927119 277.541217 28.927119 282.421564 28.927119 283.112377 35.1028333 283.112377 39.2959286" mask="url(#pg-13-copy-4-d)"/>
    <polygon fill="#FFF" points="288.331 29.224 290.17 34.475 292.101 29.224 295.326 29.224 291.709 38.336 295.783 49.336 292.101 49.336 289.844 42.77 287.341 49.336 284.118 49.336 288.331 39.027 284.58 29.224" mask="url(#pg-13-copy-4-d)"/>
    <polygon fill="#FFF" points="149.603 59.402 149.603 62.869 143.874 62.869 143.874 68.113 148.29 68.113 148.29 71.58 143.874 71.58 143.874 79.513 140.512 79.513 140.512 59.402" mask="url(#pg-13-copy-4-d)"/>
    <path fill="#FFF" d="M154.155915 69.4660476C154.155915 73.779619 154.481621 76.2205714 156.181075 76.2205714 157.906795 76.2205714 158.203608 73.724619 158.203608 69.4660476 158.203608 65.2467619 157.930435 62.6827143 156.181075 62.6827143 154.481621 62.6827143 154.155915 65.0948571 154.155915 69.4660476M161.749608 69.4660476C161.749608 73.1484286 161.245288 79.8086667 156.181075 79.8086667 151.256075 79.8086667 150.609915 73.5098571 150.609915 69.4660476 150.609915 65.6081905 151.185155 59.094619 156.181075 59.094619 161.058795 59.094619 161.749608 65.2808095 161.749608 69.4660476M167.904939 62.6575714L167.904939 68.3251905 169.402139 68.3251905C170.852059 68.3251905 171.385272 67.091619 171.385272 65.4337619 171.385272 62.6575714 169.838165 62.6575714 169.262925 62.6575714L167.904939 62.6575714zM169.357485 59.4020952C170.896712 59.4020952 172.393912 59.4020952 173.565405 61.1175714 174.369165 62.2935238 174.671232 63.8937619 174.671232 65.4835238 174.671232 69.0506667 173.268592 70.1323333 172.506859 70.7373333L175.338405 79.5137619 171.661072 79.5137619 169.609645 71.5806667 167.904939 71.5806667 167.904939 79.5137619 164.545432 79.5137619 164.545432 59.4020952 169.357485 59.4020952zM190.444365 65.1896667C190.265752 64.4694286 189.824472 62.6832381 188.279992 62.6832381 187.153152 62.6832381 186.672472 63.7151429 186.672472 64.5218095 186.672472 65.9099048 187.683739 66.3970476 189.317525 67.2089524 191.045872 68.0810952 193.551712 69.3172857 193.551712 73.3925238 193.551712 76.8234762 191.710419 79.8091905 188.101379 79.8091905 186.995552 79.8091905 185.338125 79.5394286 184.095712 77.7008571 183.244672 76.4044286 182.963619 75.1734762 182.779752 74.2934762L185.729499 73.2091905C185.913365 74.1127619 186.352019 76.2210952 188.193312 76.2210952 189.338539 76.2210952 190.147552 75.3777619 190.147552 74.0525238 190.147552 72.6408571 189.183565 72.0646667 188.027832 71.5172857 185.934379 70.5246667 183.404899 69.3434762 183.404899 65.2446667 183.404899 62.1096667 184.946752 59.0951429 188.311512 59.0951429 192.128059 59.0951429 192.931819 62.4449048 193.254899 63.7727619L190.444365 65.1896667zM199.437809 62.6575714L199.437809 68.6237619 200.493729 68.6237619C201.670476 68.6237619 202.658103 68.296381 202.658103 65.6092381 202.658103 62.6575714 201.237076 62.6575714 200.493729 62.6575714L199.437809 62.6575714zM200.493729 59.4020952C202.111756 59.4020952 203.787569 59.4020952 204.938049 60.9420952 205.993969 62.3851905 206.225116 64.3154286 206.225116 65.7009048 206.225116 67.691381 205.812729 69.7106667 204.612343 70.9154286 203.467116 72.094 201.573289 72.094 200.638196 72.094L199.437809 72.094 199.437809 79.5137619 196.075676 79.5137619 196.075676 59.4020952 200.493729 59.4020952z" mask="url(#pg-13-copy-4-d)"/>
    <polygon fill="#FFF" points="217.611 59.402 217.611 62.869 211.649 62.869 211.649 67.508 216.274 67.508 216.274 70.978 211.649 70.978 211.649 75.923 217.611 75.923 217.611 79.513 208.292 79.513 208.292 59.402" mask="url(#pg-13-copy-4-d)"/>
    <path fill="#FFF" d="M230.306133,72.4533333 C230.053973,76.5259524 228.304613,79.8102381 224.947733,79.8102381 C220.27752,79.8102381 219.171693,74.0509524 219.171693,69.465 C219.171693,65.8219048 219.857253,59.0935714 224.992387,59.0935714 C227.316987,59.0935714 228.46484,60.4869048 229.15828,61.8121429 C230.053973,63.5590476 230.16692,65.667381 230.23784,66.877381 L227.1804,67.1733333 C227.080587,65.5783333 226.946627,62.6842857 225.0134,62.6842857 C223.10644,62.6842857 222.71244,65.7302381 222.71244,69.797619 C222.71244,73.1735714 223.01188,76.2195238 225.0134,76.2195238 C226.83368,76.2195238 227.080587,73.2704762 227.198787,72.1809524 L230.306133,72.4533333 Z" mask="url(#pg-13-copy-4-d)"/>
    <polygon fill="#FFF" points="232.717 79.512 236.077 79.512 236.077 59.4 232.717 59.4" mask="url(#pg-13-copy-4-d)"/>
    <polygon fill="#FFF" points="248.518 59.402 248.518 62.869 242.79 62.869 242.79 68.113 247.208 68.113 247.208 71.58 242.79 71.58 242.79 79.513 239.43 79.513 239.43 59.402" mask="url(#pg-13-copy-4-d)"/>
    <polygon fill="#FFF" points="250.08 79.512 253.442 79.512 253.442 59.4 250.08 59.4" mask="url(#pg-13-copy-4-d)"/>
    <path fill="#FFF" d="M267.382059 72.4533333C267.124645 76.5259524 265.377912 79.8102381 262.018405 79.8102381 257.348192 79.8102381 256.244992 74.0509524 256.244992 69.465 256.244992 65.8219048 256.930552 59.0935714 262.068312 59.0935714 264.390285 59.0935714 265.540765 60.4869048 266.226325 61.8121429 267.124645 63.5590476 267.242845 65.667381 267.311139 66.877381L264.248445 67.1733333C264.159139 65.5783333 264.019925 62.6842857 262.086699 62.6842857 260.179739 62.6842857 259.785739 65.7302381 259.785739 69.797619 259.785739 73.1735714 260.085179 76.2195238 262.086699 76.2195238 263.906979 76.2195238 264.159139 73.2704762 264.274712 72.1809524L267.382059 72.4533333zM286.697515 72.4533333C286.445355 76.5259524 284.690741 79.8102381 281.336488 79.8102381 276.663648 79.8102381 275.557821 74.0509524 275.557821 69.465 275.557821 65.8219048 276.248635 59.0935714 281.383768 59.0935714 283.700488 59.0935714 284.858848 60.4869048 285.549661 61.8121429 286.445355 63.5590476 286.558301 65.667381 286.631848 66.877381L283.571781 67.1733333C283.479848 65.5783333 283.338008 62.6842857 281.404781 62.6842857 279.495195 62.6842857 279.101195 65.7302381 279.101195 69.797619 279.101195 73.1735714 279.400635 76.2195238 281.404781 76.2195238 283.222435 76.2195238 283.479848 73.2704762 283.592795 72.1809524L286.697515 72.4533333zM292.099517 69.4660476C292.099517 73.779619 292.417344 76.2205714 294.119424 76.2205714 295.850397 76.2205714 296.147211 73.724619 296.147211 69.4660476 296.147211 65.2467619 295.871411 62.6827143 294.119424 62.6827143 292.417344 62.6827143 292.099517 65.0948571 292.099517 69.4660476M299.693211 69.4660476C299.693211 73.1484286 299.186264 79.8086667 294.119424 79.8086667 289.199677 79.8086667 288.556144 73.5098571 288.556144 69.4660476 288.556144 65.6081905 289.128757 59.094619 294.119424 59.094619 299.002397 59.094619 299.693211 65.2808095 299.693211 69.4660476" mask="url(#pg-13-copy-4-d)"/>
    <polygon fill="#FFF" points="306.103 59.402 310.04 71.881 310.04 59.402 312.661 59.402 312.661 79.513 309.649 79.513 304.976 64.949 304.976 79.513 302.349 79.513 302.349 59.402" mask="url(#pg-13-copy-4-d)"/>
    <polygon fill="#FFF" points="323.701 59.402 323.701 63.165 320.573 63.165 320.573 79.513 317.208 79.513 317.208 63.165 314.151 63.165 314.151 59.402" mask="url(#pg-13-copy-4-d)"/>
    <polygon fill="#FFF" points="334.673 59.402 334.673 62.869 328.71 62.869 328.71 67.508 333.338 67.508 333.338 70.978 328.71 70.978 328.71 75.923 334.673 75.923 334.673 79.513 325.35 79.513 325.35 59.402" mask="url(#pg-13-copy-4-d)"/>
    <polygon fill="#FFF" points="340.39 59.402 344.327 71.881 344.327 59.402 346.951 59.402 346.951 79.513 343.941 79.513 339.266 64.949 339.266 79.513 336.644 79.513 336.644 59.402" mask="url(#pg-13-copy-4-d)"/>
    <polygon fill="#FFF" points="357.994 59.402 357.994 63.165 354.866 63.165 354.866 79.513 351.504 79.513 351.504 63.165 348.444 63.165 348.444 59.402" mask="url(#pg-13-copy-4-d)"/>
    <polygon fill="#FFF" points="140.514 109.686 143.876 109.686 143.876 89.574 140.514 89.574" mask="url(#pg-13-copy-4-d)"/>
    <polygon fill="#FFF" points="150.844 89.577 154.777 102.057 154.777 89.577 157.401 89.577 157.401 109.689 154.385 109.689 149.718 95.124 149.718 109.689 147.094 109.689 147.094 89.577" mask="url(#pg-13-copy-4-d)"/>
    <polygon fill="#FFF" points="169.703 89.577 169.703 93.047 163.977 93.047 163.977 98.288 168.395 98.288 168.395 101.755 163.977 101.755 163.977 109.689 160.615 109.689 160.615 89.577" mask="url(#pg-13-copy-4-d)"/>
    <path fill="#FFF" d="M174.255956 99.6414048C174.255956 103.954976 174.576409 106.398548 176.275863 106.398548 178.006836 106.398548 178.306276 103.899976 178.306276 99.6414048 178.306276 95.4247381 178.025223 92.8633095 176.275863 92.8633095 174.576409 92.8633095 174.255956 95.2754524 174.255956 99.6414048M181.849649 99.6414048C181.849649 103.323786 181.342703 109.986643 176.275863 109.986643 171.353489 109.986643 170.712583 103.687833 170.712583 99.6414048 170.712583 95.7809286 171.285196 89.2725952 176.275863 89.2725952 181.156209 89.2725952 181.849649 95.4561667 181.849649 99.6414048M188.010233 92.8329286L188.010233 98.4979286 189.50218 98.4979286C190.957353 98.4979286 191.48006 97.2669762 191.48006 95.609119 191.48006 92.8329286 189.93558 92.8329286 189.362967 92.8329286L188.010233 92.8329286zM189.4549 89.5774524C190.996753 89.5774524 192.49658 89.5774524 193.668073 91.2929286 194.47446 92.474119 194.7739 94.069119 194.7739 95.664119 194.7739 99.2260238 193.366007 100.31031 192.6069 100.91531L195.43582 109.689119 191.761113 109.689119 189.709687 101.756024 188.010233 101.756024 188.010233 109.689119 184.6481 109.689119 184.6481 89.5774524 189.4549 89.5774524z" mask="url(#pg-13-copy-4-d)"/>
    <polygon fill="#FFF" points="202.59 89.577 204.752 101.996 207.19 89.577 211.975 89.577 211.975 109.689 208.826 109.689 208.826 92.832 205.698 109.689 203.231 109.689 200.381 92.832 200.381 109.689 197.642 109.689 197.642 89.577" mask="url(#pg-13-copy-4-d)"/>
    <path fill="#FFF" d="M220.964131,102.091786 L219.427531,93.8915476 L217.927704,102.091786 L220.964131,102.091786 Z M221.426424,89.5779762 L225.802451,109.687024 L222.369397,109.687024 L221.589277,105.554167 L217.286797,105.554167 L216.522437,109.687024 L213.417717,109.687024 L218.022264,89.5779762 L221.426424,89.5779762 Z" mask="url(#pg-13-copy-4-d)"/>
    <polygon fill="#FFF" points="235.362 89.577 235.362 93.343 232.231 93.343 232.231 109.689 228.877 109.689 228.877 93.343 225.814 93.343 225.814 89.577" mask="url(#pg-13-copy-4-d)"/>
    <polygon fill="#FFF" points="237.015 109.686 240.377 109.686 240.377 89.574 237.015 89.574" mask="url(#pg-13-copy-4-d)"/>
    <path fill="#FFF" d="M246.7228,99.6414048 C246.7228,103.954976 247.043253,106.398548 248.74796,106.398548 C250.478933,106.398548 250.770493,103.899976 250.770493,99.6414048 C250.770493,95.4247381 250.49732,92.8633095 248.74796,92.8633095 C247.043253,92.8633095 246.7228,95.2754524 246.7228,99.6414048 M254.316493,99.6414048 C254.316493,103.323786 253.80692,109.986643 248.74796,109.986643 C243.82296,109.986643 243.179427,103.687833 243.179427,99.6414048 C243.179427,95.7809286 243.757293,89.2725952 248.74796,89.2725952 C253.62568,89.2725952 254.316493,95.4561667 254.316493,99.6414048" mask="url(#pg-13-copy-4-d)"/>
    <polygon fill="#FFF" points="260.726 89.577 264.663 102.057 264.663 89.577 267.282 89.577 267.282 109.689 264.277 109.689 259.599 95.124 259.599 109.689 256.978 109.689 256.978 89.577" mask="url(#pg-13-copy-4-d)"/>
    <g transform="translate(378.24 138.81)">
      <mask id="pg-13-copy-4-f" fill="#fff">
        <use xlink:href="#pg-13-copy-4-e"/>
      </mask>
      <path fill="#FFF" d="M6.651508,7.95682381 L7.71793467,7.95682381 C8.93145467,7.95682381 9.96373467,7.51944286 9.96373467,6.38015714 C9.96373467,5.57349048 9.37536133,4.7720619 7.71793467,4.7720619 C7.242508,4.7720619 6.911548,4.80610952 6.651508,4.84539524 L6.651508,7.95682381 Z M6.651508,13.0561095 L5.185828,13.0561095 L5.185828,3.85539524 C5.95281467,3.74277619 6.69353467,3.63015714 7.79148133,3.63015714 C9.19149467,3.63015714 10.1055747,3.92610952 10.6598013,4.3320619 C11.2087747,4.73277619 11.5082147,5.35610952 11.5082147,6.23610952 C11.5082147,7.44349048 10.6965747,8.17944286 9.70632133,8.47277619 L9.70632133,8.54872857 C10.512708,8.69015714 11.064308,9.42087143 11.2481747,10.7827762 C11.4714413,12.2127762 11.6894547,12.7601571 11.8391747,13.0561095 L10.292068,13.0561095 C10.071428,12.7601571 9.850788,11.9168238 9.66429467,10.7094429 C9.441028,9.53610952 8.85528133,9.09872857 7.68116133,9.09872857 L6.651508,9.09872857 L6.651508,13.0561095 Z M8.19336133,1.28349048 C4.55805467,1.28349048 1.57941467,4.40539524 1.57941467,8.25277619 C1.57941467,12.1734905 4.55805467,15.2561095 8.23013467,15.2561095 C11.9127213,15.2901571 14.8519613,12.1734905 14.8519613,8.28682381 C14.8519613,4.40539524 11.9127213,1.28349048 8.23013467,1.28349048 L8.19336133,1.28349048 Z M8.23013467,0.000157142857 C12.7558813,0.000157142857 16.3570413,3.66944286 16.3570413,8.25277619 C16.3570413,12.9068238 12.7558813,16.5368238 8.19336133,16.5368238 C3.67549467,16.5368238 0.000788,12.9068238 0.000788,8.25277619 C0.000788,3.66944286 3.67549467,0.000157142857 8.19336133,0.000157142857 L8.23013467,0.000157142857 Z" mask="url(#pg-13-copy-4-f)"/>
    </g>
  </g>
</svg>
