<svg xmlns="http://www.w3.org/2000/svg" width="84" height="69" viewBox="0 0 84 69"><g fill="none" fill-rule="evenodd"><g fill="#000" transform="translate(10 3)"><path d="M0,0 L0,63 L64,63 L64,0 L0,0 Z M19.6641399,2.74210568 C21.5620039,2.74210568 21.9634777,3.8100927 22.1206411,4.23367071 L20.7287057,4.68241175 C20.6375762,4.45088237 20.4191373,3.88545716 19.65444,3.88545716 C19.0944557,3.88545716 18.8584421,4.21251615 18.8584421,4.47166703 C18.8584421,4.91365555 19.3589388,5.06759578 20.1685351,5.32675844 C21.0243589,5.60956949 22.2697776,6.00191501 22.2697776,7.30158303 C22.2697776,8.39869071 21.3542893,9.35331773 19.5647166,9.35331773 C19.0153013,9.35331773 18.1955395,9.26647108 17.5774489,8.68111419 C17.1561376,8.26279793 17.0173591,7.87125237 16.927555,7.59105451 L18.3867845,7.24647457 C18.4792269,7.53455915 18.6969612,8.20512154 19.6095783,8.20512154 C20.1801285,8.20512154 20.5807828,7.93691438 20.5807828,7.51596136 C20.5807828,7.06213717 20.1001019,6.8778965 19.5295548,6.70689484 C18.4914721,6.39117728 17.2367384,6.01229556 17.2367384,4.70602974 C17.2367384,3.7036573 18.000039,2.74210568 19.6641399,2.74210568 L19.6641399,2.74210568 Z M39.8908745,2.74210568 C41.0438631,2.74210568 41.6156052,3.18391374 41.9563498,3.60749206 C42.400109,4.16393851 42.4592521,4.8350432 42.492269,5.22441368 L40.9748401,5.32191342 C40.9286313,4.80888549 40.8600242,3.88545716 39.9011828,3.88545716 C38.9529103,3.88545716 38.7614419,4.85896878 38.7614419,6.15338684 C38.7614419,7.23601 38.906686,8.20512154 39.9011828,8.20512154 C40.8032277,8.20512154 40.9289634,7.26229143 40.9857536,6.91763987 L42.5280392,7.00181658 C42.3999259,8.30412136 41.533589,9.35331773 39.864202,9.35331773 C37.5516351,9.35331773 37.0021205,7.51575517 37.0021205,6.05164793 C37.0021205,4.88616086 37.3445413,2.74210568 39.8908745,2.74210568 L39.8908745,2.74210568 Z M5.70657911,2.83839432 L8.09336201,2.83839432 C8.85805628,2.83839432 9.59883756,2.83799124 10.1812667,3.38524096 C10.5827653,3.76015049 10.7317373,4.26952032 10.7317373,4.7799118 C10.7317373,5.91647666 10.0331576,6.25967899 9.65807685,6.45436439 L11.0621395,9.25884574 L9.23673763,9.25884574 L8.22127976,6.72385148 L7.37193089,6.72385148 L7.37193089,9.25884574 L5.70657911,9.25884574 L5.70657911,2.83839432 Z M11.9763551,2.83839432 L16.5959391,2.83839432 L16.5959391,3.94298813 L13.64171,3.94298813 L13.64171,5.42425819 L15.9345264,5.42425819 L15.9345264,6.53309084 L13.64171,6.53309084 L13.64171,8.11064955 L16.5959391,8.11064955 L16.5959391,9.25884574 L11.9763551,9.25884574 L11.9763551,2.83839432 Z M22.4837839,2.83839432 L27.2209774,2.83839432 L27.2209774,4.03927677 L25.6720214,4.03927677 L25.6720214,9.25884574 L24.0012129,9.25884574 L24.0012129,4.03927677 L22.4837839,4.03927677 L22.4837839,2.83839432 Z M27.8587441,2.83839432 L30.2467407,2.83839432 C31.0101157,2.83839432 31.7522131,2.83799124 32.3346484,3.38524096 C32.7335056,3.76015049 32.8814781,4.26952032 32.8814781,4.7799118 C32.8814781,5.91647666 32.1855461,6.25967899 31.8078207,6.45436439 L33.2118834,9.25884574 L31.3876921,9.25884574 L30.3710206,6.72385148 L29.5271285,6.72385148 L29.5271285,9.25884574 L27.8587441,9.25884574 L27.8587441,2.83839432 Z M34.1242801,2.83839432 L35.7938781,2.83839432 L35.7938781,9.25884574 L34.1242801,9.25884574 L34.1242801,2.83839432 Z M42.6850567,2.83839432 L47.4216418,2.83839432 L47.4216418,4.03927677 L45.8720836,4.03927677 L45.8720836,9.25884574 L44.2043045,9.25884574 L44.2043045,4.03927677 L42.6850567,4.03927677 L42.6850567,2.83839432 Z M48.0618358,2.83839432 L52.6844493,2.83839432 L52.6844493,3.94298813 L49.7290096,3.94298813 L49.7290096,5.42425819 L52.0212176,5.42425819 L52.0212176,6.53309084 L49.7290096,6.53309084 L49.7290096,8.11064955 L52.6844493,8.11064955 L52.6844493,9.25884574 L48.0618358,9.25884574 L48.0618358,2.83839432 Z M53.5519843,2.83839432 L55.3428327,2.83839432 C56.5063903,2.83839432 58.8735996,2.84532729 58.8735996,6.00198974 C58.8735996,7.20563359 58.4480545,8.28574464 57.6265545,8.81192135 C56.9503575,9.25918309 56.1316169,9.25884574 55.5465277,9.25884574 L53.5519843,9.25884574 L53.5519843,2.83839432 Z M7.37193089,3.87455664 L7.37193089,5.6846611 L8.11579131,5.6846611 C8.83690272,5.6846611 9.0985147,5.29258843 9.0985147,4.76113851 C9.0985147,3.87452501 8.33245468,3.87455664 8.04850032,3.87455664 L7.37193089,3.87455664 Z M29.5271285,3.87455664 L29.5271285,5.6846611 L30.2679594,5.6846611 C30.9877485,5.6846611 31.2506828,5.29258843 31.2506828,4.76113851 C31.2506828,3.87452501 30.4847283,3.87455664 30.1994548,3.87455664 L29.5271285,3.87455664 Z M55.2161255,3.94298813 L55.2161255,8.15001277 L55.5028797,8.15001277 C56.1632495,8.15001277 57.1009405,8.08132549 57.1009405,5.98321645 C57.1009405,4.01001875 56.1751315,3.94298813 55.5028797,3.94298813 L55.2161255,3.94298813 Z M2,12 L62,12 L62,61 L2,61 L2,12 Z"/><path d="M32.5427982,21.9532955 C39.1435437,22.0398858 39.357536,23.5131161 39.2512303,28.5006007 C39.1204993,34.6427945 38.0416259,34.1680828 32.29732,34.3049517 C31.6066798,34.3219417 28.2979406,34.3049517 27.0804139,34.3049517 C27.1226976,32.4005742 27.1226507,24.3402 27.1226507,24.3402 C27.1226507,23.0096269 27.8766366,22.0428619 29.3054465,21.9955009 C30.5267724,21.9575371 31.5998501,21.9408986 32.5428146,21.9533189 L32.5427982,21.9532955 Z M10.9063309,18.0039104 C6.34522656,17.8604446 4.97484707,21.7105028 11.2117073,22.0053082 C14.421914,22.235622 16.0956418,23.9259375 16.3372997,28.6046379 L16.3372997,45.271784 C16.1444983,50.0912904 16.0581727,51.177864 10.2808535,51.6385033 C7.1274289,51.6779904 6.71324055,54.9749837 11.0300565,55 C11.620332,54.9828928 31.9132237,54.9716443 31.9330291,54.9716443 C36.5852572,55.15721 36.1500724,51.7919639 33.0877621,51.632715 C29.0271342,51.3260752 27.116678,51.9690346 26.971419,46.844189 C26.9489819,46.2953892 26.8545793,43.2438601 26.8545793,42.2646866 C26.8664544,37.883428 30.1452762,38.3132041 31.7906574,40.6992651 C32.7282342,41.9429784 33.4491106,42.9487735 33.4491106,42.9487735 C34.7273817,44.6373079 40.8111429,54.7426428 43.5274707,54.9716443 L57.109282,54.9893373 C59.3409824,54.9498503 59.8264996,52.0125758 57.3135376,51.3795409 C56.2372924,51.0255166 52.8307944,50.7757522 48.3555304,45.1639621 C45.7474894,41.9684751 43.3706544,39.0296774 42.2666921,37.5017041 C48.4982654,37.5017041 50.65582,35.6553855 50.7337288,28.6077313 C50.8010168,16.3101852 45.8881753,18.4006088 32.4161384,18.103167 C32.4161384,18.103167 11.4094591,18.0342697 10.9063356,18.0040393 L10.9063309,18.0039104 Z"/></g><rect width="84" height="69"/></g></svg>