<?xml version="1.0" encoding="utf-8"?>
<!DOCTYPE svg PUBLIC "-//W3C//DTD SVG 1.1//EN" "http://www.w3.org/Graphics/SVG/1.1/DTD/svg11.dtd">
<svg version="1.1" id="VARG" xmlns="http://www.w3.org/2000/svg" xmlns:xlink="http://www.w3.org/1999/xlink" x="0px" y="0px"
 width="94.8px" height="37.44px" viewBox="0 0 94.8 37.44" enable-background="new 0 0 94.8 37.44" xml:space="preserve">
<rect width="94.8" height="37.44"/>
<rect x="1.92" y="1.92" fill="#FFFFFF" width="90.72" height="33.6"/>
<path d="M79.92,18.72h2.16c1.14-0.065,3.015,0.91,3.12,2.64c0.045,1.87-1.605,4.12-4.08,4.08c-2.475,0.19-2.85-0.635-3.12-0.96
c-0.33-0.425-0.255-0.725-1.2-0.72h-0.48c-0.375-0.005-0.75,0.07-0.72,0.72v2.88c1.32,0.82,3.795,1.195,5.52,1.2
c6.037-0.38,9-4.168,8.88-6.72c0.12-2.622-2.018-4.198-3.6-4.8c2.07-1.122,2.782-3.035,2.88-4.32c-0.098-2.765-4.26-3.927-7.2-3.84
c-2.91-0.087-4.71,0.963-5.28,1.2c-0.33,0.288-0.518,0.513-0.48,0.96v1.44c-0.113,0.362-0.038,0.7,0.48,0.72h0.96
c0.135-0.02,0.547-0.132,0.72-0.24c0.39-0.792,1.065-1.805,2.88-1.92c1.785,0.115,2.835,1.24,2.88,2.4
c0.105,0.94-0.345,2.665-2.4,2.64h-1.92c-0.188,0.044-0.375,0.175-0.48,0.48v1.68C79.545,18.505,79.77,18.693,79.92,18.72z"/>
<path d="M42.96,23.28c-0.128,0.812,0.247,3.25-4.08,3.36c-4.635-0.11-4.298-3.373-4.32-4.56c-0.052-1.137-0.052-3.575,0-6.48
c0.098-2.87,0.247-4.97,4.8-5.04c4.597,0.07,4.185,3.37,4.32,4.32c0.127,0.288,0.277,0.625,0.96,0.72h2.88
c0.562-0.095,0.825-0.545,0.72-0.96V10.8c0.105-0.545-0.195-1.145-0.96-1.44c-1.56-0.305-4.71-0.492-7.44-0.48
c-6.495,0.063-7.77,0.85-8.64,1.68c-1.08,0.82-2.58,1.12-2.64,7.68c0.06,6.64,0.36,7.24,1.44,8.4c1.17,1.24,5.97,1.84,8.64,1.68
c1.899,0.085,5.392-0.102,8.88-1.2c0.45-0.177,0.75-0.44,0.72-0.96v-2.88c0.03-1.699,0.93-2.712,2.16-2.64
c0.457-0.072,0.757-0.373,0.72-0.72v-0.48c0.037-0.316-0.113-0.71-0.72-0.72H40.32c-0.412,0.01-0.562,0.404-0.48,0.72v0.48
c-0.082,0.347,0.217,0.648,0.72,0.72C42.158,20.605,42.87,21.581,42.96,23.28z"/>
<rect x="53.28" y="16.56" width="6.96" height="2.4"/>
<path d="M18.24,27.84c0.236,0.115,0.443-0.054,0.48-0.24v-0.72c-0.037-0.388-0.319-0.519-0.48-0.48
c-3.232-0.095-4.207-1.109-4.32-2.88v-2.88h6.24c2.61-0.11,6.66-0.26,6.72-6.24c-0.06-4.482-2.76-5.082-6-5.04H5.52
C5.164,9.318,4.808,9.599,4.8,9.84v0.72c0.008,0.37,0.401,0.501,0.72,0.48c2.175,0.04,3.225,1.091,3.12,2.88v9.6
c0.105,1.771-1.057,2.822-3.36,2.88c-0.191-0.039-0.472,0.092-0.48,0.48v0.72c0.008,0.186,0.214,0.355,0.48,0.24H18.24z"/>
<path fill="#FFFFFF" d="M13.92,11.28h4.32c2.318-0.012,2.693,1.675,2.64,3.36c0.053,1.765-0.21,3.94-2.64,3.84h-4.32V11.28z"/>
<path d="M71.04,23.76c0.105,1.681,1.015,2.458,2.64,2.64c0.184,0.111,0.465,0.242,0.48,0.72v0.48
c-0.015,0.186-0.221,0.355-0.48,0.24h-9.6c-0.379,0.115-0.585-0.054-0.48-0.24v-0.48c-0.105-0.478,0.176-0.609,0.48-0.72
c1.505-0.182,2.415-0.959,2.4-2.64V13.2c-0.92,0.217-2.372,0.528-3.36,0.72c-0.169,0.047-0.375-0.046-0.48-0.24v-1.44
c0.105-0.11,0.292-0.185,0.48-0.24c1.416-0.331,2.886-1.178,4.56-2.64c0.09-0.117,0.352-0.23,0.72-0.24h2.16
c0.435,0.01,0.585,0.216,0.48,0.48V23.76z"/>
</svg>
