<?xml version="1.0" encoding="utf-8"?>
<!-- Generator: Adobe Illustrator 13.0.2, SVG Export Plug-In  -->
<!DOCTYPE svg PUBLIC "-//W3C//DTD SVG 1.1 Tiny//EN" "http://www.w3.org/Graphics/SVG/1.1/DTD/svg11-tiny.dtd" [
	<!ENTITY ns_flows "http://ns.adobe.com/Flows/1.0/">
]>
<svg version="1.1" baseProfile="tiny"
	 xmlns="http://www.w3.org/2000/svg" xmlns:xlink="http://www.w3.org/1999/xlink" xmlns:a="http://ns.adobe.com/AdobeSVGViewerExtensions/3.0/"
	 x="0px" y="0px" width="107px" height="93px" viewBox="-0.4838867 -0.2192383 107 93" xml:space="preserve">
<defs>
</defs>
<path fill="#010101" d="M50.8544922,79.5141602c3.605957,0,6.6577148-0.1855469,10.6323242-0.6494141
	c7.03125-1.015625,14.7949219-3.2324219,23.3935547-3.2324219l0.1806641-15.9980469
	c0-1.6601563-0.6445313-5.2695313,8.1445313-5.2695313v-6.9355469c-5.2734375,0.4663086-11.3769531,0.2807617-17.4804688,0.2807617
	c-6.5625,0-12.8564453,0.1855469-23.0200195-0.0952148v6.5644531c14.1430664-0.0898438,12.9418945,0.8359375,13.034668,5.4550781
	c0.1855469,7.765625,0.2783203,8.5078125-0.5517578,9.25c-2.2265625,2.3095703-8.4179688,3.2324219-11.7480469,3.2324219
	c-16.9165039,0-20.15625-13.4033203-20.15625-24.2211914c0-12.8564453,1.7602539-27.0947266,21.359375-27.0947266
	c14.0556641,0,15.2568359,2.6831055,17.5664063,13.4082031l11.09375,0.3710938l-0.4589844-18.3105469
	c-11.09375-1.4794922-18.3105469-2.7758789-28.2011719-2.7758789c-30.6025391,0-42.3481445,10.0805664-42.3481445,34.1210938
	C12.2949219,68.4204102,24.128418,79.5141602,50.8544922,79.5141602z"/>
<path fill="#010101" d="M106.3305664,0H0v91.9995117h106.3305664V0z M101.7016602,87.2827148H4.6191406V4.6191406h97.0825195
	V87.2827148z"/>
</svg>
