<svg xmlns="http://www.w3.org/2000/svg" xmlns:xlink="http://www.w3.org/1999/xlink" width="395" height="112" viewBox="0 0 395 112">
  <defs>
    <polygon id="pg-13-copy-a" points="0 113.698 369.554 113.698 369.554 2.619 0 2.619"/>
    <polygon id="pg-13-copy-c" points="378.241 94.286 394.596 94.286 394.596 110.822 378.241 110.822"/>
  </defs>
  <g fill="none" fill-rule="evenodd" transform="translate(0 -2)">
    <path fill="#FFF" d="M0,113.698095 L369.553613,113.698095 L369.553613,2.61904762 L0,2.61904762 L0,113.698095 Z M106.776627,84.3516667 L366.359587,84.3516667 L366.359587,5.91904762 L106.776627,5.91904762 L106.776627,84.3516667 Z M2.98652,84.4066667 L103.611493,84.4066667 L103.611493,5.92952381 L2.98652,5.92952381 L2.98652,84.4066667 Z M327.7686,110.52119 L366.362213,110.52119 L366.362213,87.2797619 L327.7686,87.2797619 L327.7686,110.52119 Z M2.98652,110.52119 L324.80572,110.52119 L324.80572,87.2797619 L2.98652,87.2797619 L2.98652,110.52119 Z"/>
    <path fill="#FFF" d="M356.022603,104.773429 C357.942696,103.555571 359.190363,101.957952 359.421509,100.187476 L362.497336,100.187476 C362.061309,102.033905 359.605376,103.699619 356.022603,104.773429 M354.436096,100.187476 L358.281536,100.187476 C357.900669,102.505333 355.321283,104.459143 351.717496,105.399381 C353.254096,104.139619 354.270616,102.282714 354.436096,100.187476 M335.534603,100.187476 L339.385296,100.187476 C339.545523,102.282714 340.562043,104.139619 342.093389,105.399381 C338.494856,104.459143 335.920723,102.505333 335.534603,100.187476 M331.318803,100.187476 L334.397256,100.187476 C334.628403,101.957952 335.876069,103.555571 337.796163,104.773429 C334.208136,103.699619 331.757456,102.033905 331.318803,100.187476 M337.796163,94.4177143 C335.855056,95.6460476 334.596883,97.2672381 334.389376,99.0665238 L331.310923,99.0665238 C331.707549,97.1965238 334.168736,95.499381 337.796163,94.4177143 M339.382669,99.0665238 L335.529349,99.0665238 C335.873443,96.7198571 338.465963,94.734619 342.093389,93.7865238 C340.546283,95.064619 339.527136,96.9450952 339.382669,99.0665238 M346.913323,106.004381 C343.359443,106.004381 340.477989,103.136524 340.477989,99.5929524 C340.477989,96.052 343.359443,93.1841429 346.913323,93.1841429 C350.461949,93.1841429 353.343403,96.052 353.343403,99.5929524 C353.343403,103.136524 350.461949,106.004381 346.913323,106.004381 M358.286789,99.0665238 L354.436096,99.0665238 C354.286376,96.9450952 353.272483,95.064619 351.722749,93.7865238 C355.347549,94.734619 357.942696,96.7198571 358.286789,99.0665238 M362.507843,99.0665238 L359.429389,99.0665238 C359.221883,97.2672381 357.961083,95.6460476 356.022603,94.4177143 C359.647403,95.499381 362.111216,97.1965238 362.507843,99.0665238 M346.913323,92.0605714 C337.638563,92.0605714 330.121043,95.4339048 330.121043,99.5929524 C330.121043,103.754619 337.638563,107.130571 346.913323,107.130571 C356.180203,107.130571 363.697723,103.754619 363.697723,99.5929524 C363.697723,95.4339048 356.180203,92.0605714 346.913323,92.0605714"/>
    <path fill="#FFF" d="M345.995565 99.5955714C345.995565 99.1084286 346.389565 98.7103333 346.883379 98.7103333 347.366685 98.7103333 347.765939 99.1084286 347.765939 99.5955714 347.765939 100.082714 347.366685 100.47819 346.883379 100.47819 346.389565 100.47819 345.995565 100.082714 345.995565 99.5955714M346.912535 95.7243571L348.094535 94.5510238C347.366948 93.8255476 346.447615 93.8255476 345.720028 94.5510238L346.912535 95.7243571zM347.850255 97.1030238C347.850255 96.1994524 348.590975 95.4635 349.497175 95.4635 350.411255 95.4635 351.144095 96.1994524 351.144095 97.1030238 351.144095 98.0092143 350.411255 98.7451667 349.497175 98.7451667 348.590975 98.7451667 347.850255 98.0092143 347.850255 97.1030238M342.654708 97.1030238C342.654708 96.1994524 343.392801 95.4635 344.304255 95.4635 345.207828 95.4635 345.943295 96.1994524 345.943295 97.1030238 345.943295 98.0092143 345.207828 98.7451667 344.304255 98.7451667 343.392801 98.7451667 342.654708 98.0092143 342.654708 97.1030238M342.749531 102.177429C342.749531 101.273857 343.487624 100.537905 344.393824 100.537905 345.300024 100.537905 346.040744 101.273857 346.040744 102.177429 346.040744 103.081 345.300024 103.816952 344.393824 103.816952 343.487624 103.816952 342.749531 103.081 342.749531 102.177429M347.714193 102.150452C347.714193 101.239024 348.452287 100.50569 349.358487 100.50569 350.272567 100.50569 351.01066 101.239024 351.01066 102.150452 351.01066 103.051405 350.272567 103.787357 349.358487 103.787357 348.452287 103.787357 347.714193 103.051405 347.714193 102.150452M346.883116 103.423048L345.690609 104.599C346.418196 105.327095 347.337529 105.327095 348.065116 104.599L346.883116 103.423048zM350.67576 99.6018571L351.852507 100.785667C352.587973 100.057571 352.587973 99.1461429 351.852507 98.4206667L350.67576 99.6018571zM343.0164 99.6018571L341.84228 100.785667C341.112067 100.057571 341.112067 99.1461429 341.84228 98.4206667L343.0164 99.6018571zM94.3115173 99.7566429L92.9325173 94.8747381 91.5508907 99.7566429 94.3115173 99.7566429zM99.0710373 105.159738L95.803464 105.159738 95.007584 102.307595 90.8101707 102.307595 89.995904 105.159738 87.340344 105.159738 91.493104 91.2709286 95.007584 91.2709286 99.0710373 105.159738z"/>
    <mask id="pg-13-copy-b" fill="#fff">
      <use xlink:href="#pg-13-copy-a"/>
    </mask>
    <polygon fill="#FFF" points="100.425 105.163 103.202 105.163 103.202 91.269 100.425 91.269" mask="url(#pg-13-copy-b)"/>
    <polygon fill="#FFF" points="105.413 105.163 108.187 105.163 108.187 91.269 105.413 91.269" mask="url(#pg-13-copy-b)"/>
    <path fill="#FFF" d="M122.178875 99.7566429L120.799875 94.8747381 119.415621 99.7566429 122.178875 99.7566429zM126.941021 105.159738L123.673448 105.159738 122.880195 102.307595 118.685408 102.307595 117.873768 105.159738 115.205075 105.159738 119.368341 91.2709286 122.880195 91.2709286 126.941021 105.159738zM130.842409 97.8510238C130.842409 98.8645952 131.449169 99.4093571 132.376383 99.4093571 133.285209 99.4093571 134.039063 98.8855476 134.039063 97.8353095 134.039063 96.7981667 133.245809 96.3110238 132.376383 96.3110238 131.491196 96.3110238 130.842409 96.8793571 130.842409 97.8510238M134.186156 105.265548C133.524236 105.20531 131.698703 105.20531 130.432649 105.103167 130.091183 105.244595 129.825889 105.527452 129.825889 105.930786 129.825889 106.417929 130.130583 106.640548 130.524583 106.761024 131.128716 106.944357 131.995516 106.96269 132.602276 106.96269 133.285209 106.96269 135.213183 107.022929 135.213183 105.97269 135.213183 105.42531 134.588036 105.304833 134.186156 105.265548M132.415783 94.674119C133.285209 94.674119 134.136249 94.8103095 134.966276 95.1193571 135.155396 93.5584048 135.701743 93.1131667 137.138529 93.1131667 137.403823 93.1131667 137.650729 93.1315 137.916023 93.1969762L137.916023 95.1193571C137.669116 95.0774524 137.424836 95.0145952 137.177929 95.0145952 136.649969 95.0145952 136.137769 95.279119 136.058969 95.9076905 136.589556 96.538881 136.820703 97.0417381 136.820703 97.9112619 136.820703 100.341738 134.383156 101.0515 132.544489 101.0515 132.016529 101.0515 131.438663 100.991262 130.936969 100.910071 130.674303 101.072452 130.472049 101.313405 130.472049 101.6565 130.472049 102.086024 130.655916 102.324357 131.013143 102.450071 131.504329 102.5915 132.533983 102.633405 133.072449 102.651738L134.285969 102.714595C135.967036 102.8115 137.860863 103.199119 137.860863 105.446262 137.860863 106.821262 136.928396 107.756262 135.830449 108.240786 134.795543 108.706976 133.432303 108.785548 132.302836 108.785548 130.763609 108.785548 127.351569 108.72531 127.351569 106.396976 127.351569 105.344119 128.142196 104.739119 129.011623 104.534833 128.273529 104.147214 127.784969 103.605071 127.784969 102.691024 127.784969 101.418167 128.743703 100.828881 129.712943 100.407214 128.672783 99.9776905 128.010863 99.1265 128.010863 97.8929286 128.010863 95.4022143 130.548223 94.674119 132.415783 94.674119M144.764531 98.7603571C144.709371 97.649881 144.370531 96.6179762 143.159637 96.6179762 141.927731 96.6179762 141.460184 97.5896429 141.360371 98.7603571L144.764531 98.7603571zM141.381384 100.522976L141.360371 101.028452C141.360371 102.24369 142.003904 103.23631 143.214797 103.23631 144.057957 103.23631 144.914251 102.568452 144.914251 101.617738L147.483131 101.816786C147.483131 102.324881 146.364171 105.362976 143.114984 105.362976 140.249291 105.362976 138.373851 103.215357 138.373851 100.161548 138.373851 97.1234524 140.054917 94.6746429 143.044064 94.6746429 144.383664 94.6746429 145.762664 95.3241667 146.561171 96.4922619 147.349171 97.6708333 147.561931 99.1270238 147.540917 100.522976L141.381384 100.522976zM154.560684 97.952119C154.316404 96.9804524 153.601951 96.5797381 152.690497 96.5797381 152.117884 96.5797381 151.253711 96.736881 151.253711 97.4885476 151.253711 99.4109286 157.019244 97.2240238 157.019244 101.859738 157.019244 102.933548 156.549071 103.8895 155.734804 104.515452 154.865377 105.162357 153.809457 105.364024 152.748284 105.364024 150.746764 105.364024 148.873951 104.638548 148.367004 102.325929L150.762524 101.961881C150.956897 103.014738 151.994431 103.342119 152.879617 103.342119 153.410204 103.342119 154.560684 103.137833 154.560684 102.370452 154.560684 101.679024 153.998577 101.558548 153.483751 101.49831 152.824457 101.417119 151.232697 101.11331 150.625937 100.89331 149.499097 100.463786 148.742617 99.4109286 148.742617 98.111881 148.742617 95.5845 150.799297 94.6730714 152.845471 94.6730714 154.731417 94.6730714 155.963324 95.4430714 156.625244 97.3654524L154.560684 97.952119zM170.520836 99.7566429L169.141836 94.8747381 167.762836 99.7566429 170.520836 99.7566429zM175.280356 105.159738L172.015409 105.159738 171.216903 102.307595 167.022116 102.307595 166.207849 105.159738 163.549663 105.159738 167.702423 91.2709286 171.216903 91.2709286 175.280356 105.159738zM182.073967 99.451C182.073967 98.463619 181.997793 96.758619 180.73174 96.758619 179.14786 96.758619 179.090073 98.9874286 179.090073 100.221 179.090073 101.336714 179.239793 103.21981 180.616167 103.21981 181.128367 103.21981 181.601167 102.853143 181.82706 102.389571 182.05558 101.923381 182.073967 101.373381 182.073967 100.870524L182.073967 99.451zM182.210553 105.163143L182.210553 103.562905 182.168527 103.562905C181.640567 104.657667 180.844687 105.36481 179.618033 105.36481 176.915193 105.36481 176.16134 102.531 176.16134 100.142429 176.16134 97.691 176.875793 94.6738571 179.67582 94.6738571 180.75538 94.6738571 181.469833 95.0169524 182.073967 95.9676667L182.073967 91.2690952 184.855607 91.2690952 184.855607 105.163143 182.210553 105.163143zM189.439665 94.8739524L189.439665 96.4558571 189.476439 96.4558571C189.962372 95.240619 190.894839 94.6722857 192.142505 94.6722857 193.403305 94.6722857 194.199185 95.240619 194.766545 96.4558571 195.260359 95.240619 196.376692 94.6722857 197.563945 94.6722857 198.417612 94.6722857 199.342199 94.9970476 199.904305 95.7251429 200.550465 96.5344286 200.416505 97.710381 200.416505 98.7449048L200.416505 105.161571 197.642745 105.161571 197.642745 99.7139524C197.642745 99.310619 197.676892 98.2970476 197.582332 97.9120476 197.429985 97.2651429 196.978199 97.0818095 196.392452 97.0818095 195.898639 97.0818095 195.391692 97.385619 195.184185 97.8727619 194.974052 98.3599048 194.995065 99.1665714 194.995065 99.7139524L194.995065 105.161571 192.213425 105.161571 192.213425 99.7139524C192.213425 98.6427619 192.405172 97.0608571 190.971012 97.0608571 189.510585 97.0608571 189.570999 98.5982381 189.570999 99.7139524L189.570999 105.161571 186.791985 105.161571 186.791985 94.8739524 189.439665 94.8739524zM202.463467 105.162619L205.239853 105.162619 205.239853 94.872381 202.463467 94.872381 202.463467 105.162619zM202.463467 93.9452381L205.239853 93.9452381 205.239853 91.0695238 202.463467 91.0695238 202.463467 93.9452381zM212.908932 97.2245476L210.852252 97.2245476 210.852252 101.3155C210.852252 102.672167 210.944185 102.973357 212.131439 102.973357 212.383599 102.973357 212.743452 102.934071 213.063905 102.894786L213.063905 105.141929C212.512305 105.285976 211.834625 105.364548 211.322425 105.364548 210.529172 105.364548 209.473252 105.244071 208.845479 104.69669 208.070612 104.013119 208.070612 102.77431 208.070612 101.763357L208.070612 97.2245476 206.505119 97.2245476 206.505119 94.8569286 208.183559 94.8569286 208.433092 91.8345476 210.852252 91.6355 210.852252 94.8569286 212.908932 94.8569286 212.908932 97.2245476zM220.160633 97.2245476L218.101327 97.2245476 218.101327 101.3155C218.101327 102.672167 218.19326 102.973357 219.38314 102.973357 219.6353 102.973357 219.99778 102.934071 220.310353 102.894786L220.310353 105.141929C219.76926 105.285976 219.0837 105.364548 218.5715 105.364548 217.7835 105.364548 216.7197 105.244071 216.099807 104.69669 215.322313 104.013119 215.322313 102.77431 215.322313 101.763357L215.322313 97.2245476 213.754193 97.2245476 213.754193 94.8569286 215.432633 94.8569286 215.684793 91.8345476 218.101327 91.6355 218.101327 94.8569286 220.160633 94.8569286 220.160633 97.2245476zM227.768773 98.7603571C227.713613 97.649881 227.372147 96.6179762 226.16388 96.6179762 224.9346 96.6179762 224.459173 97.5896429 224.369867 98.7603571L227.768773 98.7603571zM224.39088 100.522976L224.369867 101.028452C224.369867 102.24369 225.010773 103.23631 226.21904 103.23631 227.07008 103.23631 227.923747 102.568452 227.923747 101.617738L230.49 101.816786C230.49 102.324881 229.376293 105.362976 226.129733 105.362976 223.250907 105.362976 221.38072 103.215357 221.38072 100.161548 221.38072 97.1234524 223.06704 94.6746429 226.050933 94.6746429 227.390533 94.6746429 228.769533 95.3241667 229.56804 96.4922619 230.358667 97.6708333 230.566173 99.1270238 230.550413 100.522976L224.39088 100.522976zM237.66868 99.451C237.66868 98.463619 237.58988 96.758619 236.323827 96.758619 234.73732 96.758619 234.68216 98.9874286 234.68216 100.221 234.68216 101.336714 234.834507 103.21981 236.21088 103.21981 236.72308 103.21981 237.193253 102.853143 237.421773 102.389571 237.647667 101.923381 237.66868 101.373381 237.66868 100.870524L237.66868 99.451zM237.805267 105.163143L237.805267 103.562905 237.757987 103.562905C237.23528 104.657667 236.436773 105.36481 235.21012 105.36481 232.504653 105.36481 231.745547 102.531 231.745547 100.142429 231.745547 97.691 232.470507 94.6738571 235.270533 94.6738571 236.342213 94.6738571 237.064547 95.0169524 237.66868 95.9676667L237.66868 91.2690952 240.44244 91.2690952 240.44244 105.163143 237.805267 105.163143zM174.5814 34.1652143L174.5814 29.8464048 183.270413 29.8464048 183.270413 42.2292619 181.01936 42.2292619 180.312787 39.5630714C178.739413 41.6556905 177.018947 42.567119 174.547253 42.567119 168.358827 42.567119 165.800453 36.9335476 165.800453 30.8599762 165.800453 24.5795 168.60836 18.7495 174.980653 18.7495 179.543173 18.7495 182.624253 21.7823571 183.270413 26.6747381L178.581813 27.3845C178.369053 25.0561667 177.22908 23.097119 174.8572 23.097119 171.379493 23.097119 170.85416 28.0575952 170.85416 30.9228333 170.85416 33.9295 171.623773 38.1828333 175.072587 38.1828333 177.22908 38.1828333 178.707893 36.5275952 178.581813 34.1652143L174.5814 34.1652143z" mask="url(#pg-13-copy-b)"/>
    <polygon fill="#FFF" points="192.228 23.57 192.228 28.258 200.239 28.258 200.239 32.614 192.228 32.614 192.228 37.739 202.393 37.739 202.393 42.231 187.3 42.231 187.3 19.084 202.393 19.084 202.393 23.57" mask="url(#pg-13-copy-b)"/>
    <polygon fill="#FFF" points="221.607 42.232 217.384 42.232 209.28 26.678 209.157 26.678 209.157 42.232 205.338 42.232 205.338 19.082 210.667 19.082 217.723 32.68 217.788 32.68 217.788 19.082 221.607 19.082" mask="url(#pg-13-copy-b)"/>
    <polygon fill="#FFF" points="230.78 23.57 230.78 28.258 238.792 28.258 238.792 32.614 230.78 32.614 230.78 37.739 240.945 37.739 240.945 42.231 225.847 42.231 225.847 19.084 240.945 19.084 240.945 23.57" mask="url(#pg-13-copy-b)"/>
    <path fill="#FFF" d="M248.915541 29.1036429L251.623635 29.1036429C252.642781 29.1036429 253.756488 29.2057857 254.652181 28.6322143 255.442808 28.0926905 255.881461 27.0110238 255.881461 26.0000714 255.881461 25.0886429 255.387648 24.109119 254.675821 23.6376905 253.848421 23.064119 252.427395 23.2003095 251.502808 23.2003095L248.915541 23.2003095 248.915541 29.1036429zM248.915541 42.2276905L243.985288 42.2276905 243.985288 19.0805476 252.894941 19.0805476C254.770381 19.0805476 256.679968 19.1172143 258.313755 20.2617381 260.039475 21.5110238 260.995581 23.773881 260.995581 26.034119 260.995581 28.6662619 259.606075 31.0967381 257.328755 32.0055476L261.242488 42.2276905 255.755381 42.2276905 252.521955 33.0872143 248.915541 33.0872143 248.915541 42.2276905zM274.046963 33.2189524L271.801163 25.0894286 269.547483 33.2189524 274.046963 33.2189524zM281.811389 42.2284762L276.484509 42.2284762 275.192189 37.4722857 268.352349 37.4722857 267.025883 42.2284762 262.684003 42.2284762 269.458176 19.0813333 275.192189 19.0813333 281.811389 42.2284762z" mask="url(#pg-13-copy-b)"/>
    <polygon fill="#FFF" points="297.606 37.639 297.606 42.232 284.176 42.232 284.176 19.083 289.104 19.083 289.104 37.639" mask="url(#pg-13-copy-b)"/>
    <path fill="#FFF" d="M164.637628 64.7114286L162.386575 56.5819048 160.132895 64.7114286 164.637628 64.7114286zM172.402055 73.7209524L167.072548 73.7209524 165.780228 68.9647619 158.940388 68.9647619 157.608668 73.7209524 153.266788 73.7209524 160.040961 50.5764286 165.780228 50.5764286 172.402055 73.7209524zM191.460885 64.578381C191.460885 67.111 191.495032 69.7431429 189.740419 71.6314762 188.040965 73.4857619 185.550885 74.0619524 183.234165 74.0619524 181.019885 74.0619524 178.461512 73.6874286 176.767312 72.0662381 174.668605 70.0757619 174.576672 67.4148095 174.576672 64.578381L174.576672 50.5717143 179.940325 50.5717143 179.940325 64.578381C179.940325 65.6574286 179.906179 67.2105238 180.402619 68.156 181.048779 69.368619 182.372619 69.7090952 183.573005 69.7090952 184.558005 69.7090952 186.007925 69.368619 186.627819 68.4624286 187.300245 67.4148095 187.213565 65.793619 187.213565 64.578381L187.213565 50.5717143 191.460933 50.5717143 191.460885 64.578381zM200.261795 69.3678333L201.924475 69.3678333C203.986408 69.3678333 205.312875 68.9304524 206.455475 66.9033095 207.285501 65.4235476 207.632221 63.6373571 207.632221 61.9140238 207.632221 60.0911667 207.127901 58.1347381 206.116635 56.6837857 204.974035 55.0652143 203.710608 54.826881 201.955995 54.826881L200.261795 54.826881 200.261795 69.3678333zM201.462181 50.5787857C204.511741 50.5787857 207.127901 50.7752143 209.439368 53.1742619 211.721941 55.5392619 212.706941 58.7397381 212.706941 62.0790238 212.706941 65.1878333 211.842768 68.1892619 209.959448 70.5149762 207.871248 73.0449762 205.281355 73.7233095 202.294835 73.7233095L195.336795 73.7233095 195.336795 50.5787857 201.462181 50.5787857z" mask="url(#pg-13-copy-b)"/>
    <polygon fill="#FFF" points="215.993 73.721 220.929 73.721 220.929 50.571 215.993 50.571" mask="url(#pg-13-copy-b)"/>
    <polygon fill="#FFF" points="230.254 55.064 230.254 59.755 238.263 59.755 238.263 64.107 230.254 64.107 230.254 69.236 240.42 69.236 240.42 73.722 225.322 73.722 225.322 50.575 240.42 50.575 240.42 55.064" mask="url(#pg-13-copy-b)"/>
    <polygon fill="#FFF" points="259.638 73.722 255.417 73.722 247.316 58.168 247.185 58.168 247.185 73.722 243.373 73.722 243.373 50.575 248.703 50.575 255.755 64.173 255.818 64.173 255.818 50.575 259.638 50.575" mask="url(#pg-13-copy-b)"/>
    <path fill="#FFF" d="M275.805516,59.551381 C275.771369,56.9873333 274.970236,54.5882857 272.262143,54.5882857 C268.776556,54.5882857 268.437716,59.5854286 268.437716,62.3851905 C268.437716,65.5542381 268.776556,69.6399524 272.506423,69.6399524 C274.820516,69.6399524 275.892196,67.5132857 276.167996,65.2870952 L280.982676,65.6275714 C280.452089,70.9206667 277.124103,74.0635238 272.262143,74.0635238 C265.976529,74.0635238 262.924343,68.4587619 262.924343,62.1494762 C262.924343,55.7380476 266.068463,50.2380476 272.411863,50.2380476 C277.715103,50.2380476 280.425823,53.611381 280.982676,59.1820952 L275.805516,59.551381 Z" mask="url(#pg-13-copy-b)"/>
    <polygon fill="#FFF" points="289.317 55.064 289.317 59.755 297.331 59.755 297.331 64.107 289.317 64.107 289.317 69.236 299.488 69.236 299.488 73.722 284.389 73.722 284.389 50.575 299.488 50.575 299.488 55.064" mask="url(#pg-13-copy-b)"/>
    <path fill="#FFF" d="M313.125196 57.1895238C312.513183 55.2304762 311.367956 54.4578571 309.484636 54.4578571 308.163423 54.4578571 306.558529 54.8271429 306.558529 56.6159524 306.558529 58.302619 308.412956 58.7059524 309.608089 58.9416667 311.331183 59.347619 313.645276 59.8216667 315.124089 60.8980952 316.849809 62.15 317.895223 64.072381 317.895223 66.3666667 317.895223 68.6269048 316.910223 70.787619 315.276436 72.1678571 313.584863 73.6214286 311.278649 74.0614286 309.148423 74.0614286 305.176903 74.0614286 301.570489 72.1678571 300.614383 67.6447619L305.176903 66.5002381C305.788916 68.9307143 307.393809 69.7740476 309.579196 69.7740476 310.997596 69.7740476 312.880916 69.2004762 312.880916 67.2780952 312.880916 65.3530952 310.474889 64.9838095 309.179943 64.68 305.423809 63.8366667 301.720209 62.6214286 301.720209 57.5588095 301.720209 55.4007143 302.495076 53.5097619 304.000156 52.1269048 305.547263 50.71 307.362289 50.2385714 309.311276 50.2385714 313.001743 50.2385714 316.019783 51.6554762 317.314729 55.6704762L313.125196 57.1895238zM65.4541693 55.8849762C64.881556 53.4256905 62.8432627 53.4152143 59.8409827 52.5273571 53.8942093 51.752119 52.4416627 46.8702143 59.0477293 46.521881L68.7952893 46.521881C74.0039693 46.466881 85.5376627 46.2887857 88.8393827 46.4433095 94.8386893 46.5559286 96.1467693 50.536881 88.8866627 52.3230714 86.9797027 52.7892619 83.8382093 54.4078333 83.7751693 57.8754524 83.7515293 59.7166429 83.7751693 71.0204524 83.7751693 71.0204524 83.7751693 71.0204524 80.586396 78.5685476 49.4157427 78.0525952 30.209556 77.651881 16.6901027 77.1464048 15.915236 47.786881 15.8180493 9.72164286 41.730116 14.0404524 51.8112627 13.3359286 66.1082093 13.5375952 73.5994627 15.1745 77.757476 16.5992619 84.187556 18.6997381 84.4581027 21.5728333 84.5526627 26.7637857 84.6393427 31.9914048 83.383796 36.8890238 77.0193827 37.1378333 68.0939693 37.8449762 67.411036 34.1756905 66.7780093 30.8704524 65.4541693 21.0830714 64.763356 20.5540238 53.3399827 20.4728333 36.7683427 20.3628333 34.9323027 28.4452143 35.323676 46.6764048 35.6178627 60.4316429 35.9015427 70.4102143 52.0870627 70.2085476 60.7393027 70.226881 65.6249027 69.6480714 65.6249027 63.8364048 65.6249027 63.8364048 66.0740627 58.6140238 65.4541693 55.8849762" mask="url(#pg-13-copy-b)"/>
    <mask id="pg-13-copy-d" fill="#fff">
      <use xlink:href="#pg-13-copy-c"/>
    </mask>
    <path fill="#FFF" d="M384.891508,102.242538 L385.957935,102.242538 C387.171455,102.242538 388.203735,101.805157 388.203735,100.665871 C388.203735,99.8592048 387.615361,99.0577762 385.957935,99.0577762 C385.482508,99.0577762 385.151548,99.0918238 384.891508,99.1311095 L384.891508,102.242538 Z M384.891508,107.341824 L383.425828,107.341824 L383.425828,98.1411095 C384.192815,98.0284905 384.933535,97.9158714 386.031481,97.9158714 C387.431495,97.9158714 388.345575,98.2118238 388.899801,98.6177762 C389.448775,99.0184905 389.748215,99.6418238 389.748215,100.521824 C389.748215,101.729205 388.936575,102.465157 387.946321,102.75849 L387.946321,102.834443 C388.752708,102.975871 389.304308,103.706586 389.488175,105.06849 C389.711441,106.49849 389.929455,107.045871 390.079175,107.341824 L388.532068,107.341824 C388.311428,107.045871 388.090788,106.202538 387.904295,104.995157 C387.681028,103.821824 387.095281,103.384443 385.921161,103.384443 L384.891508,103.384443 L384.891508,107.341824 Z M386.433361,95.5692048 C382.798055,95.5692048 379.819415,98.6911095 379.819415,102.53849 C379.819415,106.459205 382.798055,109.541824 386.470135,109.541824 C390.152721,109.575871 393.091961,106.459205 393.091961,102.572538 C393.091961,98.6911095 390.152721,95.5692048 386.470135,95.5692048 L386.433361,95.5692048 Z M386.470135,94.2858714 C390.995881,94.2858714 394.597041,97.9551571 394.597041,102.53849 C394.597041,107.192538 390.995881,110.822538 386.433361,110.822538 C381.915495,110.822538 378.240788,107.192538 378.240788,102.53849 C378.240788,97.9551571 381.915495,94.2858714 386.433361,94.2858714 L386.470135,94.2858714 Z" mask="url(#pg-13-copy-d)"/>
  </g>
</svg>
